999
dxfrw 0.5.10
0
SECTION
2
HEADER
9
$ACADVER
1
AC1021
9
$HANDSEED
5
20000
9
$DWGCODEPAGE
3
ANSI_1252
9
$INSBASE
10
0
20
0
30
0
9
$EXTMIN
10
-398.587051417
20
0
30
0
9
$EXTMAX
10
469.9
20
469.9
30
0
9
$LIMMIN
10
0
20
0
9
$LIMMAX
10
420
20
297
9
$ORTHOMODE
70
0
9
$LTSCALE
40
1
9
$TEXTSTYLE
7
STANDARD
9
$CLAYER
8
0
9
$DIMASZ
40
2.5
9
$DIMLFAC
40
1
9
$DIMSCALE
40
1
9
$DIMEXO
40
0.625
9
$DIMEXE
40
1.25
9
$DIMTXT
40
2.5
9
$DIMTSZ
40
0
9
$DIMAUNIT
70
0
9
$DIMADEC
70
0
9
$DIMLUNIT
70
2
9
$DIMSTYLE
2
STANDARD
9
$DIMGAP
40
0.625
9
$DIMTIH
70
0
9
$LUNITS
70
2
9
$LUPREC
70
4
9
$AUNITS
70
0
9
$AUPREC
70
2
9
$SPLINESEGS
70
8
9
$GRIDMODE
70
1
9
$SNAPSTYLE
70
0
9
$PINSBASE
10
0
20
0
30
0
9
$PLIMMIN
10
0
20
0
9
$PLIMMAX
10
210
20
297
9
$INSUNITS
70
4
9
$PSVPSCALE
40
1
0
ENDSEC
0
SECTION
2
CLASSES
0
ENDSEC
0
SECTION
2
TABLES
0
TABLE
2
VPORT
5
8
330
0
100
AcDbSymbolTable
70
1
0
VPORT
5
31
330
2
100
AcDbSymbolTableRecord
100
AcDbViewportTableRecord
2
*ACTIVE
70
0
10
0
20
0
11
1
21
1
12
295.725589041
22
192.17709589
13
0
23
0
14
10
24
10
15
10
25
10
16
0
26
0
36
1
17
0
27
0
37
0
40
334.02739726
41
2.08533333333
42
50
43
0
44
0
50
0
51
0
71
0
72
100
73
1
74
3
75
0
76
1
77
0
78
0
281
0
65
1
110
0
120
0
130
0
111
1
121
0
131
0
112
0
122
1
132
0
79
0
146
0
348
10020
60
7
61
5
292
1
282
1
141
0
142
0
63
250
421
3358443
0
ENDTAB
0
TABLE
2
LTYPE
5
5
330
0
100
AcDbSymbolTable
70
4
0
LTYPE
5
14
330
5
100
AcDbSymbolTableRecord
100
AcDbLinetypeTableRecord
2
ByBlock
70
0
3

72
65
73
0
40
0
0
LTYPE
5
15
330
5
100
AcDbSymbolTableRecord
100
AcDbLinetypeTableRecord
2
ByLayer
70
0
3

72
65
73
0
40
0
0
LTYPE
5
16
330
5
100
AcDbSymbolTableRecord
100
AcDbLinetypeTableRecord
2
Continuous
70
0
3
Solid line
72
65
73
0
40
0
0
LTYPE
5
32
330
5
100
AcDbSymbolTableRecord
100
AcDbLinetypeTableRecord
2
DOT
70
0
3
Dot . . . . . . . . . . . . . . . . . . . . . .
72
65
73
2
40
6.35
49
0
74
0
49
-6.35
74
0
0
LTYPE
5
33
330
5
100
AcDbSymbolTableRecord
100
AcDbLinetypeTableRecord
2
DOT2
70
0
3
Dot (.5x) .....................................
72
65
73
2
40
3.175
49
0
74
0
49
-3.175
74
0
0
LTYPE
5
34
330
5
100
AcDbSymbolTableRecord
100
AcDbLinetypeTableRecord
2
DOTX2
70
0
3
Dot (2x) .  .  .  .  .  .  .  .  .  .  .  .  .
72
65
73
2
40
12.7
49
0
74
0
49
-12.7
74
0
0
LTYPE
5
35
330
5
100
AcDbSymbolTableRecord
100
AcDbLinetypeTableRecord
2
DASHED
70
0
3
Dot . . . . . . . . . . . . . . . . . . . . . .
72
65
73
2
40
19.05
49
12.7
74
0
49
-6.35
74
0
0
LTYPE
5
36
330
5
100
AcDbSymbolTableRecord
100
AcDbLinetypeTableRecord
2
DASHED2
70
0
3
Dashed (.5x) _ _ _ _ _ _ _ _ _ _ _ _ _ _ _ _ _
72
65
73
2
40
9.525
49
6.35
74
0
49
-3.175
74
0
0
LTYPE
5
37
330
5
100
AcDbSymbolTableRecord
100
AcDbLinetypeTableRecord
2
DASHEDX2
70
0
3
Dashed (2x) ____  ____  ____  ____  ____  ___
72
65
73
2
40
38.1
49
25.4
74
0
49
-12.7
74
0
0
LTYPE
5
38
330
5
100
AcDbSymbolTableRecord
100
AcDbLinetypeTableRecord
2
DASHDOT
70
0
3
Dash dot __ . __ . __ . __ . __ . __ . __ . __
72
65
73
4
40
25.4
49
12.7
74
0
49
-6.35
74
0
49
0
74
0
49
-6.35
74
0
0
LTYPE
5
39
330
5
100
AcDbSymbolTableRecord
100
AcDbLinetypeTableRecord
2
DASHDOT2
70
0
3
Dash dot (.5x) _._._._._._._._._._._._._._._.
72
65
73
4
40
12.7
49
6.35
74
0
49
-3.175
74
0
49
0
74
0
49
-3.175
74
0
0
LTYPE
5
3A
330
5
100
AcDbSymbolTableRecord
100
AcDbLinetypeTableRecord
2
DASHDOTX2
70
0
3
Dash dot (2x) ____  .  ____  .  ____  .  ___
72
65
73
4
40
50.8
49
25.4
74
0
49
-12.7
74
0
49
0
74
0
49
-12.7
74
0
0
LTYPE
5
3B
330
5
100
AcDbSymbolTableRecord
100
AcDbLinetypeTableRecord
2
DIVIDE
70
0
3
Divide ____ . . ____ . . ____ . . ____ . . ____
72
65
73
6
40
31.75
49
12.7
74
0
49
-6.35
74
0
49
0
74
0
49
-6.35
74
0
49
0
74
0
49
-6.35
74
0
0
LTYPE
5
3C
330
5
100
AcDbSymbolTableRecord
100
AcDbLinetypeTableRecord
2
DIVIDE2
70
0
3
Divide (.5x) __..__..__..__..__..__..__..__.._
72
65
73
6
40
15.875
49
6.35
74
0
49
-3.175
74
0
49
0
74
0
49
-3.175
74
0
49
0
74
0
49
-3.175
74
0
0
LTYPE
5
3D
330
5
100
AcDbSymbolTableRecord
100
AcDbLinetypeTableRecord
2
DIVIDEX2
70
0
3
Divide (2x) ________  .  .  ________  .  .  _
72
65
73
6
40
63.5
49
25.4
74
0
49
-12.7
74
0
49
0
74
0
49
-12.7
74
0
49
0
74
0
49
-12.7
74
0
0
LTYPE
5
3E
330
5
100
AcDbSymbolTableRecord
100
AcDbLinetypeTableRecord
2
BORDER
70
0
3
Border __ __ . __ __ . __ __ . __ __ . __ __ .
72
65
73
6
40
44.45
49
12.7
74
0
49
-6.35
74
0
49
12.7
74
0
49
-6.35
74
0
49
0
74
0
49
-6.35
74
0
0
LTYPE
5
3F
330
5
100
AcDbSymbolTableRecord
100
AcDbLinetypeTableRecord
2
BORDER2
70
0
3
Border (.5x) __.__.__.__.__.__.__.__.__.__.__.
72
65
73
6
40
22.225
49
6.35
74
0
49
-3.175
74
0
49
6.35
74
0
49
-3.175
74
0
49
0
74
0
49
-3.175
74
0
0
LTYPE
5
40
330
5
100
AcDbSymbolTableRecord
100
AcDbLinetypeTableRecord
2
BORDERX2
70
0
3
Border (2x) ____  ____  .  ____  ____  .  ___
72
65
73
6
40
88.9
49
25.4
74
0
49
-12.7
74
0
49
25.4
74
0
49
-12.7
74
0
49
0
74
0
49
-12.7
74
0
0
LTYPE
5
41
330
5
100
AcDbSymbolTableRecord
100
AcDbLinetypeTableRecord
2
CENTER
70
0
3
Center ____ _ ____ _ ____ _ ____ _ ____ _ ____
72
65
73
4
40
50.8
49
31.75
74
0
49
-6.35
74
0
49
6.35
74
0
49
-6.35
74
0
0
LTYPE
5
42
330
5
100
AcDbSymbolTableRecord
100
AcDbLinetypeTableRecord
2
CENTER2
70
0
3
Center (.5x) ___ _ ___ _ ___ _ ___ _ ___ _ ___
72
65
73
4
40
28.575
49
19.05
74
0
49
-3.175
74
0
49
3.175
74
0
49
-3.175
74
0
0
LTYPE
5
43
330
5
100
AcDbSymbolTableRecord
100
AcDbLinetypeTableRecord
2
CENTERX2
70
0
3
Center (2x) ________  __  ________  __  _____
72
65
73
4
40
101.6
49
63.5
74
0
49
-12.7
74
0
49
12.7
74
0
49
-12.7
74
0
0
ENDTAB
0
TABLE
2
LAYER
5
2
330
0
100
AcDbSymbolTable
70
1
0
LAYER
5
10
330
2
100
AcDbSymbolTableRecord
100
AcDbLayerTableRecord
2
0
70
0
62
7
6
CONTINUOUS
370
0
390
F
0
LAYER
5
44
330
2
100
AcDbSymbolTableRecord
100
AcDbLayerTableRecord
2
BoardLayout
70
0
62
3
6
CONTINUOUS
370
0
390
F
0
LAYER
5
45
330
2
100
AcDbSymbolTableRecord
100
AcDbLayerTableRecord
2
Logo
70
0
62
7
6
CONTINUOUS
370
0
390
F
0
ENDTAB
0
TABLE
2
STYLE
5
3
330
0
100
AcDbSymbolTable
70
3
0
STYLE
5
46
330
2
100
AcDbSymbolTableRecord
100
AcDbTextStyleTableRecord
2
Standard
70
0
40
0
41
1
50
0
71
0
42
1
3
txt
4

0
ENDTAB
0
TABLE
2
VIEW
5
6
330
0
100
AcDbSymbolTable
70
0
0
ENDTAB
0
TABLE
2
UCS
5
7
330
0
100
AcDbSymbolTable
70
0
0
ENDTAB
0
TABLE
2
APPID
5
9
330
0
100
AcDbSymbolTable
70
1
0
APPID
5
12
330
9
100
AcDbSymbolTableRecord
100
AcDbRegAppTableRecord
2
ACAD
70
0
0
ENDTAB
0
TABLE
2
DIMSTYLE
5
A
330
0
100
AcDbSymbolTable
70
1
100
AcDbDimStyleTable
71
1
0
DIMSTYLE
105
47
330
A
100
AcDbSymbolTableRecord
100
AcDbDimStyleTableRecord
2
Standard
70
0
40
1
41
2.5
42
0.625
43
0.38
44
1.25
45
0
46
0
47
0
48
0
140
2.5
141
0.09
142
0
143
25.4
144
1
145
0
146
1
147
0.625
148
0
71
0
72
0
73
0
74
1
75
0
76
0
77
0
78
0
79
0
170
0
171
2
172
0
173
0
174
0
175
0
176
0
177
0
178
0
179
0
271
4
272
4
273
2
274
2
275
0
276
0
277
2
278
46
279
0
280
0
281
0
282
0
283
1
284
0
285
0
286
0
288
0
289
3
340
Standard
341

371
-2
372
-2
0
ENDTAB
0
TABLE
2
BLOCK_RECORD
5
1
330
0
100
AcDbSymbolTable
70
2
0
BLOCK_RECORD
5
1F
330
1
100
AcDbSymbolTableRecord
100
AcDbBlockTableRecord
2
*Model_Space
70
0
280
1
281
0
0
BLOCK_RECORD
5
1E
330
1
100
AcDbSymbolTableRecord
100
AcDbBlockTableRecord
2
*Paper_Space
70
0
280
1
281
0
0
ENDTAB
0
ENDSEC
0
SECTION
2
BLOCKS
0
BLOCK
5
20
330
1F
100
AcDbEntity
8
0
100
AcDbBlockBegin
2
*Model_Space
70
0
10
0
20
0
30
0
3
*Model_Space
1

0
ENDBLK
5
21
330
1F
100
AcDbEntity
8
0
100
AcDbBlockEnd
0
BLOCK
5
1C
330
1B
100
AcDbEntity
8
0
100
AcDbBlockBegin
2
*Paper_Space
70
0
10
0
20
0
30
0
3
*Paper_Space
1

0
ENDBLK
5
1D
330
1F
100
AcDbEntity
8
0
100
AcDbBlockEnd
0
ENDSEC
0
SECTION
2
ENTITIES
0
LINE
5
48
100
AcDbEntity
8
BoardLayout
6
ByLayer
62
256
370
-1
100
AcDbLine
10
0
20
0
11
63.5
21
0
0
LINE
5
49
100
AcDbEntity
8
BoardLayout
6
ByLayer
62
256
370
-1
100
AcDbLine
10
0
20
0
11
3.88825358729e-15
21
63.5
0
LINE
5
4A
100
AcDbEntity
8
BoardLayout
6
ByLayer
62
256
370
-1
100
AcDbLine
10
63.5
20
0
11
63.5
21
63.5
0
LINE
5
4B
100
AcDbEntity
8
BoardLayout
6
ByLayer
62
256
370
-1
100
AcDbLine
10
3.88825358729e-15
20
63.5
11
63.5
21
63.5
0
LINE
5
4C
100
AcDbEntity
8
BoardLayout
6
ByLayer
62
256
370
-1
100
AcDbLine
10
63.5
20
63.5
11
101.6
21
63.5
0
LINE
5
4D
100
AcDbEntity
8
BoardLayout
6
ByLayer
62
256
370
-1
100
AcDbLine
10
63.5
20
0
11
101.6
21
0
0
LINE
5
4E
100
AcDbEntity
8
BoardLayout
6
ByLayer
62
256
370
-1
100
AcDbLine
10
101.6
20
63.5
11
101.6
21
0
0
LINE
5
4F
100
AcDbEntity
8
BoardLayout
6
ByLayer
62
256
370
-1
100
AcDbLine
10
101.6
20
63.5
11
139.7
21
63.5
0
LINE
5
50
100
AcDbEntity
8
BoardLayout
6
ByLayer
62
256
370
-1
100
AcDbLine
10
101.6
20
0
11
139.7
21
0
0
LINE
5
51
100
AcDbEntity
8
BoardLayout
6
ByLayer
62
256
370
-1
100
AcDbLine
10
139.7
20
63.5
11
139.7
21
0
0
LINE
5
52
100
AcDbEntity
8
BoardLayout
6
ByLayer
62
256
370
-1
100
AcDbLine
10
139.7
20
63.5
11
177.8
21
63.5
0
LINE
5
53
100
AcDbEntity
8
BoardLayout
6
ByLayer
62
256
370
-1
100
AcDbLine
10
139.7
20
0
11
177.8
21
0
0
LINE
5
54
100
AcDbEntity
8
BoardLayout
6
ByLayer
62
256
370
-1
100
AcDbLine
10
177.8
20
63.5
11
177.8
21
0
0
LINE
5
55
100
AcDbEntity
8
BoardLayout
6
ByLayer
62
256
370
-1
100
AcDbLine
10
177.8
20
63.5
11
215.9
21
63.5
0
LINE
5
56
100
AcDbEntity
8
BoardLayout
6
ByLayer
62
256
370
-1
100
AcDbLine
10
177.8
20
0
11
215.9
21
0
0
LINE
5
57
100
AcDbEntity
8
BoardLayout
6
ByLayer
62
256
370
-1
100
AcDbLine
10
215.9
20
63.5
11
215.9
21
0
0
LINE
5
58
100
AcDbEntity
8
BoardLayout
6
ByLayer
62
256
370
-1
100
AcDbLine
10
215.9
20
63.5
11
254
21
63.5
0
LINE
5
59
100
AcDbEntity
8
BoardLayout
6
ByLayer
62
256
370
-1
100
AcDbLine
10
215.9
20
0
11
254
21
0
0
LINE
5
5A
100
AcDbEntity
8
BoardLayout
6
ByLayer
62
256
370
-1
100
AcDbLine
10
254
20
63.5
11
254
21
0
0
LINE
5
5B
100
AcDbEntity
8
BoardLayout
6
ByLayer
62
256
370
-1
100
AcDbLine
10
254
20
63.5
11
292.1
21
63.5
0
LINE
5
5C
100
AcDbEntity
8
BoardLayout
6
ByLayer
62
256
370
-1
100
AcDbLine
10
254
20
0
11
292.1
21
0
0
LINE
5
5D
100
AcDbEntity
8
BoardLayout
6
ByLayer
62
256
370
-1
100
AcDbLine
10
292.1
20
63.5
11
292.1
21
0
0
LINE
5
5E
100
AcDbEntity
8
BoardLayout
6
ByLayer
62
256
370
-1
100
AcDbLine
10
292.1
20
63.5
11
330.2
21
63.5
0
LINE
5
5F
100
AcDbEntity
8
BoardLayout
6
ByLayer
62
256
370
-1
100
AcDbLine
10
292.1
20
0
11
330.2
21
0
0
LINE
5
60
100
AcDbEntity
8
BoardLayout
6
ByLayer
62
256
370
-1
100
AcDbLine
10
330.2
20
63.5
11
330.2
21
0
0
LINE
5
61
100
AcDbEntity
8
BoardLayout
6
ByLayer
62
256
370
-1
100
AcDbLine
10
330.2
20
63.5
11
368.3
21
63.5
0
LINE
5
62
100
AcDbEntity
8
BoardLayout
6
ByLayer
62
256
370
-1
100
AcDbLine
10
330.2
20
0
11
368.3
21
0
0
LINE
5
63
100
AcDbEntity
8
BoardLayout
6
ByLayer
62
256
370
-1
100
AcDbLine
10
368.3
20
63.5
11
368.3
21
0
0
LINE
5
64
100
AcDbEntity
8
BoardLayout
6
ByLayer
62
256
370
-1
100
AcDbLine
10
368.3
20
63.5
11
406.4
21
63.5
0
LINE
5
65
100
AcDbEntity
8
BoardLayout
6
ByLayer
62
256
370
-1
100
AcDbLine
10
368.3
20
0
11
406.4
21
0
0
LINE
5
66
100
AcDbEntity
8
BoardLayout
6
ByLayer
62
256
370
-1
100
AcDbLine
10
406.4
20
63.5
11
406.4
21
0
0
LINE
5
67
100
AcDbEntity
8
BoardLayout
6
ByLayer
62
256
370
-1
100
AcDbLine
10
406.4
20
0
11
469.9
21
0
0
LINE
5
68
100
AcDbEntity
8
BoardLayout
6
ByLayer
62
256
370
-1
100
AcDbLine
10
469.9
20
0
11
469.9
21
63.5
0
LINE
5
69
100
AcDbEntity
8
BoardLayout
6
ByLayer
62
256
370
-1
100
AcDbLine
10
406.4
20
63.5
11
469.9
21
63.5
0
LINE
5
6A
100
AcDbEntity
8
BoardLayout
6
ByLayer
62
256
370
-1
100
AcDbLine
10
3.88825358729e-15
20
63.5
11
6.22120573967e-15
21
101.6
0
LINE
5
6B
100
AcDbEntity
8
BoardLayout
6
ByLayer
62
256
370
-1
100
AcDbLine
10
63.5
20
63.5
11
63.5
21
101.6
0
LINE
5
6C
100
AcDbEntity
8
BoardLayout
6
ByLayer
62
256
370
-1
100
AcDbLine
10
6.22120573967e-15
20
101.6
11
63.5
21
101.6
0
LINE
5
6D
100
AcDbEntity
8
BoardLayout
6
ByLayer
62
256
370
-1
100
AcDbLine
10
6.22120573967e-15
20
101.6
11
8.55415789204e-15
21
139.7
0
LINE
5
6E
100
AcDbEntity
8
BoardLayout
6
ByLayer
62
256
370
-1
100
AcDbLine
10
63.5
20
101.6
11
63.5
21
139.7
0
LINE
5
6F
100
AcDbEntity
8
BoardLayout
6
ByLayer
62
256
370
-1
100
AcDbLine
10
8.55415789204e-15
20
139.7
11
63.5
21
139.7
0
LINE
5
70
100
AcDbEntity
8
BoardLayout
6
ByLayer
62
256
370
-1
100
AcDbLine
10
8.55415789204e-15
20
139.7
11
1.08871100444e-14
21
177.8
0
LINE
5
71
100
AcDbEntity
8
BoardLayout
6
ByLayer
62
256
370
-1
100
AcDbLine
10
63.5
20
139.7
11
63.5
21
177.8
0
LINE
5
72
100
AcDbEntity
8
BoardLayout
6
ByLayer
62
256
370
-1
100
AcDbLine
10
1.08871100444e-14
20
177.8
11
63.5
21
177.8
0
LINE
5
73
100
AcDbEntity
8
BoardLayout
6
ByLayer
62
256
370
-1
100
AcDbLine
10
1.08871100444e-14
20
177.8
11
1.32200621968e-14
21
215.9
0
LINE
5
74
100
AcDbEntity
8
BoardLayout
6
ByLayer
62
256
370
-1
100
AcDbLine
10
63.5
20
177.8
11
63.5
21
215.9
0
LINE
5
75
100
AcDbEntity
8
BoardLayout
6
ByLayer
62
256
370
-1
100
AcDbLine
10
1.32200621968e-14
20
215.9
11
63.5
21
215.9
0
LINE
5
76
100
AcDbEntity
8
BoardLayout
6
ByLayer
62
256
370
-1
100
AcDbLine
10
1.32200621968e-14
20
215.9
11
1.55530143492e-14
21
254
0
LINE
5
77
100
AcDbEntity
8
BoardLayout
6
ByLayer
62
256
370
-1
100
AcDbLine
10
63.5
20
215.9
11
63.5
21
254
0
LINE
5
78
100
AcDbEntity
8
BoardLayout
6
ByLayer
62
256
370
-1
100
AcDbLine
10
1.55530143492e-14
20
254
11
63.5
21
254
0
LINE
5
79
100
AcDbEntity
8
BoardLayout
6
ByLayer
62
256
370
-1
100
AcDbLine
10
1.55530143492e-14
20
254
11
1.78859665015e-14
21
292.1
0
LINE
5
7A
100
AcDbEntity
8
BoardLayout
6
ByLayer
62
256
370
-1
100
AcDbLine
10
63.5
20
254
11
63.5
21
292.1
0
LINE
5
7B
100
AcDbEntity
8
BoardLayout
6
ByLayer
62
256
370
-1
100
AcDbLine
10
1.78859665015e-14
20
292.1
11
63.5
21
292.1
0
LINE
5
7C
100
AcDbEntity
8
BoardLayout
6
ByLayer
62
256
370
-1
100
AcDbLine
10
1.78859665015e-14
20
292.1
11
2.02189186539e-14
21
330.2
0
LINE
5
7D
100
AcDbEntity
8
BoardLayout
6
ByLayer
62
256
370
-1
100
AcDbLine
10
63.5
20
292.1
11
63.5
21
330.2
0
LINE
5
7E
100
AcDbEntity
8
BoardLayout
6
ByLayer
62
256
370
-1
100
AcDbLine
10
2.02189186539e-14
20
330.2
11
63.5
21
330.2
0
LINE
5
7F
100
AcDbEntity
8
BoardLayout
6
ByLayer
62
256
370
-1
100
AcDbLine
10
2.02189186539e-14
20
330.2
11
2.25518708063e-14
21
368.3
0
LINE
5
80
100
AcDbEntity
8
BoardLayout
6
ByLayer
62
256
370
-1
100
AcDbLine
10
63.5
20
330.2
11
63.5
21
368.3
0
LINE
5
81
100
AcDbEntity
8
BoardLayout
6
ByLayer
62
256
370
-1
100
AcDbLine
10
2.25518708063e-14
20
368.3
11
63.5
21
368.3
0
LINE
5
82
100
AcDbEntity
8
BoardLayout
6
ByLayer
62
256
370
-1
100
AcDbLine
10
2.25518708063e-14
20
368.3
11
2.48848229587e-14
21
406.4
0
LINE
5
83
100
AcDbEntity
8
BoardLayout
6
ByLayer
62
256
370
-1
100
AcDbLine
10
63.5
20
368.3
11
63.5
21
406.4
0
LINE
5
84
100
AcDbEntity
8
BoardLayout
6
ByLayer
62
256
370
-1
100
AcDbLine
10
2.48848229587e-14
20
406.4
11
63.5
21
406.4
0
LINE
5
85
100
AcDbEntity
8
BoardLayout
6
ByLayer
62
256
370
-1
100
AcDbLine
10
2.48848229587e-14
20
406.4
11
2.8773076546e-14
21
469.9
0
LINE
5
86
100
AcDbEntity
8
BoardLayout
6
ByLayer
62
256
370
-1
100
AcDbLine
10
63.5
20
406.4
11
63.5
21
469.9
0
LINE
5
87
100
AcDbEntity
8
BoardLayout
6
ByLayer
62
256
370
-1
100
AcDbLine
10
2.8773076546e-14
20
469.9
11
63.5
21
469.9
0
LINE
5
88
100
AcDbEntity
8
BoardLayout
6
ByLayer
62
256
370
-1
100
AcDbLine
10
63.5
20
469.9
11
101.6
21
469.9
0
LINE
5
89
100
AcDbEntity
8
BoardLayout
6
ByLayer
62
256
370
-1
100
AcDbLine
10
63.5
20
406.4
11
101.6
21
406.4
0
LINE
5
8A
100
AcDbEntity
8
BoardLayout
6
ByLayer
62
256
370
-1
100
AcDbLine
10
101.6
20
469.9
11
101.6
21
406.4
0
LINE
5
8B
100
AcDbEntity
8
BoardLayout
6
ByLayer
62
256
370
-1
100
AcDbLine
10
101.6
20
469.9
11
139.7
21
469.9
0
LINE
5
8C
100
AcDbEntity
8
BoardLayout
6
ByLayer
62
256
370
-1
100
AcDbLine
10
101.6
20
406.4
11
139.7
21
406.4
0
LINE
5
8D
100
AcDbEntity
8
BoardLayout
6
ByLayer
62
256
370
-1
100
AcDbLine
10
139.7
20
469.9
11
139.7
21
406.4
0
LINE
5
8E
100
AcDbEntity
8
BoardLayout
6
ByLayer
62
256
370
-1
100
AcDbLine
10
139.7
20
469.9
11
177.8
21
469.9
0
LINE
5
8F
100
AcDbEntity
8
BoardLayout
6
ByLayer
62
256
370
-1
100
AcDbLine
10
139.7
20
406.4
11
177.8
21
406.4
0
LINE
5
90
100
AcDbEntity
8
BoardLayout
6
ByLayer
62
256
370
-1
100
AcDbLine
10
177.8
20
469.9
11
177.8
21
406.4
0
LINE
5
91
100
AcDbEntity
8
BoardLayout
6
ByLayer
62
256
370
-1
100
AcDbLine
10
177.8
20
469.9
11
215.9
21
469.9
0
LINE
5
92
100
AcDbEntity
8
BoardLayout
6
ByLayer
62
256
370
-1
100
AcDbLine
10
177.8
20
406.4
11
215.9
21
406.4
0
LINE
5
93
100
AcDbEntity
8
BoardLayout
6
ByLayer
62
256
370
-1
100
AcDbLine
10
215.9
20
469.9
11
215.9
21
406.4
0
LINE
5
94
100
AcDbEntity
8
BoardLayout
6
ByLayer
62
256
370
-1
100
AcDbLine
10
215.9
20
469.9
11
254
21
469.9
0
LINE
5
95
100
AcDbEntity
8
BoardLayout
6
ByLayer
62
256
370
-1
100
AcDbLine
10
215.9
20
406.4
11
254
21
406.4
0
LINE
5
96
100
AcDbEntity
8
BoardLayout
6
ByLayer
62
256
370
-1
100
AcDbLine
10
254
20
469.9
11
254
21
406.4
0
LINE
5
97
100
AcDbEntity
8
BoardLayout
6
ByLayer
62
256
370
-1
100
AcDbLine
10
254
20
469.9
11
292.1
21
469.9
0
LINE
5
98
100
AcDbEntity
8
BoardLayout
6
ByLayer
62
256
370
-1
100
AcDbLine
10
254
20
406.4
11
292.1
21
406.4
0
LINE
5
99
100
AcDbEntity
8
BoardLayout
6
ByLayer
62
256
370
-1
100
AcDbLine
10
292.1
20
469.9
11
292.1
21
406.4
0
LINE
5
9A
100
AcDbEntity
8
BoardLayout
6
ByLayer
62
256
370
-1
100
AcDbLine
10
292.1
20
469.9
11
330.2
21
469.9
0
LINE
5
9B
100
AcDbEntity
8
BoardLayout
6
ByLayer
62
256
370
-1
100
AcDbLine
10
292.1
20
406.4
11
330.2
21
406.4
0
LINE
5
9C
100
AcDbEntity
8
BoardLayout
6
ByLayer
62
256
370
-1
100
AcDbLine
10
330.2
20
469.9
11
330.2
21
406.4
0
LINE
5
9D
100
AcDbEntity
8
BoardLayout
6
ByLayer
62
256
370
-1
100
AcDbLine
10
330.2
20
469.9
11
368.3
21
469.9
0
LINE
5
9E
100
AcDbEntity
8
BoardLayout
6
ByLayer
62
256
370
-1
100
AcDbLine
10
330.2
20
406.4
11
368.3
21
406.4
0
LINE
5
9F
100
AcDbEntity
8
BoardLayout
6
ByLayer
62
256
370
-1
100
AcDbLine
10
368.3
20
469.9
11
368.3
21
406.4
0
LINE
5
A0
100
AcDbEntity
8
BoardLayout
6
ByLayer
62
256
370
-1
100
AcDbLine
10
368.3
20
469.9
11
406.4
21
469.9
0
LINE
5
A1
100
AcDbEntity
8
BoardLayout
6
ByLayer
62
256
370
-1
100
AcDbLine
10
368.3
20
406.4
11
406.4
21
406.4
0
LINE
5
A2
100
AcDbEntity
8
BoardLayout
6
ByLayer
62
256
370
-1
100
AcDbLine
10
406.4
20
469.9
11
406.4
21
406.4
0
LINE
5
A3
100
AcDbEntity
8
BoardLayout
6
ByLayer
62
256
370
-1
100
AcDbLine
10
406.4
20
406.4
11
469.9
21
406.4
0
LINE
5
A4
100
AcDbEntity
8
BoardLayout
6
ByLayer
62
256
370
-1
100
AcDbLine
10
469.9
20
406.4
11
469.9
21
469.9
0
LINE
5
A5
100
AcDbEntity
8
BoardLayout
6
ByLayer
62
256
370
-1
100
AcDbLine
10
406.4
20
469.9
11
469.9
21
469.9
0
LINE
5
A6
100
AcDbEntity
8
BoardLayout
6
ByLayer
62
256
370
-1
100
AcDbLine
10
406.4
20
63.5
11
406.4
21
101.6
0
LINE
5
A7
100
AcDbEntity
8
BoardLayout
6
ByLayer
62
256
370
-1
100
AcDbLine
10
469.9
20
63.5
11
469.9
21
101.6
0
LINE
5
A8
100
AcDbEntity
8
BoardLayout
6
ByLayer
62
256
370
-1
100
AcDbLine
10
406.4
20
101.6
11
469.9
21
101.6
0
LINE
5
A9
100
AcDbEntity
8
BoardLayout
6
ByLayer
62
256
370
-1
100
AcDbLine
10
406.4
20
101.6
11
406.4
21
139.7
0
LINE
5
AA
100
AcDbEntity
8
BoardLayout
6
ByLayer
62
256
370
-1
100
AcDbLine
10
469.9
20
101.6
11
469.9
21
139.7
0
LINE
5
AB
100
AcDbEntity
8
BoardLayout
6
ByLayer
62
256
370
-1
100
AcDbLine
10
406.4
20
139.7
11
469.9
21
139.7
0
LINE
5
AC
100
AcDbEntity
8
BoardLayout
6
ByLayer
62
256
370
-1
100
AcDbLine
10
406.4
20
139.7
11
406.4
21
177.8
0
LINE
5
AD
100
AcDbEntity
8
BoardLayout
6
ByLayer
62
256
370
-1
100
AcDbLine
10
469.9
20
139.7
11
469.9
21
177.8
0
LINE
5
AE
100
AcDbEntity
8
BoardLayout
6
ByLayer
62
256
370
-1
100
AcDbLine
10
406.4
20
177.8
11
469.9
21
177.8
0
LINE
5
AF
100
AcDbEntity
8
BoardLayout
6
ByLayer
62
256
370
-1
100
AcDbLine
10
406.4
20
177.8
11
406.4
21
215.9
0
LINE
5
B0
100
AcDbEntity
8
BoardLayout
6
ByLayer
62
256
370
-1
100
AcDbLine
10
469.9
20
177.8
11
469.9
21
215.9
0
LINE
5
B1
100
AcDbEntity
8
BoardLayout
6
ByLayer
62
256
370
-1
100
AcDbLine
10
406.4
20
215.9
11
469.9
21
215.9
0
LINE
5
B2
100
AcDbEntity
8
BoardLayout
6
ByLayer
62
256
370
-1
100
AcDbLine
10
406.4
20
215.9
11
406.4
21
254
0
LINE
5
B3
100
AcDbEntity
8
BoardLayout
6
ByLayer
62
256
370
-1
100
AcDbLine
10
469.9
20
215.9
11
469.9
21
254
0
LINE
5
B4
100
AcDbEntity
8
BoardLayout
6
ByLayer
62
256
370
-1
100
AcDbLine
10
406.4
20
254
11
469.9
21
254
0
LINE
5
B5
100
AcDbEntity
8
BoardLayout
6
ByLayer
62
256
370
-1
100
AcDbLine
10
406.4
20
254
11
406.4
21
292.1
0
LINE
5
B6
100
AcDbEntity
8
BoardLayout
6
ByLayer
62
256
370
-1
100
AcDbLine
10
469.9
20
254
11
469.9
21
292.1
0
LINE
5
B7
100
AcDbEntity
8
BoardLayout
6
ByLayer
62
256
370
-1
100
AcDbLine
10
406.4
20
292.1
11
469.9
21
292.1
0
LINE
5
B8
100
AcDbEntity
8
BoardLayout
6
ByLayer
62
256
370
-1
100
AcDbLine
10
406.4
20
292.1
11
406.4
21
330.2
0
LINE
5
B9
100
AcDbEntity
8
BoardLayout
6
ByLayer
62
256
370
-1
100
AcDbLine
10
469.9
20
292.1
11
469.9
21
330.2
0
LINE
5
BA
100
AcDbEntity
8
BoardLayout
6
ByLayer
62
256
370
-1
100
AcDbLine
10
406.4
20
330.2
11
469.9
21
330.2
0
LINE
5
BB
100
AcDbEntity
8
BoardLayout
6
ByLayer
62
256
370
-1
100
AcDbLine
10
406.4
20
330.2
11
406.4
21
368.3
0
LINE
5
BC
100
AcDbEntity
8
BoardLayout
6
ByLayer
62
256
370
-1
100
AcDbLine
10
469.9
20
330.2
11
469.9
21
368.3
0
LINE
5
BD
100
AcDbEntity
8
BoardLayout
6
ByLayer
62
256
370
-1
100
AcDbLine
10
406.4
20
368.3
11
469.9
21
368.3
0
LINE
5
BE
100
AcDbEntity
8
BoardLayout
6
ByLayer
62
256
370
-1
100
AcDbLine
10
406.4
20
368.3
11
406.4
21
406.4
0
LINE
5
BF
100
AcDbEntity
8
BoardLayout
6
ByLayer
62
256
370
-1
100
AcDbLine
10
469.9
20
368.3
11
469.9
21
406.4
0
LINE
5
C0
100
AcDbEntity
8
BoardLayout
6
ByLayer
62
256
370
-1
100
AcDbLine
10
128.774679849
20
287.343783425
11
97.3437834249
21
318.774679849
0
LINE
5
C1
100
AcDbEntity
8
BoardLayout
6
ByLayer
62
256
370
-1
100
AcDbLine
10
182.656216575
20
341.225320151
11
151.225320151
21
372.656216575
0
LINE
5
C2
100
AcDbEntity
8
BoardLayout
6
ByLayer
62
256
370
-1
100
AcDbLine
10
97.3437834249
20
318.774679849
11
151.225320151
21
372.656216575
0
LINE
5
C3
100
AcDbEntity
8
BoardLayout
6
ByLayer
62
256
370
-1
100
AcDbLine
10
182.656216575
20
341.225320151
11
128.774679849
21
287.343783425
0
LINE
5
C4
100
AcDbEntity
8
BoardLayout
6
ByLayer
62
256
370
-1
100
AcDbLine
10
318.774679849
20
97.3437834249
11
287.343783425
21
128.774679849
0
LINE
5
C5
100
AcDbEntity
8
BoardLayout
6
ByLayer
62
256
370
-1
100
AcDbLine
10
372.656216575
20
151.225320151
11
341.225320151
21
182.656216575
0
LINE
5
C6
100
AcDbEntity
8
BoardLayout
6
ByLayer
62
256
370
-1
100
AcDbLine
10
287.343783425
20
128.774679849
11
341.225320151
21
182.656216575
0
LINE
5
C7
100
AcDbEntity
8
BoardLayout
6
ByLayer
62
256
370
-1
100
AcDbLine
10
372.656216575
20
151.225320151
11
318.774679849
21
97.3437834249
0
LINE
5
C8
100
AcDbEntity
8
BoardLayout
6
ByLayer
62
256
370
-1
100
AcDbLine
10
63.5
20
234.95
11
406.4
21
234.95
0
LINE
5
C9
100
AcDbEntity
8
BoardLayout
6
ByLayer
62
256
370
-1
100
AcDbLine
10
234.95
20
406.4
11
234.95
21
63.5
0
LWPOLYLINE
5
CA
100
AcDbEntity
8
Logo
6
ByLayer
62
7
370
-1
100
AcDbPolyline
90
20
70
0
43
0
10
151.694689316
20
178.782165496
10
165.526778415
20
164.950076397
10
179.361361622
20
151.115493191
10
249.025698481
20
220.77983005
10
318.692533972
20
290.446665541
10
304.857950766
20
304.281248748
10
291.025861667
20
318.113337847
10
244.952150784
20
272.039626964
10
246.039759644
20
270.952018104
10
290.841259562
20
315.753518023
10
303.585739802
20
303.009037783
10
316.330219759
20
290.264557827
10
247.980496512
20
221.91483458
10
179.630769305
20
153.565107373
10
166.886289349
20
166.30958733
10
154.141809109
20
179.054067569
10
198.968254341
20
223.880512801
10
197.880645481
20
224.968121661
10
151.694689316
20
178.782165496
10
151.694689316
20
178.782165496
0
SPLINE
5
CB
100
AcDbEntity
8
Logo
6
ByLayer
62
7
370
-1
100
AcDbSpline
210
0
220
0
230
1
70
8
71
3
72
8
73
4
74
0
42
1e-07
43
1e-07
40
0
40
0
40
0
40
0
40
1
40
1
40
1
40
1
10
179.479047949
20
165.273400124
30
0
10
179.09787921
20
165.702632325
30
0
10
177.835149133
20
167.283480691
30
0
10
176.672982652
20
168.786394011
30
0
0
SPLINE
5
CC
100
AcDbEntity
8
Logo
6
ByLayer
62
7
370
-1
100
AcDbSpline
210
0
220
0
230
1
70
8
71
3
72
8
73
4
74
0
42
1e-07
43
1e-07
40
0
40
0
40
0
40
0
40
1
40
1
40
1
40
1
10
176.672982652
20
168.786394011
30
0
10
175.510814473
20
170.289307331
30
0
10
174.404404775
20
171.672877431
30
0
10
174.214293743
20
171.860994422
30
0
0
SPLINE
5
CD
100
AcDbEntity
8
Logo
6
ByLayer
62
7
370
-1
100
AcDbSpline
210
0
220
0
230
1
70
8
71
3
72
8
73
4
74
0
42
1e-07
43
1e-07
40
0
40
0
40
0
40
0
40
1
40
1
40
1
40
1
10
174.214293743
20
171.860994422
30
0
10
174.024181297
20
172.04911113
30
0
10
172.807297761
20
173.550028146
30
0
10
171.510108108
20
175.196366763
30
0
0
SPLINE
5
CE
100
AcDbEntity
8
Logo
6
ByLayer
62
7
370
-1
100
AcDbSpline
210
0
220
0
230
1
70
8
71
3
72
8
73
4
74
0
42
1e-07
43
1e-07
40
0
40
0
40
0
40
0
40
1
40
1
40
1
40
1
10
171.510108108
20
175.196366763
30
0
10
170.21291789
20
176.842704814
30
0
10
168.571997408
20
178.905773701
30
0
10
167.863618966
20
179.780964855
30
0
0
SPLINE
5
CF
100
AcDbEntity
8
Logo
6
ByLayer
62
7
370
-1
100
AcDbSpline
210
0
220
0
230
1
70
8
71
3
72
8
73
4
74
0
42
1e-07
43
1e-07
40
0
40
0
40
0
40
0
40
1
40
1
40
1
40
1
10
167.863618966
20
179.780964855
30
0
10
167.155240241
20
180.656155727
30
0
10
166.477665916
20
181.520599141
30
0
10
166.357900412
20
181.701950817
30
0
0
LWPOLYLINE
5
D0
100
AcDbEntity
8
Logo
6
ByLayer
62
7
370
-1
100
AcDbPolyline
90
3
70
0
43
0
10
181.048866015
20
165.094153363
10
180.172084154
20
164.492975138
10
179.479047949
20
165.273400124
0
SPLINE
5
D1
100
AcDbEntity
8
Logo
6
ByLayer
62
7
370
-1
100
AcDbSpline
210
0
220
0
230
1
70
8
71
3
72
8
73
4
74
0
42
1e-07
43
1e-07
40
0
40
0
40
0
40
0
40
1
40
1
40
1
40
1
10
166.768389192
20
181.917757261
30
0
10
167.113923144
20
181.855100529
30
0
10
167.585419117
20
181.749496111
30
0
10
167.816158525
20
181.683082097
30
0
0
SPLINE
5
D2
100
AcDbEntity
8
Logo
6
ByLayer
62
7
370
-1
100
AcDbSpline
210
0
220
0
230
1
70
8
71
3
72
8
73
4
74
0
42
1e-07
43
1e-07
40
0
40
0
40
0
40
0
40
1
40
1
40
1
40
1
10
167.816158525
20
181.683082097
30
0
10
168.046897367
20
181.616666385
30
0
10
168.71076768
20
181.454617876
30
0
10
169.291425384
20
181.322972978
30
0
0
SPLINE
5
D3
100
AcDbEntity
8
Logo
6
ByLayer
62
7
370
-1
100
AcDbSpline
210
0
220
0
230
1
70
8
71
3
72
8
73
4
74
0
42
1e-07
43
1e-07
40
0
40
0
40
0
40
0
40
1
40
1
40
1
40
1
10
169.291425384
20
181.322972978
30
0
10
169.872083936
20
181.191327231
30
0
10
170.524284159
20
181.033253227
30
0
10
170.740760374
20
180.971695622
30
0
0
SPLINE
5
D4
100
AcDbEntity
8
Logo
6
ByLayer
62
7
370
-1
100
AcDbSpline
210
0
220
0
230
1
70
8
71
3
72
8
73
4
74
0
42
1e-07
43
1e-07
40
0
40
0
40
0
40
0
40
1
40
1
40
1
40
1
10
170.740760374
20
180.971695622
30
0
10
170.957235458
20
180.910137452
30
0
10
171.495355881
20
180.80062047
30
0
10
171.936582593
20
180.72832361
30
0
0
SPLINE
5
D5
100
AcDbEntity
8
Logo
6
ByLayer
62
7
370
-1
100
AcDbSpline
210
0
220
0
230
1
70
8
71
3
72
8
73
4
74
0
42
1e-07
43
1e-07
40
0
40
0
40
0
40
0
40
1
40
1
40
1
40
1
10
171.936582593
20
180.72832361
30
0
10
172.377808173
20
180.656027316
30
0
10
172.763843504
20
180.571845122
30
0
10
172.794436337
20
180.541252289
30
0
0
SPLINE
5
D6
100
AcDbEntity
8
Logo
6
ByLayer
62
7
370
-1
100
AcDbSpline
210
0
220
0
230
1
70
8
71
3
72
8
73
4
74
0
42
1e-07
43
1e-07
40
0
40
0
40
0
40
0
40
1
40
1
40
1
40
1
10
172.794436337
20
180.541252289
30
0
10
172.843090092
20
180.492598534
30
0
10
173.893709913
20
180.253680729
30
0
10
175.275402786
20
179.977065647
30
0
0
SPLINE
5
D7
100
AcDbEntity
8
Logo
6
ByLayer
62
7
370
-1
100
AcDbSpline
210
0
220
0
230
1
70
8
71
3
72
8
73
4
74
0
42
1e-07
43
1e-07
40
0
40
0
40
0
40
0
40
1
40
1
40
1
40
1
10
175.275402786
20
179.977065647
30
0
10
175.756288572
20
179.880791645
30
0
10
176.13597069
20
179.791442481
30
0
10
177.73527426
20
179.398186459
30
0
0
SPLINE
5
D8
100
AcDbEntity
8
Logo
6
ByLayer
62
7
370
-1
100
AcDbSpline
210
0
220
0
230
1
70
8
71
3
72
8
73
4
74
0
42
1e-07
43
1e-07
40
0
40
0
40
0
40
0
40
1
40
1
40
1
40
1
10
177.73527426
20
179.398186459
30
0
10
178.321920593
20
179.253933847
30
0
10
178.95562573
20
179.130470174
30
0
10
179.143509376
20
179.123821391
30
0
0
SPLINE
5
D9
100
AcDbEntity
8
Logo
6
ByLayer
62
7
370
-1
100
AcDbSpline
210
0
220
0
230
1
70
8
71
3
72
8
73
4
74
0
42
1e-07
43
1e-07
40
0
40
0
40
0
40
0
40
1
40
1
40
1
40
1
10
179.143509376
20
179.123821391
30
0
10
179.331393871
20
179.117172324
30
0
10
179.51500546
20
179.081842724
30
0
10
179.551536293
20
179.04531189
30
0
0
SPLINE
5
DA
100
AcDbEntity
8
Logo
6
ByLayer
62
7
370
-1
100
AcDbSpline
210
0
220
0
230
1
70
8
71
3
72
8
73
4
74
0
42
1e-07
43
1e-07
40
0
40
0
40
0
40
0
40
1
40
1
40
1
40
1
10
179.551536293
20
179.04531189
30
0
10
179.636062424
20
178.96078576
30
0
10
181.904271473
20
178.424766576
30
0
10
182.557542538
20
178.334936862
30
0
0
SPLINE
5
DB
100
AcDbEntity
8
Logo
6
ByLayer
62
7
370
-1
100
AcDbSpline
210
0
220
0
230
1
70
8
71
3
72
8
73
4
74
0
42
1e-07
43
1e-07
40
0
40
0
40
0
40
0
40
1
40
1
40
1
40
1
10
182.557542538
20
178.334936862
30
0
10
182.828979335
20
178.297612372
30
0
10
183.080675408
20
178.23746304
30
0
10
183.116867962
20
178.201270487
30
0
0
SPLINE
5
DC
100
AcDbEntity
8
Logo
6
ByLayer
62
7
370
-1
100
AcDbSpline
210
0
220
0
230
1
70
8
71
3
72
8
73
4
74
0
42
1e-07
43
1e-07
40
0
40
0
40
0
40
0
40
1
40
1
40
1
40
1
10
183.116867962
20
178.201270487
30
0
10
183.153058818
20
178.165079631
30
0
10
183.505804127
20
178.076516769
30
0
10
183.900743912
20
178.004467396
30
0
0
SPLINE
5
DD
100
AcDbEntity
8
Logo
6
ByLayer
62
7
370
-1
100
AcDbSpline
210
0
220
0
230
1
70
8
71
3
72
8
73
4
74
0
42
1e-07
43
1e-07
40
0
40
0
40
0
40
0
40
1
40
1
40
1
40
1
10
183.900743912
20
178.004467396
30
0
10
184.295685111
20
177.932416044
30
0
10
184.803076653
20
177.812808649
30
0
10
185.028281678
20
177.738671614
30
0
0
SPLINE
5
DE
100
AcDbEntity
8
Logo
6
ByLayer
62
7
370
-1
100
AcDbSpline
210
0
220
0
230
1
70
8
71
3
72
8
73
4
74
0
42
1e-07
43
1e-07
40
0
40
0
40
0
40
0
40
1
40
1
40
1
40
1
10
185.028281678
20
177.738671614
30
0
10
185.253486419
20
177.664534862
30
0
10
185.475122534
20
177.641254644
30
0
10
185.520807572
20
177.686939682
30
0
0
SPLINE
5
DF
100
AcDbEntity
8
Logo
6
ByLayer
62
7
370
-1
100
AcDbSpline
210
0
220
0
230
1
70
8
71
3
72
8
73
4
74
0
42
1e-07
43
1e-07
40
0
40
0
40
0
40
0
40
1
40
1
40
1
40
1
10
185.520807572
20
177.686939682
30
0
10
185.615555355
20
177.781687465
30
0
10
185.424461728
20
179.128880881
30
0
10
185.295367788
20
179.276273613
30
0
0
SPLINE
5
E0
100
AcDbEntity
8
Logo
6
ByLayer
62
7
370
-1
100
AcDbSpline
210
0
220
0
230
1
70
8
71
3
72
8
73
4
74
0
42
1e-07
43
1e-07
40
0
40
0
40
0
40
0
40
1
40
1
40
1
40
1
10
185.295367788
20
179.276273613
30
0
10
185.248630858
20
179.329636416
30
0
10
185.1514857
20
179.722323358
30
0
10
185.079491199
20
180.148912677
30
0
0
SPLINE
5
E1
100
AcDbEntity
8
Logo
6
ByLayer
62
7
370
-1
100
AcDbSpline
210
0
220
0
230
1
70
8
71
3
72
8
73
4
74
0
42
1e-07
43
1e-07
40
0
40
0
40
0
40
0
40
1
40
1
40
1
40
1
10
185.079491199
20
180.148912677
30
0
10
185.007496698
20
180.575501996
30
0
10
184.861789992
20
181.184692307
30
0
10
184.755698519
20
181.502668044
30
0
0
SPLINE
5
E2
100
AcDbEntity
8
Logo
6
ByLayer
62
7
370
-1
100
AcDbSpline
210
0
220
0
230
1
70
8
71
3
72
8
73
4
74
0
42
1e-07
43
1e-07
40
0
40
0
40
0
40
0
40
1
40
1
40
1
40
1
10
184.755698519
20
181.502668044
30
0
10
184.649607894
20
181.820645195
30
0
10
184.591436482
20
182.109439201
30
0
10
184.626430631
20
182.14443335
30
0
0
SPLINE
5
E3
100
AcDbEntity
8
Logo
6
ByLayer
62
7
370
-1
100
AcDbSpline
210
0
220
0
230
1
70
8
71
3
72
8
73
4
74
0
42
1e-07
43
1e-07
40
0
40
0
40
0
40
0
40
1
40
1
40
1
40
1
10
184.626430631
20
182.14443335
30
0
10
184.661425628
20
182.179428348
30
0
10
184.611569226
20
182.394897078
30
0
10
184.515640009
20
182.62325495
30
0
0
SPLINE
5
E4
100
AcDbEntity
8
Logo
6
ByLayer
62
7
370
-1
100
AcDbSpline
210
0
220
0
230
1
70
8
71
3
72
8
73
4
74
0
42
1e-07
43
1e-07
40
0
40
0
40
0
40
0
40
1
40
1
40
1
40
1
10
184.515640009
20
182.62325495
30
0
10
184.419709943
20
182.851611974
30
0
10
184.287123745
20
183.361475844
30
0
10
184.221005301
20
183.756286369
30
0
0
SPLINE
5
E5
100
AcDbEntity
8
Logo
6
ByLayer
62
7
370
-1
100
AcDbSpline
210
0
220
0
230
1
70
8
71
3
72
8
73
4
74
0
42
1e-07
43
1e-07
40
0
40
0
40
0
40
0
40
1
40
1
40
1
40
1
10
184.221005301
20
183.756286369
30
0
10
184.154885726
20
184.151095764
30
0
10
184.070312644
20
184.50459796
30
0
10
184.033065087
20
184.541845516
30
0
0
SPLINE
5
E6
100
AcDbEntity
8
Logo
6
ByLayer
62
7
370
-1
100
AcDbSpline
210
0
220
0
230
1
70
8
71
3
72
8
73
4
74
0
42
1e-07
43
1e-07
40
0
40
0
40
0
40
0
40
1
40
1
40
1
40
1
10
184.033065087
20
184.541845516
30
0
10
183.995816399
20
184.579094205
30
0
10
183.913927494
20
184.93646682
30
0
10
183.851088045
20
185.336009022
30
0
0
SPLINE
5
E7
100
AcDbEntity
8
Logo
6
ByLayer
62
7
370
-1
100
AcDbSpline
210
0
220
0
230
1
70
8
71
3
72
8
73
4
74
0
42
1e-07
43
1e-07
40
0
40
0
40
0
40
0
40
1
40
1
40
1
40
1
10
183.851088045
20
185.336009022
30
0
10
183.788249729
20
185.735550658
30
0
10
183.656340373
20
186.308509666
30
0
10
183.557957495
20
186.609248968
30
0
0
SPLINE
5
E8
100
AcDbEntity
8
Logo
6
ByLayer
62
7
370
-1
100
AcDbSpline
210
0
220
0
230
1
70
8
71
3
72
8
73
4
74
0
42
1e-07
43
1e-07
40
0
40
0
40
0
40
0
40
1
40
1
40
1
40
1
10
183.557957495
20
186.609248968
30
0
10
183.459573769
20
186.909987987
30
0
10
183.366610723
20
187.339757307
30
0
10
183.351372289
20
187.56429256
30
0
0
SPLINE
5
E9
100
AcDbEntity
8
Logo
6
ByLayer
62
7
370
-1
100
AcDbSpline
210
0
220
0
230
1
70
8
71
3
72
8
73
4
74
0
42
1e-07
43
1e-07
40
0
40
0
40
0
40
0
40
1
40
1
40
1
40
1
10
183.351372289
20
187.56429256
30
0
10
183.336132441
20
187.788825833
30
0
10
183.271596502
20
188.024604366
30
0
10
183.207958023
20
188.088242845
30
0
0
SPLINE
5
EA
100
AcDbEntity
8
Logo
6
ByLayer
62
7
370
-1
100
AcDbSpline
210
0
220
0
230
1
70
8
71
3
72
8
73
4
74
0
42
1e-07
43
1e-07
40
0
40
0
40
0
40
0
40
1
40
1
40
1
40
1
10
183.207958023
20
188.088242845
30
0
10
183.144320393
20
188.151880476
30
0
10
183.091969884
20
188.31154547
30
0
10
183.091625664
20
188.443054037
30
0
0
SPLINE
5
EB
100
AcDbEntity
8
Logo
6
ByLayer
62
7
370
-1
100
AcDbSpline
210
0
220
0
230
1
70
8
71
3
72
8
73
4
74
0
42
1e-07
43
1e-07
40
0
40
0
40
0
40
0
40
1
40
1
40
1
40
1
10
183.091625664
20
188.443054037
30
0
10
183.091280313
20
188.574562605
30
0
10
182.976688851
20
189.139320872
30
0
10
182.836977844
20
189.698074105
30
0
0
SPLINE
5
EC
100
AcDbEntity
8
Logo
6
ByLayer
62
7
370
-1
100
AcDbSpline
210
0
220
0
230
1
70
8
71
3
72
8
73
4
74
0
42
1e-07
43
1e-07
40
0
40
0
40
0
40
0
40
1
40
1
40
1
40
1
10
182.836977844
20
189.698074105
30
0
10
182.697266555
20
190.256827055
30
0
10
182.443660728
20
191.301140615
30
0
10
182.273412043
20
192.018771973
30
0
0
SPLINE
5
ED
100
AcDbEntity
8
Logo
6
ByLayer
62
7
370
-1
100
AcDbSpline
210
0
220
0
230
1
70
8
71
3
72
8
73
4
74
0
42
1e-07
43
1e-07
40
0
40
0
40
0
40
0
40
1
40
1
40
1
40
1
10
182.273412043
20
192.018771973
30
0
10
182.103163357
20
192.736402766
30
0
10
181.944777661
20
193.342648402
30
0
10
181.921444268
20
193.365981794
30
0
0
SPLINE
5
EE
100
AcDbEntity
8
Logo
6
ByLayer
62
7
370
-1
100
AcDbSpline
210
0
220
0
230
1
70
8
71
3
72
8
73
4
74
0
42
1e-07
43
1e-07
40
0
40
0
40
0
40
0
40
1
40
1
40
1
40
1
10
181.921444268
20
193.365981794
30
0
10
181.898110876
20
193.389315186
30
0
10
181.827262736
20
193.745898388
30
0
10
181.764004115
20
194.158389129
30
0
0
SPLINE
5
EF
100
AcDbEntity
8
Logo
6
ByLayer
62
7
370
-1
100
AcDbSpline
210
0
220
0
230
1
70
8
71
3
72
8
73
4
74
0
42
1e-07
43
1e-07
40
0
40
0
40
0
40
0
40
1
40
1
40
1
40
1
10
181.764004115
20
194.158389129
30
0
10
181.700744645
20
194.570880718
30
0
10
181.618589303
20
194.938771123
30
0
10
181.581435084
20
194.975925342
30
0
0
SPLINE
5
F0
100
AcDbEntity
8
Logo
6
ByLayer
62
7
370
-1
100
AcDbSpline
210
0
220
0
230
1
70
8
71
3
72
8
73
4
74
0
42
1e-07
43
1e-07
40
0
40
0
40
0
40
0
40
1
40
1
40
1
40
1
10
181.581435084
20
194.975925342
30
0
10
181.544281431
20
195.013078995
30
0
10
181.437959158
20
195.445956756
30
0
10
181.345163273
20
195.937875387
30
0
0
SPLINE
5
F1
100
AcDbEntity
8
Logo
6
ByLayer
62
7
370
-1
100
AcDbSpline
210
0
220
0
230
1
70
8
71
3
72
8
73
4
74
0
42
1e-07
43
1e-07
40
0
40
0
40
0
40
0
40
1
40
1
40
1
40
1
10
181.345163273
20
195.937875387
30
0
10
181.252367104
20
196.429793735
30
0
10
181.128465308
20
196.887266084
30
0
10
181.069826074
20
196.954481675
30
0
0
SPLINE
5
F2
100
AcDbEntity
8
Logo
6
ByLayer
62
7
370
-1
100
AcDbSpline
210
0
220
0
230
1
70
8
71
3
72
8
73
4
74
0
42
1e-07
43
1e-07
40
0
40
0
40
0
40
0
40
1
40
1
40
1
40
1
10
181.069826074
20
196.954481675
30
0
10
180.731879662
20
197.341855417
30
0
10
181.849457121
20
196.545929519
30
0
10
182.896396027
20
195.653620158
30
0
0
SPLINE
5
F3
100
AcDbEntity
8
Logo
6
ByLayer
62
7
370
-1
100
AcDbSpline
210
0
220
0
230
1
70
8
71
3
72
8
73
4
74
0
42
1e-07
43
1e-07
40
0
40
0
40
0
40
0
40
1
40
1
40
1
40
1
10
182.896396027
20
195.653620158
30
0
10
183.569750622
20
195.079717021
30
0
10
185.141538971
20
193.834971215
30
0
10
186.389260564
20
192.887519405
30
0
0
SPLINE
5
F4
100
AcDbEntity
8
Logo
6
ByLayer
62
7
370
-1
100
AcDbSpline
210
0
220
0
230
1
70
8
71
3
72
8
73
4
74
0
42
1e-07
43
1e-07
40
0
40
0
40
0
40
0
40
1
40
1
40
1
40
1
10
186.389260564
20
192.887519405
30
0
10
187.636982158
20
191.940067029
30
0
10
188.77861539
20
191.040731572
30
0
10
188.926224497
20
190.888998619
30
0
0
SPLINE
5
F5
100
AcDbEntity
8
Logo
6
ByLayer
62
7
370
-1
100
AcDbSpline
210
0
220
0
230
1
70
8
71
3
72
8
73
4
74
0
42
1e-07
43
1e-07
40
0
40
0
40
0
40
0
40
1
40
1
40
1
40
1
10
188.926224497
20
190.888998619
30
0
10
189.073835866
20
190.737268494
30
0
10
190.664625022
20
189.470704202
30
0
10
192.461318582
20
188.074418059
30
0
0
SPLINE
5
F6
100
AcDbEntity
8
Logo
6
ByLayer
62
7
370
-1
100
AcDbSpline
210
0
220
0
230
1
70
8
71
3
72
8
73
4
74
0
42
1e-07
43
1e-07
40
0
40
0
40
0
40
0
40
1
40
1
40
1
40
1
10
192.461318582
20
188.074418059
30
0
10
194.258012425
20
186.678132199
30
0
10
196.180829793
20
185.172123166
30
0
10
196.734245784
20
184.727732858
30
0
0
SPLINE
5
F7
100
AcDbEntity
8
Logo
6
ByLayer
62
7
370
-1
100
AcDbSpline
210
0
220
0
230
1
70
8
71
3
72
8
73
4
74
0
42
1e-07
43
1e-07
40
0
40
0
40
0
40
0
40
1
40
1
40
1
40
1
10
196.734245784
20
184.727732858
30
0
10
197.287662058
20
184.283342834
30
0
10
197.968994514
20
183.736516229
30
0
10
198.248319512
20
183.512563915
30
0
0
LWPOLYLINE
5
F8
100
AcDbEntity
8
Logo
6
ByLayer
62
7
370
-1
100
AcDbPolyline
90
3
70
0
43
0
10
166.357900412
20
181.701950817
10
166.140144051
20
182.031680649
10
166.768389192
20
181.917757261
0
SPLINE
5
F9
100
AcDbEntity
8
Logo
6
ByLayer
62
7
370
-1
100
AcDbSpline
210
0
220
0
230
1
70
8
71
3
72
8
73
4
74
0
42
1e-07
43
1e-07
40
0
40
0
40
0
40
0
40
1
40
1
40
1
40
1
10
197.731368169
20
181.742485854
30
0
10
197.118424252
20
180.927337117
30
0
10
196.640743357
20
180.379940585
30
0
10
196.542806522
20
180.380457904
30
0
0
SPLINE
5
FA
100
AcDbEntity
8
Logo
6
ByLayer
62
7
370
-1
100
AcDbSpline
210
0
220
0
230
1
70
8
71
3
72
8
73
4
74
0
42
1e-07
43
1e-07
40
0
40
0
40
0
40
0
40
1
40
1
40
1
40
1
10
196.542806522
20
180.380457904
30
0
10
196.452746292
20
180.380934494
30
0
10
196.027933225
20
180.68330495
30
0
10
195.598777392
20
181.052394042
30
0
0
SPLINE
5
FB
100
AcDbEntity
8
Logo
6
ByLayer
62
7
370
-1
100
AcDbSpline
210
0
220
0
230
1
70
8
71
3
72
8
73
4
74
0
42
1e-07
43
1e-07
40
0
40
0
40
0
40
0
40
1
40
1
40
1
40
1
10
195.598777392
20
181.052394042
30
0
10
195.169620993
20
181.421482569
30
0
10
193.616961862
20
182.644539995
30
0
10
192.148423549
20
183.770297832
30
0
0
SPLINE
5
FC
100
AcDbEntity
8
Logo
6
ByLayer
62
7
370
-1
100
AcDbSpline
210
0
220
0
230
1
70
8
71
3
72
8
73
4
74
0
42
1e-07
43
1e-07
40
0
40
0
40
0
40
0
40
1
40
1
40
1
40
1
10
192.148423549
20
183.770297832
30
0
10
190.679883821
20
184.896054819
30
0
10
188.825113884
20
186.331466877
30
0
10
188.026711697
20
186.960100079
30
0
0
SPLINE
5
FD
100
AcDbEntity
8
Logo
6
ByLayer
62
7
370
-1
100
AcDbSpline
210
0
220
0
230
1
70
8
71
3
72
8
73
4
74
0
42
1e-07
43
1e-07
40
0
40
0
40
0
40
0
40
1
40
1
40
1
40
1
10
188.026711697
20
186.960100079
30
0
10
187.228308097
20
187.588734696
30
0
10
186.530552944
20
188.092562136
30
0
10
186.47614334
20
188.079718532
30
0
0
SPLINE
5
FE
100
AcDbEntity
8
Logo
6
ByLayer
62
7
370
-1
100
AcDbSpline
210
0
220
0
230
1
70
8
71
3
72
8
73
4
74
0
42
1e-07
43
1e-07
40
0
40
0
40
0
40
0
40
1
40
1
40
1
40
1
10
186.47614334
20
188.079718532
30
0
10
186.37747762
20
188.056426434
30
0
10
186.546069413
20
186.745744053
30
0
10
186.662736092
20
186.629077374
30
0
0
SPLINE
5
FF
100
AcDbEntity
8
Logo
6
ByLayer
62
7
370
-1
100
AcDbSpline
210
0
220
0
230
1
70
8
71
3
72
8
73
4
74
0
42
1e-07
43
1e-07
40
0
40
0
40
0
40
0
40
1
40
1
40
1
40
1
10
186.662736092
20
186.629077374
30
0
10
186.696540887
20
186.595272578
30
0
10
186.793689157
20
186.171568821
30
0
10
186.878621449
20
185.687513783
30
0
0
SPLINE
5
100
100
AcDbEntity
8
Logo
6
ByLayer
62
7
370
-1
100
AcDbSpline
210
0
220
0
230
1
70
8
71
3
72
8
73
4
74
0
42
1e-07
43
1e-07
40
0
40
0
40
0
40
0
40
1
40
1
40
1
40
1
10
186.878621449
20
185.687513783
30
0
10
186.963554873
20
185.203458179
30
0
10
187.079380095
20
184.7610786
30
0
10
187.136013126
20
184.704445569
30
0
0
SPLINE
5
101
100
AcDbEntity
8
Logo
6
ByLayer
62
7
370
-1
100
AcDbSpline
210
0
220
0
230
1
70
8
71
3
72
8
73
4
74
0
42
1e-07
43
1e-07
40
0
40
0
40
0
40
0
40
1
40
1
40
1
40
1
10
187.136013126
20
184.704445569
30
0
10
187.192644459
20
184.647814236
30
0
10
187.240087647
20
184.494706102
30
0
10
187.241439918
20
184.364207282
30
0
0
SPLINE
5
102
100
AcDbEntity
8
Logo
6
ByLayer
62
7
370
-1
100
AcDbSpline
210
0
220
0
230
1
70
8
71
3
72
8
73
4
74
0
42
1e-07
43
1e-07
40
0
40
0
40
0
40
0
40
1
40
1
40
1
40
1
10
187.241439918
20
184.364207282
30
0
10
187.242794452
20
184.233707897
30
0
10
187.349565879
20
183.70194889
30
0
10
187.478711862
20
183.182520694
30
0
0
SPLINE
5
103
100
AcDbEntity
8
Logo
6
ByLayer
62
7
370
-1
100
AcDbSpline
210
0
220
0
230
1
70
8
71
3
72
8
73
4
74
0
42
1e-07
43
1e-07
40
0
40
0
40
0
40
0
40
1
40
1
40
1
40
1
10
187.478711862
20
183.182520694
30
0
10
187.607858127
20
182.66309278
30
0
10
187.714629837
20
182.136682611
30
0
10
187.715984653
20
182.012718873
30
0
0
SPLINE
5
104
100
AcDbEntity
8
Logo
6
ByLayer
62
7
370
-1
100
AcDbSpline
210
0
220
0
230
1
70
8
71
3
72
8
73
4
74
0
42
1e-07
43
1e-07
40
0
40
0
40
0
40
0
40
1
40
1
40
1
40
1
10
187.715984653
20
182.012718873
30
0
10
187.71733749
20
181.888755418
30
0
10
187.778574069
20
181.671287838
30
0
10
187.852065939
20
181.529454946
30
0
0
SPLINE
5
105
100
AcDbEntity
8
Logo
6
ByLayer
62
7
370
-1
100
AcDbSpline
210
0
220
0
230
1
70
8
71
3
72
8
73
4
74
0
42
1e-07
43
1e-07
40
0
40
0
40
0
40
0
40
1
40
1
40
1
40
1
10
187.852065939
20
181.529454946
30
0
10
187.92555583
20
181.387622902
30
0
10
188.04292707
20
180.922232372
30
0
10
188.112888781
20
180.495255841
30
0
0
SPLINE
5
106
100
AcDbEntity
8
Logo
6
ByLayer
62
7
370
-1
100
AcDbSpline
210
0
220
0
230
1
70
8
71
3
72
8
73
4
74
0
42
1e-07
43
1e-07
40
0
40
0
40
0
40
0
40
1
40
1
40
1
40
1
10
188.112888781
20
180.495255841
30
0
10
188.182850209
20
180.068277897
30
0
10
188.290458284
20
179.541815968
30
0
10
188.352013909
20
179.325340035
30
0
0
SPLINE
5
107
100
AcDbEntity
8
Logo
6
ByLayer
62
7
370
-1
100
AcDbSpline
210
0
220
0
230
1
70
8
71
3
72
8
73
4
74
0
42
1e-07
43
1e-07
40
0
40
0
40
0
40
0
40
1
40
1
40
1
40
1
10
188.352013909
20
179.325340035
30
0
10
188.614044207
20
178.403873267
30
0
10
188.987173424
20
176.780880771
30
0
10
188.987753252
20
176.560089224
30
0
0
SPLINE
5
108
100
AcDbEntity
8
Logo
6
ByLayer
62
7
370
-1
100
AcDbSpline
210
0
220
0
230
1
70
8
71
3
72
8
73
4
74
0
42
1e-07
43
1e-07
40
0
40
0
40
0
40
0
40
1
40
1
40
1
40
1
10
188.987753252
20
176.560089224
30
0
10
188.988097188
20
176.428580939
30
0
10
189.043777888
20
176.265585755
30
0
10
189.111485908
20
176.197877735
30
0
0
SPLINE
5
109
100
AcDbEntity
8
Logo
6
ByLayer
62
7
370
-1
100
AcDbSpline
210
0
220
0
230
1
70
8
71
3
72
8
73
4
74
0
42
1e-07
43
1e-07
40
0
40
0
40
0
40
0
40
1
40
1
40
1
40
1
10
189.111485908
20
176.197877735
30
0
10
189.179194776
20
176.130168867
30
0
10
189.237436333
20
175.969734541
30
0
10
189.240911056
20
175.841358173
30
0
0
SPLINE
5
10A
100
AcDbEntity
8
Logo
6
ByLayer
62
7
370
-1
100
AcDbSpline
210
0
220
0
230
1
70
8
71
3
72
8
73
4
74
0
42
1e-07
43
1e-07
40
0
40
0
40
0
40
0
40
1
40
1
40
1
40
1
10
189.240911056
20
175.841358173
30
0
10
189.24981155
20
175.512612351
30
0
10
189.502021548
20
174.356803043
30
0
10
189.583749233
20
174.27022404
30
0
0
SPLINE
5
10B
100
AcDbEntity
8
Logo
6
ByLayer
62
7
370
-1
100
AcDbSpline
210
0
220
0
230
1
70
8
71
3
72
8
73
4
74
0
42
1e-07
43
1e-07
40
0
40
0
40
0
40
0
40
1
40
1
40
1
40
1
10
189.583749233
20
174.27022404
30
0
10
189.62112718
20
174.230626909
30
0
10
189.673535955
20
174.030798249
30
0
10
189.700212548
20
173.826159284
30
0
0
LWPOLYLINE
5
10C
100
AcDbEntity
8
Logo
6
ByLayer
62
7
370
-1
100
AcDbPolyline
90
3
70
0
43
0
10
198.248319512
20
183.512563915
10
198.756183401
20
183.105379021
10
197.731368169
20
181.742485854
0
SPLINE
5
10D
100
AcDbEntity
8
Logo
6
ByLayer
62
7
370
-1
100
AcDbSpline
210
0
220
0
230
1
70
8
71
3
72
8
73
4
74
0
42
1e-07
43
1e-07
40
0
40
0
40
0
40
0
40
1
40
1
40
1
40
1
10
189.250730223
20
173.603452326
30
0
10
188.976839483
20
173.685601164
30
0
10
188.723961127
20
173.724029306
30
0
10
188.688777757
20
173.688845935
30
0
0
SPLINE
5
10E
100
AcDbEntity
8
Logo
6
ByLayer
62
7
370
-1
100
AcDbSpline
210
0
220
0
230
1
70
8
71
3
72
8
73
4
74
0
42
1e-07
43
1e-07
40
0
40
0
40
0
40
0
40
1
40
1
40
1
40
1
10
188.688777757
20
173.688845935
30
0
10
188.653595234
20
173.653663413
30
0
10
188.513508047
20
173.682548725
30
0
10
188.37747343
20
173.753034543
30
0
0
SPLINE
5
10F
100
AcDbEntity
8
Logo
6
ByLayer
62
7
370
-1
100
AcDbSpline
210
0
220
0
230
1
70
8
71
3
72
8
73
4
74
0
42
1e-07
43
1e-07
40
0
40
0
40
0
40
0
40
1
40
1
40
1
40
1
10
188.37747343
20
173.753034543
30
0
10
188.161941627
20
173.864714423
30
0
10
186.319376636
20
174.276738473
30
0
10
185.319100554
20
174.436931534
30
0
0
SPLINE
5
110
100
AcDbEntity
8
Logo
6
ByLayer
62
7
370
-1
100
AcDbSpline
210
0
220
0
230
1
70
8
71
3
72
8
73
4
74
0
42
1e-07
43
1e-07
40
0
40
0
40
0
40
0
40
1
40
1
40
1
40
1
10
185.319100554
20
174.436931534
30
0
10
185.130103357
20
174.467199664
30
0
10
184.786226581
20
174.546554016
30
0
10
184.554931105
20
174.613273501
30
0
0
SPLINE
5
111
100
AcDbEntity
8
Logo
6
ByLayer
62
7
370
-1
100
AcDbSpline
210
0
220
0
230
1
70
8
71
3
72
8
73
4
74
0
42
1e-07
43
1e-07
40
0
40
0
40
0
40
0
40
1
40
1
40
1
40
1
10
184.554931105
20
174.613273501
30
0
10
183.689229606
20
174.862996746
30
0
10
182.283900133
20
175.179136834
30
0
10
182.162575883
20
175.151452755
30
0
0
SPLINE
5
112
100
AcDbEntity
8
Logo
6
ByLayer
62
7
370
-1
100
AcDbSpline
210
0
220
0
230
1
70
8
71
3
72
8
73
4
74
0
42
1e-07
43
1e-07
40
0
40
0
40
0
40
0
40
1
40
1
40
1
40
1
10
182.162575883
20
175.151452755
30
0
10
182.093405567
20
175.135669
30
0
10
181.831668012
20
175.200487499
30
0
10
181.580937847
20
175.295492951
30
0
0
SPLINE
5
113
100
AcDbEntity
8
Logo
6
ByLayer
62
7
370
-1
100
AcDbSpline
210
0
220
0
230
1
70
8
71
3
72
8
73
4
74
0
42
1e-07
43
1e-07
40
0
40
0
40
0
40
0
40
1
40
1
40
1
40
1
10
181.580937847
20
175.295492951
30
0
10
181.330207964
20
175.390497556
30
0
10
180.802113184
20
175.512651384
30
0
10
180.407395431
20
175.566946436
30
0
0
SPLINE
5
114
100
AcDbEntity
8
Logo
6
ByLayer
62
7
370
-1
100
AcDbSpline
210
0
220
0
230
1
70
8
71
3
72
8
73
4
74
0
42
1e-07
43
1e-07
40
0
40
0
40
0
40
0
40
1
40
1
40
1
40
1
10
180.407395431
20
175.566946436
30
0
10
180.012676829
20
175.621240641
30
0
10
179.643688146
20
175.706280696
30
0
10
179.587420548
20
175.755924683
30
0
0
SPLINE
5
115
100
AcDbEntity
8
Logo
6
ByLayer
62
7
370
-1
100
AcDbSpline
210
0
220
0
230
1
70
8
71
3
72
8
73
4
74
0
42
1e-07
43
1e-07
40
0
40
0
40
0
40
0
40
1
40
1
40
1
40
1
10
179.587420548
20
175.755924683
30
0
10
179.531153233
20
175.805566691
30
0
10
179.332506857
20
175.851837779
30
0
10
179.145983967
20
175.858745929
30
0
0
SPLINE
5
116
100
AcDbEntity
8
Logo
6
ByLayer
62
7
370
-1
100
AcDbSpline
210
0
220
0
230
1
70
8
71
3
72
8
73
4
74
0
42
1e-07
43
1e-07
40
0
40
0
40
0
40
0
40
1
40
1
40
1
40
1
10
179.145983967
20
175.858745929
30
0
10
178.959462209
20
175.865654645
30
0
10
178.585171356
20
175.933799374
30
0
10
178.314228685
20
176.010179069
30
0
0
SPLINE
5
117
100
AcDbEntity
8
Logo
6
ByLayer
62
7
370
-1
100
AcDbSpline
210
0
220
0
230
1
70
8
71
3
72
8
73
4
74
0
42
1e-07
43
1e-07
40
0
40
0
40
0
40
0
40
1
40
1
40
1
40
1
10
178.314228685
20
176.010179069
30
0
10
178.043284317
20
176.086559329
30
0
10
177.494686552
20
176.210644124
30
0
10
177.095121723
20
176.285921863
30
0
0
SPLINE
5
118
100
AcDbEntity
8
Logo
6
ByLayer
62
7
370
-1
100
AcDbSpline
210
0
220
0
230
1
70
8
71
3
72
8
73
4
74
0
42
1e-07
43
1e-07
40
0
40
0
40
0
40
0
40
1
40
1
40
1
40
1
10
177.095121723
20
176.285921863
30
0
10
176.695557177
20
176.36119932
30
0
10
176.336064372
20
176.455365296
30
0
10
176.296250301
20
176.495179367
30
0
0
SPLINE
5
119
100
AcDbEntity
8
Logo
6
ByLayer
62
7
370
-1
100
AcDbSpline
210
0
220
0
230
1
70
8
71
3
72
8
73
4
74
0
42
1e-07
43
1e-07
40
0
40
0
40
0
40
0
40
1
40
1
40
1
40
1
10
176.296250301
20
176.495179367
30
0
10
176.256436229
20
176.534993439
30
0
10
175.963853828
20
176.590212539
30
0
10
175.64606703
20
176.617888698
30
0
0
LWPOLYLINE
5
11A
100
AcDbEntity
8
Logo
6
ByLayer
62
7
370
-1
100
AcDbPolyline
90
3
70
0
43
0
10
189.700212548
20
173.826159284
10
189.748714417
20
173.45408705
10
189.250730223
20
173.603452326
0
SPLINE
5
11B
100
AcDbEntity
8
Logo
6
ByLayer
62
7
370
-1
100
AcDbSpline
210
0
220
0
230
1
70
8
71
3
72
8
73
4
74
0
42
1e-07
43
1e-07
40
0
40
0
40
0
40
0
40
1
40
1
40
1
40
1
10
175.242807144
20
176.389195375
30
0
10
175.584887585
20
175.842344163
30
0
10
178.331669616
20
172.282728746
30
0
10
178.681564436
20
171.932833926
30
0
0
SPLINE
5
11C
100
AcDbEntity
8
Logo
6
ByLayer
62
7
370
-1
100
AcDbSpline
210
0
220
0
230
1
70
8
71
3
72
8
73
4
74
0
42
1e-07
43
1e-07
40
0
40
0
40
0
40
0
40
1
40
1
40
1
40
1
10
178.681564436
20
171.932833926
30
0
10
179.013852863
20
171.600545499
30
0
10
182.296117242
20
167.337338469
30
0
10
182.645674347
20
166.78400224
30
0
0
SPLINE
5
11D
100
AcDbEntity
8
Logo
6
ByLayer
62
7
370
-1
100
AcDbSpline
210
0
220
0
230
1
70
8
71
3
72
8
73
4
74
0
42
1e-07
43
1e-07
40
0
40
0
40
0
40
0
40
1
40
1
40
1
40
1
10
182.645674347
20
166.78400224
30
0
10
182.783721956
20
166.565478526
30
0
10
182.74818588
20
166.480821722
30
0
10
182.364677749
20
166.114587362
30
0
0
SPLINE
5
11E
100
AcDbEntity
8
Logo
6
ByLayer
62
7
370
-1
100
AcDbSpline
210
0
220
0
230
1
70
8
71
3
72
8
73
4
74
0
42
1e-07
43
1e-07
40
0
40
0
40
0
40
0
40
1
40
1
40
1
40
1
10
182.364677749
20
166.114587362
30
0
10
182.123213229
20
165.883995315
30
0
10
181.531095304
20
165.424802717
30
0
10
181.048866015
20
165.094153363
30
0
0
LWPOLYLINE
5
11F
100
AcDbEntity
8
Logo
6
ByLayer
62
7
370
-1
100
AcDbPolyline
90
3
70
0
43
0
10
175.64606703
20
176.617888698
10
175.068271694
20
176.668208397
10
175.242807144
20
176.389195375
0
SPLINE
5
120
100
AcDbEntity
8
Logo
6
ByLayer
62
7
370
-1
100
AcDbSpline
210
0
220
0
230
1
70
8
71
3
72
8
73
4
74
0
42
1e-07
43
1e-07
40
0
40
0
40
0
40
0
40
1
40
1
40
1
40
1
10
206.971553349
20
190.902576766
30
0
10
205.701947931
20
190.10206825
30
0
10
203.96138281
20
189.350673674
30
0
10
203.121294417
20
189.240435444
30
0
0
SPLINE
5
121
100
AcDbEntity
8
Logo
6
ByLayer
62
7
370
-1
100
AcDbSpline
210
0
220
0
230
1
70
8
71
3
72
8
73
4
74
0
42
1e-07
43
1e-07
40
0
40
0
40
0
40
0
40
1
40
1
40
1
40
1
10
203.121294417
20
189.240435444
30
0
10
202.910935241
20
189.212831127
30
0
10
202.685128044
20
189.136550993
30
0
10
202.619499484
20
189.070922433
30
0
0
SPLINE
5
122
100
AcDbEntity
8
Logo
6
ByLayer
62
7
370
-1
100
AcDbSpline
210
0
220
0
230
1
70
8
71
3
72
8
73
4
74
0
42
1e-07
43
1e-07
40
0
40
0
40
0
40
0
40
1
40
1
40
1
40
1
10
202.619499484
20
189.070922433
30
0
10
202.553870923
20
189.005293872
30
0
10
202.416508077
20
188.969980111
30
0
10
202.314247992
20
188.992446308
30
0
0
SPLINE
5
123
100
AcDbEntity
8
Logo
6
ByLayer
62
7
370
-1
100
AcDbSpline
210
0
220
0
230
1
70
8
71
3
72
8
73
4
74
0
42
1e-07
43
1e-07
40
0
40
0
40
0
40
0
40
1
40
1
40
1
40
1
10
202.314247992
20
188.992446308
30
0
10
202.211988754
20
189.014912787
30
0
10
201.714220936
20
188.998380914
30
0
10
201.208097661
20
188.955710696
30
0
0
SPLINE
5
124
100
AcDbEntity
8
Logo
6
ByLayer
62
7
370
-1
100
AcDbSpline
210
0
220
0
230
1
70
8
71
3
72
8
73
4
74
0
42
1e-07
43
1e-07
40
0
40
0
40
0
40
0
40
1
40
1
40
1
40
1
10
201.208097661
20
188.955710696
30
0
10
200.212706839
20
188.871791264
30
0
10
199.970270188
20
188.872139443
30
0
10
199.004375618
20
188.958869484
30
0
0
SPLINE
5
125
100
AcDbEntity
8
Logo
6
ByLayer
62
7
370
-1
100
AcDbSpline
210
0
220
0
230
1
70
8
71
3
72
8
73
4
74
0
42
1e-07
43
1e-07
40
0
40
0
40
0
40
0
40
1
40
1
40
1
40
1
10
199.004375618
20
188.958869484
30
0
10
197.955192638
20
189.053079866
30
0
10
196.336943414
20
189.576212453
30
0
10
194.834336696
20
190.306921045
30
0
0
SPLINE
5
126
100
AcDbEntity
8
Logo
6
ByLayer
62
7
370
-1
100
AcDbSpline
210
0
220
0
230
1
70
8
71
3
72
8
73
4
74
0
42
1e-07
43
1e-07
40
0
40
0
40
0
40
0
40
1
40
1
40
1
40
1
10
194.834336696
20
190.306921045
30
0
10
194.006236307
20
190.709620336
30
0
10
193.70304787
20
190.940935046
30
0
10
192.453973722
20
192.122983391
30
0
0
SPLINE
5
127
100
AcDbEntity
8
Logo
6
ByLayer
62
7
370
-1
100
AcDbSpline
210
0
220
0
230
1
70
8
71
3
72
8
73
4
74
0
42
1e-07
43
1e-07
40
0
40
0
40
0
40
0
40
1
40
1
40
1
40
1
10
192.453973722
20
192.122983391
30
0
10
190.848798337
20
193.642025251
30
0
10
190.441012402
20
194.211471635
30
0
10
189.637977818
20
196.055334591
30
0
0
SPLINE
5
128
100
AcDbEntity
8
Logo
6
ByLayer
62
7
370
-1
100
AcDbSpline
210
0
220
0
230
1
70
8
71
3
72
8
73
4
74
0
42
1e-07
43
1e-07
40
0
40
0
40
0
40
0
40
1
40
1
40
1
40
1
10
189.637977818
20
196.055334591
30
0
10
189.008248317
20
197.501266701
30
0
10
188.692808831
20
199.051233169
30
0
10
188.708480014
20
200.622583394
30
0
0
SPLINE
5
129
100
AcDbEntity
8
Logo
6
ByLayer
62
7
370
-1
100
AcDbSpline
210
0
220
0
230
1
70
8
71
3
72
8
73
4
74
0
42
1e-07
43
1e-07
40
0
40
0
40
0
40
0
40
1
40
1
40
1
40
1
10
188.708480014
20
200.622583394
30
0
10
188.721986319
20
201.976825251
30
0
10
189.029026509
20
203.963281946
30
0
10
189.260641315
20
204.194896753
30
0
0
SPLINE
5
12A
100
AcDbEntity
8
Logo
6
ByLayer
62
7
370
-1
100
AcDbSpline
210
0
220
0
230
1
70
8
71
3
72
8
73
4
74
0
42
1e-07
43
1e-07
40
0
40
0
40
0
40
0
40
1
40
1
40
1
40
1
10
189.260641315
20
204.194896753
30
0
10
189.333266272
20
204.26752171
30
0
10
189.397317419
20
204.399867492
30
0
10
189.40297795
20
204.488998868
30
0
0
SPLINE
5
12B
100
AcDbEntity
8
Logo
6
ByLayer
62
7
370
-1
100
AcDbSpline
210
0
220
0
230
1
70
8
71
3
72
8
73
4
74
0
42
1e-07
43
1e-07
40
0
40
0
40
0
40
0
40
1
40
1
40
1
40
1
10
189.40297795
20
204.488998868
30
0
10
189.453467637
20
205.283999022
30
0
10
190.798424899
20
207.394714461
30
0
10
192.117889546
20
208.749659464
30
0
0
SPLINE
5
12C
100
AcDbEntity
8
Logo
6
ByLayer
62
7
370
-1
100
AcDbSpline
210
0
220
0
230
1
70
8
71
3
72
8
73
4
74
0
42
1e-07
43
1e-07
40
0
40
0
40
0
40
0
40
1
40
1
40
1
40
1
10
192.117889546
20
208.749659464
30
0
10
193.414324009
20
210.080954857
30
0
10
195.411723324
20
211.403041739
30
0
10
196.426846667
20
211.601777494
30
0
0
SPLINE
5
12D
100
AcDbEntity
8
Logo
6
ByLayer
62
7
370
-1
100
AcDbSpline
210
0
220
0
230
1
70
8
71
3
72
8
73
4
74
0
42
1e-07
43
1e-07
40
0
40
0
40
0
40
0
40
1
40
1
40
1
40
1
10
196.426846667
20
211.601777494
30
0
10
196.591440478
20
211.63400035
30
0
10
196.779131225
20
211.713386663
30
0
10
196.843935865
20
211.778191302
30
0
0
SPLINE
5
12E
100
AcDbEntity
8
Logo
6
ByLayer
62
7
370
-1
100
AcDbSpline
210
0
220
0
230
1
70
8
71
3
72
8
73
4
74
0
42
1e-07
43
1e-07
40
0
40
0
40
0
40
0
40
1
40
1
40
1
40
1
10
196.843935865
20
211.778191302
30
0
10
196.964185878
20
211.898441316
30
0
10
198.038981398
20
212.15947233
30
0
10
198.460900134
20
212.170895216
30
0
0
SPLINE
5
12F
100
AcDbEntity
8
Logo
6
ByLayer
62
7
370
-1
100
AcDbSpline
210
0
220
0
230
1
70
8
71
3
72
8
73
4
74
0
42
1e-07
43
1e-07
40
0
40
0
40
0
40
0
40
1
40
1
40
1
40
1
10
198.460900134
20
212.170895216
30
0
10
198.589277068
20
212.174370504
30
0
10
198.727489008
20
212.210391372
30
0
10
198.768039036
20
212.2509414
30
0
0
SPLINE
5
130
100
AcDbEntity
8
Logo
6
ByLayer
62
7
370
-1
100
AcDbSpline
210
0
220
0
230
1
70
8
71
3
72
8
73
4
74
0
42
1e-07
43
1e-07
40
0
40
0
40
0
40
0
40
1
40
1
40
1
40
1
10
198.768039036
20
212.2509414
30
0
10
198.875908458
20
212.358810823
30
0
10
202.120365535
20
212.353631973
30
0
10
202.228579742
20
212.245417765
30
0
0
SPLINE
5
131
100
AcDbEntity
8
Logo
6
ByLayer
62
7
370
-1
100
AcDbSpline
210
0
220
0
230
1
70
8
71
3
72
8
73
4
74
0
42
1e-07
43
1e-07
40
0
40
0
40
0
40
0
40
1
40
1
40
1
40
1
10
202.228579742
20
212.245417765
30
0
10
202.279069429
20
212.194928078
30
0
10
202.588955582
20
212.120837147
30
0
10
202.917215197
20
212.080771062
30
0
0
SPLINE
5
132
100
AcDbEntity
8
Logo
6
ByLayer
62
7
370
-1
100
AcDbSpline
210
0
220
0
230
1
70
8
71
3
72
8
73
4
74
0
42
1e-07
43
1e-07
40
0
40
0
40
0
40
0
40
1
40
1
40
1
40
1
10
202.917215197
20
212.080771062
30
0
10
205.042533805
20
211.821357909
30
0
10
208.295036626
20
209.697343771
30
0
10
209.770085413
20
207.605570592
30
0
0
SPLINE
5
133
100
AcDbEntity
8
Logo
6
ByLayer
62
7
370
-1
100
AcDbSpline
210
0
220
0
230
1
70
8
71
3
72
8
73
4
74
0
42
1e-07
43
1e-07
40
0
40
0
40
0
40
0
40
1
40
1
40
1
40
1
10
209.770085413
20
207.605570592
30
0
10
210.007352548
20
207.269099204
30
0
10
210.381384599
20
206.738847465
30
0
10
210.601265958
20
206.427231729
30
0
0
SPLINE
5
134
100
AcDbEntity
8
Logo
6
ByLayer
62
7
370
-1
100
AcDbSpline
210
0
220
0
230
1
70
8
71
3
72
8
73
4
74
0
42
1e-07
43
1e-07
40
0
40
0
40
0
40
0
40
1
40
1
40
1
40
1
10
210.601265958
20
206.427231729
30
0
10
210.821148166
20
206.115615145
30
0
10
211.141451133
20
205.46875669
30
0
10
211.313050675
20
204.989768779
30
0
0
SPLINE
5
135
100
AcDbEntity
8
Logo
6
ByLayer
62
7
370
-1
100
AcDbSpline
210
0
220
0
230
1
70
8
71
3
72
8
73
4
74
0
42
1e-07
43
1e-07
40
0
40
0
40
0
40
0
40
1
40
1
40
1
40
1
10
211.313050675
20
204.989768779
30
0
10
211.484650217
20
204.510783131
30
0
10
211.669205087
20
204.074727915
30
0
10
211.723172891
20
204.020760111
30
0
0
SPLINE
5
136
100
AcDbEntity
8
Logo
6
ByLayer
62
7
370
-1
100
AcDbSpline
210
0
220
0
230
1
70
8
71
3
72
8
73
4
74
0
42
1e-07
43
1e-07
40
0
40
0
40
0
40
0
40
1
40
1
40
1
40
1
10
211.723172891
20
204.020760111
30
0
10
211.777142109
20
203.966790893
30
0
10
211.824008298
20
203.817467194
30
0
10
211.827321517
20
203.688928192
30
0
0
SPLINE
5
137
100
AcDbEntity
8
Logo
6
ByLayer
62
7
370
-1
100
AcDbSpline
210
0
220
0
230
1
70
8
71
3
72
8
73
4
74
0
42
1e-07
43
1e-07
40
0
40
0
40
0
40
0
40
1
40
1
40
1
40
1
10
211.827321517
20
203.688928192
30
0
10
211.830635868
20
203.560388625
30
0
10
211.910015675
20
203.052405376
30
0
10
212.003721749
20
202.560076622
30
0
0
SPLINE
5
138
100
AcDbEntity
8
Logo
6
ByLayer
62
7
370
-1
100
AcDbSpline
210
0
220
0
230
1
70
8
71
3
72
8
73
4
74
0
42
1e-07
43
1e-07
40
0
40
0
40
0
40
0
40
1
40
1
40
1
40
1
10
212.003721749
20
202.560076622
30
0
10
212.097428388
20
202.067748435
30
0
10
212.154531786
20
201.500810865
30
0
10
212.130618001
20
201.300218248
30
0
0
SPLINE
5
139
100
AcDbEntity
8
Logo
6
ByLayer
62
7
370
-1
100
AcDbSpline
210
0
220
0
230
1
70
8
71
3
72
8
73
4
74
0
42
1e-07
43
1e-07
40
0
40
0
40
0
40
0
40
1
40
1
40
1
40
1
10
212.130618001
20
201.300218248
30
0
10
212.106703932
20
201.099625913
30
0
10
212.127593563
20
200.895049174
30
0
10
212.177038429
20
200.845604308
30
0
0
SPLINE
5
13A
100
AcDbEntity
8
Logo
6
ByLayer
62
7
370
-1
100
AcDbSpline
210
0
220
0
230
1
70
8
71
3
72
8
73
4
74
0
42
1e-07
43
1e-07
40
0
40
0
40
0
40
0
40
1
40
1
40
1
40
1
10
212.177038429
20
200.845604308
30
0
10
212.226483295
20
200.796159442
30
0
10
212.236369214
20
200.602585849
30
0
10
212.199009086
20
200.415439574
30
0
0
SPLINE
5
13B
100
AcDbEntity
8
Logo
6
ByLayer
62
7
370
-1
100
AcDbSpline
210
0
220
0
230
1
70
8
71
3
72
8
73
4
74
0
42
1e-07
43
1e-07
40
0
40
0
40
0
40
0
40
1
40
1
40
1
40
1
10
212.199009086
20
200.415439574
30
0
10
212.161648957
20
200.228293299
30
0
10
212.117182689
20
199.844156692
30
0
10
212.100195156
20
199.561802166
30
0
0
SPLINE
5
13C
100
AcDbEntity
8
Logo
6
ByLayer
62
7
370
-1
100
AcDbSpline
210
0
220
0
230
1
70
8
71
3
72
8
73
4
74
0
42
1e-07
43
1e-07
40
0
40
0
40
0
40
0
40
1
40
1
40
1
40
1
10
212.100195156
20
199.561802166
30
0
10
212.052406899
20
198.767469238
30
0
10
211.617775797
20
196.998590996
30
0
10
211.288506999
20
196.258369838
30
0
0
SPLINE
5
13D
100
AcDbEntity
8
Logo
6
ByLayer
62
7
370
-1
100
AcDbSpline
210
0
220
0
230
1
70
8
71
3
72
8
73
4
74
0
42
1e-07
43
1e-07
40
0
40
0
40
0
40
0
40
1
40
1
40
1
40
1
10
211.288506999
20
196.258369838
30
0
10
210.539073088
20
194.573579604
30
0
10
209.871776985
20
193.601103001
30
0
10
208.617599223
20
192.36595716
30
0
0
SPLINE
5
13E
100
AcDbEntity
8
Logo
6
ByLayer
62
7
370
-1
100
AcDbSpline
210
0
220
0
230
1
70
8
71
3
72
8
73
4
74
0
42
1e-07
43
1e-07
40
0
40
0
40
0
40
0
40
1
40
1
40
1
40
1
10
208.617599223
20
192.36595716
30
0
10
207.957055423
20
191.715439569
30
0
10
207.216335897
20
191.056916963
30
0
10
206.971553349
20
190.902576766
30
0
0
LWPOLYLINE
5
13F
100
AcDbEntity
8
Logo
6
ByLayer
62
7
370
-1
100
AcDbPolyline
90
3
70
0
43
0
10
181.048866015
20
165.094153363
10
181.048866015
20
165.094153363
10
181.048866015
20
165.094153363
0
SPLINE
5
140
100
AcDbEntity
8
Logo
6
ByLayer
62
7
370
-1
100
AcDbSpline
210
0
220
0
230
1
70
8
71
3
72
8
73
4
74
0
42
1e-07
43
1e-07
40
0
40
0
40
0
40
0
40
1
40
1
40
1
40
1
10
208.076374036
20
196.178047316
30
0
10
208.446166558
20
196.778202217
30
0
10
208.73690737
20
197.426596508
30
0
10
208.813760544
20
197.822530768
30
0
0
SPLINE
5
141
100
AcDbEntity
8
Logo
6
ByLayer
62
7
370
-1
100
AcDbSpline
210
0
220
0
230
1
70
8
71
3
72
8
73
4
74
0
42
1e-07
43
1e-07
40
0
40
0
40
0
40
0
40
1
40
1
40
1
40
1
10
208.813760544
20
197.822530768
30
0
10
208.883544063
20
198.182045351
30
0
10
208.973994052
20
198.509546948
30
0
10
209.014758757
20
198.550311654
30
0
0
SPLINE
5
142
100
AcDbEntity
8
Logo
6
ByLayer
62
7
370
-1
100
AcDbSpline
210
0
220
0
230
1
70
8
71
3
72
8
73
4
74
0
42
1e-07
43
1e-07
40
0
40
0
40
0
40
0
40
1
40
1
40
1
40
1
10
209.014758757
20
198.550311654
30
0
10
209.09638971
20
198.631942607
30
0
10
209.12150982
20
200.652623836
30
0
10
209.050379686
20
201.415612135
30
0
0
SPLINE
5
143
100
AcDbEntity
8
Logo
6
ByLayer
62
7
370
-1
100
AcDbSpline
210
0
220
0
230
1
70
8
71
3
72
8
73
4
74
0
42
1e-07
43
1e-07
40
0
40
0
40
0
40
0
40
1
40
1
40
1
40
1
10
209.050379686
20
201.415612135
30
0
10
209.025681294
20
201.680531105
30
0
10
208.826606128
20
202.39833924
30
0
10
208.607989925
20
203.010740947
30
0
0
SPLINE
5
144
100
AcDbEntity
8
Logo
6
ByLayer
62
7
370
-1
100
AcDbSpline
210
0
220
0
230
1
70
8
71
3
72
8
73
4
74
0
42
1e-07
43
1e-07
40
0
40
0
40
0
40
0
40
1
40
1
40
1
40
1
10
208.607989925
20
203.010740947
30
0
10
208.283266126
20
203.920383475
30
0
10
208.043482257
20
204.343034209
30
0
10
207.298040389
20
205.31970056
30
0
0
SPLINE
5
145
100
AcDbEntity
8
Logo
6
ByLayer
62
7
370
-1
100
AcDbSpline
210
0
220
0
230
1
70
8
71
3
72
8
73
4
74
0
42
1e-07
43
1e-07
40
0
40
0
40
0
40
0
40
1
40
1
40
1
40
1
10
207.298040389
20
205.31970056
30
0
10
206.466751232
20
206.408843276
30
0
10
206.273120222
20
206.601760956
30
0
10
205.12153828
20
207.488172198
30
0
0
SPLINE
5
146
100
AcDbEntity
8
Logo
6
ByLayer
62
7
370
-1
100
AcDbSpline
210
0
220
0
230
1
70
8
71
3
72
8
73
4
74
0
42
1e-07
43
1e-07
40
0
40
0
40
0
40
0
40
1
40
1
40
1
40
1
10
205.12153828
20
207.488172198
30
0
10
204.10183939
20
208.273070342
30
0
10
203.70480063
20
208.506547385
30
0
10
203.067513572
20
208.696035031
30
0
0
SPLINE
5
147
100
AcDbEntity
8
Logo
6
ByLayer
62
7
370
-1
100
AcDbSpline
210
0
220
0
230
1
70
8
71
3
72
8
73
4
74
0
42
1e-07
43
1e-07
40
0
40
0
40
0
40
0
40
1
40
1
40
1
40
1
10
203.067513572
20
208.696035031
30
0
10
202.633022477
20
208.8252274
30
0
10
202.233306044
20
208.975150725
30
0
10
202.17925763
20
209.029199139
30
0
0
SPLINE
5
148
100
AcDbEntity
8
Logo
6
ByLayer
62
7
370
-1
100
AcDbSpline
210
0
220
0
230
1
70
8
71
3
72
8
73
4
74
0
42
1e-07
43
1e-07
40
0
40
0
40
0
40
0
40
1
40
1
40
1
40
1
10
202.17925763
20
209.029199139
30
0
10
202.125209216
20
209.083247553
30
0
10
201.776071283
20
209.14821511
30
0
10
201.403396311
20
209.173572242
30
0
0
SPLINE
5
149
100
AcDbEntity
8
Logo
6
ByLayer
62
7
370
-1
100
AcDbSpline
210
0
220
0
230
1
70
8
71
3
72
8
73
4
74
0
42
1e-07
43
1e-07
40
0
40
0
40
0
40
0
40
1
40
1
40
1
40
1
10
201.403396311
20
209.173572242
30
0
10
201.030721904
20
209.19892994
30
0
10
200.695249234
20
209.248668114
30
0
10
200.657901834
20
209.284099537
30
0
0
SPLINE
5
14A
100
AcDbEntity
8
Logo
6
ByLayer
62
7
370
-1
100
AcDbSpline
210
0
220
0
230
1
70
8
71
3
72
8
73
4
74
0
42
1e-07
43
1e-07
40
0
40
0
40
0
40
0
40
1
40
1
40
1
40
1
10
200.657901834
20
209.284099537
30
0
10
200.564969901
20
209.372257651
30
0
10
199.200780466
20
209.309445639
30
0
10
198.388311381
20
209.179592549
30
0
0
SPLINE
5
14B
100
AcDbEntity
8
Logo
6
ByLayer
62
7
370
-1
100
AcDbSpline
210
0
220
0
230
1
70
8
71
3
72
8
73
4
74
0
42
1e-07
43
1e-07
40
0
40
0
40
0
40
0
40
1
40
1
40
1
40
1
10
198.388311381
20
209.179592549
30
0
10
197.594201616
20
209.052673105
30
0
10
196.224808158
20
208.500936634
30
0
10
195.433416794
20
207.98904761
30
0
0
SPLINE
5
14C
100
AcDbEntity
8
Logo
6
ByLayer
62
7
370
-1
100
AcDbSpline
210
0
220
0
230
1
70
8
71
3
72
8
73
4
74
0
42
1e-07
43
1e-07
40
0
40
0
40
0
40
0
40
1
40
1
40
1
40
1
10
195.433416794
20
207.98904761
30
0
10
194.69683158
20
207.512610374
30
0
10
193.532652672
20
206.34640405
30
0
10
193.052337663
20
205.603817479
30
0
0
SPLINE
5
14D
100
AcDbEntity
8
Logo
6
ByLayer
62
7
370
-1
100
AcDbSpline
210
0
220
0
230
1
70
8
71
3
72
8
73
4
74
0
42
1e-07
43
1e-07
40
0
40
0
40
0
40
0
40
1
40
1
40
1
40
1
10
193.052337663
20
205.603817479
30
0
10
192.571269727
20
204.860075779
30
0
10
191.88434943
20
203.175540951
30
0
10
191.802385006
20
202.538561626
30
0
0
SPLINE
5
14E
100
AcDbEntity
8
Logo
6
ByLayer
62
7
370
-1
100
AcDbSpline
210
0
220
0
230
1
70
8
71
3
72
8
73
4
74
0
42
1e-07
43
1e-07
40
0
40
0
40
0
40
0
40
1
40
1
40
1
40
1
10
191.802385006
20
202.538561626
30
0
10
191.711669146
20
201.833569094
30
0
10
191.695758395
20
200.100831362
30
0
10
191.779234047
20
200.01735571
30
0
0
SPLINE
5
14F
100
AcDbEntity
8
Logo
6
ByLayer
62
7
370
-1
100
AcDbSpline
210
0
220
0
230
1
70
8
71
3
72
8
73
4
74
0
42
1e-07
43
1e-07
40
0
40
0
40
0
40
0
40
1
40
1
40
1
40
1
10
191.779234047
20
200.01735571
30
0
10
191.818111061
20
199.978478696
30
0
10
191.865988978
20
199.725536418
30
0
10
191.885630707
20
199.455262104
30
0
0
SPLINE
5
150
100
AcDbEntity
8
Logo
6
ByLayer
62
7
370
-1
100
AcDbSpline
210
0
220
0
230
1
70
8
71
3
72
8
73
4
74
0
42
1e-07
43
1e-07
40
0
40
0
40
0
40
0
40
1
40
1
40
1
40
1
10
191.885630707
20
199.455262104
30
0
10
191.905273002
20
199.184986659
30
0
10
192.177633564
20
198.362937125
30
0
10
192.490876777
20
197.628483979
30
0
0
LWPOLYLINE
5
151
100
AcDbEntity
8
Logo
6
ByLayer
62
7
370
-1
100
AcDbPolyline
90
2
70
0
43
0
10
206.971553349
20
190.902576766
10
206.971553349
20
190.902576766
0
SPLINE
5
152
100
AcDbEntity
8
Logo
6
ByLayer
62
7
370
-1
100
AcDbSpline
210
0
220
0
230
1
70
8
71
3
72
8
73
4
74
0
42
1e-07
43
1e-07
40
0
40
0
40
0
40
0
40
1
40
1
40
1
40
1
10
194.556020315
20
194.795312168
30
0
10
195.913425484
20
193.4359271
30
0
10
196.121658249
20
193.266939327
30
0
10
196.809342221
20
192.966699525
30
0
0
SPLINE
5
153
100
AcDbEntity
8
Logo
6
ByLayer
62
7
370
-1
100
AcDbSpline
210
0
220
0
230
1
70
8
71
3
72
8
73
4
74
0
42
1e-07
43
1e-07
40
0
40
0
40
0
40
0
40
1
40
1
40
1
40
1
10
196.809342221
20
192.966699525
30
0
10
197.226080411
20
192.784754162
30
0
10
197.783635522
20
192.536083092
30
0
10
198.048353391
20
192.414099535
30
0
0
SPLINE
5
154
100
AcDbEntity
8
Logo
6
ByLayer
62
7
370
-1
100
AcDbSpline
210
0
220
0
230
1
70
8
71
3
72
8
73
4
74
0
42
1e-07
43
1e-07
40
0
40
0
40
0
40
0
40
1
40
1
40
1
40
1
10
198.048353391
20
192.414099535
30
0
10
199.234692459
20
191.867426232
30
0
10
201.591718929
20
191.770060174
30
0
10
203.127767555
20
192.204273518
30
0
0
SPLINE
5
155
100
AcDbEntity
8
Logo
6
ByLayer
62
7
370
-1
100
AcDbSpline
210
0
220
0
230
1
70
8
71
3
72
8
73
4
74
0
42
1e-07
43
1e-07
40
0
40
0
40
0
40
0
40
1
40
1
40
1
40
1
10
203.127767555
20
192.204273518
30
0
10
204.989106514
20
192.730443836
30
0
10
206.895186948
20
194.261040952
30
0
10
208.076372339
20
196.178045619
30
0
0
LWPOLYLINE
5
156
100
AcDbEntity
8
Logo
6
ByLayer
62
7
370
-1
100
AcDbPolyline
90
3
70
0
43
0
10
192.490876777
20
197.628483979
10
193.06040462
20
196.293114803
10
194.556020315
20
194.795312168
0
LWPOLYLINE
5
157
100
AcDbEntity
8
Logo
6
ByLayer
62
7
370
-1
100
AcDbPolyline
90
3
70
0
43
0
10
208.076372339
20
196.178045619
10
208.076372339
20
196.178045619
10
208.076374036
20
196.178047316
0
SPLINE
5
158
100
AcDbEntity
8
Logo
6
ByLayer
62
7
370
-1
100
AcDbSpline
210
0
220
0
230
1
70
8
71
3
72
8
73
4
74
0
42
1e-07
43
1e-07
40
0
40
0
40
0
40
0
40
1
40
1
40
1
40
1
10
208.578931513
20
219.546868886
30
0
10
221.377883865
20
219.593859243
30
0
10
224.099149805
20
219.621539928
30
0
10
224.183202457
20
219.705592579
30
0
0
SPLINE
5
159
100
AcDbEntity
8
Logo
6
ByLayer
62
7
370
-1
100
AcDbSpline
210
0
220
0
230
1
70
8
71
3
72
8
73
4
74
0
42
1e-07
43
1e-07
40
0
40
0
40
0
40
0
40
1
40
1
40
1
40
1
10
224.183202457
20
219.705592579
30
0
10
224.241666611
20
219.764056734
30
0
10
222.507172992
20
221.515433234
30
0
10
219.173199874
20
224.764361771
30
0
0
SPLINE
5
15A
100
AcDbEntity
8
Logo
6
ByLayer
62
7
370
-1
100
AcDbSpline
210
0
220
0
230
1
70
8
71
3
72
8
73
4
74
0
42
1e-07
43
1e-07
40
0
40
0
40
0
40
0
40
1
40
1
40
1
40
1
10
219.173199874
20
224.764361771
30
0
10
216.368515133
20
227.497501449
30
0
10
214.096023844
20
229.755957516
30
0
10
214.123220303
20
229.783153974
30
0
0
SPLINE
5
15B
100
AcDbEntity
8
Logo
6
ByLayer
62
7
370
-1
100
AcDbSpline
210
0
220
0
230
1
70
8
71
3
72
8
73
4
74
0
42
1e-07
43
1e-07
40
0
40
0
40
0
40
0
40
1
40
1
40
1
40
1
10
214.123220303
20
229.783153974
30
0
10
214.150414781
20
229.810348452
30
0
10
214.43592074
20
230.211060208
30
0
10
214.757678933
20
230.673625423
30
0
0
SPLINE
5
15C
100
AcDbEntity
8
Logo
6
ByLayer
62
7
370
-1
100
AcDbSpline
210
0
220
0
230
1
70
8
71
3
72
8
73
4
74
0
42
1e-07
43
1e-07
40
0
40
0
40
0
40
0
40
1
40
1
40
1
40
1
10
214.757678933
20
230.673625423
30
0
10
215.079437126
20
231.136189506
30
0
10
215.55301171
20
231.773755729
30
0
10
215.810068218
20
232.090437744
30
0
0
LWPOLYLINE
5
15D
100
AcDbEntity
8
Logo
6
ByLayer
62
7
370
-1
100
AcDbPolyline
90
3
70
0
43
0
10
211.419930148
20
211.399356299
10
203.291827642
20
219.527458805
10
208.578931513
20
219.546868886
0
SPLINE
5
15E
100
AcDbEntity
8
Logo
6
ByLayer
62
7
370
-1
100
AcDbSpline
210
0
220
0
230
1
70
8
71
3
72
8
73
4
74
0
42
1e-07
43
1e-07
40
0
40
0
40
0
40
0
40
1
40
1
40
1
40
1
10
224.575385091
20
216.415458385
30
0
10
215.185138276
20
216.41123328
30
0
10
211.713309034
20
216.368046592
30
0
10
211.713309034
20
216.25546501
30
0
0
SPLINE
5
15F
100
AcDbEntity
8
Logo
6
ByLayer
62
7
370
-1
100
AcDbSpline
210
0
220
0
230
1
70
8
71
3
72
8
73
4
74
0
42
1e-07
43
1e-07
40
0
40
0
40
0
40
0
40
1
40
1
40
1
40
1
10
211.713309034
20
216.25546501
30
0
10
211.713309034
20
216.210147385
30
0
10
213.937498989
20
213.897671471
30
0
10
216.655951776
20
211.116628421
30
0
0
SPLINE
5
160
100
AcDbEntity
8
Logo
6
ByLayer
62
7
370
-1
100
AcDbSpline
210
0
220
0
230
1
70
8
71
3
72
8
73
4
74
0
42
1e-07
43
1e-07
40
0
40
0
40
0
40
0
40
1
40
1
40
1
40
1
10
216.655951776
20
211.116628421
30
0
10
221.063642783
20
206.607456277
30
0
10
221.587415726
20
206.040188347
30
0
10
221.495304885
20
205.875406729
30
0
0
SPLINE
5
161
100
AcDbEntity
8
Logo
6
ByLayer
62
7
370
-1
100
AcDbSpline
210
0
220
0
230
1
70
8
71
3
72
8
73
4
74
0
42
1e-07
43
1e-07
40
0
40
0
40
0
40
0
40
1
40
1
40
1
40
1
10
221.495304885
20
205.875406729
30
0
10
221.438496209
20
205.773776534
30
0
10
221.049312557
20
205.257759986
30
0
10
220.630453329
20
204.728702975
30
0
0
SPLINE
5
162
100
AcDbEntity
8
Logo
6
ByLayer
62
7
370
-1
100
AcDbSpline
210
0
220
0
230
1
70
8
71
3
72
8
73
4
74
0
42
1e-07
43
1e-07
40
0
40
0
40
0
40
0
40
1
40
1
40
1
40
1
10
220.630453329
20
204.728702975
30
0
10
220.211594385
20
204.199646247
30
0
10
219.796698633
20
203.655287729
30
0
10
219.708462171
20
203.519017787
30
0
0
LWPOLYLINE
5
163
100
AcDbEntity
8
Logo
6
ByLayer
62
7
370
-1
100
AcDbPolyline
90
5
70
0
43
0
10
215.810068218
20
232.090437744
10
216.277446284
20
232.666227159
10
224.401041126
20
224.542632318
10
232.524635119
20
216.419038325
10
224.575385091
20
216.415458385
0
SPLINE
5
164
100
AcDbEntity
8
Logo
6
ByLayer
62
7
370
-1
100
AcDbSpline
210
0
220
0
230
1
70
8
71
3
72
8
73
4
74
0
42
1e-07
43
1e-07
40
0
40
0
40
0
40
0
40
1
40
1
40
1
40
1
10
242.540129509
20
225.200505234
30
0
10
242.203422513
20
224.949560108
30
0
10
241.551534549
20
224.540149807
30
0
10
241.091488331
20
224.290699788
30
0
0
SPLINE
5
165
100
AcDbEntity
8
Logo
6
ByLayer
62
7
370
-1
100
AcDbSpline
210
0
220
0
230
1
70
8
71
3
72
8
73
4
74
0
42
1e-07
43
1e-07
40
0
40
0
40
0
40
0
40
1
40
1
40
1
40
1
10
241.091488331
20
224.290699788
30
0
10
240.631432497
20
224.041243547
30
0
10
240.13129276
20
223.759598108
30
0
10
239.980049973
20
223.664805635
30
0
0
SPLINE
5
166
100
AcDbEntity
8
Logo
6
ByLayer
62
7
370
-1
100
AcDbSpline
210
0
220
0
230
1
70
8
71
3
72
8
73
4
74
0
42
1e-07
43
1e-07
40
0
40
0
40
0
40
0
40
1
40
1
40
1
40
1
10
239.980049973
20
223.664805635
30
0
10
239.828815672
20
223.570021082
30
0
10
239.335868624
20
223.396113826
30
0
10
238.884623341
20
223.278354243
30
0
0
SPLINE
5
167
100
AcDbEntity
8
Logo
6
ByLayer
62
7
370
-1
100
AcDbSpline
210
0
220
0
230
1
70
8
71
3
72
8
73
4
74
0
42
1e-07
43
1e-07
40
0
40
0
40
0
40
0
40
1
40
1
40
1
40
1
10
238.884623341
20
223.278354243
30
0
10
238.433377774
20
223.160594942
30
0
10
238.022930855
20
223.022999034
30
0
10
237.972529415
20
222.972597594
30
0
0
SPLINE
5
168
100
AcDbEntity
8
Logo
6
ByLayer
62
7
370
-1
100
AcDbSpline
210
0
220
0
230
1
70
8
71
3
72
8
73
4
74
0
42
1e-07
43
1e-07
40
0
40
0
40
0
40
0
40
1
40
1
40
1
40
1
10
237.972529415
20
222.972597594
30
0
10
237.922128258
20
222.922196437
30
0
10
237.775083706
20
222.878875964
30
0
10
237.645771694
20
222.876333491
30
0
0
SPLINE
5
169
100
AcDbEntity
8
Logo
6
ByLayer
62
7
370
-1
100
AcDbSpline
210
0
220
0
230
1
70
8
71
3
72
8
73
4
74
0
42
1e-07
43
1e-07
40
0
40
0
40
0
40
0
40
1
40
1
40
1
40
1
10
237.645771694
20
222.876333491
30
0
10
237.516458552
20
222.873792715
30
0
10
237.057404547
20
222.815695407
30
0
10
236.625645146
20
222.747227106
30
0
0
SPLINE
5
16A
100
AcDbEntity
8
Logo
6
ByLayer
62
7
370
-1
100
AcDbSpline
210
0
220
0
230
1
70
8
71
3
72
8
73
4
74
0
42
1e-07
43
1e-07
40
0
40
0
40
0
40
0
40
1
40
1
40
1
40
1
10
236.625645146
20
222.747227106
30
0
10
234.302523881
20
222.378825605
30
0
10
231.341945004
20
222.954424384
30
0
10
229.165865463
20
224.197563077
30
0
0
SPLINE
5
16B
100
AcDbEntity
8
Logo
6
ByLayer
62
7
370
-1
100
AcDbSpline
210
0
220
0
230
1
70
8
71
3
72
8
73
4
74
0
42
1e-07
43
1e-07
40
0
40
0
40
0
40
0
40
1
40
1
40
1
40
1
10
229.165865463
20
224.197563077
30
0
10
227.730193756
20
225.017723788
30
0
10
225.873391311
20
226.709050235
30
0
10
225.110340221
20
227.89167473
30
0
0
SPLINE
5
16C
100
AcDbEntity
8
Logo
6
ByLayer
62
7
370
-1
100
AcDbSpline
210
0
220
0
230
1
70
8
71
3
72
8
73
4
74
0
42
1e-07
43
1e-07
40
0
40
0
40
0
40
0
40
1
40
1
40
1
40
1
10
225.110340221
20
227.89167473
30
0
10
223.987641046
20
229.631672468
30
0
10
223.297646532
20
231.098295937
30
0
10
223.399239674
20
231.528668842
30
0
0
SPLINE
5
16D
100
AcDbEntity
8
Logo
6
ByLayer
62
7
370
-1
100
AcDbSpline
210
0
220
0
230
1
70
8
71
3
72
8
73
4
74
0
42
1e-07
43
1e-07
40
0
40
0
40
0
40
0
40
1
40
1
40
1
40
1
10
223.399239674
20
231.528668842
30
0
10
223.418566034
20
231.610544171
30
0
10
223.364911337
20
231.747008991
30
0
10
223.280002803
20
231.831917525
30
0
0
SPLINE
5
16E
100
AcDbEntity
8
Logo
6
ByLayer
62
7
370
-1
100
AcDbSpline
210
0
220
0
230
1
70
8
71
3
72
8
73
4
74
0
42
1e-07
43
1e-07
40
0
40
0
40
0
40
0
40
1
40
1
40
1
40
1
10
223.280002803
20
231.831917525
30
0
10
223.195093421
20
231.916826907
30
0
10
223.104878758
20
232.291216472
30
0
10
223.07952106
20
232.663890878
30
0
0
SPLINE
5
16F
100
AcDbEntity
8
Logo
6
ByLayer
62
7
370
-1
100
AcDbSpline
210
0
220
0
230
1
70
8
71
3
72
8
73
4
74
0
42
1e-07
43
1e-07
40
0
40
0
40
0
40
0
40
1
40
1
40
1
40
1
10
223.07952106
20
232.663890878
30
0
10
223.05416308
20
233.036565002
30
0
10
222.984614319
20
233.39185335
30
0
10
222.924964771
20
233.453418875
30
0
0
SPLINE
5
170
100
AcDbEntity
8
Logo
6
ByLayer
62
7
370
-1
100
AcDbSpline
210
0
220
0
230
1
70
8
71
3
72
8
73
4
74
0
42
1e-07
43
1e-07
40
0
40
0
40
0
40
0
40
1
40
1
40
1
40
1
10
222.924964771
20
233.453418875
30
0
10
222.865315223
20
233.514984399
30
0
10
222.853464396
20
233.687410125
30
0
10
222.898629852
20
233.836585331
30
0
0
SPLINE
5
171
100
AcDbEntity
8
Logo
6
ByLayer
62
7
370
-1
100
AcDbSpline
210
0
220
0
230
1
70
8
71
3
72
8
73
4
74
0
42
1e-07
43
1e-07
40
0
40
0
40
0
40
0
40
1
40
1
40
1
40
1
10
222.898629852
20
233.836585331
30
0
10
222.943795308
20
233.985760538
30
0
10
222.930748056
20
234.302140759
30
0
10
222.869642434
20
234.539658776
30
0
0
SPLINE
5
172
100
AcDbEntity
8
Logo
6
ByLayer
62
7
370
-1
100
AcDbSpline
210
0
220
0
230
1
70
8
71
3
72
8
73
4
74
0
42
1e-07
43
1e-07
40
0
40
0
40
0
40
0
40
1
40
1
40
1
40
1
10
222.869642434
20
234.539658776
30
0
10
222.80852974
20
234.777167458
30
0
10
222.803843319
20
235.016809623
30
0
10
222.859225337
20
235.072191641
30
0
0
SPLINE
5
173
100
AcDbEntity
8
Logo
6
ByLayer
62
7
370
-1
100
AcDbSpline
210
0
220
0
230
1
70
8
71
3
72
8
73
4
74
0
42
1e-07
43
1e-07
40
0
40
0
40
0
40
0
40
1
40
1
40
1
40
1
10
222.859225337
20
235.072191641
30
0
10
222.914607637
20
235.127573941
30
0
10
222.953296843
20
235.377418242
30
0
10
222.945208107
20
235.627407077
30
0
0
SPLINE
5
174
100
AcDbEntity
8
Logo
6
ByLayer
62
7
370
-1
100
AcDbSpline
210
0
220
0
230
1
70
8
71
3
72
8
73
4
74
0
42
1e-07
43
1e-07
40
0
40
0
40
0
40
0
40
1
40
1
40
1
40
1
10
222.945208107
20
235.627407077
30
0
10
222.906844736
20
236.813072131
30
0
10
223.663231203
20
239.522633474
30
0
10
224.308133517
20
240.509727388
30
0
0
SPLINE
5
175
100
AcDbEntity
8
Logo
6
ByLayer
62
7
370
-1
100
AcDbSpline
210
0
220
0
230
1
70
8
71
3
72
8
73
4
74
0
42
1e-07
43
1e-07
40
0
40
0
40
0
40
0
40
1
40
1
40
1
40
1
10
224.308133517
20
240.509727388
30
0
10
225.452260291
20
242.260946628
30
0
10
225.821851712
20
242.751719746
30
0
10
226.529224365
20
243.4590924
30
0
0
SPLINE
5
176
100
AcDbEntity
8
Logo
6
ByLayer
62
7
370
-1
100
AcDbSpline
210
0
220
0
230
1
70
8
71
3
72
8
73
4
74
0
42
1e-07
43
1e-07
40
0
40
0
40
0
40
0
40
1
40
1
40
1
40
1
10
226.529224365
20
243.4590924
30
0
10
227.236589382
20
244.166457416
30
0
10
227.727362217
20
244.536048554
30
0
10
229.47858174
20
245.680175611
30
0
0
SPLINE
5
177
100
AcDbEntity
8
Logo
6
ByLayer
62
7
370
-1
100
AcDbSpline
210
0
220
0
230
1
70
8
71
3
72
8
73
4
74
0
42
1e-07
43
1e-07
40
0
40
0
40
0
40
0
40
1
40
1
40
1
40
1
10
229.47858174
20
245.680175611
30
0
10
230.103926896
20
246.088733141
30
0
10
231.888776417
20
246.708533165
30
0
10
232.99023467
20
246.899608973
30
0
0
SPLINE
5
178
100
AcDbEntity
8
Logo
6
ByLayer
62
7
370
-1
100
AcDbSpline
210
0
220
0
230
1
70
8
71
3
72
8
73
4
74
0
42
1e-07
43
1e-07
40
0
40
0
40
0
40
0
40
1
40
1
40
1
40
1
10
232.99023467
20
246.899608973
30
0
10
234.022864281
20
247.078747122
30
0
10
236.420342066
20
247.172384465
30
0
10
236.559240748
20
247.038993862
30
0
0
SPLINE
5
179
100
AcDbEntity
8
Logo
6
ByLayer
62
7
370
-1
100
AcDbSpline
210
0
220
0
230
1
70
8
71
3
72
8
73
4
74
0
42
1e-07
43
1e-07
40
0
40
0
40
0
40
0
40
1
40
1
40
1
40
1
10
236.559240748
20
247.038993862
30
0
10
236.607413105
20
246.992736916
30
0
10
236.951744126
20
246.934146048
30
0
10
237.32441825
20
246.908788068
30
0
0
SPLINE
5
17A
100
AcDbEntity
8
Logo
6
ByLayer
62
7
370
-1
100
AcDbSpline
210
0
220
0
230
1
70
8
71
3
72
8
73
4
74
0
42
1e-07
43
1e-07
40
0
40
0
40
0
40
0
40
1
40
1
40
1
40
1
10
237.32441825
20
246.908788068
30
0
10
237.697092656
20
246.88343037
30
0
10
238.071482221
20
246.793215707
30
0
10
238.156391603
20
246.708306325
30
0
0
SPLINE
5
17B
100
AcDbEntity
8
Logo
6
ByLayer
62
7
370
-1
100
AcDbSpline
210
0
220
0
230
1
70
8
71
3
72
8
73
4
74
0
42
1e-07
43
1e-07
40
0
40
0
40
0
40
0
40
1
40
1
40
1
40
1
10
238.156391603
20
246.708306325
30
0
10
238.241300137
20
246.623397791
30
0
10
238.376632172
20
246.569470717
30
0
10
238.457135148
20
246.588476899
30
0
0
SPLINE
5
17C
100
AcDbEntity
8
Logo
6
ByLayer
62
7
370
-1
100
AcDbSpline
210
0
220
0
230
1
70
8
71
3
72
8
73
4
74
0
42
1e-07
43
1e-07
40
0
40
0
40
0
40
0
40
1
40
1
40
1
40
1
10
238.457135148
20
246.588476899
30
0
10
238.717169141
20
246.649864232
30
0
10
239.956192756
20
246.136094022
30
0
10
241.086330695
20
245.498265886
30
0
0
SPLINE
5
17D
100
AcDbEntity
8
Logo
6
ByLayer
62
7
370
-1
100
AcDbSpline
210
0
220
0
230
1
70
8
71
3
72
8
73
4
74
0
42
1e-07
43
1e-07
40
0
40
0
40
0
40
0
40
1
40
1
40
1
40
1
10
241.086330695
20
245.498265886
30
0
10
245.43554397
20
243.04367452
30
0
10
247.973534338
20
237.954314474
30
0
10
247.218730376
20
233.201195583
30
0
0
SPLINE
5
17E
100
AcDbEntity
8
Logo
6
ByLayer
62
7
370
-1
100
AcDbSpline
210
0
220
0
230
1
70
8
71
3
72
8
73
4
74
0
42
1e-07
43
1e-07
40
0
40
0
40
0
40
0
40
1
40
1
40
1
40
1
10
247.218730376
20
233.201195583
30
0
10
247.164034818
20
232.856768961
30
0
10
247.121787451
20
232.531631929
30
0
10
247.124854597
20
232.478674722
30
0
0
SPLINE
5
17F
100
AcDbEntity
8
Logo
6
ByLayer
62
7
370
-1
100
AcDbSpline
210
0
220
0
230
1
70
8
71
3
72
8
73
4
74
0
42
1e-07
43
1e-07
40
0
40
0
40
0
40
0
40
1
40
1
40
1
40
1
10
247.124854597
20
232.478674722
30
0
10
247.127920329
20
232.425718364
30
0
10
247.047437436
20
232.138833264
30
0
10
246.945999574
20
231.84114838
30
0
0
SPLINE
5
180
100
AcDbEntity
8
Logo
6
ByLayer
62
7
370
-1
100
AcDbSpline
210
0
220
0
230
1
70
8
71
3
72
8
73
4
74
0
42
1e-07
43
1e-07
40
0
40
0
40
0
40
0
40
1
40
1
40
1
40
1
10
246.945999574
20
231.84114838
30
0
10
246.844561995
20
231.543463779
30
0
10
246.684800551
20
231.050117075
30
0
10
246.590971441
20
230.744823439
30
0
0
SPLINE
5
181
100
AcDbEntity
8
Logo
6
ByLayer
62
7
370
-1
100
AcDbSpline
210
0
220
0
230
1
70
8
71
3
72
8
73
4
74
0
42
1e-07
43
1e-07
40
0
40
0
40
0
40
0
40
1
40
1
40
1
40
1
10
246.590971441
20
230.744823439
30
0
10
246.36620652
20
230.013498533
30
0
10
245.398263321
20
228.267711853
30
0
10
244.714394897
20
227.360231375
30
0
0
SPLINE
5
182
100
AcDbEntity
8
Logo
6
ByLayer
62
7
370
-1
100
AcDbSpline
210
0
220
0
230
1
70
8
71
3
72
8
73
4
74
0
42
1e-07
43
1e-07
40
0
40
0
40
0
40
0
40
1
40
1
40
1
40
1
10
244.714394897
20
227.360231375
30
0
10
244.077827108
20
226.515511715
30
0
10
243.396529159
20
225.838771493
30
0
10
242.540135166
20
225.200499577
30
0
0
LWPOLYLINE
5
183
100
AcDbEntity
8
Logo
6
ByLayer
62
7
370
-1
100
AcDbPolyline
90
4
70
0
43
0
10
219.708462171
20
203.519017787
10
219.548032654
20
203.271253793
10
211.419930148
20
211.399356299
10
211.419930148
20
211.399356299
0
SPLINE
5
184
100
AcDbEntity
8
Logo
6
ByLayer
62
7
370
-1
100
AcDbSpline
210
0
220
0
230
1
70
8
71
3
72
8
73
4
74
0
42
1e-07
43
1e-07
40
0
40
0
40
0
40
0
40
1
40
1
40
1
40
1
10
242.645164281
20
229.624297627
30
0
10
243.004952374
20
230.078559711
30
0
10
243.326274706
20
230.66233519
30
0
10
243.523860422
20
231.220703757
30
0
0
SPLINE
5
185
100
AcDbEntity
8
Logo
6
ByLayer
62
7
370
-1
100
AcDbSpline
210
0
220
0
230
1
70
8
71
3
72
8
73
4
74
0
42
1e-07
43
1e-07
40
0
40
0
40
0
40
0
40
1
40
1
40
1
40
1
10
243.523860422
20
231.220703757
30
0
10
243.695174859
20
231.704843931
30
0
10
243.861002996
20
232.126619832
30
0
10
243.892358091
20
232.157974927
30
0
0
SPLINE
5
186
100
AcDbEntity
8
Logo
6
ByLayer
62
7
370
-1
100
AcDbSpline
210
0
220
0
230
1
70
8
71
3
72
8
73
4
74
0
42
1e-07
43
1e-07
40
0
40
0
40
0
40
0
40
1
40
1
40
1
40
1
10
243.892358091
20
232.157974927
30
0
10
243.923713185
20
232.189330022
30
0
10
244.005681003
20
232.684636826
30
0
10
244.074506535
20
233.258653948
30
0
0
SPLINE
5
187
100
AcDbEntity
8
Logo
6
ByLayer
62
7
370
-1
100
AcDbSpline
210
0
220
0
230
1
70
8
71
3
72
8
73
4
74
0
42
1e-07
43
1e-07
40
0
40
0
40
0
40
0
40
1
40
1
40
1
40
1
10
244.074506535
20
233.258653948
30
0
10
244.491481747
20
236.736268455
30
0
10
242.713986419
20
240.205164901
30
0
10
239.3762761
20
242.427567573
30
0
0
SPLINE
5
188
100
AcDbEntity
8
Logo
6
ByLayer
62
7
370
-1
100
AcDbSpline
210
0
220
0
230
1
70
8
71
3
72
8
73
4
74
0
42
1e-07
43
1e-07
40
0
40
0
40
0
40
0
40
1
40
1
40
1
40
1
10
239.3762761
20
242.427567573
30
0
10
237.624149783
20
243.59419703
30
0
10
235.195830263
20
244.13399669
30
0
10
233.281225233
20
243.782431966
30
0
0
SPLINE
5
189
100
AcDbEntity
8
Logo
6
ByLayer
62
7
370
-1
100
AcDbSpline
210
0
220
0
230
1
70
8
71
3
72
8
73
4
74
0
42
1e-07
43
1e-07
40
0
40
0
40
0
40
0
40
1
40
1
40
1
40
1
10
233.281225233
20
243.782431966
30
0
10
232.986171635
20
243.728253445
30
0
10
232.600508242
20
243.661599297
30
0
10
232.424195975
20
243.634311197
30
0
0
SPLINE
5
18A
100
AcDbEntity
8
Logo
6
ByLayer
62
7
370
-1
100
AcDbSpline
210
0
220
0
230
1
70
8
71
3
72
8
73
4
74
0
42
1e-07
43
1e-07
40
0
40
0
40
0
40
0
40
1
40
1
40
1
40
1
10
232.424195975
20
243.634311197
30
0
10
232.247883707
20
243.607023098
30
0
10
231.606576889
20
243.350304304
30
0
10
230.999069209
20
243.063825366
30
0
0
SPLINE
5
18B
100
AcDbEntity
8
Logo
6
ByLayer
62
7
370
-1
100
AcDbSpline
210
0
220
0
230
1
70
8
71
3
72
8
73
4
74
0
42
1e-07
43
1e-07
40
0
40
0
40
0
40
0
40
1
40
1
40
1
40
1
10
230.999069209
20
243.063825366
30
0
10
229.975254392
20
242.581032655
30
0
10
229.807983191
20
242.457088433
30
0
10
228.710767579
20
241.368246096
30
0
0
SPLINE
5
18C
100
AcDbEntity
8
Logo
6
ByLayer
62
7
370
-1
100
AcDbSpline
210
0
220
0
230
1
70
8
71
3
72
8
73
4
74
0
42
1e-07
43
1e-07
40
0
40
0
40
0
40
0
40
1
40
1
40
1
40
1
10
228.710767579
20
241.368246096
30
0
10
227.643027006
20
240.308663838
30
0
10
227.474061577
20
240.088931537
30
0
10
226.98657594
20
239.126102134
30
0
0
SPLINE
5
18D
100
AcDbEntity
8
Logo
6
ByLayer
62
7
370
-1
100
AcDbSpline
210
0
220
0
230
1
70
8
71
3
72
8
73
4
74
0
42
1e-07
43
1e-07
40
0
40
0
40
0
40
0
40
1
40
1
40
1
40
1
10
226.98657594
20
239.126102134
30
0
10
226.68932522
20
238.539008909
30
0
10
226.384165934
20
237.723608159
30
0
10
226.308440172
20
237.314096318
30
0
0
SPLINE
5
18E
100
AcDbEntity
8
Logo
6
ByLayer
62
7
370
-1
100
AcDbSpline
210
0
220
0
230
1
70
8
71
3
72
8
73
4
74
0
42
1e-07
43
1e-07
40
0
40
0
40
0
40
0
40
1
40
1
40
1
40
1
10
226.308440172
20
237.314096318
30
0
10
226.232714127
20
236.904585325
30
0
10
226.15473524
20
236.553507657
30
0
10
226.135146402
20
236.533918819
30
0
0
SPLINE
5
18F
100
AcDbEntity
8
Logo
6
ByLayer
62
7
370
-1
100
AcDbSpline
210
0
220
0
230
1
70
8
71
3
72
8
73
4
74
0
42
1e-07
43
1e-07
40
0
40
0
40
0
40
0
40
1
40
1
40
1
40
1
10
226.135146402
20
236.533918819
30
0
10
226.070727843
20
236.46950026
30
0
10
226.09800378
20
234.857085515
30
0
10
226.175319401
20
234.159118513
30
0
0
SPLINE
5
190
100
AcDbEntity
8
Logo
6
ByLayer
62
7
370
-1
100
AcDbSpline
210
0
220
0
230
1
70
8
71
3
72
8
73
4
74
0
42
1e-07
43
1e-07
40
0
40
0
40
0
40
0
40
1
40
1
40
1
40
1
10
226.175319401
20
234.159118513
30
0
10
226.451868863
20
231.6627295
30
0
10
228.394707818
20
228.861617344
30
0
10
230.996969668
20
227.207447096
30
0
0
SPLINE
5
191
100
AcDbEntity
8
Logo
6
ByLayer
62
7
370
-1
100
AcDbSpline
210
0
220
0
230
1
70
8
71
3
72
8
73
4
74
0
42
1e-07
43
1e-07
40
0
40
0
40
0
40
0
40
1
40
1
40
1
40
1
10
230.996969668
20
227.207447096
30
0
10
233.291050906
20
225.74919266
30
0
10
236.148510703
20
225.450155505
30
0
10
238.677133887
20
226.403700596
30
0
0
SPLINE
5
192
100
AcDbEntity
8
Logo
6
ByLayer
62
7
370
-1
100
AcDbSpline
210
0
220
0
230
1
70
8
71
3
72
8
73
4
74
0
42
1e-07
43
1e-07
40
0
40
0
40
0
40
0
40
1
40
1
40
1
40
1
10
238.677133887
20
226.403700596
30
0
10
240.006609187
20
226.905048072
30
0
10
241.364074319
20
228.006816038
30
0
10
242.645164281
20
229.624297627
30
0
0
LWPOLYLINE
5
193
100
AcDbEntity
8
Logo
6
ByLayer
62
7
370
-1
100
AcDbPolyline
90
3
70
0
43
0
10
242.540135166
20
225.200499577
10
242.540131206
20
225.200503537
10
242.540129509
20
225.200505234
0
LWPOLYLINE
5
194
100
AcDbEntity
8
Logo
6
ByLayer
62
7
370
-1
100
AcDbPolyline
90
3
70
0
43
0
10
242.645164281
20
229.624297627
10
242.645164281
20
229.624297627
10
242.645164281
20
229.624297627
0
SPLINE
5
195
100
AcDbEntity
8
Logo
6
ByLayer
62
7
370
-1
100
AcDbSpline
210
0
220
0
230
1
70
8
71
3
72
8
73
4
74
0
42
1e-07
43
1e-07
40
0
40
0
40
0
40
0
40
1
40
1
40
1
40
1
10
240.706220636
20
256.910412134
30
0
10
243.70484412
20
259.909035618
30
0
10
244.236744266
20
260.337854869
30
0
10
245.426092498
20
260.715589332
30
0
0
SPLINE
5
196
100
AcDbEntity
8
Logo
6
ByLayer
62
7
370
-1
100
AcDbSpline
210
0
220
0
230
1
70
8
71
3
72
8
73
4
74
0
42
1e-07
43
1e-07
40
0
40
0
40
0
40
0
40
1
40
1
40
1
40
1
10
245.426092498
20
260.715589332
30
0
10
245.712408519
20
260.806523829
30
0
10
245.990558588
20
260.924814026
30
0
10
246.044208759
20
260.978464197
30
0
0
SPLINE
5
197
100
AcDbEntity
8
Logo
6
ByLayer
62
7
370
-1
100
AcDbSpline
210
0
220
0
230
1
70
8
71
3
72
8
73
4
74
0
42
1e-07
43
1e-07
40
0
40
0
40
0
40
0
40
1
40
1
40
1
40
1
10
246.044208759
20
260.978464197
30
0
10
246.13858517
20
261.072840608
30
0
10
247.018188954
20
261.207838323
30
0
10
247.923811438
20
261.266926711
30
0
0
SPLINE
5
198
100
AcDbEntity
8
Logo
6
ByLayer
62
7
370
-1
100
AcDbSpline
210
0
220
0
230
1
70
8
71
3
72
8
73
4
74
0
42
1e-07
43
1e-07
40
0
40
0
40
0
40
0
40
1
40
1
40
1
40
1
10
247.923811438
20
261.266926711
30
0
10
248.166180207
20
261.282742427
30
0
10
248.826374413
20
261.208188765
30
0
10
249.390911497
20
261.10125329
30
0
0
SPLINE
5
199
100
AcDbEntity
8
Logo
6
ByLayer
62
7
370
-1
100
AcDbSpline
210
0
220
0
230
1
70
8
71
3
72
8
73
4
74
0
42
1e-07
43
1e-07
40
0
40
0
40
0
40
0
40
1
40
1
40
1
40
1
10
249.390911497
20
261.10125329
30
0
10
250.810693949
20
260.832316539
30
0
10
252.022415322
20
260.122403958
30
0
10
253.363867031
20
258.773608521
30
0
0
SPLINE
5
19A
100
AcDbEntity
8
Logo
6
ByLayer
62
7
370
-1
100
AcDbSpline
210
0
220
0
230
1
70
8
71
3
72
8
73
4
74
0
42
1e-07
43
1e-07
40
0
40
0
40
0
40
0
40
1
40
1
40
1
40
1
10
253.363867031
20
258.773608521
30
0
10
254.343476644
20
257.788571157
30
0
10
255.227414709
20
256.49154131
30
0
10
255.473967004
20
255.677229221
30
0
0
SPLINE
5
19B
100
AcDbEntity
8
Logo
6
ByLayer
62
7
370
-1
100
AcDbSpline
210
0
220
0
230
1
70
8
71
3
72
8
73
4
74
0
42
1e-07
43
1e-07
40
0
40
0
40
0
40
0
40
1
40
1
40
1
40
1
10
255.473967004
20
255.677229221
30
0
10
255.689785328
20
254.964423442
30
0
10
255.904593903
20
252.878337098
30
0
10
255.775469699
20
252.749212895
30
0
0
SPLINE
5
19C
100
AcDbEntity
8
Logo
6
ByLayer
62
7
370
-1
100
AcDbSpline
210
0
220
0
230
1
70
8
71
3
72
8
73
4
74
0
42
1e-07
43
1e-07
40
0
40
0
40
0
40
0
40
1
40
1
40
1
40
1
10
255.775469699
20
252.749212895
30
0
10
255.746078382
20
252.719821577
30
0
10
255.673842616
20
252.404062195
30
0
10
255.614944298
20
252.047522269
30
0
0
SPLINE
5
19D
100
AcDbEntity
8
Logo
6
ByLayer
62
7
370
-1
100
AcDbSpline
210
0
220
0
230
1
70
8
71
3
72
8
73
4
74
0
42
1e-07
43
1e-07
40
0
40
0
40
0
40
0
40
1
40
1
40
1
40
1
10
255.614944298
20
252.047522269
30
0
10
255.556045697
20
251.690982059
30
0
10
255.270366072
20
250.94283876
30
0
10
254.980092799
20
250.384976482
30
0
0
SPLINE
5
19E
100
AcDbEntity
8
Logo
6
ByLayer
62
7
370
-1
100
AcDbSpline
210
0
220
0
230
1
70
8
71
3
72
8
73
4
74
0
42
1e-07
43
1e-07
40
0
40
0
40
0
40
0
40
1
40
1
40
1
40
1
10
254.980092799
20
250.384976482
30
0
10
254.502633935
20
249.46737476
30
0
10
254.289543913
20
249.200511812
30
0
10
252.744920627
20
247.585761069
30
0
0
LWPOLYLINE
5
19F
100
AcDbEntity
8
Logo
6
ByLayer
62
7
370
-1
100
AcDbPolyline
90
3
70
0
43
0
10
246.176992665
20
245.763048525
10
237.867924846
20
254.072116344
10
240.706220636
20
256.910412134
0
SPLINE
5
1A0
100
AcDbEntity
8
Logo
6
ByLayer
62
7
370
-1
100
AcDbSpline
210
0
220
0
230
1
70
8
71
3
72
8
73
4
74
0
42
1e-07
43
1e-07
40
0
40
0
40
0
40
0
40
1
40
1
40
1
40
1
10
253.881171927
20
242.957188006
30
0
10
255.445181536
20
241.393178398
30
0
10
256.712206296
20
240.064928373
30
0
10
256.696776943
20
240.00551415
30
0
0
SPLINE
5
1A1
100
AcDbEntity
8
Logo
6
ByLayer
62
7
370
-1
100
AcDbSpline
210
0
220
0
230
1
70
8
71
3
72
8
73
4
74
0
42
1e-07
43
1e-07
40
0
40
0
40
0
40
0
40
1
40
1
40
1
40
1
10
256.696776943
20
240.00551415
30
0
10
256.681354945
20
239.946108978
30
0
10
256.17763357
20
239.347709399
30
0
10
255.577394665
20
238.675737057
30
0
0
LWPOLYLINE
5
1A2
100
AcDbEntity
8
Logo
6
ByLayer
62
7
370
-1
100
AcDbPolyline
90
3
70
0
43
0
10
252.744920627
20
247.585761069
10
251.037519379
20
245.800840554
10
253.881171927
20
242.957188006
0
SPLINE
5
1A3
100
AcDbEntity
8
Logo
6
ByLayer
62
7
370
-1
100
AcDbSpline
210
0
220
0
230
1
70
8
71
3
72
8
73
4
74
0
42
1e-07
43
1e-07
40
0
40
0
40
0
40
0
40
1
40
1
40
1
40
1
10
252.32962946
20
251.843244776
30
0
10
252.450787399
20
252.213854148
30
0
10
252.567855432
20
252.913182755
30
0
10
252.589765842
20
253.397296059
30
0
0
SPLINE
5
1A4
100
AcDbEntity
8
Logo
6
ByLayer
62
7
370
-1
100
AcDbSpline
210
0
220
0
230
1
70
8
71
3
72
8
73
4
74
0
42
1e-07
43
1e-07
40
0
40
0
40
0
40
0
40
1
40
1
40
1
40
1
10
252.589765842
20
253.397296059
30
0
10
252.623598356
20
254.144641741
30
0
10
252.562960839
20
254.398933745
30
0
10
252.18805848
20
255.081910648
30
0
0
SPLINE
5
1A5
100
AcDbEntity
8
Logo
6
ByLayer
62
7
370
-1
100
AcDbSpline
210
0
220
0
230
1
70
8
71
3
72
8
73
4
74
0
42
1e-07
43
1e-07
40
0
40
0
40
0
40
0
40
1
40
1
40
1
40
1
10
252.18805848
20
255.081910648
30
0
10
251.25477511
20
256.782099972
30
0
10
249.523353162
20
258.028683689
30
0
10
248.040855147
20
258.067811585
30
0
0
SPLINE
5
1A6
100
AcDbEntity
8
Logo
6
ByLayer
62
7
370
-1
100
AcDbSpline
210
0
220
0
230
1
70
8
71
3
72
8
73
4
74
0
42
1e-07
43
1e-07
40
0
40
0
40
0
40
0
40
1
40
1
40
1
40
1
10
248.040855147
20
258.067811585
30
0
10
246.504017672
20
258.108370381
30
0
10
245.545378301
20
257.576925895
30
0
10
243.542477978
20
255.574025572
30
0
0
LWPOLYLINE
5
1A7
100
AcDbEntity
8
Logo
6
ByLayer
62
7
370
-1
100
AcDbPolyline
90
4
70
0
43
0
10
255.577394665
20
238.675737057
10
254.486060484
20
237.453980707
10
246.176992665
20
245.763048525
10
246.176992665
20
245.763048525
0
SPLINE
5
1A8
100
AcDbEntity
8
Logo
6
ByLayer
62
7
370
-1
100
AcDbSpline
210
0
220
0
230
1
70
8
71
3
72
8
73
4
74
0
42
1e-07
43
1e-07
40
0
40
0
40
0
40
0
40
1
40
1
40
1
40
1
10
250.529262339
20
249.529281676
30
0
10
252.007369504
20
251.063559707
30
0
10
252.123553371
20
251.212888214
30
0
10
252.32962946
20
251.843244776
30
0
0
LWPOLYLINE
5
1A9
100
AcDbEntity
8
Logo
6
ByLayer
62
7
370
-1
100
AcDbPolyline
90
5
70
0
43
0
10
243.542477978
20
255.574025572
10
242.40340617
20
254.434953764
10
245.67629997
20
251.162059964
10
248.94919377
20
247.889166164
10
250.529262339
20
249.529281676
0
SPLINE
5
1AA
100
AcDbEntity
8
Logo
6
ByLayer
62
7
370
-1
100
AcDbSpline
210
0
220
0
230
1
70
8
71
3
72
8
73
4
74
0
42
1e-07
43
1e-07
40
0
40
0
40
0
40
0
40
1
40
1
40
1
40
1
10
273.827178917
20
256.483046129
30
0
10
273.486680415
20
256.224861079
30
0
10
272.836164238
20
255.814062586
30
0
10
272.381592441
20
255.570170143
30
0
0
SPLINE
5
1AB
100
AcDbEntity
8
Logo
6
ByLayer
62
7
370
-1
100
AcDbSpline
210
0
220
0
230
1
70
8
71
3
72
8
73
4
74
0
42
1e-07
43
1e-07
40
0
40
0
40
0
40
0
40
1
40
1
40
1
40
1
10
272.381592441
20
255.570170143
30
0
10
271.927020927
20
255.326277418
30
0
10
271.43017857
20
255.050354452
30
0
10
271.277501488
20
254.95701268
30
0
0
SPLINE
5
1AC
100
AcDbEntity
8
Logo
6
ByLayer
62
7
370
-1
100
AcDbSpline
210
0
220
0
230
1
70
8
71
3
72
8
73
4
74
0
42
1e-07
43
1e-07
40
0
40
0
40
0
40
0
40
1
40
1
40
1
40
1
10
271.277501488
20
254.95701268
30
0
10
271.124816486
20
254.863662423
30
0
10
270.630697904
20
254.690943106
30
0
10
270.179452621
20
254.573183523
30
0
0
SPLINE
5
1AD
100
AcDbEntity
8
Logo
6
ByLayer
62
7
370
-1
100
AcDbSpline
210
0
220
0
230
1
70
8
71
3
72
8
73
4
74
0
42
1e-07
43
1e-07
40
0
40
0
40
0
40
0
40
1
40
1
40
1
40
1
10
270.179452621
20
254.573183523
30
0
10
269.728207054
20
254.455424222
30
0
10
269.320386047
20
254.320454226
30
0
10
269.273194023
20
254.273262202
30
0
0
SPLINE
5
1AE
100
AcDbEntity
8
Logo
6
ByLayer
62
7
370
-1
100
AcDbSpline
210
0
220
0
230
1
70
8
71
3
72
8
73
4
74
0
42
1e-07
43
1e-07
40
0
40
0
40
0
40
0
40
1
40
1
40
1
40
1
10
269.273194023
20
254.273262202
30
0
10
269.116530273
20
254.116598452
30
0
10
266.801289289
20
253.909161889
30
0
10
265.74045036
20
253.956740559
30
0
0
SPLINE
5
1AF
100
AcDbEntity
8
Logo
6
ByLayer
62
7
370
-1
100
AcDbSpline
210
0
220
0
230
1
70
8
71
3
72
8
73
4
74
0
42
1e-07
43
1e-07
40
0
40
0
40
0
40
0
40
1
40
1
40
1
40
1
10
265.74045036
20
253.956740559
30
0
10
264.586876923
20
254.008480411
30
0
10
263.324152504
20
254.196000887
30
0
10
263.183719683
20
254.336433708
30
0
0
SPLINE
5
1B0
100
AcDbEntity
8
Logo
6
ByLayer
62
7
370
-1
100
AcDbSpline
210
0
220
0
230
1
70
8
71
3
72
8
73
4
74
0
42
1e-07
43
1e-07
40
0
40
0
40
0
40
0
40
1
40
1
40
1
40
1
10
263.183719683
20
254.336433708
30
0
10
263.133926637
20
254.386226753
30
0
10
262.773925281
20
254.509388632
30
0
10
262.383713778
20
254.610124761
30
0
0
SPLINE
5
1B1
100
AcDbEntity
8
Logo
6
ByLayer
62
7
370
-1
100
AcDbSpline
210
0
220
0
230
1
70
8
71
3
72
8
73
4
74
0
42
1e-07
43
1e-07
40
0
40
0
40
0
40
0
40
1
40
1
40
1
40
1
10
262.383713778
20
254.610124761
30
0
10
261.728148859
20
254.779367092
30
0
10
260.449147124
20
255.445077014
30
0
10
259.261469361
20
256.235212556
30
0
0
SPLINE
5
1B2
100
AcDbEntity
8
Logo
6
ByLayer
62
7
370
-1
100
AcDbSpline
210
0
220
0
230
1
70
8
71
3
72
8
73
4
74
0
42
1e-07
43
1e-07
40
0
40
0
40
0
40
0
40
1
40
1
40
1
40
1
10
259.261469361
20
256.235212556
30
0
10
258.521311277
20
256.727627577
30
0
10
256.747794415
20
258.568005628
30
0
10
256.278915585
20
259.330207058
30
0
0
SPLINE
5
1B3
100
AcDbEntity
8
Logo
6
ByLayer
62
7
370
-1
100
AcDbSpline
210
0
220
0
230
1
70
8
71
3
72
8
73
4
74
0
42
1e-07
43
1e-07
40
0
40
0
40
0
40
0
40
1
40
1
40
1
40
1
10
256.278915585
20
259.330207058
30
0
10
255.30364478
20
260.915592788
30
0
10
255.103508671
20
261.314316159
30
0
10
254.763168843
20
262.349943337
30
0
0
SPLINE
5
1B4
100
AcDbEntity
8
Logo
6
ByLayer
62
7
370
-1
100
AcDbSpline
210
0
220
0
230
1
70
8
71
3
72
8
73
4
74
0
42
1e-07
43
1e-07
40
0
40
0
40
0
40
0
40
1
40
1
40
1
40
1
10
254.763168843
20
262.349943337
30
0
10
254.565731053
20
262.950750473
30
0
10
254.387834018
20
263.67087905
30
0
10
254.367846372
20
263.950232897
30
0
0
SPLINE
5
1B5
100
AcDbEntity
8
Logo
6
ByLayer
62
7
370
-1
100
AcDbSpline
210
0
220
0
230
1
70
8
71
3
72
8
73
4
74
0
42
1e-07
43
1e-07
40
0
40
0
40
0
40
0
40
1
40
1
40
1
40
1
10
254.367846372
20
263.950232897
30
0
10
254.34785816
20
264.229586745
30
0
10
254.296728118
20
264.493017962
30
0
10
254.254230434
20
264.53564349
30
0
0
SPLINE
5
1B6
100
AcDbEntity
8
Logo
6
ByLayer
62
7
370
-1
100
AcDbSpline
210
0
220
0
230
1
70
8
71
3
72
8
73
4
74
0
42
1e-07
43
1e-07
40
0
40
0
40
0
40
0
40
1
40
1
40
1
40
1
10
254.254230434
20
264.53564349
30
0
10
254.17511961
20
264.614754314
30
0
10
254.117091034
20
265.750812433
30
0
10
254.161741716
20
266.342730388
30
0
0
SPLINE
5
1B7
100
AcDbEntity
8
Logo
6
ByLayer
62
7
370
-1
100
AcDbSpline
210
0
220
0
230
1
70
8
71
3
72
8
73
4
74
0
42
1e-07
43
1e-07
40
0
40
0
40
0
40
0
40
1
40
1
40
1
40
1
10
254.161741716
20
266.342730388
30
0
10
254.175386048
20
266.523634325
30
0
10
254.184563446
20
266.894165915
30
0
10
254.182140615
20
267.166140113
30
0
0
SPLINE
5
1B8
100
AcDbEntity
8
Logo
6
ByLayer
62
7
370
-1
100
AcDbSpline
210
0
220
0
230
1
70
8
71
3
72
8
73
4
74
0
42
1e-07
43
1e-07
40
0
40
0
40
0
40
0
40
1
40
1
40
1
40
1
10
254.182140615
20
267.166140113
30
0
10
254.179718067
20
267.438114029
30
0
10
254.212336903
20
267.695338262
30
0
10
254.254623303
20
267.737745719
30
0
0
SPLINE
5
1B9
100
AcDbEntity
8
Logo
6
ByLayer
62
7
370
-1
100
AcDbSpline
210
0
220
0
230
1
70
8
71
3
72
8
73
4
74
0
42
1e-07
43
1e-07
40
0
40
0
40
0
40
0
40
1
40
1
40
1
40
1
10
254.254623303
20
267.737745719
30
0
10
254.296908288
20
267.780154024
30
0
10
254.347423997
20
268.026442144
30
0
10
254.366884141
20
268.285058247
30
0
0
SPLINE
5
1BA
100
AcDbEntity
8
Logo
6
ByLayer
62
7
370
-1
100
AcDbSpline
210
0
220
0
230
1
70
8
71
3
72
8
73
4
74
0
42
1e-07
43
1e-07
40
0
40
0
40
0
40
0
40
1
40
1
40
1
40
1
10
254.366884141
20
268.285058247
30
0
10
254.386344568
20
268.543674632
30
0
10
254.598438419
20
269.337992287
30
0
10
254.838198529
20
270.050203248
30
0
0
SPLINE
5
1BB
100
AcDbEntity
8
Logo
6
ByLayer
62
7
370
-1
100
AcDbSpline
210
0
220
0
230
1
70
8
71
3
72
8
73
4
74
0
42
1e-07
43
1e-07
40
0
40
0
40
0
40
0
40
1
40
1
40
1
40
1
10
254.838198529
20
270.050203248
30
0
10
255.609407652
20
272.341093454
30
0
10
257.492589139
20
274.80422865
30
0
10
259.479675442
20
276.121094256
30
0
0
SPLINE
5
1BC
100
AcDbEntity
8
Logo
6
ByLayer
62
7
370
-1
100
AcDbSpline
210
0
220
0
230
1
70
8
71
3
72
8
73
4
74
0
42
1e-07
43
1e-07
40
0
40
0
40
0
40
0
40
1
40
1
40
1
40
1
10
259.479675442
20
276.121094256
30
0
10
259.950042873
20
276.43281521
30
0
10
260.507758922
20
276.80071212
30
0
10
260.719052893
20
276.938650268
30
0
0
SPLINE
5
1BD
100
AcDbEntity
8
Logo
6
ByLayer
62
7
370
-1
100
AcDbSpline
210
0
220
0
230
1
70
8
71
3
72
8
73
4
74
0
42
1e-07
43
1e-07
40
0
40
0
40
0
40
0
40
1
40
1
40
1
40
1
10
260.719052893
20
276.938650268
30
0
10
261.273362102
20
277.300518952
30
0
10
263.236861303
20
278.031671323
30
0
10
263.891706953
20
278.120055428
30
0
0
SPLINE
5
1BE
100
AcDbEntity
8
Logo
6
ByLayer
62
7
370
-1
100
AcDbSpline
210
0
220
0
230
1
70
8
71
3
72
8
73
4
74
0
42
1e-07
43
1e-07
40
0
40
0
40
0
40
0
40
1
40
1
40
1
40
1
10
263.891706953
20
278.120055428
30
0
10
264.199408994
20
278.161585507
30
0
10
264.619105436
20
278.231723994
30
0
10
264.824362978
20
278.275918451
30
0
0
SPLINE
5
1BF
100
AcDbEntity
8
Logo
6
ByLayer
62
7
370
-1
100
AcDbSpline
210
0
220
0
230
1
70
8
71
3
72
8
73
4
74
0
42
1e-07
43
1e-07
40
0
40
0
40
0
40
0
40
1
40
1
40
1
40
1
10
264.824362978
20
278.275918451
30
0
10
265.307342083
20
278.379904725
30
0
10
267.584465769
20
278.417244489
30
0
10
267.684389291
20
278.322812641
30
0
0
SPLINE
5
1C0
100
AcDbEntity
8
Logo
6
ByLayer
62
7
370
-1
100
AcDbSpline
210
0
220
0
230
1
70
8
71
3
72
8
73
4
74
0
42
1e-07
43
1e-07
40
0
40
0
40
0
40
0
40
1
40
1
40
1
40
1
10
267.684389291
20
278.322812641
30
0
10
267.726465539
20
278.282971417
30
0
10
268.060466578
20
278.234790292
30
0
10
268.426522465
20
278.21565174
30
0
0
SPLINE
5
1C1
100
AcDbEntity
8
Logo
6
ByLayer
62
7
370
-1
100
AcDbSpline
210
0
220
0
230
1
70
8
71
3
72
8
73
4
74
0
42
1e-07
43
1e-07
40
0
40
0
40
0
40
0
40
1
40
1
40
1
40
1
10
268.426522465
20
278.21565174
30
0
10
268.792579484
20
278.196512056
30
0
10
269.131727129
20
278.141203861
30
0
10
269.180186288
20
278.092744702
30
0
0
SPLINE
5
1C2
100
AcDbEntity
8
Logo
6
ByLayer
62
7
370
-1
100
AcDbSpline
210
0
220
0
230
1
70
8
71
3
72
8
73
4
74
0
42
1e-07
43
1e-07
40
0
40
0
40
0
40
0
40
1
40
1
40
1
40
1
10
269.180186288
20
278.092744702
30
0
10
269.228645164
20
278.044285826
30
0
10
269.642772433
20
277.906910534
30
0
10
270.100466248
20
277.787464925
30
0
0
SPLINE
5
1C3
100
AcDbEntity
8
Logo
6
ByLayer
62
7
370
-1
100
AcDbSpline
210
0
220
0
230
1
70
8
71
3
72
8
73
4
74
0
42
1e-07
43
1e-07
40
0
40
0
40
0
40
0
40
1
40
1
40
1
40
1
10
270.100466248
20
277.787464925
30
0
10
270.988999941
20
277.555583399
30
0
10
272.571829338
20
276.735796323
30
0
10
273.692274257
20
275.927178141
30
0
0
SPLINE
5
1C4
100
AcDbEntity
8
Logo
6
ByLayer
62
7
370
-1
100
AcDbSpline
210
0
220
0
230
1
70
8
71
3
72
8
73
4
74
0
42
1e-07
43
1e-07
40
0
40
0
40
0
40
0
40
1
40
1
40
1
40
1
10
273.692274257
20
275.927178141
30
0
10
276.722676534
20
273.740121757
30
0
10
278.697067443
20
269.797370147
30
0
10
278.632322766
20
266.06213373
30
0
0
SPLINE
5
1C5
100
AcDbEntity
8
Logo
6
ByLayer
62
7
370
-1
100
AcDbSpline
210
0
220
0
230
1
70
8
71
3
72
8
73
4
74
0
42
1e-07
43
1e-07
40
0
40
0
40
0
40
0
40
1
40
1
40
1
40
1
10
278.632322766
20
266.06213373
30
0
10
278.616521192
20
265.150629814
30
0
10
278.391259033
20
263.391327212
30
0
10
278.275537332
20
263.27560551
30
0
0
SPLINE
5
1C6
100
AcDbEntity
8
Logo
6
ByLayer
62
7
370
-1
100
AcDbSpline
210
0
220
0
230
1
70
8
71
3
72
8
73
4
74
0
42
1e-07
43
1e-07
40
0
40
0
40
0
40
0
40
1
40
1
40
1
40
1
10
278.275537332
20
263.27560551
30
0
10
278.244381924
20
263.244450103
30
0
10
278.117993375
20
262.832326492
30
0
10
277.994672538
20
262.359773535
30
0
0
SPLINE
5
1C7
100
AcDbEntity
8
Logo
6
ByLayer
62
7
370
-1
100
AcDbSpline
210
0
220
0
230
1
70
8
71
3
72
8
73
4
74
0
42
1e-07
43
1e-07
40
0
40
0
40
0
40
0
40
1
40
1
40
1
40
1
10
277.994672538
20
262.359773535
30
0
10
277.871351701
20
261.887220579
30
0
10
277.712674111
20
261.442807927
30
0
10
277.642053377
20
261.372187193
30
0
0
SPLINE
5
1C8
100
AcDbEntity
8
Logo
6
ByLayer
62
7
370
-1
100
AcDbSpline
210
0
220
0
230
1
70
8
71
3
72
8
73
4
74
0
42
1e-07
43
1e-07
40
0
40
0
40
0
40
0
40
1
40
1
40
1
40
1
10
277.642053377
20
261.372187193
30
0
10
277.571432643
20
261.301566458
30
0
10
277.308283986
20
260.839366111
30
0
10
277.057282292
20
260.345078389
30
0
0
SPLINE
5
1C9
100
AcDbEntity
8
Logo
6
ByLayer
62
7
370
-1
100
AcDbSpline
210
0
220
0
230
1
70
8
71
3
72
8
73
4
74
0
42
1e-07
43
1e-07
40
0
40
0
40
0
40
0
40
1
40
1
40
1
40
1
10
277.057282292
20
260.345078389
30
0
10
276.27525585
20
258.805057802
30
0
10
275.210418657
20
257.531899598
30
0
10
273.827178917
20
256.483046129
30
0
0
LWPOLYLINE
5
1CA
100
AcDbEntity
8
Logo
6
ByLayer
62
7
370
-1
100
AcDbPolyline
90
2
70
0
43
0
10
252.32962946
20
251.843244776
10
252.32962946
20
251.843244776
0
SPLINE
5
1CB
100
AcDbEntity
8
Logo
6
ByLayer
62
7
370
-1
100
AcDbSpline
210
0
220
0
230
1
70
8
71
3
72
8
73
4
74
0
42
1e-07
43
1e-07
40
0
40
0
40
0
40
0
40
1
40
1
40
1
40
1
10
274.525451955
20
261.815642139
30
0
10
275.170335885
20
263.343980191
30
0
10
275.640291214
20
265.505040218
30
0
10
275.430300016
20
265.976552313
30
0
0
SPLINE
5
1CC
100
AcDbEntity
8
Logo
6
ByLayer
62
7
370
-1
100
AcDbSpline
210
0
220
0
230
1
70
8
71
3
72
8
73
4
74
0
42
1e-07
43
1e-07
40
0
40
0
40
0
40
0
40
1
40
1
40
1
40
1
10
275.430300016
20
265.976552313
30
0
10
275.385446536
20
266.077250824
30
0
10
275.340575802
20
266.399959086
30
0
10
275.330567413
20
266.693663807
30
0
0
SPLINE
5
1CD
100
AcDbEntity
8
Logo
6
ByLayer
62
7
370
-1
100
AcDbSpline
210
0
220
0
230
1
70
8
71
3
72
8
73
4
74
0
42
1e-07
43
1e-07
40
0
40
0
40
0
40
0
40
1
40
1
40
1
40
1
10
275.330567413
20
266.693663807
30
0
10
275.320567791
20
266.987375599
30
0
10
275.259723233
20
267.394738119
30
0
10
275.195347949
20
267.598902191
30
0
0
SPLINE
5
1CE
100
AcDbEntity
8
Logo
6
ByLayer
62
7
370
-1
100
AcDbSpline
210
0
220
0
230
1
70
8
71
3
72
8
73
4
74
0
42
1e-07
43
1e-07
40
0
40
0
40
0
40
0
40
1
40
1
40
1
40
1
10
275.195347949
20
267.598902191
30
0
10
274.702133049
20
269.163266201
30
0
10
274.553618563
20
269.537986975
30
0
10
274.258644161
20
269.962452993
30
0
0
SPLINE
5
1CF
100
AcDbEntity
8
Logo
6
ByLayer
62
7
370
-1
100
AcDbSpline
210
0
220
0
230
1
70
8
71
3
72
8
73
4
74
0
42
1e-07
43
1e-07
40
0
40
0
40
0
40
0
40
1
40
1
40
1
40
1
10
274.258644161
20
269.962452993
30
0
10
274.074544951
20
270.227366589
30
0
10
273.77952388
20
270.667093386
30
0
10
273.603031724
20
270.939614037
30
0
0
SPLINE
5
1D0
100
AcDbEntity
8
Logo
6
ByLayer
62
7
370
-1
100
AcDbSpline
210
0
220
0
230
1
70
8
71
3
72
8
73
4
74
0
42
1e-07
43
1e-07
40
0
40
0
40
0
40
0
40
1
40
1
40
1
40
1
10
273.603031724
20
270.939614037
30
0
10
273.08305453
20
271.742521624
30
0
10
271.877679582
20
272.880684094
30
0
10
270.717971852
20
273.663779964
30
0
0
SPLINE
5
1D1
100
AcDbEntity
8
Logo
6
ByLayer
62
7
370
-1
100
AcDbSpline
210
0
220
0
230
1
70
8
71
3
72
8
73
4
74
0
42
1e-07
43
1e-07
40
0
40
0
40
0
40
0
40
1
40
1
40
1
40
1
10
270.717971852
20
273.663779964
30
0
10
268.18262182
20
275.375772031
30
0
10
264.902432941
20
275.620203289
30
0
10
262.178362898
20
274.300109033
30
0
0
SPLINE
5
1D2
100
AcDbEntity
8
Logo
6
ByLayer
62
7
370
-1
100
AcDbSpline
210
0
220
0
230
1
70
8
71
3
72
8
73
4
74
0
42
1e-07
43
1e-07
40
0
40
0
40
0
40
0
40
1
40
1
40
1
40
1
10
262.178362898
20
274.300109033
30
0
10
261.030484216
20
273.74384623
30
0
10
259.448312994
20
272.383654494
30
0
10
258.805790518
20
271.400711015
30
0
0
SPLINE
5
1D3
100
AcDbEntity
8
Logo
6
ByLayer
62
7
370
-1
100
AcDbSpline
210
0
220
0
230
1
70
8
71
3
72
8
73
4
74
0
42
1e-07
43
1e-07
40
0
40
0
40
0
40
0
40
1
40
1
40
1
40
1
10
258.805790518
20
271.400711015
30
0
10
258.126349997
20
270.361290351
30
0
10
257.556191414
20
268.955425457
30
0
10
257.530270011
20
268.255614321
30
0
0
SPLINE
5
1D4
100
AcDbEntity
8
Logo
6
ByLayer
62
7
370
-1
100
AcDbSpline
210
0
220
0
230
1
70
8
71
3
72
8
73
4
74
0
42
1e-07
43
1e-07
40
0
40
0
40
0
40
0
40
1
40
1
40
1
40
1
10
257.530270011
20
268.255614321
30
0
10
257.523362143
20
268.069091714
30
0
10
257.482947031
20
267.881719448
30
0
10
257.440456419
20
267.839228836
30
0
0
SPLINE
5
1D5
100
AcDbEntity
8
Logo
6
ByLayer
62
7
370
-1
100
AcDbSpline
210
0
220
0
230
1
70
8
71
3
72
8
73
4
74
0
42
1e-07
43
1e-07
40
0
40
0
40
0
40
0
40
1
40
1
40
1
40
1
10
257.440456419
20
267.839228836
30
0
10
257.397965807
20
267.796738223
30
0
10
257.381291946
20
267.277741928
30
0
10
257.40340572
20
266.685904866
30
0
0
SPLINE
5
1D6
100
AcDbEntity
8
Logo
6
ByLayer
62
7
370
-1
100
AcDbSpline
210
0
220
0
230
1
70
8
71
3
72
8
73
4
74
0
42
1e-07
43
1e-07
40
0
40
0
40
0
40
0
40
1
40
1
40
1
40
1
10
257.40340572
20
266.685904866
30
0
10
257.425519778
20
266.094067521
30
0
10
257.447574438
20
265.466687595
30
0
10
257.452407089
20
265.291717133
30
0
0
SPLINE
5
1D7
100
AcDbEntity
8
Logo
6
ByLayer
62
7
370
-1
100
AcDbSpline
210
0
220
0
230
1
70
8
71
3
72
8
73
4
74
0
42
1e-07
43
1e-07
40
0
40
0
40
0
40
0
40
1
40
1
40
1
40
1
10
257.452407089
20
265.291717133
30
0
10
257.466347275
20
264.787861691
30
0
10
258.284160674
20
262.501549293
30
0
10
258.543067539
20
262.242642428
30
0
0
SPLINE
5
1D8
100
AcDbEntity
8
Logo
6
ByLayer
62
7
370
-1
100
AcDbSpline
210
0
220
0
230
1
70
8
71
3
72
8
73
4
74
0
42
1e-07
43
1e-07
40
0
40
0
40
0
40
0
40
1
40
1
40
1
40
1
10
258.543067539
20
262.242642428
30
0
10
258.672114244
20
262.113595724
30
0
10
258.878100389
20
261.82321893
30
0
10
259.000819902
20
261.597365913
30
0
0
SPLINE
5
1D9
100
AcDbEntity
8
Logo
6
ByLayer
62
7
370
-1
100
AcDbSpline
210
0
220
0
230
1
70
8
71
3
72
8
73
4
74
0
42
1e-07
43
1e-07
40
0
40
0
40
0
40
0
40
1
40
1
40
1
40
1
10
259.000819902
20
261.597365913
30
0
10
259.33463172
20
260.983018813
30
0
10
261.092842266
20
259.269174975
30
0
10
262.105408994
20
258.571116898
30
0
0
SPLINE
5
1DA
100
AcDbEntity
8
Logo
6
ByLayer
62
7
370
-1
100
AcDbSpline
210
0
220
0
230
1
70
8
71
3
72
8
73
4
74
0
42
1e-07
43
1e-07
40
0
40
0
40
0
40
0
40
1
40
1
40
1
40
1
10
262.105408994
20
258.571116898
30
0
10
263.796558665
20
257.405244045
30
0
10
265.96055064
20
256.914709081
30
0
10
268.111575691
20
257.209618429
30
0
0
SPLINE
5
1DB
100
AcDbEntity
8
Logo
6
ByLayer
62
7
370
-1
100
AcDbSpline
210
0
220
0
230
1
70
8
71
3
72
8
73
4
74
0
42
1e-07
43
1e-07
40
0
40
0
40
0
40
0
40
1
40
1
40
1
40
1
10
268.111575691
20
257.209618429
30
0
10
269.289912856
20
257.371167155
30
0
10
270.81595479
20
257.961831834
30
0
10
271.571030847
20
258.548621568
30
0
0
SPLINE
5
1DC
100
AcDbEntity
8
Logo
6
ByLayer
62
7
370
-1
100
AcDbSpline
210
0
220
0
230
1
70
8
71
3
72
8
73
4
74
0
42
1e-07
43
1e-07
40
0
40
0
40
0
40
0
40
1
40
1
40
1
40
1
10
271.571030847
20
258.548621568
30
0
10
272.491538777
20
259.263972932
30
0
10
274.28610932
20
261.24842201
30
0
10
274.525451955
20
261.815642139
30
0
0
LWPOLYLINE
5
1DD
100
AcDbEntity
8
Logo
6
ByLayer
62
7
370
-1
100
AcDbPolyline
90
3
70
0
43
0
10
273.827178917
20
256.483046129
10
273.827178917
20
256.483046129
10
273.827178917
20
256.483046129
0
LWPOLYLINE
5
1DE
100
AcDbEntity
8
Logo
6
ByLayer
62
7
370
-1
100
AcDbPolyline
90
3
70
0
43
0
10
274.525451955
20
261.815642139
10
274.525451955
20
261.815642139
10
274.525451955
20
261.815642139
0
SPLINE
5
1DF
100
AcDbEntity
8
Logo
6
ByLayer
62
7
370
-1
100
AcDbSpline
210
0
220
0
230
1
70
8
71
3
72
8
73
4
74
0
42
1e-07
43
1e-07
40
0
40
0
40
0
40
0
40
1
40
1
40
1
40
1
10
269.734629847
20
286.563913922
30
0
10
270.286644069
20
287.184313855
30
0
10
270.78923973
20
287.783839148
30
0
10
270.851510947
20
287.896192193
30
0
0
SPLINE
5
1E0
100
AcDbEntity
8
Logo
6
ByLayer
62
7
370
-1
100
AcDbSpline
210
0
220
0
230
1
70
8
71
3
72
8
73
4
74
0
42
1e-07
43
1e-07
40
0
40
0
40
0
40
0
40
1
40
1
40
1
40
1
10
270.851510947
20
287.896192193
30
0
10
270.958634513
20
288.089479832
30
0
10
271.342902643
20
287.722278432
30
0
10
278.00083257
20
281.064348505
30
0
0
LWPOLYLINE
5
1E1
100
AcDbEntity
8
Logo
6
ByLayer
62
7
370
-1
100
AcDbPolyline
90
3
70
0
43
0
10
276.97466139
20
277.192200941
10
268.730958805
20
285.435903526
10
269.734629847
20
286.563913922
0
SPLINE
5
1E2
100
AcDbEntity
8
Logo
6
ByLayer
62
7
370
-1
100
AcDbSpline
210
0
220
0
230
1
70
8
71
3
72
8
73
4
74
0
42
1e-07
43
1e-07
40
0
40
0
40
0
40
0
40
1
40
1
40
1
40
1
10
288.756039
20
277.747332373
30
0
10
291.87101436
20
280.862307733
30
0
10
292.495619599
20
281.445942073
30
0
10
292.601247209
20
281.340314462
30
0
0
SPLINE
5
1E3
100
AcDbEntity
8
Logo
6
ByLayer
62
7
370
-1
100
AcDbSpline
210
0
220
0
230
1
70
8
71
3
72
8
73
4
74
0
42
1e-07
43
1e-07
40
0
40
0
40
0
40
0
40
1
40
1
40
1
40
1
10
292.601247209
20
281.340314462
30
0
10
292.670610142
20
281.27095153
30
0
10
292.873580618
20
280.782257305
30
0
10
293.052286018
20
280.254319786
30
0
0
SPLINE
5
1E4
100
AcDbEntity
8
Logo
6
ByLayer
62
7
370
-1
100
AcDbSpline
210
0
220
0
230
1
70
8
71
3
72
8
73
4
74
0
42
1e-07
43
1e-07
40
0
40
0
40
0
40
0
40
1
40
1
40
1
40
1
10
293.052286018
20
280.254319786
30
0
10
293.2309917
20
279.726381984
30
0
10
293.420511874
20
279.251122222
30
0
10
293.473443625
20
279.198190471
30
0
0
SPLINE
5
1E5
100
AcDbEntity
8
Logo
6
ByLayer
62
7
370
-1
100
AcDbSpline
210
0
220
0
230
1
70
8
71
3
72
8
73
4
74
0
42
1e-07
43
1e-07
40
0
40
0
40
0
40
0
40
1
40
1
40
1
40
1
10
293.473443625
20
279.198190471
30
0
10
293.52637679
20
279.145257306
30
0
10
293.669690364
20
278.796475472
30
0
10
293.791911226
20
278.423110647
30
0
0
LWPOLYLINE
5
1E6
100
AcDbEntity
8
Logo
6
ByLayer
62
7
370
-1
100
AcDbPolyline
90
3
70
0
43
0
10
278.00083257
20
281.064348505
10
285.036943851
20
274.028237224
10
288.756039
20
277.747332373
0
SPLINE
5
1E7
100
AcDbEntity
8
Logo
6
ByLayer
62
7
370
-1
100
AcDbSpline
210
0
220
0
230
1
70
8
71
3
72
8
73
4
74
0
42
1e-07
43
1e-07
40
0
40
0
40
0
40
0
40
1
40
1
40
1
40
1
10
299.225221586
20
282.608077725
30
0
10
299.029958008
20
282.503999243
30
0
10
298.604380984
20
282.228078824
30
0
10
298.279499359
20
281.99492309
30
0
0
SPLINE
5
1E8
100
AcDbEntity
8
Logo
6
ByLayer
62
7
370
-1
100
AcDbSpline
210
0
220
0
230
1
70
8
71
3
72
8
73
4
74
0
42
1e-07
43
1e-07
40
0
40
0
40
0
40
0
40
1
40
1
40
1
40
1
10
298.279499359
20
281.99492309
30
0
10
297.954608683
20
281.761760569
30
0
10
297.474767153
20
281.447779702
30
0
10
297.213171585
20
281.297177272
30
0
0
LWPOLYLINE
5
1E9
100
AcDbEntity
8
Logo
6
ByLayer
62
7
370
-1
100
AcDbPolyline
90
6
70
0
43
0
10
293.791911226
20
278.423110647
10
294.014145836
20
277.744279652
10
289.616255047
20
273.346388862
10
285.218364258
20
268.948498073
10
276.97466139
20
277.192200941
10
276.97466139
20
277.192200941
0
SPLINE
5
1EA
100
AcDbEntity
8
Logo
6
ByLayer
62
7
370
-1
100
AcDbSpline
210
0
220
0
230
1
70
8
71
3
72
8
73
4
74
0
42
1e-07
43
1e-07
40
0
40
0
40
0
40
0
40
1
40
1
40
1
40
1
10
296.454179005
20
281.777439106
30
0
10
296.298322205
20
282.192182406
30
0
10
295.99856861
20
283.012392049
30
0
10
295.788063204
20
283.600131568
30
0
0
SPLINE
5
1EB
100
AcDbEntity
8
Logo
6
ByLayer
62
7
370
-1
100
AcDbSpline
210
0
220
0
230
1
70
8
71
3
72
8
73
4
74
0
42
1e-07
43
1e-07
40
0
40
0
40
0
40
0
40
1
40
1
40
1
40
1
10
295.788063204
20
283.600131568
30
0
10
295.577558081
20
284.187871371
30
0
10
295.187834198
20
285.22682393
30
0
10
294.922010415
20
285.908916385
30
0
0
SPLINE
5
1EC
100
AcDbEntity
8
Logo
6
ByLayer
62
7
370
-1
100
AcDbSpline
210
0
220
0
230
1
70
8
71
3
72
8
73
4
74
0
42
1e-07
43
1e-07
40
0
40
0
40
0
40
0
40
1
40
1
40
1
40
1
10
294.922010415
20
285.908916385
30
0
10
294.656195116
20
286.591016759
30
0
10
294.352078955
20
287.389023248
30
0
10
294.246207817
20
287.68227429
30
0
0
SPLINE
5
1ED
100
AcDbEntity
8
Logo
6
ByLayer
62
7
370
-1
100
AcDbSpline
210
0
220
0
230
1
70
8
71
3
72
8
73
4
74
0
42
1e-07
43
1e-07
40
0
40
0
40
0
40
0
40
1
40
1
40
1
40
1
10
294.246207817
20
287.68227429
30
0
10
293.498984888
20
289.751917573
30
0
10
293.069155323
20
290.850468768
30
0
10
292.966398848
20
290.953225243
30
0
0
SPLINE
5
1EE
100
AcDbEntity
8
Logo
6
ByLayer
62
7
370
-1
100
AcDbSpline
210
0
220
0
230
1
70
8
71
3
72
8
73
4
74
0
42
1e-07
43
1e-07
40
0
40
0
40
0
40
0
40
1
40
1
40
1
40
1
10
292.966398848
20
290.953225243
30
0
10
292.900722488
20
291.018901604
30
0
10
292.760327285
20
291.05126277
30
0
10
292.654399295
20
291.025128669
30
0
0
SPLINE
5
1EF
100
AcDbEntity
8
Logo
6
ByLayer
62
7
370
-1
100
AcDbSpline
210
0
220
0
230
1
70
8
71
3
72
8
73
4
74
0
42
1e-07
43
1e-07
40
0
40
0
40
0
40
0
40
1
40
1
40
1
40
1
10
292.654399295
20
291.025128669
30
0
10
292.548480073
20
290.999002205
30
0
10
291.734208714
20
291.066403623
30
0
10
290.84491587
20
291.174917078
30
0
0
SPLINE
5
1F0
100
AcDbEntity
8
Logo
6
ByLayer
62
7
370
-1
100
AcDbSpline
210
0
220
0
230
1
70
8
71
3
72
8
73
4
74
0
42
1e-07
43
1e-07
40
0
40
0
40
0
40
0
40
1
40
1
40
1
40
1
10
290.84491587
20
291.174917078
30
0
10
289.95562331
20
291.28343025
30
0
10
289.127525467
20
291.362359206
30
0
10
289.004707525
20
291.350321703
30
0
0
SPLINE
5
1F1
100
AcDbEntity
8
Logo
6
ByLayer
62
7
370
-1
100
AcDbSpline
210
0
220
0
230
1
70
8
71
3
72
8
73
4
74
0
42
1e-07
43
1e-07
40
0
40
0
40
0
40
0
40
1
40
1
40
1
40
1
10
289.004707525
20
291.350321703
30
0
10
288.881881662
20
291.338276281
30
0
10
288.743155232
20
291.366669164
30
0
10
288.696418019
20
291.413406376
30
0
0
SPLINE
5
1F2
100
AcDbEntity
8
Logo
6
ByLayer
62
7
370
-1
100
AcDbSpline
210
0
220
0
230
1
70
8
71
3
72
8
73
4
74
0
42
1e-07
43
1e-07
40
0
40
0
40
0
40
0
40
1
40
1
40
1
40
1
10
288.696418019
20
291.413406376
30
0
10
288.649679958
20
291.460144438
30
0
10
288.288723442
20
291.494539243
30
0
10
287.89429532
20
291.489844619
30
0
0
SPLINE
5
1F3
100
AcDbEntity
8
Logo
6
ByLayer
62
7
370
-1
100
AcDbSpline
210
0
220
0
230
1
70
8
71
3
72
8
73
4
74
0
42
1e-07
43
1e-07
40
0
40
0
40
0
40
0
40
1
40
1
40
1
40
1
10
287.89429532
20
291.489844619
30
0
10
287.499868046
20
291.485149148
30
0
10
287.133117497
20
291.522751672
30
0
10
287.079299034
20
291.573409085
30
0
0
SPLINE
5
1F4
100
AcDbEntity
8
Logo
6
ByLayer
62
7
370
-1
100
AcDbSpline
210
0
220
0
230
1
70
8
71
3
72
8
73
4
74
0
42
1e-07
43
1e-07
40
0
40
0
40
0
40
0
40
1
40
1
40
1
40
1
10
287.079299034
20
291.573409085
30
0
10
287.025465298
20
291.624049527
30
0
10
286.698968358
20
291.664839123
30
0
10
286.353718381
20
291.664017465
30
0
0
SPLINE
5
1F5
100
AcDbEntity
8
Logo
6
ByLayer
62
7
370
-1
100
AcDbSpline
210
0
220
0
230
1
70
8
71
3
72
8
73
4
74
0
42
1e-07
43
1e-07
40
0
40
0
40
0
40
0
40
1
40
1
40
1
40
1
10
286.353718381
20
291.664017465
30
0
10
286.008476041
20
291.66320514
30
0
10
285.673007614
20
291.715519729
30
0
10
285.608242855
20
291.780284487
30
0
0
SPLINE
5
1F6
100
AcDbEntity
8
Logo
6
ByLayer
62
7
370
-1
100
AcDbSpline
210
0
220
0
230
1
70
8
71
3
72
8
73
4
74
0
42
1e-07
43
1e-07
40
0
40
0
40
0
40
0
40
1
40
1
40
1
40
1
10
285.608242855
20
291.780284487
30
0
10
285.543478945
20
291.845048397
30
0
10
285.458999201
20
291.866546989
30
0
10
285.420515621
20
291.828063409
30
0
0
SPLINE
5
1F7
100
AcDbEntity
8
Logo
6
ByLayer
62
7
370
-1
100
AcDbSpline
210
0
220
0
230
1
70
8
71
3
72
8
73
4
74
0
42
1e-07
43
1e-07
40
0
40
0
40
0
40
0
40
1
40
1
40
1
40
1
10
285.420515621
20
291.828063409
30
0
10
285.382024405
20
291.789572193
30
0
10
284.844048515
20
291.820821788
30
0
10
284.225001701
20
291.897493376
30
0
0
SPLINE
5
1F8
100
AcDbEntity
8
Logo
6
ByLayer
62
7
370
-1
100
AcDbSpline
210
0
220
0
230
1
70
8
71
3
72
8
73
4
74
0
42
1e-07
43
1e-07
40
0
40
0
40
0
40
0
40
1
40
1
40
1
40
1
10
284.225001701
20
291.897493376
30
0
10
283.605954604
20
291.974164681
30
0
10
283.026430534
20
292.004368606
30
0
10
282.937180082
20
291.964622417
30
0
0
SPLINE
5
1F9
100
AcDbEntity
8
Logo
6
ByLayer
62
7
370
-1
100
AcDbSpline
210
0
220
0
230
1
70
8
71
3
72
8
73
4
74
0
42
1e-07
43
1e-07
40
0
40
0
40
0
40
0
40
1
40
1
40
1
40
1
10
282.937180082
20
291.964622417
30
0
10
282.847921427
20
291.924869156
30
0
10
282.718121229
20
291.949125464
30
0
10
282.648726618
20
292.018520075
30
0
0
SPLINE
5
1FA
100
AcDbEntity
8
Logo
6
ByLayer
62
7
370
-1
100
AcDbSpline
210
0
220
0
230
1
70
8
71
3
72
8
73
4
74
0
42
1e-07
43
1e-07
40
0
40
0
40
0
40
0
40
1
40
1
40
1
40
1
10
282.648726618
20
292.018520075
30
0
10
282.579332007
20
292.087914686
30
0
10
282.241727552
20
292.140656933
30
0
10
281.898488869
20
292.135717368
30
0
0
SPLINE
5
1FB
100
AcDbEntity
8
Logo
6
ByLayer
62
7
370
-1
100
AcDbSpline
210
0
220
0
230
1
70
8
71
3
72
8
73
4
74
0
42
1e-07
43
1e-07
40
0
40
0
40
0
40
0
40
1
40
1
40
1
40
1
10
281.898488869
20
292.135717368
30
0
10
281.555256975
20
292.130786853
30
0
10
281.230974693
20
292.169328981
30
0
10
281.17786362
20
292.221370909
30
0
0
SPLINE
5
1FC
100
AcDbEntity
8
Logo
6
ByLayer
62
7
370
-1
100
AcDbSpline
210
0
220
0
230
1
70
8
71
3
72
8
73
4
74
0
42
1e-07
43
1e-07
40
0
40
0
40
0
40
0
40
1
40
1
40
1
40
1
10
281.17786362
20
292.221370909
30
0
10
281.124488938
20
292.273148662
30
0
10
280.799970483
20
292.311608482
30
0
10
280.456109546
20
292.306236734
30
0
0
SPLINE
5
1FD
100
AcDbEntity
8
Logo
6
ByLayer
62
7
370
-1
100
AcDbSpline
210
0
220
0
230
1
70
8
71
3
72
8
73
4
74
0
42
1e-07
43
1e-07
40
0
40
0
40
0
40
0
40
1
40
1
40
1
40
1
10
280.456109546
20
292.306236734
30
0
10
280.11224861
20
292.30086555
30
0
10
279.798093795
20
292.329280778
30
0
10
279.757990941
20
292.369383632
30
0
0
SPLINE
5
1FE
100
AcDbEntity
8
Logo
6
ByLayer
62
7
370
-1
100
AcDbSpline
210
0
220
0
230
1
70
8
71
3
72
8
73
4
74
0
42
1e-07
43
1e-07
40
0
40
0
40
0
40
0
40
1
40
1
40
1
40
1
10
279.757990941
20
292.369383632
30
0
10
279.717886956
20
292.409487617
30
0
10
279.51443989
20
292.442301897
30
0
10
279.30587931
20
292.442297089
30
0
0
LWPOLYLINE
5
1FF
100
AcDbEntity
8
Logo
6
ByLayer
62
7
370
-1
100
AcDbPolyline
90
3
70
0
43
0
10
297.213171585
20
281.297177272
10
296.73755035
20
281.023358656
10
296.454179005
20
281.777439106
0
SPLINE
5
200
100
AcDbEntity
8
Logo
6
ByLayer
62
7
370
-1
100
AcDbSpline
210
0
220
0
230
1
70
8
71
3
72
8
73
4
74
0
42
1e-07
43
1e-07
40
0
40
0
40
0
40
0
40
1
40
1
40
1
40
1
10
278.976411674
20
293.155991843
30
0
10
279.17638628
20
296.026003351
30
0
10
279.123125017
20
295.832048204
30
0
10
279.700798447
20
295.793637598
30
0
0
SPLINE
5
201
100
AcDbEntity
8
Logo
6
ByLayer
62
7
370
-1
100
AcDbSpline
210
0
220
0
230
1
70
8
71
3
72
8
73
4
74
0
42
1e-07
43
1e-07
40
0
40
0
40
0
40
0
40
1
40
1
40
1
40
1
10
279.700798447
20
295.793637598
30
0
10
279.97083489
20
295.77568642
30
0
10
280.398371732
20
295.73458004
30
0
10
280.650878998
20
295.702292978
30
0
0
SPLINE
5
202
100
AcDbEntity
8
Logo
6
ByLayer
62
7
370
-1
100
AcDbSpline
210
0
220
0
230
1
70
8
71
3
72
8
73
4
74
0
42
1e-07
43
1e-07
40
0
40
0
40
0
40
0
40
1
40
1
40
1
40
1
10
280.650878998
20
295.702292978
30
0
10
281.27651633
20
295.622288089
30
0
10
282.521033882
20
295.485654694
30
0
10
283.126781148
20
295.430456807
30
0
0
SPLINE
5
203
100
AcDbEntity
8
Logo
6
ByLayer
62
7
370
-1
100
AcDbSpline
210
0
220
0
230
1
70
8
71
3
72
8
73
4
74
0
42
1e-07
43
1e-07
40
0
40
0
40
0
40
0
40
1
40
1
40
1
40
1
10
283.126781148
20
295.430456807
30
0
10
284.608859425
20
295.295401109
30
0
10
288.070049539
20
294.904404717
30
0
10
288.483125481
20
294.825362624
30
0
0
SPLINE
5
204
100
AcDbEntity
8
Logo
6
ByLayer
62
7
370
-1
100
AcDbSpline
210
0
220
0
230
1
70
8
71
3
72
8
73
4
74
0
42
1e-07
43
1e-07
40
0
40
0
40
0
40
0
40
1
40
1
40
1
40
1
10
288.483125481
20
294.825362624
30
0
10
288.746115181
20
294.775041229
30
0
10
289.167140135
20
294.741803816
30
0
10
289.41873099
20
294.751494573
30
0
0
SPLINE
5
205
100
AcDbEntity
8
Logo
6
ByLayer
62
7
370
-1
100
AcDbSpline
210
0
220
0
230
1
70
8
71
3
72
8
73
4
74
0
42
1e-07
43
1e-07
40
0
40
0
40
0
40
0
40
1
40
1
40
1
40
1
10
289.41873099
20
294.751494573
30
0
10
289.670329765
20
294.76119325
30
0
10
289.911908837
20
294.73339971
30
0
10
289.955575226
20
294.689733321
30
0
0
SPLINE
5
206
100
AcDbEntity
8
Logo
6
ByLayer
62
7
370
-1
100
AcDbSpline
210
0
220
0
230
1
70
8
71
3
72
8
73
4
74
0
42
1e-07
43
1e-07
40
0
40
0
40
0
40
0
40
1
40
1
40
1
40
1
10
289.955575226
20
294.689733321
30
0
10
289.999241616
20
294.646066932
30
0
10
290.324944899
20
294.606103802
30
0
10
290.679357848
20
294.600922972
30
0
0
SPLINE
5
207
100
AcDbEntity
8
Logo
6
ByLayer
62
7
370
-1
100
AcDbSpline
210
0
220
0
230
1
70
8
71
3
72
8
73
4
74
0
42
1e-07
43
1e-07
40
0
40
0
40
0
40
0
40
1
40
1
40
1
40
1
10
290.679357848
20
294.600922972
30
0
10
291.033770515
20
294.595742425
30
0
10
291.358296041
20
294.556940647
30
0
10
291.400532943
20
294.514703745
30
0
0
SPLINE
5
208
100
AcDbEntity
8
Logo
6
ByLayer
62
7
370
-1
100
AcDbSpline
210
0
220
0
230
1
70
8
71
3
72
8
73
4
74
0
42
1e-07
43
1e-07
40
0
40
0
40
0
40
0
40
1
40
1
40
1
40
1
10
291.400532943
20
294.514703745
30
0
10
291.569174234
20
294.346062455
30
0
10
291.727935545
20
294.714829389
30
0
10
291.593016177
20
294.961790675
30
0
0
SPLINE
5
209
100
AcDbEntity
8
Logo
6
ByLayer
62
7
370
-1
100
AcDbSpline
210
0
220
0
230
1
70
8
71
3
72
8
73
4
74
0
42
1e-07
43
1e-07
40
0
40
0
40
0
40
0
40
1
40
1
40
1
40
1
10
291.593016177
20
294.961790675
30
0
10
291.463463467
20
295.198914692
30
0
10
291.010581372
20
296.427259863
30
0
10
290.578969616
20
297.712195638
30
0
0
SPLINE
5
20A
100
AcDbEntity
8
Logo
6
ByLayer
62
7
370
-1
100
AcDbSpline
210
0
220
0
230
1
70
8
71
3
72
8
73
4
74
0
42
1e-07
43
1e-07
40
0
40
0
40
0
40
0
40
1
40
1
40
1
40
1
10
290.578969616
20
297.712195638
30
0
10
290.49115459
20
297.973612732
30
0
10
289.895488121
20
299.623010293
30
0
10
289.255271944
20
301.377528893
30
0
0
SPLINE
5
20B
100
AcDbEntity
8
Logo
6
ByLayer
62
7
370
-1
100
AcDbSpline
210
0
220
0
230
1
70
8
71
3
72
8
73
4
74
0
42
1e-07
43
1e-07
40
0
40
0
40
0
40
0
40
1
40
1
40
1
40
1
10
289.255271944
20
301.377528893
30
0
10
288.615055201
20
303.132047493
30
0
10
288.091150453
20
304.59374667
30
0
10
288.091034771
20
304.625744383
30
0
0
SPLINE
5
20C
100
AcDbEntity
8
Logo
6
ByLayer
62
7
370
-1
100
AcDbSpline
210
0
220
0
230
1
70
8
71
3
72
8
73
4
74
0
42
1e-07
43
1e-07
40
0
40
0
40
0
40
0
40
1
40
1
40
1
40
1
10
288.091034771
20
304.625744383
30
0
10
288.090367545
20
304.820895955
30
0
10
291.014506381
20
305.889833802
30
0
10
291.140498101
20
305.740501335
30
0
0
SPLINE
5
20D
100
AcDbEntity
8
Logo
6
ByLayer
62
7
370
-1
100
AcDbSpline
210
0
220
0
230
1
70
8
71
3
72
8
73
4
74
0
42
1e-07
43
1e-07
40
0
40
0
40
0
40
0
40
1
40
1
40
1
40
1
10
291.140498101
20
305.740501335
30
0
10
291.352433843
20
305.489275912
30
0
10
291.631042117
20
304.834438747
30
0
10
291.891364044
20
303.975672552
30
0
0
SPLINE
5
20E
100
AcDbEntity
8
Logo
6
ByLayer
62
7
370
-1
100
AcDbSpline
210
0
220
0
230
1
70
8
71
3
72
8
73
4
74
0
42
1e-07
43
1e-07
40
0
40
0
40
0
40
0
40
1
40
1
40
1
40
1
10
291.891364044
20
303.975672552
30
0
10
292.05869549
20
303.423667098
30
0
10
292.239988052
20
302.927642439
30
0
10
292.294236719
20
302.873393772
30
0
0
SPLINE
5
20F
100
AcDbEntity
8
Logo
6
ByLayer
62
7
370
-1
100
AcDbSpline
210
0
220
0
230
1
70
8
71
3
72
8
73
4
74
0
42
1e-07
43
1e-07
40
0
40
0
40
0
40
0
40
1
40
1
40
1
40
1
10
292.294236719
20
302.873393772
30
0
10
292.348485668
20
302.819144823
30
0
10
292.559781902
20
302.312769535
30
0
10
292.763794936
20
301.748125254
30
0
0
SPLINE
5
210
100
AcDbEntity
8
Logo
6
ByLayer
62
7
370
-1
100
AcDbSpline
210
0
220
0
230
1
70
8
71
3
72
8
73
4
74
0
42
1e-07
43
1e-07
40
0
40
0
40
0
40
0
40
1
40
1
40
1
40
1
10
292.763794936
20
301.748125254
30
0
10
293.450589651
20
299.847247995
30
0
10
293.619110168
20
299.395286271
30
0
10
293.882446632
20
298.747930295
30
0
0
SPLINE
5
211
100
AcDbEntity
8
Logo
6
ByLayer
62
7
370
-1
100
AcDbSpline
210
0
220
0
230
1
70
8
71
3
72
8
73
4
74
0
42
1e-07
43
1e-07
40
0
40
0
40
0
40
0
40
1
40
1
40
1
40
1
10
293.882446632
20
298.747930295
30
0
10
294.135960253
20
298.12474917
30
0
10
294.308032425
20
297.65573005
30
0
10
295.080677823
20
295.482021014
30
0
0
SPLINE
5
212
100
AcDbEntity
8
Logo
6
ByLayer
62
7
370
-1
100
AcDbSpline
210
0
220
0
230
1
70
8
71
3
72
8
73
4
74
0
42
1e-07
43
1e-07
40
0
40
0
40
0
40
0
40
1
40
1
40
1
40
1
10
295.080677823
20
295.482021014
30
0
10
295.279713674
20
294.922050708
30
0
10
295.479211124
20
294.427617888
30
0
10
295.523998419
20
294.383277485
30
0
0
SPLINE
5
213
100
AcDbEntity
8
Logo
6
ByLayer
62
7
370
-1
100
AcDbSpline
210
0
220
0
230
1
70
8
71
3
72
8
73
4
74
0
42
1e-07
43
1e-07
40
0
40
0
40
0
40
0
40
1
40
1
40
1
40
1
10
295.523998419
20
294.383277485
30
0
10
295.568562834
20
294.33871307
30
0
10
295.753996779
20
293.879752686
30
0
10
295.935565396
20
293.362857063
30
0
0
SPLINE
5
214
100
AcDbEntity
8
Logo
6
ByLayer
62
7
370
-1
100
AcDbSpline
210
0
220
0
230
1
70
8
71
3
72
8
73
4
74
0
42
1e-07
43
1e-07
40
0
40
0
40
0
40
0
40
1
40
1
40
1
40
1
10
295.935565396
20
293.362857063
30
0
10
296.117142215
20
292.845969643
30
0
10
296.479393584
20
291.861182594
30
0
10
296.740563757
20
291.174436528
30
0
0
SPLINE
5
215
100
AcDbEntity
8
Logo
6
ByLayer
62
7
370
-1
100
AcDbSpline
210
0
220
0
230
1
70
8
71
3
72
8
73
4
74
0
42
1e-07
43
1e-07
40
0
40
0
40
0
40
0
40
1
40
1
40
1
40
1
10
296.740563757
20
291.174436528
30
0
10
297.001741283
20
290.487698382
30
0
10
297.368726591
20
289.507645272
30
0
10
297.556090372
20
288.996544814
30
0
0
SPLINE
5
216
100
AcDbEntity
8
Logo
6
ByLayer
62
7
370
-1
100
AcDbSpline
210
0
220
0
230
1
70
8
71
3
72
8
73
4
74
0
42
1e-07
43
1e-07
40
0
40
0
40
0
40
0
40
1
40
1
40
1
40
1
10
297.556090372
20
288.996544814
30
0
10
297.743462638
20
288.485452275
30
0
10
298.090278715
20
287.566869655
30
0
10
298.326806499
20
286.955262453
30
0
0
SPLINE
5
217
100
AcDbEntity
8
Logo
6
ByLayer
62
7
370
-1
100
AcDbSpline
210
0
220
0
230
1
70
8
71
3
72
8
73
4
74
0
42
1e-07
43
1e-07
40
0
40
0
40
0
40
0
40
1
40
1
40
1
40
1
10
298.326806499
20
286.955262453
30
0
10
298.563326647
20
286.343647048
30
0
10
298.907732621
20
285.422652628
30
0
10
299.092142958
20
284.908598726
30
0
0
SPLINE
5
218
100
AcDbEntity
8
Logo
6
ByLayer
62
7
370
-1
100
AcDbSpline
210
0
220
0
230
1
70
8
71
3
72
8
73
4
74
0
42
1e-07
43
1e-07
40
0
40
0
40
0
40
0
40
1
40
1
40
1
40
1
10
299.092142958
20
284.908598726
30
0
10
299.276553578
20
284.394545107
30
0
10
299.518434726
20
283.758810007
30
0
10
299.629658098
20
283.495856228
30
0
0
SPLINE
5
219
100
AcDbEntity
8
Logo
6
ByLayer
62
7
370
-1
100
AcDbSpline
210
0
220
0
230
1
70
8
71
3
72
8
73
4
74
0
42
1e-07
43
1e-07
40
0
40
0
40
0
40
0
40
1
40
1
40
1
40
1
10
299.629658098
20
283.495856228
30
0
10
299.841223315
20
282.995661336
30
0
10
299.805576082
20
282.917415163
30
0
10
299.225221586
20
282.608077725
30
0
0
LWPOLYLINE
5
21A
100
AcDbEntity
8
Logo
6
ByLayer
62
7
370
-1
100
AcDbPolyline
90
3
70
0
43
0
10
279.30587931
20
292.442297089
10
278.926682834
20
292.442295392
10
278.976411674
20
293.155991843
0
LWPOLYLINE
5
21B
100
AcDbEntity
8
Logo
6
ByLayer
62
7
370
-1
100
AcDbPolyline
90
3
70
0
43
0
10
299.225221586
20
282.608077725
10
299.225221586
20
282.608077725
10
299.225221586
20
282.608077725
0
SPLINE
5
21C
100
AcDbEntity
8
Logo
6
ByLayer
62
7
370
-1
100
AcDbSpline
210
0
220
0
230
1
70
8
71
3
72
8
73
4
74
0
42
1e-07
43
1e-07
40
0
40
0
40
0
40
0
40
1
40
1
40
1
40
1
10
207.038469409
20
245.757842522
30
0
10
211.605369467
20
245.892142465
30
0
10
216.306601428
20
247.23535091
30
0
10
221.142178022
20
249.787474363
30
0
0
LWPOLYLINE
5
21D
100
AcDbEntity
8
Logo
6
ByLayer
62
7
370
-1
100
AcDbPolyline
90
12
70
0
43
0
10
179.435495262
20
244.951915872
10
189.912536633
20
255.428957242
10
188.099202588
20
257.242291288
10
190.01327757
20
259.15636627
10
191.826611616
20
257.343032225
10
202.60587495
20
268.122295559
10
204.419208995
20
266.308961514
10
193.639945661
20
255.52969818
10
195.554020361
20
253.61562348
10
203.814763937
20
261.876367055
10
213.485878939
20
252.205252053
10
207.038469409
20
245.757842522
0
SPLINE
5
21E
100
AcDbEntity
8
Logo
6
ByLayer
62
7
370
-1
100
AcDbSpline
210
0
220
0
230
1
70
8
71
3
72
8
73
4
74
0
42
1e-07
43
1e-07
40
0
40
0
40
0
40
0
40
1
40
1
40
1
40
1
10
222.250327202
20
246.261546078
30
0
10
216.743144265
20
243.843748306
30
0
10
211.269567851
20
242.869922262
30
0
10
205.82958014
20
243.340063701
30
0
0
LWPOLYLINE
5
21F
100
AcDbEntity
8
Logo
6
ByLayer
62
7
370
-1
100
AcDbPolyline
90
2
70
0
43
0
10
221.142178022
20
249.787474363
10
222.250327202
20
246.261546078
0
SPLINE
5
220
100
AcDbEntity
8
Logo
6
ByLayer
62
7
370
-1
100
AcDbSpline
210
0
220
0
230
1
70
8
71
3
72
8
73
4
74
0
42
1e-07
43
1e-07
40
0
40
0
40
0
40
0
40
1
40
1
40
1
40
1
10
204.217727121
20
241.123766755
30
0
10
204.620682668
20
236.019555204
30
0
10
203.747596995
20
230.848201036
30
0
10
201.598467556
20
225.609686432
30
0
0
LWPOLYLINE
5
221
100
AcDbEntity
8
Logo
6
ByLayer
62
7
370
-1
100
AcDbPolyline
90
4
70
0
43
0
10
205.82958014
20
243.340063701
10
213.183657258
20
235.985986582
10
211.269582276
20
234.0719116
10
204.217727121
20
241.123766755
0
SPLINE
5
222
100
AcDbEntity
8
Logo
6
ByLayer
62
7
370
-1
100
AcDbSpline
210
0
220
0
230
1
70
8
71
3
72
8
73
4
74
0
42
1e-07
43
1e-07
40
0
40
0
40
0
40
0
40
1
40
1
40
1
40
1
10
198.173280491
20
226.012649333
30
0
10
200.456735329
20
231.116843065
30
0
10
201.6320424
20
235.918815398
30
0
10
201.69920821
20
240.418581324
30
0
0
LWPOLYLINE
5
223
100
AcDbEntity
8
Logo
6
ByLayer
62
7
370
-1
100
AcDbPolyline
90
2
70
0
43
0
10
201.598467556
20
225.609686432
10
198.173280491
20
226.012649333
0
LWPOLYLINE
5
224
100
AcDbEntity
8
Logo
6
ByLayer
62
7
370
-1
100
AcDbPolyline
90
7
70
0
43
0
10
201.69920821
20
240.418581324
10
195.050316805
20
233.769689919
10
185.379201802
20
243.440804921
10
193.639945378
20
251.701548497
10
191.725870678
20
253.615623197
10
181.248829308
20
243.138581826
10
179.435495262
20
244.951915872
0
LWPOLYLINE
5
225
100
AcDbEntity
8
Logo
6
ByLayer
62
7
370
-1
100
AcDbPolyline
90
5
70
0
43
0
10
191.322907211
20
241.526729656
10
197.568835715
20
247.77265816
10
195.453279423
20
249.888214452
10
189.207350919
20
243.642285948
10
191.322907211
20
241.526729656
0
LWPOLYLINE
5
226
100
AcDbEntity
8
Logo
6
ByLayer
62
7
370
-1
100
AcDbPolyline
90
5
70
0
43
0
10
197.367354406
20
251.802289434
10
199.482910698
20
249.686733143
10
205.728838636
20
255.932661081
10
203.613282345
20
258.048217373
10
197.367354406
20
251.802289434
0
LWPOLYLINE
5
227
100
AcDbEntity
8
Logo
6
ByLayer
62
7
370
-1
100
AcDbPolyline
90
5
70
0
43
0
10
195.251797831
20
237.597839036
10
201.497726335
20
243.84376754
10
199.382169761
20
245.959324114
10
193.136241257
20
239.71339561
10
195.251797831
20
237.597839036
0
SPLINE
5
228
100
AcDbEntity
8
Logo
6
ByLayer
62
7
370
-1
100
AcDbSpline
210
0
220
0
230
1
70
8
71
3
72
8
73
4
74
0
42
1e-07
43
1e-07
40
0
40
0
40
0
40
0
40
1
40
1
40
1
40
1
10
214.392547376
20
283.737117385
30
0
10
216.608849979
20
283.266960106
30
0
10
218.690822659
20
282.528193892
30
0
10
220.638478426
20
281.520823267
30
0
0
LWPOLYLINE
5
229
100
AcDbEntity
8
Logo
6
ByLayer
62
7
370
-1
100
AcDbPolyline
90
5
70
0
43
0
10
201.296244743
20
247.873399097
10
203.411801318
20
245.757842522
10
209.657729257
20
252.003770461
10
207.542172682
20
254.119327036
10
201.296244743
20
247.873399097
0
SPLINE
5
22A
100
AcDbEntity
8
Logo
6
ByLayer
62
7
370
-1
100
AcDbSpline
210
0
220
0
230
1
70
8
71
3
72
8
73
4
74
0
42
1e-07
43
1e-07
40
0
40
0
40
0
40
0
40
1
40
1
40
1
40
1
10
218.422178085
20
275.476373527
30
0
10
219.89971504
20
273.998820733
30
0
10
221.209341852
20
272.622029524
30
0
10
222.351070402
20
271.34600386
30
0
0
LWPOLYLINE
5
22B
100
AcDbEntity
8
Logo
6
ByLayer
62
7
370
-1
100
AcDbPolyline
90
4
70
0
43
0
10
220.638478426
20
281.520823267
10
230.309591448
20
291.19193629
10
232.223666148
20
289.27786159
10
218.422178085
20
275.476373527
0
SPLINE
5
22C
100
AcDbEntity
8
Logo
6
ByLayer
62
7
370
-1
100
AcDbSpline
210
0
220
0
230
1
70
8
71
3
72
8
73
4
74
0
42
1e-07
43
1e-07
40
0
40
0
40
0
40
0
40
1
40
1
40
1
40
1
10
233.734778513
20
282.729711971
30
0
10
240.04784822
20
276.41659418
30
0
10
243.540191478
20
272.386967997
30
0
10
244.211814227
20
270.640811641
30
0
0
SPLINE
5
22D
100
AcDbEntity
8
Logo
6
ByLayer
62
7
370
-1
100
AcDbSpline
210
0
220
0
230
1
70
8
71
3
72
8
73
4
74
0
42
1e-07
43
1e-07
40
0
40
0
40
0
40
0
40
1
40
1
40
1
40
1
10
244.211814227
20
270.640811641
30
0
10
244.883402468
20
268.894626436
30
0
10
244.413273757
20
267.215608172
30
0
10
242.801443931
20
265.603773255
30
0
0
SPLINE
5
22E
100
AcDbEntity
8
Logo
6
ByLayer
62
7
370
-1
100
AcDbSpline
210
0
220
0
230
1
70
8
71
3
72
8
73
4
74
0
42
1e-07
43
1e-07
40
0
40
0
40
0
40
0
40
1
40
1
40
1
40
1
10
242.801443931
20
265.603773255
30
0
10
241.928337045
20
264.73067146
30
0
10
240.78661104
20
263.723266328
30
0
10
239.376257715
20
262.581550789
30
0
0
LWPOLYLINE
5
22F
100
AcDbEntity
8
Logo
6
ByLayer
62
7
370
-1
100
AcDbPolyline
90
2
70
0
43
0
10
222.351070402
20
271.34600386
10
233.734778513
20
282.729711971
0
SPLINE
5
230
100
AcDbEntity
8
Logo
6
ByLayer
62
7
370
-1
100
AcDbSpline
210
0
220
0
230
1
70
8
71
3
72
8
73
4
74
0
42
1e-07
43
1e-07
40
0
40
0
40
0
40
0
40
1
40
1
40
1
40
1
10
237.059218134
20
264.294143048
30
0
10
238.469573439
20
265.435857173
30
0
10
239.611308212
20
266.443269376
30
0
10
240.484404633
20
267.316365797
30
0
0
SPLINE
5
231
100
AcDbEntity
8
Logo
6
ByLayer
62
7
370
-1
100
AcDbSpline
210
0
220
0
230
1
70
8
71
3
72
8
73
4
74
0
42
1e-07
43
1e-07
40
0
40
0
40
0
40
0
40
1
40
1
40
1
40
1
10
240.484404633
20
267.316365797
30
0
10
241.290312616
20
268.122273781
30
0
10
241.458220212
20
269.028947874
30
0
10
240.988112148
20
270.036370542
30
0
0
SPLINE
5
232
100
AcDbEntity
8
Logo
6
ByLayer
62
7
370
-1
100
AcDbSpline
210
0
220
0
230
1
70
8
71
3
72
8
73
4
74
0
42
1e-07
43
1e-07
40
0
40
0
40
0
40
0
40
1
40
1
40
1
40
1
10
240.988112148
20
270.036370542
30
0
10
240.517969295
20
271.17807703
30
0
10
238.066610538
20
274.099553751
30
0
10
233.63403503
20
278.800818522
30
0
0
LWPOLYLINE
5
233
100
AcDbEntity
8
Logo
6
ByLayer
62
7
370
-1
100
AcDbPolyline
90
2
70
0
43
0
10
239.376257715
20
262.581550789
10
237.059218134
20
264.294143048
0
SPLINE
5
234
100
AcDbEntity
8
Logo
6
ByLayer
62
7
370
-1
100
AcDbSpline
210
0
220
0
230
1
70
8
71
3
72
8
73
4
74
0
42
1e-07
43
1e-07
40
0
40
0
40
0
40
0
40
1
40
1
40
1
40
1
10
224.063660399
20
269.230443891
30
0
10
228.89921097
20
263.723266328
30
0
10
230.309581832
20
257.678827619
30
0
10
228.294774114
20
251.097103438
30
0
0
LWPOLYLINE
5
235
100
AcDbEntity
8
Logo
6
ByLayer
62
7
370
-1
100
AcDbPolyline
90
2
70
0
43
0
10
233.63403503
20
278.800818522
10
224.063660399
20
269.230443891
0
SPLINE
5
236
100
AcDbEntity
8
Logo
6
ByLayer
62
7
370
-1
100
AcDbSpline
210
0
220
0
230
1
70
8
71
3
72
8
73
4
74
0
42
1e-07
43
1e-07
40
0
40
0
40
0
40
0
40
1
40
1
40
1
40
1
10
225.373291737
20
251.802289152
30
0
10
226.447856174
20
255.160310123
30
0
10
226.380695737
20
258.518333074
30
0
10
225.171809862
20
261.876367621
30
0
0
SPLINE
5
237
100
AcDbEntity
8
Logo
6
ByLayer
62
7
370
-1
100
AcDbSpline
210
0
220
0
230
1
70
8
71
3
72
8
73
4
74
0
42
1e-07
43
1e-07
40
0
40
0
40
0
40
0
40
1
40
1
40
1
40
1
10
225.171809862
20
261.876367621
30
0
10
224.030083292
20
264.898579056
30
0
10
221.108598086
20
268.760300755
30
0
10
216.407359902
20
273.461555344
30
0
0
LWPOLYLINE
5
238
100
AcDbEntity
8
Logo
6
ByLayer
62
7
370
-1
100
AcDbPolyline
90
2
70
0
43
0
10
228.294774114
20
251.097103438
10
225.373291737
20
251.802289152
0
SPLINE
5
239
100
AcDbEntity
8
Logo
6
ByLayer
62
7
370
-1
100
AcDbSpline
210
0
220
0
230
1
70
8
71
3
72
8
73
4
74
0
42
1e-07
43
1e-07
40
0
40
0
40
0
40
0
40
1
40
1
40
1
40
1
10
218.220697907
20
279.103042749
30
0
10
216.541688129
20
279.976096743
30
0
10
214.829097567
20
280.61412202
30
0
10
213.082914624
20
281.017113772
30
0
0
LWPOLYLINE
5
23A
100
AcDbEntity
8
Logo
6
ByLayer
62
7
370
-1
100
AcDbPolyline
90
4
70
0
43
0
10
216.407359902
20
273.461555344
10
209.758469911
20
266.812665353
10
207.844395211
20
268.726740053
10
218.220697907
20
279.103042749
0
LWPOLYLINE
5
23B
100
AcDbEntity
8
Logo
6
ByLayer
62
7
370
-1
100
AcDbPolyline
90
2
70
0
43
0
10
213.082914624
20
281.017113772
10
214.392547376
20
283.737117385
0
ENDSEC
0
SECTION
2
OBJECTS
0
DICTIONARY
5
C
330
0
100
AcDbDictionary
281
1
3
ACAD_GROUP
350
D
0
DICTIONARY
5
D
330
C
100
AcDbDictionary
281
1
0
ENDSEC
0
EOF
