999
dxfrw 0.5.10
0
SECTION
2
HEADER
9
$ACADVER
1
AC1021
9
$HANDSEED
5
20000
9
$DWGCODEPAGE
3
ANSI_1252
9
$INSBASE
10
0
20
0
30
0
9
$EXTMIN
10
0
20
0
30
0
9
$EXTMAX
10
490
20
490
30
0
9
$LIMMIN
10
0
20
0
9
$LIMMAX
10
420
20
297
9
$ORTHOMODE
70
0
9
$LTSCALE
40
1
9
$TEXTSTYLE
7
STANDARD
9
$CLAYER
8
BoardLayout
9
$DIMASZ
40
2.5
9
$DIMLFAC
40
1
9
$DIMSCALE
40
1
9
$DIMEXO
40
0.625
9
$DIMEXE
40
1.25
9
$DIMTXT
40
2.5
9
$DIMTSZ
40
0
9
$DIMAUNIT
70
0
9
$DIMADEC
70
2
9
$DIMLUNIT
70
2
9
$DIMSTYLE
2
STANDARD
9
$DIMGAP
40
0.625
9
$DIMTIH
70
0
9
$LUNITS
70
2
9
$LUPREC
70
4
9
$AUNITS
70
0
9
$AUPREC
70
2
9
$SPLINESEGS
70
8
9
$GRIDMODE
70
1
9
$SNAPSTYLE
70
0
9
$GRIDUNIT
10
10
20
10
9
$PINSBASE
10
0
20
0
30
0
9
$PLIMMIN
10
0
20
0
9
$PLIMMAX
10
210
20
297
9
$INSUNITS
70
4
9
$PSVPSCALE
40
1
0
ENDSEC
0
SECTION
2
CLASSES
0
ENDSEC
0
SECTION
2
TABLES
0
TABLE
2
VPORT
5
8
330
0
100
AcDbSymbolTable
70
1
0
VPORT
5
31
330
2
100
AcDbSymbolTableRecord
100
AcDbViewportTableRecord
2
*ACTIVE
70
0
10
0
20
0
11
1
21
1
12
330.582191781
22
248.356164384
13
0
23
0
14
10
24
10
15
10
25
10
16
0
26
0
36
1
17
0
27
0
37
0
40
503.424657534
41
1.65333333333
42
50
43
0
44
0
50
0
51
0
71
0
72
100
73
1
74
3
75
0
76
1
77
0
78
0
281
0
65
1
110
0
120
0
130
0
111
1
121
0
131
0
112
0
122
1
132
0
79
0
146
0
348
10020
60
3
61
5
292
1
282
1
141
0
142
0
63
250
421
3358443
0
ENDTAB
0
TABLE
2
LTYPE
5
5
330
0
100
AcDbSymbolTable
70
4
0
LTYPE
5
14
330
5
100
AcDbSymbolTableRecord
100
AcDbLinetypeTableRecord
2
ByBlock
70
0
3

72
65
73
0
40
0
0
LTYPE
5
15
330
5
100
AcDbSymbolTableRecord
100
AcDbLinetypeTableRecord
2
ByLayer
70
0
3

72
65
73
0
40
0
0
LTYPE
5
16
330
5
100
AcDbSymbolTableRecord
100
AcDbLinetypeTableRecord
2
Continuous
70
0
3
Solid line
72
65
73
0
40
0
0
LTYPE
5
32
330
5
100
AcDbSymbolTableRecord
100
AcDbLinetypeTableRecord
2
DOT
70
0
3
Dot . . . . . . . . . . . . . . . . . . . . . .
72
65
73
2
40
6.35
49
0
74
0
49
-6.35
74
0
0
LTYPE
5
33
330
5
100
AcDbSymbolTableRecord
100
AcDbLinetypeTableRecord
2
DOT2
70
0
3
Dot (.5x) .....................................
72
65
73
2
40
3.175
49
0
74
0
49
-3.175
74
0
0
LTYPE
5
34
330
5
100
AcDbSymbolTableRecord
100
AcDbLinetypeTableRecord
2
DOTX2
70
0
3
Dot (2x) .  .  .  .  .  .  .  .  .  .  .  .  .
72
65
73
2
40
12.7
49
0
74
0
49
-12.7
74
0
0
LTYPE
5
35
330
5
100
AcDbSymbolTableRecord
100
AcDbLinetypeTableRecord
2
DASHED
70
0
3
Dot . . . . . . . . . . . . . . . . . . . . . .
72
65
73
2
40
19.05
49
12.7
74
0
49
-6.35
74
0
0
LTYPE
5
36
330
5
100
AcDbSymbolTableRecord
100
AcDbLinetypeTableRecord
2
DASHED2
70
0
3
Dashed (.5x) _ _ _ _ _ _ _ _ _ _ _ _ _ _ _ _ _
72
65
73
2
40
9.525
49
6.35
74
0
49
-3.175
74
0
0
LTYPE
5
37
330
5
100
AcDbSymbolTableRecord
100
AcDbLinetypeTableRecord
2
DASHEDX2
70
0
3
Dashed (2x) ____  ____  ____  ____  ____  ___
72
65
73
2
40
38.1
49
25.4
74
0
49
-12.7
74
0
0
LTYPE
5
38
330
5
100
AcDbSymbolTableRecord
100
AcDbLinetypeTableRecord
2
DASHDOT
70
0
3
Dash dot __ . __ . __ . __ . __ . __ . __ . __
72
65
73
4
40
25.4
49
12.7
74
0
49
-6.35
74
0
49
0
74
0
49
-6.35
74
0
0
LTYPE
5
39
330
5
100
AcDbSymbolTableRecord
100
AcDbLinetypeTableRecord
2
DASHDOT2
70
0
3
Dash dot (.5x) _._._._._._._._._._._._._._._.
72
65
73
4
40
12.7
49
6.35
74
0
49
-3.175
74
0
49
0
74
0
49
-3.175
74
0
0
LTYPE
5
3A
330
5
100
AcDbSymbolTableRecord
100
AcDbLinetypeTableRecord
2
DASHDOTX2
70
0
3
Dash dot (2x) ____  .  ____  .  ____  .  ___
72
65
73
4
40
50.8
49
25.4
74
0
49
-12.7
74
0
49
0
74
0
49
-12.7
74
0
0
LTYPE
5
3B
330
5
100
AcDbSymbolTableRecord
100
AcDbLinetypeTableRecord
2
DIVIDE
70
0
3
Divide ____ . . ____ . . ____ . . ____ . . ____
72
65
73
6
40
31.75
49
12.7
74
0
49
-6.35
74
0
49
0
74
0
49
-6.35
74
0
49
0
74
0
49
-6.35
74
0
0
LTYPE
5
3C
330
5
100
AcDbSymbolTableRecord
100
AcDbLinetypeTableRecord
2
DIVIDE2
70
0
3
Divide (.5x) __..__..__..__..__..__..__..__.._
72
65
73
6
40
15.875
49
6.35
74
0
49
-3.175
74
0
49
0
74
0
49
-3.175
74
0
49
0
74
0
49
-3.175
74
0
0
LTYPE
5
3D
330
5
100
AcDbSymbolTableRecord
100
AcDbLinetypeTableRecord
2
DIVIDEX2
70
0
3
Divide (2x) ________  .  .  ________  .  .  _
72
65
73
6
40
63.5
49
25.4
74
0
49
-12.7
74
0
49
0
74
0
49
-12.7
74
0
49
0
74
0
49
-12.7
74
0
0
LTYPE
5
3E
330
5
100
AcDbSymbolTableRecord
100
AcDbLinetypeTableRecord
2
BORDER
70
0
3
Border __ __ . __ __ . __ __ . __ __ . __ __ .
72
65
73
6
40
44.45
49
12.7
74
0
49
-6.35
74
0
49
12.7
74
0
49
-6.35
74
0
49
0
74
0
49
-6.35
74
0
0
LTYPE
5
3F
330
5
100
AcDbSymbolTableRecord
100
AcDbLinetypeTableRecord
2
BORDER2
70
0
3
Border (.5x) __.__.__.__.__.__.__.__.__.__.__.
72
65
73
6
40
22.225
49
6.35
74
0
49
-3.175
74
0
49
6.35
74
0
49
-3.175
74
0
49
0
74
0
49
-3.175
74
0
0
LTYPE
5
40
330
5
100
AcDbSymbolTableRecord
100
AcDbLinetypeTableRecord
2
BORDERX2
70
0
3
Border (2x) ____  ____  .  ____  ____  .  ___
72
65
73
6
40
88.9
49
25.4
74
0
49
-12.7
74
0
49
25.4
74
0
49
-12.7
74
0
49
0
74
0
49
-12.7
74
0
0
LTYPE
5
41
330
5
100
AcDbSymbolTableRecord
100
AcDbLinetypeTableRecord
2
CENTER
70
0
3
Center ____ _ ____ _ ____ _ ____ _ ____ _ ____
72
65
73
4
40
50.8
49
31.75
74
0
49
-6.35
74
0
49
6.35
74
0
49
-6.35
74
0
0
LTYPE
5
42
330
5
100
AcDbSymbolTableRecord
100
AcDbLinetypeTableRecord
2
CENTER2
70
0
3
Center (.5x) ___ _ ___ _ ___ _ ___ _ ___ _ ___
72
65
73
4
40
28.575
49
19.05
74
0
49
-3.175
74
0
49
3.175
74
0
49
-3.175
74
0
0
LTYPE
5
43
330
5
100
AcDbSymbolTableRecord
100
AcDbLinetypeTableRecord
2
CENTERX2
70
0
3
Center (2x) ________  __  ________  __  _____
72
65
73
4
40
101.6
49
63.5
74
0
49
-12.7
74
0
49
12.7
74
0
49
-12.7
74
0
0
ENDTAB
0
TABLE
2
LAYER
5
2
330
0
100
AcDbSymbolTable
70
1
0
LAYER
5
10
330
2
100
AcDbSymbolTableRecord
100
AcDbLayerTableRecord
2
0
70
0
62
7
6
CONTINUOUS
370
0
390
F
0
LAYER
5
44
330
2
100
AcDbSymbolTableRecord
100
AcDbLayerTableRecord
2
BoardLayout
70
0
62
7
6
CONTINUOUS
370
0
390
F
0
LAYER
5
45
330
2
100
AcDbSymbolTableRecord
100
AcDbLayerTableRecord
2
Logo
70
0
62
7
6
CONTINUOUS
370
0
390
F
0
LAYER
5
46
330
2
100
AcDbSymbolTableRecord
100
AcDbLayerTableRecord
2
BoardOuter
70
0
62
1
6
CONTINUOUS
370
0
390
F
0
LAYER
5
47
330
2
100
AcDbSymbolTableRecord
100
AcDbLayerTableRecord
2
CentreGuide
70
0
62
6
6
CONTINUOUS
290
0
370
0
390
F
0
ENDTAB
0
TABLE
2
STYLE
5
3
330
0
100
AcDbSymbolTable
70
3
0
STYLE
5
48
330
2
100
AcDbSymbolTableRecord
100
AcDbTextStyleTableRecord
2
Standard
70
0
40
0
41
1
50
0
71
0
42
1
3
txt
4

0
ENDTAB
0
TABLE
2
VIEW
5
6
330
0
100
AcDbSymbolTable
70
0
0
ENDTAB
0
TABLE
2
UCS
5
7
330
0
100
AcDbSymbolTable
70
0
0
ENDTAB
0
TABLE
2
APPID
5
9
330
0
100
AcDbSymbolTable
70
1
0
APPID
5
12
330
9
100
AcDbSymbolTableRecord
100
AcDbRegAppTableRecord
2
ACAD
70
0
0
ENDTAB
0
TABLE
2
DIMSTYLE
5
A
330
0
100
AcDbSymbolTable
70
1
100
AcDbDimStyleTable
71
1
0
DIMSTYLE
105
49
330
A
100
AcDbSymbolTableRecord
100
AcDbDimStyleTableRecord
2
Standard
70
0
40
1
41
2.5
42
0.625
43
0.38
44
1.25
45
0
46
0
47
0
48
0
140
2.5
141
0.09
142
0
143
25.4
144
1
145
0
146
1
147
0.625
148
0
71
0
72
0
73
0
74
1
75
0
76
0
77
0
78
0
79
0
170
0
171
2
172
0
173
0
174
0
175
0
176
0
177
0
178
0
179
0
271
4
272
4
273
2
274
2
275
0
276
0
277
2
278
46
279
0
280
0
281
0
282
0
283
1
284
0
285
0
286
0
288
0
289
3
340
Standard
341

371
-2
372
-2
0
ENDTAB
0
TABLE
2
BLOCK_RECORD
5
1
330
0
100
AcDbSymbolTable
70
2
0
BLOCK_RECORD
5
1F
330
1
100
AcDbSymbolTableRecord
100
AcDbBlockTableRecord
2
*Model_Space
70
0
280
1
281
0
0
BLOCK_RECORD
5
1E
330
1
100
AcDbSymbolTableRecord
100
AcDbBlockTableRecord
2
*Paper_Space
70
0
280
1
281
0
0
ENDTAB
0
ENDSEC
0
SECTION
2
BLOCKS
0
BLOCK
5
20
330
1F
100
AcDbEntity
8
0
100
AcDbBlockBegin
2
*Model_Space
70
0
10
0
20
0
30
0
3
*Model_Space
1

0
ENDBLK
5
21
330
1F
100
AcDbEntity
8
0
100
AcDbBlockEnd
0
BLOCK
5
1C
330
1B
100
AcDbEntity
8
0
100
AcDbBlockBegin
2
*Paper_Space
70
0
10
0
20
0
30
0
3
*Paper_Space
1

0
ENDBLK
5
1D
330
1F
100
AcDbEntity
8
0
100
AcDbBlockEnd
0
ENDSEC
0
SECTION
2
ENTITIES
0
LINE
5
4A
100
AcDbEntity
8
BoardLayout
6
ByLayer
62
256
370
-1
100
AcDbLine
10
10
20
10
11
73.5
21
10
0
LINE
5
4B
100
AcDbEntity
8
BoardLayout
6
ByLayer
62
256
370
-1
100
AcDbLine
10
10
20
10
11
10
21
73.5
0
LINE
5
4C
100
AcDbEntity
8
BoardLayout
6
ByLayer
62
256
370
-1
100
AcDbLine
10
73.5
20
10
11
73.5
21
73.5
0
LINE
5
4D
100
AcDbEntity
8
BoardLayout
6
ByLayer
62
256
370
-1
100
AcDbLine
10
10
20
73.5
11
73.5
21
73.5
0
LINE
5
4E
100
AcDbEntity
8
BoardLayout
6
ByLayer
62
256
370
-1
100
AcDbLine
10
73.5
20
73.5
11
111.6
21
73.5
0
LINE
5
4F
100
AcDbEntity
8
BoardLayout
6
ByLayer
62
256
370
-1
100
AcDbLine
10
73.5
20
10
11
111.6
21
10
0
LINE
5
50
100
AcDbEntity
8
BoardLayout
6
ByLayer
62
256
370
-1
100
AcDbLine
10
111.6
20
73.5
11
111.6
21
10
0
LINE
5
51
100
AcDbEntity
8
BoardLayout
6
ByLayer
62
256
370
-1
100
AcDbLine
10
111.6
20
73.5
11
149.7
21
73.5
0
LINE
5
52
100
AcDbEntity
8
BoardLayout
6
ByLayer
62
256
370
-1
100
AcDbLine
10
111.6
20
10
11
149.7
21
10
0
LINE
5
53
100
AcDbEntity
8
BoardLayout
6
ByLayer
62
256
370
-1
100
AcDbLine
10
149.7
20
73.5
11
149.7
21
10
0
LINE
5
54
100
AcDbEntity
8
BoardLayout
6
ByLayer
62
256
370
-1
100
AcDbLine
10
149.7
20
73.5
11
187.8
21
73.5
0
LINE
5
55
100
AcDbEntity
8
BoardLayout
6
ByLayer
62
256
370
-1
100
AcDbLine
10
149.7
20
10
11
187.8
21
10
0
LINE
5
56
100
AcDbEntity
8
BoardLayout
6
ByLayer
62
256
370
-1
100
AcDbLine
10
187.8
20
73.5
11
187.8
21
10
0
LINE
5
57
100
AcDbEntity
8
BoardLayout
6
ByLayer
62
256
370
-1
100
AcDbLine
10
187.8
20
73.5
11
225.9
21
73.5
0
LINE
5
58
100
AcDbEntity
8
BoardLayout
6
ByLayer
62
256
370
-1
100
AcDbLine
10
187.8
20
10
11
225.9
21
10
0
LINE
5
59
100
AcDbEntity
8
BoardLayout
6
ByLayer
62
256
370
-1
100
AcDbLine
10
225.9
20
73.5
11
225.9
21
10
0
LINE
5
5A
100
AcDbEntity
8
BoardLayout
6
ByLayer
62
256
370
-1
100
AcDbLine
10
225.9
20
73.5
11
264
21
73.5
0
LINE
5
5B
100
AcDbEntity
8
BoardLayout
6
ByLayer
62
256
370
-1
100
AcDbLine
10
225.9
20
10
11
264
21
10
0
LINE
5
5C
100
AcDbEntity
8
BoardLayout
6
ByLayer
62
256
370
-1
100
AcDbLine
10
264
20
73.5
11
264
21
10
0
LINE
5
5D
100
AcDbEntity
8
BoardLayout
6
ByLayer
62
256
370
-1
100
AcDbLine
10
264
20
73.5
11
302.1
21
73.5
0
LINE
5
5E
100
AcDbEntity
8
BoardLayout
6
ByLayer
62
256
370
-1
100
AcDbLine
10
264
20
10
11
302.1
21
10
0
LINE
5
5F
100
AcDbEntity
8
BoardLayout
6
ByLayer
62
256
370
-1
100
AcDbLine
10
302.1
20
73.5
11
302.1
21
10
0
LINE
5
60
100
AcDbEntity
8
BoardLayout
6
ByLayer
62
256
370
-1
100
AcDbLine
10
302.1
20
73.5
11
340.2
21
73.5
0
LINE
5
61
100
AcDbEntity
8
BoardLayout
6
ByLayer
62
256
370
-1
100
AcDbLine
10
302.1
20
10
11
340.2
21
10
0
LINE
5
62
100
AcDbEntity
8
BoardLayout
6
ByLayer
62
256
370
-1
100
AcDbLine
10
340.2
20
73.5
11
340.2
21
10
0
LINE
5
63
100
AcDbEntity
8
BoardLayout
6
ByLayer
62
256
370
-1
100
AcDbLine
10
340.2
20
73.5
11
378.3
21
73.5
0
LINE
5
64
100
AcDbEntity
8
BoardLayout
6
ByLayer
62
256
370
-1
100
AcDbLine
10
340.2
20
10
11
378.3
21
10
0
LINE
5
65
100
AcDbEntity
8
BoardLayout
6
ByLayer
62
256
370
-1
100
AcDbLine
10
378.3
20
73.5
11
378.3
21
10
0
LINE
5
66
100
AcDbEntity
8
BoardLayout
6
ByLayer
62
256
370
-1
100
AcDbLine
10
378.3
20
73.5
11
416.4
21
73.5
0
LINE
5
67
100
AcDbEntity
8
BoardLayout
6
ByLayer
62
256
370
-1
100
AcDbLine
10
378.3
20
10
11
416.4
21
10
0
LINE
5
68
100
AcDbEntity
8
BoardLayout
6
ByLayer
62
256
370
-1
100
AcDbLine
10
416.4
20
73.5
11
416.4
21
10
0
LINE
5
69
100
AcDbEntity
8
BoardLayout
6
ByLayer
62
256
370
-1
100
AcDbLine
10
416.4
20
10
11
479.9
21
10
0
LINE
5
6A
100
AcDbEntity
8
BoardLayout
6
ByLayer
62
256
370
-1
100
AcDbLine
10
479.9
20
10
11
479.9
21
73.5
0
LINE
5
6B
100
AcDbEntity
8
BoardLayout
6
ByLayer
62
256
370
-1
100
AcDbLine
10
416.4
20
73.5
11
479.9
21
73.5
0
LINE
5
6C
100
AcDbEntity
8
BoardLayout
6
ByLayer
62
256
370
-1
100
AcDbLine
10
10
20
73.5
11
10
21
111.6
0
LINE
5
6D
100
AcDbEntity
8
BoardLayout
6
ByLayer
62
256
370
-1
100
AcDbLine
10
73.5
20
73.5
11
73.5
21
111.6
0
LINE
5
6E
100
AcDbEntity
8
BoardLayout
6
ByLayer
62
256
370
-1
100
AcDbLine
10
10
20
111.6
11
73.5
21
111.6
0
LINE
5
6F
100
AcDbEntity
8
BoardLayout
6
ByLayer
62
256
370
-1
100
AcDbLine
10
10
20
111.6
11
10
21
149.7
0
LINE
5
70
100
AcDbEntity
8
BoardLayout
6
ByLayer
62
256
370
-1
100
AcDbLine
10
73.5
20
111.6
11
73.5
21
149.7
0
LINE
5
71
100
AcDbEntity
8
BoardLayout
6
ByLayer
62
256
370
-1
100
AcDbLine
10
10
20
149.7
11
73.5
21
149.7
0
LINE
5
72
100
AcDbEntity
8
BoardLayout
6
ByLayer
62
256
370
-1
100
AcDbLine
10
10
20
149.7
11
10
21
187.8
0
LINE
5
73
100
AcDbEntity
8
BoardLayout
6
ByLayer
62
256
370
-1
100
AcDbLine
10
73.5
20
149.7
11
73.5
21
187.8
0
LINE
5
74
100
AcDbEntity
8
BoardLayout
6
ByLayer
62
256
370
-1
100
AcDbLine
10
10
20
187.8
11
73.5
21
187.8
0
LINE
5
75
100
AcDbEntity
8
BoardLayout
6
ByLayer
62
256
370
-1
100
AcDbLine
10
10
20
187.8
11
10
21
225.9
0
LINE
5
76
100
AcDbEntity
8
BoardLayout
6
ByLayer
62
256
370
-1
100
AcDbLine
10
73.5
20
187.8
11
73.5
21
225.9
0
LINE
5
77
100
AcDbEntity
8
BoardLayout
6
ByLayer
62
256
370
-1
100
AcDbLine
10
10
20
225.9
11
73.5
21
225.9
0
LINE
5
78
100
AcDbEntity
8
BoardLayout
6
ByLayer
62
256
370
-1
100
AcDbLine
10
10
20
225.9
11
10
21
264
0
LINE
5
79
100
AcDbEntity
8
BoardLayout
6
ByLayer
62
256
370
-1
100
AcDbLine
10
73.5
20
225.9
11
73.5
21
264
0
LINE
5
7A
100
AcDbEntity
8
BoardLayout
6
ByLayer
62
256
370
-1
100
AcDbLine
10
10
20
264
11
73.5
21
264
0
LINE
5
7B
100
AcDbEntity
8
BoardLayout
6
ByLayer
62
256
370
-1
100
AcDbLine
10
10
20
264
11
10
21
302.1
0
LINE
5
7C
100
AcDbEntity
8
BoardLayout
6
ByLayer
62
256
370
-1
100
AcDbLine
10
73.5
20
264
11
73.5
21
302.1
0
LINE
5
7D
100
AcDbEntity
8
BoardLayout
6
ByLayer
62
256
370
-1
100
AcDbLine
10
10
20
302.1
11
73.5
21
302.1
0
LINE
5
7E
100
AcDbEntity
8
BoardLayout
6
ByLayer
62
256
370
-1
100
AcDbLine
10
10
20
302.1
11
10
21
340.2
0
LINE
5
7F
100
AcDbEntity
8
BoardLayout
6
ByLayer
62
256
370
-1
100
AcDbLine
10
73.5
20
302.1
11
73.5
21
340.2
0
LINE
5
80
100
AcDbEntity
8
BoardLayout
6
ByLayer
62
256
370
-1
100
AcDbLine
10
10
20
340.2
11
73.5
21
340.2
0
LINE
5
81
100
AcDbEntity
8
BoardLayout
6
ByLayer
62
256
370
-1
100
AcDbLine
10
10
20
340.2
11
10
21
378.3
0
LINE
5
82
100
AcDbEntity
8
BoardLayout
6
ByLayer
62
256
370
-1
100
AcDbLine
10
73.5
20
340.2
11
73.5
21
378.3
0
LINE
5
83
100
AcDbEntity
8
BoardLayout
6
ByLayer
62
256
370
-1
100
AcDbLine
10
10
20
378.3
11
73.5
21
378.3
0
LINE
5
84
100
AcDbEntity
8
BoardLayout
6
ByLayer
62
256
370
-1
100
AcDbLine
10
10
20
378.3
11
10
21
416.4
0
LINE
5
85
100
AcDbEntity
8
BoardLayout
6
ByLayer
62
256
370
-1
100
AcDbLine
10
73.5
20
378.3
11
73.5
21
416.4
0
LINE
5
86
100
AcDbEntity
8
BoardLayout
6
ByLayer
62
256
370
-1
100
AcDbLine
10
10
20
416.4
11
73.5
21
416.4
0
LINE
5
87
100
AcDbEntity
8
BoardLayout
6
ByLayer
62
256
370
-1
100
AcDbLine
10
10
20
416.4
11
10
21
479.9
0
LINE
5
88
100
AcDbEntity
8
BoardLayout
6
ByLayer
62
256
370
-1
100
AcDbLine
10
73.5
20
416.4
11
73.5
21
479.9
0
LINE
5
89
100
AcDbEntity
8
BoardLayout
6
ByLayer
62
256
370
-1
100
AcDbLine
10
10
20
479.9
11
73.5
21
479.9
0
LINE
5
8A
100
AcDbEntity
8
BoardLayout
6
ByLayer
62
256
370
-1
100
AcDbLine
10
73.5
20
479.9
11
111.6
21
479.9
0
LINE
5
8B
100
AcDbEntity
8
BoardLayout
6
ByLayer
62
256
370
-1
100
AcDbLine
10
73.5
20
416.4
11
111.6
21
416.4
0
LINE
5
8C
100
AcDbEntity
8
BoardLayout
6
ByLayer
62
256
370
-1
100
AcDbLine
10
111.6
20
479.9
11
111.6
21
416.4
0
LINE
5
8D
100
AcDbEntity
8
BoardLayout
6
ByLayer
62
256
370
-1
100
AcDbLine
10
111.6
20
479.9
11
149.7
21
479.9
0
LINE
5
8E
100
AcDbEntity
8
BoardLayout
6
ByLayer
62
256
370
-1
100
AcDbLine
10
111.6
20
416.4
11
149.7
21
416.4
0
LINE
5
8F
100
AcDbEntity
8
BoardLayout
6
ByLayer
62
256
370
-1
100
AcDbLine
10
149.7
20
479.9
11
149.7
21
416.4
0
LINE
5
90
100
AcDbEntity
8
BoardLayout
6
ByLayer
62
256
370
-1
100
AcDbLine
10
149.7
20
479.9
11
187.8
21
479.9
0
LINE
5
91
100
AcDbEntity
8
BoardLayout
6
ByLayer
62
256
370
-1
100
AcDbLine
10
149.7
20
416.4
11
187.8
21
416.4
0
LINE
5
92
100
AcDbEntity
8
BoardLayout
6
ByLayer
62
256
370
-1
100
AcDbLine
10
187.8
20
479.9
11
187.8
21
416.4
0
LINE
5
93
100
AcDbEntity
8
BoardLayout
6
ByLayer
62
256
370
-1
100
AcDbLine
10
187.8
20
479.9
11
225.9
21
479.9
0
LINE
5
94
100
AcDbEntity
8
BoardLayout
6
ByLayer
62
256
370
-1
100
AcDbLine
10
187.8
20
416.4
11
225.9
21
416.4
0
LINE
5
95
100
AcDbEntity
8
BoardLayout
6
ByLayer
62
256
370
-1
100
AcDbLine
10
225.9
20
479.9
11
225.9
21
416.4
0
LINE
5
96
100
AcDbEntity
8
BoardLayout
6
ByLayer
62
256
370
-1
100
AcDbLine
10
225.9
20
479.9
11
264
21
479.9
0
LINE
5
97
100
AcDbEntity
8
BoardLayout
6
ByLayer
62
256
370
-1
100
AcDbLine
10
225.9
20
416.4
11
264
21
416.4
0
LINE
5
98
100
AcDbEntity
8
BoardLayout
6
ByLayer
62
256
370
-1
100
AcDbLine
10
264
20
479.9
11
264
21
416.4
0
LINE
5
99
100
AcDbEntity
8
BoardLayout
6
ByLayer
62
256
370
-1
100
AcDbLine
10
264
20
479.9
11
302.1
21
479.9
0
LINE
5
9A
100
AcDbEntity
8
BoardLayout
6
ByLayer
62
256
370
-1
100
AcDbLine
10
264
20
416.4
11
302.1
21
416.4
0
LINE
5
9B
100
AcDbEntity
8
BoardLayout
6
ByLayer
62
256
370
-1
100
AcDbLine
10
302.1
20
479.9
11
302.1
21
416.4
0
LINE
5
9C
100
AcDbEntity
8
BoardLayout
6
ByLayer
62
256
370
-1
100
AcDbLine
10
302.1
20
479.9
11
340.2
21
479.9
0
LINE
5
9D
100
AcDbEntity
8
BoardLayout
6
ByLayer
62
256
370
-1
100
AcDbLine
10
302.1
20
416.4
11
340.2
21
416.4
0
LINE
5
9E
100
AcDbEntity
8
BoardLayout
6
ByLayer
62
256
370
-1
100
AcDbLine
10
340.2
20
479.9
11
340.2
21
416.4
0
LINE
5
9F
100
AcDbEntity
8
BoardLayout
6
ByLayer
62
256
370
-1
100
AcDbLine
10
340.2
20
479.9
11
378.3
21
479.9
0
LINE
5
A0
100
AcDbEntity
8
BoardLayout
6
ByLayer
62
256
370
-1
100
AcDbLine
10
340.2
20
416.4
11
378.3
21
416.4
0
LINE
5
A1
100
AcDbEntity
8
BoardLayout
6
ByLayer
62
256
370
-1
100
AcDbLine
10
378.3
20
479.9
11
378.3
21
416.4
0
LINE
5
A2
100
AcDbEntity
8
BoardLayout
6
ByLayer
62
256
370
-1
100
AcDbLine
10
378.3
20
479.9
11
416.4
21
479.9
0
LINE
5
A3
100
AcDbEntity
8
BoardLayout
6
ByLayer
62
256
370
-1
100
AcDbLine
10
378.3
20
416.4
11
416.4
21
416.4
0
LINE
5
A4
100
AcDbEntity
8
BoardLayout
6
ByLayer
62
256
370
-1
100
AcDbLine
10
416.4
20
479.9
11
416.4
21
416.4
0
LINE
5
A5
100
AcDbEntity
8
BoardLayout
6
ByLayer
62
256
370
-1
100
AcDbLine
10
416.4
20
416.4
11
479.9
21
416.4
0
LINE
5
A6
100
AcDbEntity
8
BoardLayout
6
ByLayer
62
256
370
-1
100
AcDbLine
10
479.9
20
416.4
11
479.9
21
479.9
0
LINE
5
A7
100
AcDbEntity
8
BoardLayout
6
ByLayer
62
256
370
-1
100
AcDbLine
10
416.4
20
479.9
11
479.9
21
479.9
0
LINE
5
A8
100
AcDbEntity
8
BoardLayout
6
ByLayer
62
256
370
-1
100
AcDbLine
10
416.4
20
73.5
11
416.4
21
111.6
0
LINE
5
A9
100
AcDbEntity
8
BoardLayout
6
ByLayer
62
256
370
-1
100
AcDbLine
10
479.9
20
73.5
11
479.9
21
111.6
0
LINE
5
AA
100
AcDbEntity
8
BoardLayout
6
ByLayer
62
256
370
-1
100
AcDbLine
10
416.4
20
111.6
11
479.9
21
111.6
0
LINE
5
AB
100
AcDbEntity
8
BoardLayout
6
ByLayer
62
256
370
-1
100
AcDbLine
10
416.4
20
111.6
11
416.4
21
149.7
0
LINE
5
AC
100
AcDbEntity
8
BoardLayout
6
ByLayer
62
256
370
-1
100
AcDbLine
10
479.9
20
111.6
11
479.9
21
149.7
0
LINE
5
AD
100
AcDbEntity
8
BoardLayout
6
ByLayer
62
256
370
-1
100
AcDbLine
10
416.4
20
149.7
11
479.9
21
149.7
0
LINE
5
AE
100
AcDbEntity
8
BoardLayout
6
ByLayer
62
256
370
-1
100
AcDbLine
10
416.4
20
149.7
11
416.4
21
187.8
0
LINE
5
AF
100
AcDbEntity
8
BoardLayout
6
ByLayer
62
256
370
-1
100
AcDbLine
10
479.9
20
149.7
11
479.9
21
187.8
0
LINE
5
B0
100
AcDbEntity
8
BoardLayout
6
ByLayer
62
256
370
-1
100
AcDbLine
10
416.4
20
187.8
11
479.9
21
187.8
0
LINE
5
B1
100
AcDbEntity
8
BoardLayout
6
ByLayer
62
256
370
-1
100
AcDbLine
10
416.4
20
187.8
11
416.4
21
225.9
0
LINE
5
B2
100
AcDbEntity
8
BoardLayout
6
ByLayer
62
256
370
-1
100
AcDbLine
10
479.9
20
187.8
11
479.9
21
225.9
0
LINE
5
B3
100
AcDbEntity
8
BoardLayout
6
ByLayer
62
256
370
-1
100
AcDbLine
10
416.4
20
225.9
11
479.9
21
225.9
0
LINE
5
B4
100
AcDbEntity
8
BoardLayout
6
ByLayer
62
256
370
-1
100
AcDbLine
10
416.4
20
225.9
11
416.4
21
264
0
LINE
5
B5
100
AcDbEntity
8
BoardLayout
6
ByLayer
62
256
370
-1
100
AcDbLine
10
479.9
20
225.9
11
479.9
21
264
0
LINE
5
B6
100
AcDbEntity
8
BoardLayout
6
ByLayer
62
256
370
-1
100
AcDbLine
10
416.4
20
264
11
479.9
21
264
0
LINE
5
B7
100
AcDbEntity
8
BoardLayout
6
ByLayer
62
256
370
-1
100
AcDbLine
10
416.4
20
264
11
416.4
21
302.1
0
LINE
5
B8
100
AcDbEntity
8
BoardLayout
6
ByLayer
62
256
370
-1
100
AcDbLine
10
479.9
20
264
11
479.9
21
302.1
0
LINE
5
B9
100
AcDbEntity
8
BoardLayout
6
ByLayer
62
256
370
-1
100
AcDbLine
10
416.4
20
302.1
11
479.9
21
302.1
0
LINE
5
BA
100
AcDbEntity
8
BoardLayout
6
ByLayer
62
256
370
-1
100
AcDbLine
10
416.4
20
302.1
11
416.4
21
340.2
0
LINE
5
BB
100
AcDbEntity
8
BoardLayout
6
ByLayer
62
256
370
-1
100
AcDbLine
10
479.9
20
302.1
11
479.9
21
340.2
0
LINE
5
BC
100
AcDbEntity
8
BoardLayout
6
ByLayer
62
256
370
-1
100
AcDbLine
10
416.4
20
340.2
11
479.9
21
340.2
0
LINE
5
BD
100
AcDbEntity
8
BoardLayout
6
ByLayer
62
256
370
-1
100
AcDbLine
10
416.4
20
340.2
11
416.4
21
378.3
0
LINE
5
BE
100
AcDbEntity
8
BoardLayout
6
ByLayer
62
256
370
-1
100
AcDbLine
10
479.9
20
340.2
11
479.9
21
378.3
0
LINE
5
BF
100
AcDbEntity
8
BoardLayout
6
ByLayer
62
256
370
-1
100
AcDbLine
10
416.4
20
378.3
11
479.9
21
378.3
0
LINE
5
C0
100
AcDbEntity
8
BoardLayout
6
ByLayer
62
256
370
-1
100
AcDbLine
10
416.4
20
378.3
11
416.4
21
416.4
0
LINE
5
C1
100
AcDbEntity
8
BoardLayout
6
ByLayer
62
256
370
-1
100
AcDbLine
10
479.9
20
378.3
11
479.9
21
416.4
0
LINE
5
C2
100
AcDbEntity
8
BoardLayout
6
ByLayer
62
256
370
-1
100
AcDbLine
10
138.774679849
20
297.343783425
11
107.343783425
21
328.774679849
0
LINE
5
C3
100
AcDbEntity
8
BoardLayout
6
ByLayer
62
256
370
-1
100
AcDbLine
10
192.656216575
20
351.225320151
11
161.225320151
21
382.656216575
0
LINE
5
C4
100
AcDbEntity
8
BoardLayout
6
ByLayer
62
256
370
-1
100
AcDbLine
10
107.343783425
20
328.774679849
11
161.225320151
21
382.656216575
0
LINE
5
C5
100
AcDbEntity
8
BoardLayout
6
ByLayer
62
256
370
-1
100
AcDbLine
10
192.656216575
20
351.225320151
11
138.774679849
21
297.343783425
0
LINE
5
C6
100
AcDbEntity
8
BoardLayout
6
ByLayer
62
256
370
-1
100
AcDbLine
10
328.774679849
20
107.343783425
11
297.343783425
21
138.774679849
0
LINE
5
C7
100
AcDbEntity
8
BoardLayout
6
ByLayer
62
256
370
-1
100
AcDbLine
10
382.656216575
20
161.225320151
11
351.225320151
21
192.656216575
0
LINE
5
C8
100
AcDbEntity
8
BoardLayout
6
ByLayer
62
256
370
-1
100
AcDbLine
10
297.343783425
20
138.774679849
11
351.225320151
21
192.656216575
0
LINE
5
C9
100
AcDbEntity
8
BoardLayout
6
ByLayer
62
256
370
-1
100
AcDbLine
10
382.656216575
20
161.225320151
11
328.774679849
21
107.343783425
0
LWPOLYLINE
5
CA
100
AcDbEntity
8
Logo
6
ByLayer
62
7
370
-1
100
AcDbPolyline
90
20
70
0
43
0
10
161.694689316
20
188.782165496
10
175.526778415
20
174.950076397
10
189.361361622
20
161.115493191
10
259.025698481
20
230.77983005
10
328.692533972
20
300.446665541
10
314.857950766
20
314.281248748
10
301.025861667
20
328.113337847
10
254.952150784
20
282.039626964
10
256.039759644
20
280.952018104
10
300.841259562
20
325.753518023
10
313.585739802
20
313.009037783
10
326.330219759
20
300.264557827
10
257.980496512
20
231.91483458
10
189.630769305
20
163.565107373
10
176.886289349
20
176.30958733
10
164.141809109
20
189.054067569
10
208.968254341
20
233.880512801
10
207.880645481
20
234.968121661
10
161.694689316
20
188.782165496
10
161.694689316
20
188.782165496
0
SPLINE
5
CB
100
AcDbEntity
8
Logo
6
ByLayer
62
7
370
-1
100
AcDbSpline
210
0
220
0
230
1
70
8
71
3
72
8
73
4
74
0
42
1e-07
43
1e-07
40
0
40
0
40
0
40
0
40
1
40
1
40
1
40
1
10
189.479047949
20
175.273400124
30
0
10
189.09787921
20
175.702632325
30
0
10
187.835149133
20
177.283480691
30
0
10
186.672982652
20
178.786394011
30
0
0
SPLINE
5
CC
100
AcDbEntity
8
Logo
6
ByLayer
62
7
370
-1
100
AcDbSpline
210
0
220
0
230
1
70
8
71
3
72
8
73
4
74
0
42
1e-07
43
1e-07
40
0
40
0
40
0
40
0
40
1
40
1
40
1
40
1
10
186.672982652
20
178.786394011
30
0
10
185.510814473
20
180.289307331
30
0
10
184.404404775
20
181.672877431
30
0
10
184.214293743
20
181.860994422
30
0
0
SPLINE
5
CD
100
AcDbEntity
8
Logo
6
ByLayer
62
7
370
-1
100
AcDbSpline
210
0
220
0
230
1
70
8
71
3
72
8
73
4
74
0
42
1e-07
43
1e-07
40
0
40
0
40
0
40
0
40
1
40
1
40
1
40
1
10
184.214293743
20
181.860994422
30
0
10
184.024181297
20
182.04911113
30
0
10
182.807297761
20
183.550028146
30
0
10
181.510108108
20
185.196366763
30
0
0
SPLINE
5
CE
100
AcDbEntity
8
Logo
6
ByLayer
62
7
370
-1
100
AcDbSpline
210
0
220
0
230
1
70
8
71
3
72
8
73
4
74
0
42
1e-07
43
1e-07
40
0
40
0
40
0
40
0
40
1
40
1
40
1
40
1
10
181.510108108
20
185.196366763
30
0
10
180.21291789
20
186.842704814
30
0
10
178.571997408
20
188.905773701
30
0
10
177.863618966
20
189.780964855
30
0
0
SPLINE
5
CF
100
AcDbEntity
8
Logo
6
ByLayer
62
7
370
-1
100
AcDbSpline
210
0
220
0
230
1
70
8
71
3
72
8
73
4
74
0
42
1e-07
43
1e-07
40
0
40
0
40
0
40
0
40
1
40
1
40
1
40
1
10
177.863618966
20
189.780964855
30
0
10
177.155240241
20
190.656155727
30
0
10
176.477665916
20
191.520599141
30
0
10
176.357900412
20
191.701950817
30
0
0
LWPOLYLINE
5
D0
100
AcDbEntity
8
Logo
6
ByLayer
62
7
370
-1
100
AcDbPolyline
90
3
70
0
43
0
10
191.048866015
20
175.094153363
10
190.172084154
20
174.492975138
10
189.479047949
20
175.273400124
0
SPLINE
5
D1
100
AcDbEntity
8
Logo
6
ByLayer
62
7
370
-1
100
AcDbSpline
210
0
220
0
230
1
70
8
71
3
72
8
73
4
74
0
42
1e-07
43
1e-07
40
0
40
0
40
0
40
0
40
1
40
1
40
1
40
1
10
176.768389192
20
191.917757261
30
0
10
177.113923144
20
191.855100529
30
0
10
177.585419117
20
191.749496111
30
0
10
177.816158525
20
191.683082097
30
0
0
SPLINE
5
D2
100
AcDbEntity
8
Logo
6
ByLayer
62
7
370
-1
100
AcDbSpline
210
0
220
0
230
1
70
8
71
3
72
8
73
4
74
0
42
1e-07
43
1e-07
40
0
40
0
40
0
40
0
40
1
40
1
40
1
40
1
10
177.816158525
20
191.683082097
30
0
10
178.046897367
20
191.616666385
30
0
10
178.71076768
20
191.454617876
30
0
10
179.291425384
20
191.322972978
30
0
0
SPLINE
5
D3
100
AcDbEntity
8
Logo
6
ByLayer
62
7
370
-1
100
AcDbSpline
210
0
220
0
230
1
70
8
71
3
72
8
73
4
74
0
42
1e-07
43
1e-07
40
0
40
0
40
0
40
0
40
1
40
1
40
1
40
1
10
179.291425384
20
191.322972978
30
0
10
179.872083936
20
191.191327231
30
0
10
180.524284159
20
191.033253227
30
0
10
180.740760374
20
190.971695622
30
0
0
SPLINE
5
D4
100
AcDbEntity
8
Logo
6
ByLayer
62
7
370
-1
100
AcDbSpline
210
0
220
0
230
1
70
8
71
3
72
8
73
4
74
0
42
1e-07
43
1e-07
40
0
40
0
40
0
40
0
40
1
40
1
40
1
40
1
10
180.740760374
20
190.971695622
30
0
10
180.957235458
20
190.910137452
30
0
10
181.495355881
20
190.80062047
30
0
10
181.936582593
20
190.72832361
30
0
0
SPLINE
5
D5
100
AcDbEntity
8
Logo
6
ByLayer
62
7
370
-1
100
AcDbSpline
210
0
220
0
230
1
70
8
71
3
72
8
73
4
74
0
42
1e-07
43
1e-07
40
0
40
0
40
0
40
0
40
1
40
1
40
1
40
1
10
181.936582593
20
190.72832361
30
0
10
182.377808173
20
190.656027316
30
0
10
182.763843504
20
190.571845122
30
0
10
182.794436337
20
190.541252289
30
0
0
SPLINE
5
D6
100
AcDbEntity
8
Logo
6
ByLayer
62
7
370
-1
100
AcDbSpline
210
0
220
0
230
1
70
8
71
3
72
8
73
4
74
0
42
1e-07
43
1e-07
40
0
40
0
40
0
40
0
40
1
40
1
40
1
40
1
10
182.794436337
20
190.541252289
30
0
10
182.843090092
20
190.492598534
30
0
10
183.893709913
20
190.253680729
30
0
10
185.275402786
20
189.977065647
30
0
0
SPLINE
5
D7
100
AcDbEntity
8
Logo
6
ByLayer
62
7
370
-1
100
AcDbSpline
210
0
220
0
230
1
70
8
71
3
72
8
73
4
74
0
42
1e-07
43
1e-07
40
0
40
0
40
0
40
0
40
1
40
1
40
1
40
1
10
185.275402786
20
189.977065647
30
0
10
185.756288572
20
189.880791645
30
0
10
186.13597069
20
189.791442481
30
0
10
187.73527426
20
189.398186459
30
0
0
SPLINE
5
D8
100
AcDbEntity
8
Logo
6
ByLayer
62
7
370
-1
100
AcDbSpline
210
0
220
0
230
1
70
8
71
3
72
8
73
4
74
0
42
1e-07
43
1e-07
40
0
40
0
40
0
40
0
40
1
40
1
40
1
40
1
10
187.73527426
20
189.398186459
30
0
10
188.321920593
20
189.253933847
30
0
10
188.95562573
20
189.130470174
30
0
10
189.143509376
20
189.123821391
30
0
0
SPLINE
5
D9
100
AcDbEntity
8
Logo
6
ByLayer
62
7
370
-1
100
AcDbSpline
210
0
220
0
230
1
70
8
71
3
72
8
73
4
74
0
42
1e-07
43
1e-07
40
0
40
0
40
0
40
0
40
1
40
1
40
1
40
1
10
189.143509376
20
189.123821391
30
0
10
189.331393871
20
189.117172324
30
0
10
189.51500546
20
189.081842724
30
0
10
189.551536293
20
189.04531189
30
0
0
SPLINE
5
DA
100
AcDbEntity
8
Logo
6
ByLayer
62
7
370
-1
100
AcDbSpline
210
0
220
0
230
1
70
8
71
3
72
8
73
4
74
0
42
1e-07
43
1e-07
40
0
40
0
40
0
40
0
40
1
40
1
40
1
40
1
10
189.551536293
20
189.04531189
30
0
10
189.636062424
20
188.96078576
30
0
10
191.904271473
20
188.424766576
30
0
10
192.557542538
20
188.334936862
30
0
0
SPLINE
5
DB
100
AcDbEntity
8
Logo
6
ByLayer
62
7
370
-1
100
AcDbSpline
210
0
220
0
230
1
70
8
71
3
72
8
73
4
74
0
42
1e-07
43
1e-07
40
0
40
0
40
0
40
0
40
1
40
1
40
1
40
1
10
192.557542538
20
188.334936862
30
0
10
192.828979335
20
188.297612372
30
0
10
193.080675408
20
188.23746304
30
0
10
193.116867962
20
188.201270487
30
0
0
SPLINE
5
DC
100
AcDbEntity
8
Logo
6
ByLayer
62
7
370
-1
100
AcDbSpline
210
0
220
0
230
1
70
8
71
3
72
8
73
4
74
0
42
1e-07
43
1e-07
40
0
40
0
40
0
40
0
40
1
40
1
40
1
40
1
10
193.116867962
20
188.201270487
30
0
10
193.153058818
20
188.165079631
30
0
10
193.505804127
20
188.076516769
30
0
10
193.900743912
20
188.004467396
30
0
0
SPLINE
5
DD
100
AcDbEntity
8
Logo
6
ByLayer
62
7
370
-1
100
AcDbSpline
210
0
220
0
230
1
70
8
71
3
72
8
73
4
74
0
42
1e-07
43
1e-07
40
0
40
0
40
0
40
0
40
1
40
1
40
1
40
1
10
193.900743912
20
188.004467396
30
0
10
194.295685111
20
187.932416044
30
0
10
194.803076653
20
187.812808649
30
0
10
195.028281678
20
187.738671614
30
0
0
SPLINE
5
DE
100
AcDbEntity
8
Logo
6
ByLayer
62
7
370
-1
100
AcDbSpline
210
0
220
0
230
1
70
8
71
3
72
8
73
4
74
0
42
1e-07
43
1e-07
40
0
40
0
40
0
40
0
40
1
40
1
40
1
40
1
10
195.028281678
20
187.738671614
30
0
10
195.253486419
20
187.664534862
30
0
10
195.475122534
20
187.641254644
30
0
10
195.520807572
20
187.686939682
30
0
0
SPLINE
5
DF
100
AcDbEntity
8
Logo
6
ByLayer
62
7
370
-1
100
AcDbSpline
210
0
220
0
230
1
70
8
71
3
72
8
73
4
74
0
42
1e-07
43
1e-07
40
0
40
0
40
0
40
0
40
1
40
1
40
1
40
1
10
195.520807572
20
187.686939682
30
0
10
195.615555355
20
187.781687465
30
0
10
195.424461728
20
189.128880881
30
0
10
195.295367788
20
189.276273613
30
0
0
SPLINE
5
E0
100
AcDbEntity
8
Logo
6
ByLayer
62
7
370
-1
100
AcDbSpline
210
0
220
0
230
1
70
8
71
3
72
8
73
4
74
0
42
1e-07
43
1e-07
40
0
40
0
40
0
40
0
40
1
40
1
40
1
40
1
10
195.295367788
20
189.276273613
30
0
10
195.248630858
20
189.329636416
30
0
10
195.1514857
20
189.722323358
30
0
10
195.079491199
20
190.148912677
30
0
0
SPLINE
5
E1
100
AcDbEntity
8
Logo
6
ByLayer
62
7
370
-1
100
AcDbSpline
210
0
220
0
230
1
70
8
71
3
72
8
73
4
74
0
42
1e-07
43
1e-07
40
0
40
0
40
0
40
0
40
1
40
1
40
1
40
1
10
195.079491199
20
190.148912677
30
0
10
195.007496698
20
190.575501996
30
0
10
194.861789992
20
191.184692307
30
0
10
194.755698519
20
191.502668044
30
0
0
SPLINE
5
E2
100
AcDbEntity
8
Logo
6
ByLayer
62
7
370
-1
100
AcDbSpline
210
0
220
0
230
1
70
8
71
3
72
8
73
4
74
0
42
1e-07
43
1e-07
40
0
40
0
40
0
40
0
40
1
40
1
40
1
40
1
10
194.755698519
20
191.502668044
30
0
10
194.649607894
20
191.820645195
30
0
10
194.591436482
20
192.109439201
30
0
10
194.626430631
20
192.14443335
30
0
0
SPLINE
5
E3
100
AcDbEntity
8
Logo
6
ByLayer
62
7
370
-1
100
AcDbSpline
210
0
220
0
230
1
70
8
71
3
72
8
73
4
74
0
42
1e-07
43
1e-07
40
0
40
0
40
0
40
0
40
1
40
1
40
1
40
1
10
194.626430631
20
192.14443335
30
0
10
194.661425628
20
192.179428348
30
0
10
194.611569226
20
192.394897078
30
0
10
194.515640009
20
192.62325495
30
0
0
SPLINE
5
E4
100
AcDbEntity
8
Logo
6
ByLayer
62
7
370
-1
100
AcDbSpline
210
0
220
0
230
1
70
8
71
3
72
8
73
4
74
0
42
1e-07
43
1e-07
40
0
40
0
40
0
40
0
40
1
40
1
40
1
40
1
10
194.515640009
20
192.62325495
30
0
10
194.419709943
20
192.851611974
30
0
10
194.287123745
20
193.361475844
30
0
10
194.221005301
20
193.756286369
30
0
0
SPLINE
5
E5
100
AcDbEntity
8
Logo
6
ByLayer
62
7
370
-1
100
AcDbSpline
210
0
220
0
230
1
70
8
71
3
72
8
73
4
74
0
42
1e-07
43
1e-07
40
0
40
0
40
0
40
0
40
1
40
1
40
1
40
1
10
194.221005301
20
193.756286369
30
0
10
194.154885726
20
194.151095764
30
0
10
194.070312644
20
194.50459796
30
0
10
194.033065087
20
194.541845516
30
0
0
SPLINE
5
E6
100
AcDbEntity
8
Logo
6
ByLayer
62
7
370
-1
100
AcDbSpline
210
0
220
0
230
1
70
8
71
3
72
8
73
4
74
0
42
1e-07
43
1e-07
40
0
40
0
40
0
40
0
40
1
40
1
40
1
40
1
10
194.033065087
20
194.541845516
30
0
10
193.995816399
20
194.579094205
30
0
10
193.913927494
20
194.93646682
30
0
10
193.851088045
20
195.336009022
30
0
0
SPLINE
5
E7
100
AcDbEntity
8
Logo
6
ByLayer
62
7
370
-1
100
AcDbSpline
210
0
220
0
230
1
70
8
71
3
72
8
73
4
74
0
42
1e-07
43
1e-07
40
0
40
0
40
0
40
0
40
1
40
1
40
1
40
1
10
193.851088045
20
195.336009022
30
0
10
193.788249729
20
195.735550658
30
0
10
193.656340373
20
196.308509666
30
0
10
193.557957495
20
196.609248968
30
0
0
SPLINE
5
E8
100
AcDbEntity
8
Logo
6
ByLayer
62
7
370
-1
100
AcDbSpline
210
0
220
0
230
1
70
8
71
3
72
8
73
4
74
0
42
1e-07
43
1e-07
40
0
40
0
40
0
40
0
40
1
40
1
40
1
40
1
10
193.557957495
20
196.609248968
30
0
10
193.459573769
20
196.909987987
30
0
10
193.366610723
20
197.339757307
30
0
10
193.351372289
20
197.56429256
30
0
0
SPLINE
5
E9
100
AcDbEntity
8
Logo
6
ByLayer
62
7
370
-1
100
AcDbSpline
210
0
220
0
230
1
70
8
71
3
72
8
73
4
74
0
42
1e-07
43
1e-07
40
0
40
0
40
0
40
0
40
1
40
1
40
1
40
1
10
193.351372289
20
197.56429256
30
0
10
193.336132441
20
197.788825833
30
0
10
193.271596502
20
198.024604366
30
0
10
193.207958023
20
198.088242845
30
0
0
SPLINE
5
EA
100
AcDbEntity
8
Logo
6
ByLayer
62
7
370
-1
100
AcDbSpline
210
0
220
0
230
1
70
8
71
3
72
8
73
4
74
0
42
1e-07
43
1e-07
40
0
40
0
40
0
40
0
40
1
40
1
40
1
40
1
10
193.207958023
20
198.088242845
30
0
10
193.144320393
20
198.151880476
30
0
10
193.091969884
20
198.31154547
30
0
10
193.091625664
20
198.443054037
30
0
0
SPLINE
5
EB
100
AcDbEntity
8
Logo
6
ByLayer
62
7
370
-1
100
AcDbSpline
210
0
220
0
230
1
70
8
71
3
72
8
73
4
74
0
42
1e-07
43
1e-07
40
0
40
0
40
0
40
0
40
1
40
1
40
1
40
1
10
193.091625664
20
198.443054037
30
0
10
193.091280313
20
198.574562605
30
0
10
192.976688851
20
199.139320872
30
0
10
192.836977844
20
199.698074105
30
0
0
SPLINE
5
EC
100
AcDbEntity
8
Logo
6
ByLayer
62
7
370
-1
100
AcDbSpline
210
0
220
0
230
1
70
8
71
3
72
8
73
4
74
0
42
1e-07
43
1e-07
40
0
40
0
40
0
40
0
40
1
40
1
40
1
40
1
10
192.836977844
20
199.698074105
30
0
10
192.697266555
20
200.256827055
30
0
10
192.443660728
20
201.301140615
30
0
10
192.273412043
20
202.018771973
30
0
0
SPLINE
5
ED
100
AcDbEntity
8
Logo
6
ByLayer
62
7
370
-1
100
AcDbSpline
210
0
220
0
230
1
70
8
71
3
72
8
73
4
74
0
42
1e-07
43
1e-07
40
0
40
0
40
0
40
0
40
1
40
1
40
1
40
1
10
192.273412043
20
202.018771973
30
0
10
192.103163357
20
202.736402766
30
0
10
191.944777661
20
203.342648402
30
0
10
191.921444268
20
203.365981794
30
0
0
SPLINE
5
EE
100
AcDbEntity
8
Logo
6
ByLayer
62
7
370
-1
100
AcDbSpline
210
0
220
0
230
1
70
8
71
3
72
8
73
4
74
0
42
1e-07
43
1e-07
40
0
40
0
40
0
40
0
40
1
40
1
40
1
40
1
10
191.921444268
20
203.365981794
30
0
10
191.898110876
20
203.389315186
30
0
10
191.827262736
20
203.745898388
30
0
10
191.764004115
20
204.158389129
30
0
0
SPLINE
5
EF
100
AcDbEntity
8
Logo
6
ByLayer
62
7
370
-1
100
AcDbSpline
210
0
220
0
230
1
70
8
71
3
72
8
73
4
74
0
42
1e-07
43
1e-07
40
0
40
0
40
0
40
0
40
1
40
1
40
1
40
1
10
191.764004115
20
204.158389129
30
0
10
191.700744645
20
204.570880718
30
0
10
191.618589303
20
204.938771123
30
0
10
191.581435084
20
204.975925342
30
0
0
SPLINE
5
F0
100
AcDbEntity
8
Logo
6
ByLayer
62
7
370
-1
100
AcDbSpline
210
0
220
0
230
1
70
8
71
3
72
8
73
4
74
0
42
1e-07
43
1e-07
40
0
40
0
40
0
40
0
40
1
40
1
40
1
40
1
10
191.581435084
20
204.975925342
30
0
10
191.544281431
20
205.013078995
30
0
10
191.437959158
20
205.445956756
30
0
10
191.345163273
20
205.937875387
30
0
0
SPLINE
5
F1
100
AcDbEntity
8
Logo
6
ByLayer
62
7
370
-1
100
AcDbSpline
210
0
220
0
230
1
70
8
71
3
72
8
73
4
74
0
42
1e-07
43
1e-07
40
0
40
0
40
0
40
0
40
1
40
1
40
1
40
1
10
191.345163273
20
205.937875387
30
0
10
191.252367104
20
206.429793735
30
0
10
191.128465308
20
206.887266084
30
0
10
191.069826074
20
206.954481675
30
0
0
SPLINE
5
F2
100
AcDbEntity
8
Logo
6
ByLayer
62
7
370
-1
100
AcDbSpline
210
0
220
0
230
1
70
8
71
3
72
8
73
4
74
0
42
1e-07
43
1e-07
40
0
40
0
40
0
40
0
40
1
40
1
40
1
40
1
10
191.069826074
20
206.954481675
30
0
10
190.731879662
20
207.341855417
30
0
10
191.849457121
20
206.545929519
30
0
10
192.896396027
20
205.653620158
30
0
0
SPLINE
5
F3
100
AcDbEntity
8
Logo
6
ByLayer
62
7
370
-1
100
AcDbSpline
210
0
220
0
230
1
70
8
71
3
72
8
73
4
74
0
42
1e-07
43
1e-07
40
0
40
0
40
0
40
0
40
1
40
1
40
1
40
1
10
192.896396027
20
205.653620158
30
0
10
193.569750622
20
205.079717021
30
0
10
195.141538971
20
203.834971215
30
0
10
196.389260564
20
202.887519405
30
0
0
SPLINE
5
F4
100
AcDbEntity
8
Logo
6
ByLayer
62
7
370
-1
100
AcDbSpline
210
0
220
0
230
1
70
8
71
3
72
8
73
4
74
0
42
1e-07
43
1e-07
40
0
40
0
40
0
40
0
40
1
40
1
40
1
40
1
10
196.389260564
20
202.887519405
30
0
10
197.636982158
20
201.940067029
30
0
10
198.77861539
20
201.040731572
30
0
10
198.926224497
20
200.888998619
30
0
0
SPLINE
5
F5
100
AcDbEntity
8
Logo
6
ByLayer
62
7
370
-1
100
AcDbSpline
210
0
220
0
230
1
70
8
71
3
72
8
73
4
74
0
42
1e-07
43
1e-07
40
0
40
0
40
0
40
0
40
1
40
1
40
1
40
1
10
198.926224497
20
200.888998619
30
0
10
199.073835866
20
200.737268494
30
0
10
200.664625022
20
199.470704202
30
0
10
202.461318582
20
198.074418059
30
0
0
SPLINE
5
F6
100
AcDbEntity
8
Logo
6
ByLayer
62
7
370
-1
100
AcDbSpline
210
0
220
0
230
1
70
8
71
3
72
8
73
4
74
0
42
1e-07
43
1e-07
40
0
40
0
40
0
40
0
40
1
40
1
40
1
40
1
10
202.461318582
20
198.074418059
30
0
10
204.258012425
20
196.678132199
30
0
10
206.180829793
20
195.172123166
30
0
10
206.734245784
20
194.727732858
30
0
0
SPLINE
5
F7
100
AcDbEntity
8
Logo
6
ByLayer
62
7
370
-1
100
AcDbSpline
210
0
220
0
230
1
70
8
71
3
72
8
73
4
74
0
42
1e-07
43
1e-07
40
0
40
0
40
0
40
0
40
1
40
1
40
1
40
1
10
206.734245784
20
194.727732858
30
0
10
207.287662058
20
194.283342834
30
0
10
207.968994514
20
193.736516229
30
0
10
208.248319512
20
193.512563915
30
0
0
LWPOLYLINE
5
F8
100
AcDbEntity
8
Logo
6
ByLayer
62
7
370
-1
100
AcDbPolyline
90
3
70
0
43
0
10
176.357900412
20
191.701950817
10
176.140144051
20
192.031680649
10
176.768389192
20
191.917757261
0
SPLINE
5
F9
100
AcDbEntity
8
Logo
6
ByLayer
62
7
370
-1
100
AcDbSpline
210
0
220
0
230
1
70
8
71
3
72
8
73
4
74
0
42
1e-07
43
1e-07
40
0
40
0
40
0
40
0
40
1
40
1
40
1
40
1
10
207.731368169
20
191.742485854
30
0
10
207.118424252
20
190.927337117
30
0
10
206.640743357
20
190.379940585
30
0
10
206.542806522
20
190.380457904
30
0
0
SPLINE
5
FA
100
AcDbEntity
8
Logo
6
ByLayer
62
7
370
-1
100
AcDbSpline
210
0
220
0
230
1
70
8
71
3
72
8
73
4
74
0
42
1e-07
43
1e-07
40
0
40
0
40
0
40
0
40
1
40
1
40
1
40
1
10
206.542806522
20
190.380457904
30
0
10
206.452746292
20
190.380934494
30
0
10
206.027933225
20
190.68330495
30
0
10
205.598777392
20
191.052394042
30
0
0
SPLINE
5
FB
100
AcDbEntity
8
Logo
6
ByLayer
62
7
370
-1
100
AcDbSpline
210
0
220
0
230
1
70
8
71
3
72
8
73
4
74
0
42
1e-07
43
1e-07
40
0
40
0
40
0
40
0
40
1
40
1
40
1
40
1
10
205.598777392
20
191.052394042
30
0
10
205.169620993
20
191.421482569
30
0
10
203.616961862
20
192.644539995
30
0
10
202.148423549
20
193.770297832
30
0
0
SPLINE
5
FC
100
AcDbEntity
8
Logo
6
ByLayer
62
7
370
-1
100
AcDbSpline
210
0
220
0
230
1
70
8
71
3
72
8
73
4
74
0
42
1e-07
43
1e-07
40
0
40
0
40
0
40
0
40
1
40
1
40
1
40
1
10
202.148423549
20
193.770297832
30
0
10
200.679883821
20
194.896054819
30
0
10
198.825113884
20
196.331466877
30
0
10
198.026711697
20
196.960100079
30
0
0
SPLINE
5
FD
100
AcDbEntity
8
Logo
6
ByLayer
62
7
370
-1
100
AcDbSpline
210
0
220
0
230
1
70
8
71
3
72
8
73
4
74
0
42
1e-07
43
1e-07
40
0
40
0
40
0
40
0
40
1
40
1
40
1
40
1
10
198.026711697
20
196.960100079
30
0
10
197.228308097
20
197.588734696
30
0
10
196.530552944
20
198.092562136
30
0
10
196.47614334
20
198.079718532
30
0
0
SPLINE
5
FE
100
AcDbEntity
8
Logo
6
ByLayer
62
7
370
-1
100
AcDbSpline
210
0
220
0
230
1
70
8
71
3
72
8
73
4
74
0
42
1e-07
43
1e-07
40
0
40
0
40
0
40
0
40
1
40
1
40
1
40
1
10
196.47614334
20
198.079718532
30
0
10
196.37747762
20
198.056426434
30
0
10
196.546069413
20
196.745744053
30
0
10
196.662736092
20
196.629077374
30
0
0
SPLINE
5
FF
100
AcDbEntity
8
Logo
6
ByLayer
62
7
370
-1
100
AcDbSpline
210
0
220
0
230
1
70
8
71
3
72
8
73
4
74
0
42
1e-07
43
1e-07
40
0
40
0
40
0
40
0
40
1
40
1
40
1
40
1
10
196.662736092
20
196.629077374
30
0
10
196.696540887
20
196.595272578
30
0
10
196.793689157
20
196.171568821
30
0
10
196.878621449
20
195.687513783
30
0
0
SPLINE
5
100
100
AcDbEntity
8
Logo
6
ByLayer
62
7
370
-1
100
AcDbSpline
210
0
220
0
230
1
70
8
71
3
72
8
73
4
74
0
42
1e-07
43
1e-07
40
0
40
0
40
0
40
0
40
1
40
1
40
1
40
1
10
196.878621449
20
195.687513783
30
0
10
196.963554873
20
195.203458179
30
0
10
197.079380095
20
194.7610786
30
0
10
197.136013126
20
194.704445569
30
0
0
SPLINE
5
101
100
AcDbEntity
8
Logo
6
ByLayer
62
7
370
-1
100
AcDbSpline
210
0
220
0
230
1
70
8
71
3
72
8
73
4
74
0
42
1e-07
43
1e-07
40
0
40
0
40
0
40
0
40
1
40
1
40
1
40
1
10
197.136013126
20
194.704445569
30
0
10
197.192644459
20
194.647814236
30
0
10
197.240087647
20
194.494706102
30
0
10
197.241439918
20
194.364207282
30
0
0
SPLINE
5
102
100
AcDbEntity
8
Logo
6
ByLayer
62
7
370
-1
100
AcDbSpline
210
0
220
0
230
1
70
8
71
3
72
8
73
4
74
0
42
1e-07
43
1e-07
40
0
40
0
40
0
40
0
40
1
40
1
40
1
40
1
10
197.241439918
20
194.364207282
30
0
10
197.242794452
20
194.233707897
30
0
10
197.349565879
20
193.70194889
30
0
10
197.478711862
20
193.182520694
30
0
0
SPLINE
5
103
100
AcDbEntity
8
Logo
6
ByLayer
62
7
370
-1
100
AcDbSpline
210
0
220
0
230
1
70
8
71
3
72
8
73
4
74
0
42
1e-07
43
1e-07
40
0
40
0
40
0
40
0
40
1
40
1
40
1
40
1
10
197.478711862
20
193.182520694
30
0
10
197.607858127
20
192.66309278
30
0
10
197.714629837
20
192.136682611
30
0
10
197.715984653
20
192.012718873
30
0
0
SPLINE
5
104
100
AcDbEntity
8
Logo
6
ByLayer
62
7
370
-1
100
AcDbSpline
210
0
220
0
230
1
70
8
71
3
72
8
73
4
74
0
42
1e-07
43
1e-07
40
0
40
0
40
0
40
0
40
1
40
1
40
1
40
1
10
197.715984653
20
192.012718873
30
0
10
197.71733749
20
191.888755418
30
0
10
197.778574069
20
191.671287838
30
0
10
197.852065939
20
191.529454946
30
0
0
SPLINE
5
105
100
AcDbEntity
8
Logo
6
ByLayer
62
7
370
-1
100
AcDbSpline
210
0
220
0
230
1
70
8
71
3
72
8
73
4
74
0
42
1e-07
43
1e-07
40
0
40
0
40
0
40
0
40
1
40
1
40
1
40
1
10
197.852065939
20
191.529454946
30
0
10
197.92555583
20
191.387622902
30
0
10
198.04292707
20
190.922232372
30
0
10
198.112888781
20
190.495255841
30
0
0
SPLINE
5
106
100
AcDbEntity
8
Logo
6
ByLayer
62
7
370
-1
100
AcDbSpline
210
0
220
0
230
1
70
8
71
3
72
8
73
4
74
0
42
1e-07
43
1e-07
40
0
40
0
40
0
40
0
40
1
40
1
40
1
40
1
10
198.112888781
20
190.495255841
30
0
10
198.182850209
20
190.068277897
30
0
10
198.290458284
20
189.541815968
30
0
10
198.352013909
20
189.325340035
30
0
0
SPLINE
5
107
100
AcDbEntity
8
Logo
6
ByLayer
62
7
370
-1
100
AcDbSpline
210
0
220
0
230
1
70
8
71
3
72
8
73
4
74
0
42
1e-07
43
1e-07
40
0
40
0
40
0
40
0
40
1
40
1
40
1
40
1
10
198.352013909
20
189.325340035
30
0
10
198.614044207
20
188.403873267
30
0
10
198.987173424
20
186.780880771
30
0
10
198.987753252
20
186.560089224
30
0
0
SPLINE
5
108
100
AcDbEntity
8
Logo
6
ByLayer
62
7
370
-1
100
AcDbSpline
210
0
220
0
230
1
70
8
71
3
72
8
73
4
74
0
42
1e-07
43
1e-07
40
0
40
0
40
0
40
0
40
1
40
1
40
1
40
1
10
198.987753252
20
186.560089224
30
0
10
198.988097188
20
186.428580939
30
0
10
199.043777888
20
186.265585755
30
0
10
199.111485908
20
186.197877735
30
0
0
SPLINE
5
109
100
AcDbEntity
8
Logo
6
ByLayer
62
7
370
-1
100
AcDbSpline
210
0
220
0
230
1
70
8
71
3
72
8
73
4
74
0
42
1e-07
43
1e-07
40
0
40
0
40
0
40
0
40
1
40
1
40
1
40
1
10
199.111485908
20
186.197877735
30
0
10
199.179194776
20
186.130168867
30
0
10
199.237436333
20
185.969734541
30
0
10
199.240911056
20
185.841358173
30
0
0
SPLINE
5
10A
100
AcDbEntity
8
Logo
6
ByLayer
62
7
370
-1
100
AcDbSpline
210
0
220
0
230
1
70
8
71
3
72
8
73
4
74
0
42
1e-07
43
1e-07
40
0
40
0
40
0
40
0
40
1
40
1
40
1
40
1
10
199.240911056
20
185.841358173
30
0
10
199.24981155
20
185.512612351
30
0
10
199.502021548
20
184.356803043
30
0
10
199.583749233
20
184.27022404
30
0
0
SPLINE
5
10B
100
AcDbEntity
8
Logo
6
ByLayer
62
7
370
-1
100
AcDbSpline
210
0
220
0
230
1
70
8
71
3
72
8
73
4
74
0
42
1e-07
43
1e-07
40
0
40
0
40
0
40
0
40
1
40
1
40
1
40
1
10
199.583749233
20
184.27022404
30
0
10
199.62112718
20
184.230626909
30
0
10
199.673535955
20
184.030798249
30
0
10
199.700212548
20
183.826159284
30
0
0
LWPOLYLINE
5
10C
100
AcDbEntity
8
Logo
6
ByLayer
62
7
370
-1
100
AcDbPolyline
90
3
70
0
43
0
10
208.248319512
20
193.512563915
10
208.756183401
20
193.105379021
10
207.731368169
20
191.742485854
0
SPLINE
5
10D
100
AcDbEntity
8
Logo
6
ByLayer
62
7
370
-1
100
AcDbSpline
210
0
220
0
230
1
70
8
71
3
72
8
73
4
74
0
42
1e-07
43
1e-07
40
0
40
0
40
0
40
0
40
1
40
1
40
1
40
1
10
199.250730223
20
183.603452326
30
0
10
198.976839483
20
183.685601164
30
0
10
198.723961127
20
183.724029306
30
0
10
198.688777757
20
183.688845935
30
0
0
SPLINE
5
10E
100
AcDbEntity
8
Logo
6
ByLayer
62
7
370
-1
100
AcDbSpline
210
0
220
0
230
1
70
8
71
3
72
8
73
4
74
0
42
1e-07
43
1e-07
40
0
40
0
40
0
40
0
40
1
40
1
40
1
40
1
10
198.688777757
20
183.688845935
30
0
10
198.653595234
20
183.653663413
30
0
10
198.513508047
20
183.682548725
30
0
10
198.37747343
20
183.753034543
30
0
0
SPLINE
5
10F
100
AcDbEntity
8
Logo
6
ByLayer
62
7
370
-1
100
AcDbSpline
210
0
220
0
230
1
70
8
71
3
72
8
73
4
74
0
42
1e-07
43
1e-07
40
0
40
0
40
0
40
0
40
1
40
1
40
1
40
1
10
198.37747343
20
183.753034543
30
0
10
198.161941627
20
183.864714423
30
0
10
196.319376636
20
184.276738473
30
0
10
195.319100554
20
184.436931534
30
0
0
SPLINE
5
110
100
AcDbEntity
8
Logo
6
ByLayer
62
7
370
-1
100
AcDbSpline
210
0
220
0
230
1
70
8
71
3
72
8
73
4
74
0
42
1e-07
43
1e-07
40
0
40
0
40
0
40
0
40
1
40
1
40
1
40
1
10
195.319100554
20
184.436931534
30
0
10
195.130103357
20
184.467199664
30
0
10
194.786226581
20
184.546554016
30
0
10
194.554931105
20
184.613273501
30
0
0
SPLINE
5
111
100
AcDbEntity
8
Logo
6
ByLayer
62
7
370
-1
100
AcDbSpline
210
0
220
0
230
1
70
8
71
3
72
8
73
4
74
0
42
1e-07
43
1e-07
40
0
40
0
40
0
40
0
40
1
40
1
40
1
40
1
10
194.554931105
20
184.613273501
30
0
10
193.689229606
20
184.862996746
30
0
10
192.283900133
20
185.179136834
30
0
10
192.162575883
20
185.151452755
30
0
0
SPLINE
5
112
100
AcDbEntity
8
Logo
6
ByLayer
62
7
370
-1
100
AcDbSpline
210
0
220
0
230
1
70
8
71
3
72
8
73
4
74
0
42
1e-07
43
1e-07
40
0
40
0
40
0
40
0
40
1
40
1
40
1
40
1
10
192.162575883
20
185.151452755
30
0
10
192.093405567
20
185.135669
30
0
10
191.831668012
20
185.200487499
30
0
10
191.580937847
20
185.295492951
30
0
0
SPLINE
5
113
100
AcDbEntity
8
Logo
6
ByLayer
62
7
370
-1
100
AcDbSpline
210
0
220
0
230
1
70
8
71
3
72
8
73
4
74
0
42
1e-07
43
1e-07
40
0
40
0
40
0
40
0
40
1
40
1
40
1
40
1
10
191.580937847
20
185.295492951
30
0
10
191.330207964
20
185.390497556
30
0
10
190.802113184
20
185.512651384
30
0
10
190.407395431
20
185.566946436
30
0
0
SPLINE
5
114
100
AcDbEntity
8
Logo
6
ByLayer
62
7
370
-1
100
AcDbSpline
210
0
220
0
230
1
70
8
71
3
72
8
73
4
74
0
42
1e-07
43
1e-07
40
0
40
0
40
0
40
0
40
1
40
1
40
1
40
1
10
190.407395431
20
185.566946436
30
0
10
190.012676829
20
185.621240641
30
0
10
189.643688146
20
185.706280696
30
0
10
189.587420548
20
185.755924683
30
0
0
SPLINE
5
115
100
AcDbEntity
8
Logo
6
ByLayer
62
7
370
-1
100
AcDbSpline
210
0
220
0
230
1
70
8
71
3
72
8
73
4
74
0
42
1e-07
43
1e-07
40
0
40
0
40
0
40
0
40
1
40
1
40
1
40
1
10
189.587420548
20
185.755924683
30
0
10
189.531153233
20
185.805566691
30
0
10
189.332506857
20
185.851837779
30
0
10
189.145983967
20
185.858745929
30
0
0
SPLINE
5
116
100
AcDbEntity
8
Logo
6
ByLayer
62
7
370
-1
100
AcDbSpline
210
0
220
0
230
1
70
8
71
3
72
8
73
4
74
0
42
1e-07
43
1e-07
40
0
40
0
40
0
40
0
40
1
40
1
40
1
40
1
10
189.145983967
20
185.858745929
30
0
10
188.959462209
20
185.865654645
30
0
10
188.585171356
20
185.933799374
30
0
10
188.314228685
20
186.010179069
30
0
0
SPLINE
5
117
100
AcDbEntity
8
Logo
6
ByLayer
62
7
370
-1
100
AcDbSpline
210
0
220
0
230
1
70
8
71
3
72
8
73
4
74
0
42
1e-07
43
1e-07
40
0
40
0
40
0
40
0
40
1
40
1
40
1
40
1
10
188.314228685
20
186.010179069
30
0
10
188.043284317
20
186.086559329
30
0
10
187.494686552
20
186.210644124
30
0
10
187.095121723
20
186.285921863
30
0
0
SPLINE
5
118
100
AcDbEntity
8
Logo
6
ByLayer
62
7
370
-1
100
AcDbSpline
210
0
220
0
230
1
70
8
71
3
72
8
73
4
74
0
42
1e-07
43
1e-07
40
0
40
0
40
0
40
0
40
1
40
1
40
1
40
1
10
187.095121723
20
186.285921863
30
0
10
186.695557177
20
186.36119932
30
0
10
186.336064372
20
186.455365296
30
0
10
186.296250301
20
186.495179367
30
0
0
SPLINE
5
119
100
AcDbEntity
8
Logo
6
ByLayer
62
7
370
-1
100
AcDbSpline
210
0
220
0
230
1
70
8
71
3
72
8
73
4
74
0
42
1e-07
43
1e-07
40
0
40
0
40
0
40
0
40
1
40
1
40
1
40
1
10
186.296250301
20
186.495179367
30
0
10
186.256436229
20
186.534993439
30
0
10
185.963853828
20
186.590212539
30
0
10
185.64606703
20
186.617888698
30
0
0
LWPOLYLINE
5
11A
100
AcDbEntity
8
Logo
6
ByLayer
62
7
370
-1
100
AcDbPolyline
90
3
70
0
43
0
10
199.700212548
20
183.826159284
10
199.748714417
20
183.45408705
10
199.250730223
20
183.603452326
0
SPLINE
5
11B
100
AcDbEntity
8
Logo
6
ByLayer
62
7
370
-1
100
AcDbSpline
210
0
220
0
230
1
70
8
71
3
72
8
73
4
74
0
42
1e-07
43
1e-07
40
0
40
0
40
0
40
0
40
1
40
1
40
1
40
1
10
185.242807144
20
186.389195375
30
0
10
185.584887585
20
185.842344163
30
0
10
188.331669616
20
182.282728746
30
0
10
188.681564436
20
181.932833926
30
0
0
SPLINE
5
11C
100
AcDbEntity
8
Logo
6
ByLayer
62
7
370
-1
100
AcDbSpline
210
0
220
0
230
1
70
8
71
3
72
8
73
4
74
0
42
1e-07
43
1e-07
40
0
40
0
40
0
40
0
40
1
40
1
40
1
40
1
10
188.681564436
20
181.932833926
30
0
10
189.013852863
20
181.600545499
30
0
10
192.296117242
20
177.337338469
30
0
10
192.645674347
20
176.78400224
30
0
0
SPLINE
5
11D
100
AcDbEntity
8
Logo
6
ByLayer
62
7
370
-1
100
AcDbSpline
210
0
220
0
230
1
70
8
71
3
72
8
73
4
74
0
42
1e-07
43
1e-07
40
0
40
0
40
0
40
0
40
1
40
1
40
1
40
1
10
192.645674347
20
176.78400224
30
0
10
192.783721956
20
176.565478526
30
0
10
192.74818588
20
176.480821722
30
0
10
192.364677749
20
176.114587362
30
0
0
SPLINE
5
11E
100
AcDbEntity
8
Logo
6
ByLayer
62
7
370
-1
100
AcDbSpline
210
0
220
0
230
1
70
8
71
3
72
8
73
4
74
0
42
1e-07
43
1e-07
40
0
40
0
40
0
40
0
40
1
40
1
40
1
40
1
10
192.364677749
20
176.114587362
30
0
10
192.123213229
20
175.883995315
30
0
10
191.531095304
20
175.424802717
30
0
10
191.048866015
20
175.094153363
30
0
0
LWPOLYLINE
5
11F
100
AcDbEntity
8
Logo
6
ByLayer
62
7
370
-1
100
AcDbPolyline
90
3
70
0
43
0
10
185.64606703
20
186.617888698
10
185.068271694
20
186.668208397
10
185.242807144
20
186.389195375
0
SPLINE
5
120
100
AcDbEntity
8
Logo
6
ByLayer
62
7
370
-1
100
AcDbSpline
210
0
220
0
230
1
70
8
71
3
72
8
73
4
74
0
42
1e-07
43
1e-07
40
0
40
0
40
0
40
0
40
1
40
1
40
1
40
1
10
216.971553349
20
200.902576766
30
0
10
215.701947931
20
200.10206825
30
0
10
213.96138281
20
199.350673674
30
0
10
213.121294417
20
199.240435444
30
0
0
SPLINE
5
121
100
AcDbEntity
8
Logo
6
ByLayer
62
7
370
-1
100
AcDbSpline
210
0
220
0
230
1
70
8
71
3
72
8
73
4
74
0
42
1e-07
43
1e-07
40
0
40
0
40
0
40
0
40
1
40
1
40
1
40
1
10
213.121294417
20
199.240435444
30
0
10
212.910935241
20
199.212831127
30
0
10
212.685128044
20
199.136550993
30
0
10
212.619499484
20
199.070922433
30
0
0
SPLINE
5
122
100
AcDbEntity
8
Logo
6
ByLayer
62
7
370
-1
100
AcDbSpline
210
0
220
0
230
1
70
8
71
3
72
8
73
4
74
0
42
1e-07
43
1e-07
40
0
40
0
40
0
40
0
40
1
40
1
40
1
40
1
10
212.619499484
20
199.070922433
30
0
10
212.553870923
20
199.005293872
30
0
10
212.416508077
20
198.969980111
30
0
10
212.314247992
20
198.992446308
30
0
0
SPLINE
5
123
100
AcDbEntity
8
Logo
6
ByLayer
62
7
370
-1
100
AcDbSpline
210
0
220
0
230
1
70
8
71
3
72
8
73
4
74
0
42
1e-07
43
1e-07
40
0
40
0
40
0
40
0
40
1
40
1
40
1
40
1
10
212.314247992
20
198.992446308
30
0
10
212.211988754
20
199.014912787
30
0
10
211.714220936
20
198.998380914
30
0
10
211.208097661
20
198.955710696
30
0
0
SPLINE
5
124
100
AcDbEntity
8
Logo
6
ByLayer
62
7
370
-1
100
AcDbSpline
210
0
220
0
230
1
70
8
71
3
72
8
73
4
74
0
42
1e-07
43
1e-07
40
0
40
0
40
0
40
0
40
1
40
1
40
1
40
1
10
211.208097661
20
198.955710696
30
0
10
210.212706839
20
198.871791264
30
0
10
209.970270188
20
198.872139443
30
0
10
209.004375618
20
198.958869484
30
0
0
SPLINE
5
125
100
AcDbEntity
8
Logo
6
ByLayer
62
7
370
-1
100
AcDbSpline
210
0
220
0
230
1
70
8
71
3
72
8
73
4
74
0
42
1e-07
43
1e-07
40
0
40
0
40
0
40
0
40
1
40
1
40
1
40
1
10
209.004375618
20
198.958869484
30
0
10
207.955192638
20
199.053079866
30
0
10
206.336943414
20
199.576212453
30
0
10
204.834336696
20
200.306921045
30
0
0
SPLINE
5
126
100
AcDbEntity
8
Logo
6
ByLayer
62
7
370
-1
100
AcDbSpline
210
0
220
0
230
1
70
8
71
3
72
8
73
4
74
0
42
1e-07
43
1e-07
40
0
40
0
40
0
40
0
40
1
40
1
40
1
40
1
10
204.834336696
20
200.306921045
30
0
10
204.006236307
20
200.709620336
30
0
10
203.70304787
20
200.940935046
30
0
10
202.453973722
20
202.122983391
30
0
0
SPLINE
5
127
100
AcDbEntity
8
Logo
6
ByLayer
62
7
370
-1
100
AcDbSpline
210
0
220
0
230
1
70
8
71
3
72
8
73
4
74
0
42
1e-07
43
1e-07
40
0
40
0
40
0
40
0
40
1
40
1
40
1
40
1
10
202.453973722
20
202.122983391
30
0
10
200.848798337
20
203.642025251
30
0
10
200.441012402
20
204.211471635
30
0
10
199.637977818
20
206.055334591
30
0
0
SPLINE
5
128
100
AcDbEntity
8
Logo
6
ByLayer
62
7
370
-1
100
AcDbSpline
210
0
220
0
230
1
70
8
71
3
72
8
73
4
74
0
42
1e-07
43
1e-07
40
0
40
0
40
0
40
0
40
1
40
1
40
1
40
1
10
199.637977818
20
206.055334591
30
0
10
199.008248317
20
207.501266701
30
0
10
198.692808831
20
209.051233169
30
0
10
198.708480014
20
210.622583394
30
0
0
SPLINE
5
129
100
AcDbEntity
8
Logo
6
ByLayer
62
7
370
-1
100
AcDbSpline
210
0
220
0
230
1
70
8
71
3
72
8
73
4
74
0
42
1e-07
43
1e-07
40
0
40
0
40
0
40
0
40
1
40
1
40
1
40
1
10
198.708480014
20
210.622583394
30
0
10
198.721986319
20
211.976825251
30
0
10
199.029026509
20
213.963281946
30
0
10
199.260641315
20
214.194896753
30
0
0
SPLINE
5
12A
100
AcDbEntity
8
Logo
6
ByLayer
62
7
370
-1
100
AcDbSpline
210
0
220
0
230
1
70
8
71
3
72
8
73
4
74
0
42
1e-07
43
1e-07
40
0
40
0
40
0
40
0
40
1
40
1
40
1
40
1
10
199.260641315
20
214.194896753
30
0
10
199.333266272
20
214.26752171
30
0
10
199.397317419
20
214.399867492
30
0
10
199.40297795
20
214.488998868
30
0
0
SPLINE
5
12B
100
AcDbEntity
8
Logo
6
ByLayer
62
7
370
-1
100
AcDbSpline
210
0
220
0
230
1
70
8
71
3
72
8
73
4
74
0
42
1e-07
43
1e-07
40
0
40
0
40
0
40
0
40
1
40
1
40
1
40
1
10
199.40297795
20
214.488998868
30
0
10
199.453467637
20
215.283999022
30
0
10
200.798424899
20
217.394714461
30
0
10
202.117889546
20
218.749659464
30
0
0
SPLINE
5
12C
100
AcDbEntity
8
Logo
6
ByLayer
62
7
370
-1
100
AcDbSpline
210
0
220
0
230
1
70
8
71
3
72
8
73
4
74
0
42
1e-07
43
1e-07
40
0
40
0
40
0
40
0
40
1
40
1
40
1
40
1
10
202.117889546
20
218.749659464
30
0
10
203.414324009
20
220.080954857
30
0
10
205.411723324
20
221.403041739
30
0
10
206.426846667
20
221.601777494
30
0
0
SPLINE
5
12D
100
AcDbEntity
8
Logo
6
ByLayer
62
7
370
-1
100
AcDbSpline
210
0
220
0
230
1
70
8
71
3
72
8
73
4
74
0
42
1e-07
43
1e-07
40
0
40
0
40
0
40
0
40
1
40
1
40
1
40
1
10
206.426846667
20
221.601777494
30
0
10
206.591440478
20
221.63400035
30
0
10
206.779131225
20
221.713386663
30
0
10
206.843935865
20
221.778191302
30
0
0
SPLINE
5
12E
100
AcDbEntity
8
Logo
6
ByLayer
62
7
370
-1
100
AcDbSpline
210
0
220
0
230
1
70
8
71
3
72
8
73
4
74
0
42
1e-07
43
1e-07
40
0
40
0
40
0
40
0
40
1
40
1
40
1
40
1
10
206.843935865
20
221.778191302
30
0
10
206.964185878
20
221.898441316
30
0
10
208.038981398
20
222.15947233
30
0
10
208.460900134
20
222.170895216
30
0
0
SPLINE
5
12F
100
AcDbEntity
8
Logo
6
ByLayer
62
7
370
-1
100
AcDbSpline
210
0
220
0
230
1
70
8
71
3
72
8
73
4
74
0
42
1e-07
43
1e-07
40
0
40
0
40
0
40
0
40
1
40
1
40
1
40
1
10
208.460900134
20
222.170895216
30
0
10
208.589277068
20
222.174370504
30
0
10
208.727489008
20
222.210391372
30
0
10
208.768039036
20
222.2509414
30
0
0
SPLINE
5
130
100
AcDbEntity
8
Logo
6
ByLayer
62
7
370
-1
100
AcDbSpline
210
0
220
0
230
1
70
8
71
3
72
8
73
4
74
0
42
1e-07
43
1e-07
40
0
40
0
40
0
40
0
40
1
40
1
40
1
40
1
10
208.768039036
20
222.2509414
30
0
10
208.875908458
20
222.358810823
30
0
10
212.120365535
20
222.353631973
30
0
10
212.228579742
20
222.245417765
30
0
0
SPLINE
5
131
100
AcDbEntity
8
Logo
6
ByLayer
62
7
370
-1
100
AcDbSpline
210
0
220
0
230
1
70
8
71
3
72
8
73
4
74
0
42
1e-07
43
1e-07
40
0
40
0
40
0
40
0
40
1
40
1
40
1
40
1
10
212.228579742
20
222.245417765
30
0
10
212.279069429
20
222.194928078
30
0
10
212.588955582
20
222.120837147
30
0
10
212.917215197
20
222.080771062
30
0
0
SPLINE
5
132
100
AcDbEntity
8
Logo
6
ByLayer
62
7
370
-1
100
AcDbSpline
210
0
220
0
230
1
70
8
71
3
72
8
73
4
74
0
42
1e-07
43
1e-07
40
0
40
0
40
0
40
0
40
1
40
1
40
1
40
1
10
212.917215197
20
222.080771062
30
0
10
215.042533805
20
221.821357909
30
0
10
218.295036626
20
219.697343771
30
0
10
219.770085413
20
217.605570592
30
0
0
SPLINE
5
133
100
AcDbEntity
8
Logo
6
ByLayer
62
7
370
-1
100
AcDbSpline
210
0
220
0
230
1
70
8
71
3
72
8
73
4
74
0
42
1e-07
43
1e-07
40
0
40
0
40
0
40
0
40
1
40
1
40
1
40
1
10
219.770085413
20
217.605570592
30
0
10
220.007352548
20
217.269099204
30
0
10
220.381384599
20
216.738847465
30
0
10
220.601265958
20
216.427231729
30
0
0
SPLINE
5
134
100
AcDbEntity
8
Logo
6
ByLayer
62
7
370
-1
100
AcDbSpline
210
0
220
0
230
1
70
8
71
3
72
8
73
4
74
0
42
1e-07
43
1e-07
40
0
40
0
40
0
40
0
40
1
40
1
40
1
40
1
10
220.601265958
20
216.427231729
30
0
10
220.821148166
20
216.115615145
30
0
10
221.141451133
20
215.46875669
30
0
10
221.313050675
20
214.989768779
30
0
0
SPLINE
5
135
100
AcDbEntity
8
Logo
6
ByLayer
62
7
370
-1
100
AcDbSpline
210
0
220
0
230
1
70
8
71
3
72
8
73
4
74
0
42
1e-07
43
1e-07
40
0
40
0
40
0
40
0
40
1
40
1
40
1
40
1
10
221.313050675
20
214.989768779
30
0
10
221.484650217
20
214.510783131
30
0
10
221.669205087
20
214.074727915
30
0
10
221.723172891
20
214.020760111
30
0
0
SPLINE
5
136
100
AcDbEntity
8
Logo
6
ByLayer
62
7
370
-1
100
AcDbSpline
210
0
220
0
230
1
70
8
71
3
72
8
73
4
74
0
42
1e-07
43
1e-07
40
0
40
0
40
0
40
0
40
1
40
1
40
1
40
1
10
221.723172891
20
214.020760111
30
0
10
221.777142109
20
213.966790893
30
0
10
221.824008298
20
213.817467194
30
0
10
221.827321517
20
213.688928192
30
0
0
SPLINE
5
137
100
AcDbEntity
8
Logo
6
ByLayer
62
7
370
-1
100
AcDbSpline
210
0
220
0
230
1
70
8
71
3
72
8
73
4
74
0
42
1e-07
43
1e-07
40
0
40
0
40
0
40
0
40
1
40
1
40
1
40
1
10
221.827321517
20
213.688928192
30
0
10
221.830635868
20
213.560388625
30
0
10
221.910015675
20
213.052405376
30
0
10
222.003721749
20
212.560076622
30
0
0
SPLINE
5
138
100
AcDbEntity
8
Logo
6
ByLayer
62
7
370
-1
100
AcDbSpline
210
0
220
0
230
1
70
8
71
3
72
8
73
4
74
0
42
1e-07
43
1e-07
40
0
40
0
40
0
40
0
40
1
40
1
40
1
40
1
10
222.003721749
20
212.560076622
30
0
10
222.097428388
20
212.067748435
30
0
10
222.154531786
20
211.500810865
30
0
10
222.130618001
20
211.300218248
30
0
0
SPLINE
5
139
100
AcDbEntity
8
Logo
6
ByLayer
62
7
370
-1
100
AcDbSpline
210
0
220
0
230
1
70
8
71
3
72
8
73
4
74
0
42
1e-07
43
1e-07
40
0
40
0
40
0
40
0
40
1
40
1
40
1
40
1
10
222.130618001
20
211.300218248
30
0
10
222.106703932
20
211.099625913
30
0
10
222.127593563
20
210.895049174
30
0
10
222.177038429
20
210.845604308
30
0
0
SPLINE
5
13A
100
AcDbEntity
8
Logo
6
ByLayer
62
7
370
-1
100
AcDbSpline
210
0
220
0
230
1
70
8
71
3
72
8
73
4
74
0
42
1e-07
43
1e-07
40
0
40
0
40
0
40
0
40
1
40
1
40
1
40
1
10
222.177038429
20
210.845604308
30
0
10
222.226483295
20
210.796159442
30
0
10
222.236369214
20
210.602585849
30
0
10
222.199009086
20
210.415439574
30
0
0
SPLINE
5
13B
100
AcDbEntity
8
Logo
6
ByLayer
62
7
370
-1
100
AcDbSpline
210
0
220
0
230
1
70
8
71
3
72
8
73
4
74
0
42
1e-07
43
1e-07
40
0
40
0
40
0
40
0
40
1
40
1
40
1
40
1
10
222.199009086
20
210.415439574
30
0
10
222.161648957
20
210.228293299
30
0
10
222.117182689
20
209.844156692
30
0
10
222.100195156
20
209.561802166
30
0
0
SPLINE
5
13C
100
AcDbEntity
8
Logo
6
ByLayer
62
7
370
-1
100
AcDbSpline
210
0
220
0
230
1
70
8
71
3
72
8
73
4
74
0
42
1e-07
43
1e-07
40
0
40
0
40
0
40
0
40
1
40
1
40
1
40
1
10
222.100195156
20
209.561802166
30
0
10
222.052406899
20
208.767469238
30
0
10
221.617775797
20
206.998590996
30
0
10
221.288506999
20
206.258369838
30
0
0
SPLINE
5
13D
100
AcDbEntity
8
Logo
6
ByLayer
62
7
370
-1
100
AcDbSpline
210
0
220
0
230
1
70
8
71
3
72
8
73
4
74
0
42
1e-07
43
1e-07
40
0
40
0
40
0
40
0
40
1
40
1
40
1
40
1
10
221.288506999
20
206.258369838
30
0
10
220.539073088
20
204.573579604
30
0
10
219.871776985
20
203.601103001
30
0
10
218.617599223
20
202.36595716
30
0
0
SPLINE
5
13E
100
AcDbEntity
8
Logo
6
ByLayer
62
7
370
-1
100
AcDbSpline
210
0
220
0
230
1
70
8
71
3
72
8
73
4
74
0
42
1e-07
43
1e-07
40
0
40
0
40
0
40
0
40
1
40
1
40
1
40
1
10
218.617599223
20
202.36595716
30
0
10
217.957055423
20
201.715439569
30
0
10
217.216335897
20
201.056916963
30
0
10
216.971553349
20
200.902576766
30
0
0
LWPOLYLINE
5
13F
100
AcDbEntity
8
Logo
6
ByLayer
62
7
370
-1
100
AcDbPolyline
90
3
70
0
43
0
10
191.048866015
20
175.094153363
10
191.048866015
20
175.094153363
10
191.048866015
20
175.094153363
0
SPLINE
5
140
100
AcDbEntity
8
Logo
6
ByLayer
62
7
370
-1
100
AcDbSpline
210
0
220
0
230
1
70
8
71
3
72
8
73
4
74
0
42
1e-07
43
1e-07
40
0
40
0
40
0
40
0
40
1
40
1
40
1
40
1
10
218.076374036
20
206.178047316
30
0
10
218.446166558
20
206.778202217
30
0
10
218.73690737
20
207.426596508
30
0
10
218.813760544
20
207.822530768
30
0
0
SPLINE
5
141
100
AcDbEntity
8
Logo
6
ByLayer
62
7
370
-1
100
AcDbSpline
210
0
220
0
230
1
70
8
71
3
72
8
73
4
74
0
42
1e-07
43
1e-07
40
0
40
0
40
0
40
0
40
1
40
1
40
1
40
1
10
218.813760544
20
207.822530768
30
0
10
218.883544063
20
208.182045351
30
0
10
218.973994052
20
208.509546948
30
0
10
219.014758757
20
208.550311654
30
0
0
SPLINE
5
142
100
AcDbEntity
8
Logo
6
ByLayer
62
7
370
-1
100
AcDbSpline
210
0
220
0
230
1
70
8
71
3
72
8
73
4
74
0
42
1e-07
43
1e-07
40
0
40
0
40
0
40
0
40
1
40
1
40
1
40
1
10
219.014758757
20
208.550311654
30
0
10
219.09638971
20
208.631942607
30
0
10
219.12150982
20
210.652623836
30
0
10
219.050379686
20
211.415612135
30
0
0
SPLINE
5
143
100
AcDbEntity
8
Logo
6
ByLayer
62
7
370
-1
100
AcDbSpline
210
0
220
0
230
1
70
8
71
3
72
8
73
4
74
0
42
1e-07
43
1e-07
40
0
40
0
40
0
40
0
40
1
40
1
40
1
40
1
10
219.050379686
20
211.415612135
30
0
10
219.025681294
20
211.680531105
30
0
10
218.826606128
20
212.39833924
30
0
10
218.607989925
20
213.010740947
30
0
0
SPLINE
5
144
100
AcDbEntity
8
Logo
6
ByLayer
62
7
370
-1
100
AcDbSpline
210
0
220
0
230
1
70
8
71
3
72
8
73
4
74
0
42
1e-07
43
1e-07
40
0
40
0
40
0
40
0
40
1
40
1
40
1
40
1
10
218.607989925
20
213.010740947
30
0
10
218.283266126
20
213.920383475
30
0
10
218.043482257
20
214.343034209
30
0
10
217.298040389
20
215.31970056
30
0
0
SPLINE
5
145
100
AcDbEntity
8
Logo
6
ByLayer
62
7
370
-1
100
AcDbSpline
210
0
220
0
230
1
70
8
71
3
72
8
73
4
74
0
42
1e-07
43
1e-07
40
0
40
0
40
0
40
0
40
1
40
1
40
1
40
1
10
217.298040389
20
215.31970056
30
0
10
216.466751232
20
216.408843276
30
0
10
216.273120222
20
216.601760956
30
0
10
215.12153828
20
217.488172198
30
0
0
SPLINE
5
146
100
AcDbEntity
8
Logo
6
ByLayer
62
7
370
-1
100
AcDbSpline
210
0
220
0
230
1
70
8
71
3
72
8
73
4
74
0
42
1e-07
43
1e-07
40
0
40
0
40
0
40
0
40
1
40
1
40
1
40
1
10
215.12153828
20
217.488172198
30
0
10
214.10183939
20
218.273070342
30
0
10
213.70480063
20
218.506547385
30
0
10
213.067513572
20
218.696035031
30
0
0
SPLINE
5
147
100
AcDbEntity
8
Logo
6
ByLayer
62
7
370
-1
100
AcDbSpline
210
0
220
0
230
1
70
8
71
3
72
8
73
4
74
0
42
1e-07
43
1e-07
40
0
40
0
40
0
40
0
40
1
40
1
40
1
40
1
10
213.067513572
20
218.696035031
30
0
10
212.633022477
20
218.8252274
30
0
10
212.233306044
20
218.975150725
30
0
10
212.17925763
20
219.029199139
30
0
0
SPLINE
5
148
100
AcDbEntity
8
Logo
6
ByLayer
62
7
370
-1
100
AcDbSpline
210
0
220
0
230
1
70
8
71
3
72
8
73
4
74
0
42
1e-07
43
1e-07
40
0
40
0
40
0
40
0
40
1
40
1
40
1
40
1
10
212.17925763
20
219.029199139
30
0
10
212.125209216
20
219.083247553
30
0
10
211.776071283
20
219.14821511
30
0
10
211.403396311
20
219.173572242
30
0
0
SPLINE
5
149
100
AcDbEntity
8
Logo
6
ByLayer
62
7
370
-1
100
AcDbSpline
210
0
220
0
230
1
70
8
71
3
72
8
73
4
74
0
42
1e-07
43
1e-07
40
0
40
0
40
0
40
0
40
1
40
1
40
1
40
1
10
211.403396311
20
219.173572242
30
0
10
211.030721904
20
219.19892994
30
0
10
210.695249234
20
219.248668114
30
0
10
210.657901834
20
219.284099537
30
0
0
SPLINE
5
14A
100
AcDbEntity
8
Logo
6
ByLayer
62
7
370
-1
100
AcDbSpline
210
0
220
0
230
1
70
8
71
3
72
8
73
4
74
0
42
1e-07
43
1e-07
40
0
40
0
40
0
40
0
40
1
40
1
40
1
40
1
10
210.657901834
20
219.284099537
30
0
10
210.564969901
20
219.372257651
30
0
10
209.200780466
20
219.309445639
30
0
10
208.388311381
20
219.179592549
30
0
0
SPLINE
5
14B
100
AcDbEntity
8
Logo
6
ByLayer
62
7
370
-1
100
AcDbSpline
210
0
220
0
230
1
70
8
71
3
72
8
73
4
74
0
42
1e-07
43
1e-07
40
0
40
0
40
0
40
0
40
1
40
1
40
1
40
1
10
208.388311381
20
219.179592549
30
0
10
207.594201616
20
219.052673105
30
0
10
206.224808158
20
218.500936634
30
0
10
205.433416794
20
217.98904761
30
0
0
SPLINE
5
14C
100
AcDbEntity
8
Logo
6
ByLayer
62
7
370
-1
100
AcDbSpline
210
0
220
0
230
1
70
8
71
3
72
8
73
4
74
0
42
1e-07
43
1e-07
40
0
40
0
40
0
40
0
40
1
40
1
40
1
40
1
10
205.433416794
20
217.98904761
30
0
10
204.69683158
20
217.512610374
30
0
10
203.532652672
20
216.34640405
30
0
10
203.052337663
20
215.603817479
30
0
0
SPLINE
5
14D
100
AcDbEntity
8
Logo
6
ByLayer
62
7
370
-1
100
AcDbSpline
210
0
220
0
230
1
70
8
71
3
72
8
73
4
74
0
42
1e-07
43
1e-07
40
0
40
0
40
0
40
0
40
1
40
1
40
1
40
1
10
203.052337663
20
215.603817479
30
0
10
202.571269727
20
214.860075779
30
0
10
201.88434943
20
213.175540951
30
0
10
201.802385006
20
212.538561626
30
0
0
SPLINE
5
14E
100
AcDbEntity
8
Logo
6
ByLayer
62
7
370
-1
100
AcDbSpline
210
0
220
0
230
1
70
8
71
3
72
8
73
4
74
0
42
1e-07
43
1e-07
40
0
40
0
40
0
40
0
40
1
40
1
40
1
40
1
10
201.802385006
20
212.538561626
30
0
10
201.711669146
20
211.833569094
30
0
10
201.695758395
20
210.100831362
30
0
10
201.779234047
20
210.01735571
30
0
0
SPLINE
5
14F
100
AcDbEntity
8
Logo
6
ByLayer
62
7
370
-1
100
AcDbSpline
210
0
220
0
230
1
70
8
71
3
72
8
73
4
74
0
42
1e-07
43
1e-07
40
0
40
0
40
0
40
0
40
1
40
1
40
1
40
1
10
201.779234047
20
210.01735571
30
0
10
201.818111061
20
209.978478696
30
0
10
201.865988978
20
209.725536418
30
0
10
201.885630707
20
209.455262104
30
0
0
SPLINE
5
150
100
AcDbEntity
8
Logo
6
ByLayer
62
7
370
-1
100
AcDbSpline
210
0
220
0
230
1
70
8
71
3
72
8
73
4
74
0
42
1e-07
43
1e-07
40
0
40
0
40
0
40
0
40
1
40
1
40
1
40
1
10
201.885630707
20
209.455262104
30
0
10
201.905273002
20
209.184986659
30
0
10
202.177633564
20
208.362937125
30
0
10
202.490876777
20
207.628483979
30
0
0
LWPOLYLINE
5
151
100
AcDbEntity
8
Logo
6
ByLayer
62
7
370
-1
100
AcDbPolyline
90
2
70
0
43
0
10
216.971553349
20
200.902576766
10
216.971553349
20
200.902576766
0
SPLINE
5
152
100
AcDbEntity
8
Logo
6
ByLayer
62
7
370
-1
100
AcDbSpline
210
0
220
0
230
1
70
8
71
3
72
8
73
4
74
0
42
1e-07
43
1e-07
40
0
40
0
40
0
40
0
40
1
40
1
40
1
40
1
10
204.556020315
20
204.795312168
30
0
10
205.913425484
20
203.4359271
30
0
10
206.121658249
20
203.266939327
30
0
10
206.809342221
20
202.966699525
30
0
0
SPLINE
5
153
100
AcDbEntity
8
Logo
6
ByLayer
62
7
370
-1
100
AcDbSpline
210
0
220
0
230
1
70
8
71
3
72
8
73
4
74
0
42
1e-07
43
1e-07
40
0
40
0
40
0
40
0
40
1
40
1
40
1
40
1
10
206.809342221
20
202.966699525
30
0
10
207.226080411
20
202.784754162
30
0
10
207.783635522
20
202.536083092
30
0
10
208.048353391
20
202.414099535
30
0
0
SPLINE
5
154
100
AcDbEntity
8
Logo
6
ByLayer
62
7
370
-1
100
AcDbSpline
210
0
220
0
230
1
70
8
71
3
72
8
73
4
74
0
42
1e-07
43
1e-07
40
0
40
0
40
0
40
0
40
1
40
1
40
1
40
1
10
208.048353391
20
202.414099535
30
0
10
209.234692459
20
201.867426232
30
0
10
211.591718929
20
201.770060174
30
0
10
213.127767555
20
202.204273518
30
0
0
SPLINE
5
155
100
AcDbEntity
8
Logo
6
ByLayer
62
7
370
-1
100
AcDbSpline
210
0
220
0
230
1
70
8
71
3
72
8
73
4
74
0
42
1e-07
43
1e-07
40
0
40
0
40
0
40
0
40
1
40
1
40
1
40
1
10
213.127767555
20
202.204273518
30
0
10
214.989106514
20
202.730443836
30
0
10
216.895186948
20
204.261040952
30
0
10
218.076372339
20
206.178045619
30
0
0
LWPOLYLINE
5
156
100
AcDbEntity
8
Logo
6
ByLayer
62
7
370
-1
100
AcDbPolyline
90
3
70
0
43
0
10
202.490876777
20
207.628483979
10
203.06040462
20
206.293114803
10
204.556020315
20
204.795312168
0
LWPOLYLINE
5
157
100
AcDbEntity
8
Logo
6
ByLayer
62
7
370
-1
100
AcDbPolyline
90
3
70
0
43
0
10
218.076372339
20
206.178045619
10
218.076372339
20
206.178045619
10
218.076374036
20
206.178047316
0
SPLINE
5
158
100
AcDbEntity
8
Logo
6
ByLayer
62
7
370
-1
100
AcDbSpline
210
0
220
0
230
1
70
8
71
3
72
8
73
4
74
0
42
1e-07
43
1e-07
40
0
40
0
40
0
40
0
40
1
40
1
40
1
40
1
10
218.578931513
20
229.546868886
30
0
10
231.377883865
20
229.593859243
30
0
10
234.099149805
20
229.621539928
30
0
10
234.183202457
20
229.705592579
30
0
0
SPLINE
5
159
100
AcDbEntity
8
Logo
6
ByLayer
62
7
370
-1
100
AcDbSpline
210
0
220
0
230
1
70
8
71
3
72
8
73
4
74
0
42
1e-07
43
1e-07
40
0
40
0
40
0
40
0
40
1
40
1
40
1
40
1
10
234.183202457
20
229.705592579
30
0
10
234.241666611
20
229.764056734
30
0
10
232.507172992
20
231.515433234
30
0
10
229.173199874
20
234.764361771
30
0
0
SPLINE
5
15A
100
AcDbEntity
8
Logo
6
ByLayer
62
7
370
-1
100
AcDbSpline
210
0
220
0
230
1
70
8
71
3
72
8
73
4
74
0
42
1e-07
43
1e-07
40
0
40
0
40
0
40
0
40
1
40
1
40
1
40
1
10
229.173199874
20
234.764361771
30
0
10
226.368515133
20
237.497501449
30
0
10
224.096023844
20
239.755957516
30
0
10
224.123220303
20
239.783153974
30
0
0
SPLINE
5
15B
100
AcDbEntity
8
Logo
6
ByLayer
62
7
370
-1
100
AcDbSpline
210
0
220
0
230
1
70
8
71
3
72
8
73
4
74
0
42
1e-07
43
1e-07
40
0
40
0
40
0
40
0
40
1
40
1
40
1
40
1
10
224.123220303
20
239.783153974
30
0
10
224.150414781
20
239.810348452
30
0
10
224.43592074
20
240.211060208
30
0
10
224.757678933
20
240.673625423
30
0
0
SPLINE
5
15C
100
AcDbEntity
8
Logo
6
ByLayer
62
7
370
-1
100
AcDbSpline
210
0
220
0
230
1
70
8
71
3
72
8
73
4
74
0
42
1e-07
43
1e-07
40
0
40
0
40
0
40
0
40
1
40
1
40
1
40
1
10
224.757678933
20
240.673625423
30
0
10
225.079437126
20
241.136189506
30
0
10
225.55301171
20
241.773755729
30
0
10
225.810068218
20
242.090437744
30
0
0
LWPOLYLINE
5
15D
100
AcDbEntity
8
Logo
6
ByLayer
62
7
370
-1
100
AcDbPolyline
90
3
70
0
43
0
10
221.419930148
20
221.399356299
10
213.291827642
20
229.527458805
10
218.578931513
20
229.546868886
0
SPLINE
5
15E
100
AcDbEntity
8
Logo
6
ByLayer
62
7
370
-1
100
AcDbSpline
210
0
220
0
230
1
70
8
71
3
72
8
73
4
74
0
42
1e-07
43
1e-07
40
0
40
0
40
0
40
0
40
1
40
1
40
1
40
1
10
234.575385091
20
226.415458385
30
0
10
225.185138276
20
226.41123328
30
0
10
221.713309034
20
226.368046592
30
0
10
221.713309034
20
226.25546501
30
0
0
SPLINE
5
15F
100
AcDbEntity
8
Logo
6
ByLayer
62
7
370
-1
100
AcDbSpline
210
0
220
0
230
1
70
8
71
3
72
8
73
4
74
0
42
1e-07
43
1e-07
40
0
40
0
40
0
40
0
40
1
40
1
40
1
40
1
10
221.713309034
20
226.25546501
30
0
10
221.713309034
20
226.210147385
30
0
10
223.937498989
20
223.897671471
30
0
10
226.655951776
20
221.116628421
30
0
0
SPLINE
5
160
100
AcDbEntity
8
Logo
6
ByLayer
62
7
370
-1
100
AcDbSpline
210
0
220
0
230
1
70
8
71
3
72
8
73
4
74
0
42
1e-07
43
1e-07
40
0
40
0
40
0
40
0
40
1
40
1
40
1
40
1
10
226.655951776
20
221.116628421
30
0
10
231.063642783
20
216.607456277
30
0
10
231.587415726
20
216.040188347
30
0
10
231.495304885
20
215.875406729
30
0
0
SPLINE
5
161
100
AcDbEntity
8
Logo
6
ByLayer
62
7
370
-1
100
AcDbSpline
210
0
220
0
230
1
70
8
71
3
72
8
73
4
74
0
42
1e-07
43
1e-07
40
0
40
0
40
0
40
0
40
1
40
1
40
1
40
1
10
231.495304885
20
215.875406729
30
0
10
231.438496209
20
215.773776534
30
0
10
231.049312557
20
215.257759986
30
0
10
230.630453329
20
214.728702975
30
0
0
SPLINE
5
162
100
AcDbEntity
8
Logo
6
ByLayer
62
7
370
-1
100
AcDbSpline
210
0
220
0
230
1
70
8
71
3
72
8
73
4
74
0
42
1e-07
43
1e-07
40
0
40
0
40
0
40
0
40
1
40
1
40
1
40
1
10
230.630453329
20
214.728702975
30
0
10
230.211594385
20
214.199646247
30
0
10
229.796698633
20
213.655287729
30
0
10
229.708462171
20
213.519017787
30
0
0
LWPOLYLINE
5
163
100
AcDbEntity
8
Logo
6
ByLayer
62
7
370
-1
100
AcDbPolyline
90
5
70
0
43
0
10
225.810068218
20
242.090437744
10
226.277446284
20
242.666227159
10
234.401041126
20
234.542632318
10
242.524635119
20
226.419038325
10
234.575385091
20
226.415458385
0
SPLINE
5
164
100
AcDbEntity
8
Logo
6
ByLayer
62
7
370
-1
100
AcDbSpline
210
0
220
0
230
1
70
8
71
3
72
8
73
4
74
0
42
1e-07
43
1e-07
40
0
40
0
40
0
40
0
40
1
40
1
40
1
40
1
10
252.540129509
20
235.200505234
30
0
10
252.203422513
20
234.949560108
30
0
10
251.551534549
20
234.540149807
30
0
10
251.091488331
20
234.290699788
30
0
0
SPLINE
5
165
100
AcDbEntity
8
Logo
6
ByLayer
62
7
370
-1
100
AcDbSpline
210
0
220
0
230
1
70
8
71
3
72
8
73
4
74
0
42
1e-07
43
1e-07
40
0
40
0
40
0
40
0
40
1
40
1
40
1
40
1
10
251.091488331
20
234.290699788
30
0
10
250.631432497
20
234.041243547
30
0
10
250.13129276
20
233.759598108
30
0
10
249.980049973
20
233.664805635
30
0
0
SPLINE
5
166
100
AcDbEntity
8
Logo
6
ByLayer
62
7
370
-1
100
AcDbSpline
210
0
220
0
230
1
70
8
71
3
72
8
73
4
74
0
42
1e-07
43
1e-07
40
0
40
0
40
0
40
0
40
1
40
1
40
1
40
1
10
249.980049973
20
233.664805635
30
0
10
249.828815672
20
233.570021082
30
0
10
249.335868624
20
233.396113826
30
0
10
248.884623341
20
233.278354243
30
0
0
SPLINE
5
167
100
AcDbEntity
8
Logo
6
ByLayer
62
7
370
-1
100
AcDbSpline
210
0
220
0
230
1
70
8
71
3
72
8
73
4
74
0
42
1e-07
43
1e-07
40
0
40
0
40
0
40
0
40
1
40
1
40
1
40
1
10
248.884623341
20
233.278354243
30
0
10
248.433377774
20
233.160594942
30
0
10
248.022930855
20
233.022999034
30
0
10
247.972529415
20
232.972597594
30
0
0
SPLINE
5
168
100
AcDbEntity
8
Logo
6
ByLayer
62
7
370
-1
100
AcDbSpline
210
0
220
0
230
1
70
8
71
3
72
8
73
4
74
0
42
1e-07
43
1e-07
40
0
40
0
40
0
40
0
40
1
40
1
40
1
40
1
10
247.972529415
20
232.972597594
30
0
10
247.922128258
20
232.922196437
30
0
10
247.775083706
20
232.878875964
30
0
10
247.645771694
20
232.876333491
30
0
0
SPLINE
5
169
100
AcDbEntity
8
Logo
6
ByLayer
62
7
370
-1
100
AcDbSpline
210
0
220
0
230
1
70
8
71
3
72
8
73
4
74
0
42
1e-07
43
1e-07
40
0
40
0
40
0
40
0
40
1
40
1
40
1
40
1
10
247.645771694
20
232.876333491
30
0
10
247.516458552
20
232.873792715
30
0
10
247.057404547
20
232.815695407
30
0
10
246.625645146
20
232.747227106
30
0
0
SPLINE
5
16A
100
AcDbEntity
8
Logo
6
ByLayer
62
7
370
-1
100
AcDbSpline
210
0
220
0
230
1
70
8
71
3
72
8
73
4
74
0
42
1e-07
43
1e-07
40
0
40
0
40
0
40
0
40
1
40
1
40
1
40
1
10
246.625645146
20
232.747227106
30
0
10
244.302523881
20
232.378825605
30
0
10
241.341945004
20
232.954424384
30
0
10
239.165865463
20
234.197563077
30
0
0
SPLINE
5
16B
100
AcDbEntity
8
Logo
6
ByLayer
62
7
370
-1
100
AcDbSpline
210
0
220
0
230
1
70
8
71
3
72
8
73
4
74
0
42
1e-07
43
1e-07
40
0
40
0
40
0
40
0
40
1
40
1
40
1
40
1
10
239.165865463
20
234.197563077
30
0
10
237.730193756
20
235.017723788
30
0
10
235.873391311
20
236.709050235
30
0
10
235.110340221
20
237.89167473
30
0
0
SPLINE
5
16C
100
AcDbEntity
8
Logo
6
ByLayer
62
7
370
-1
100
AcDbSpline
210
0
220
0
230
1
70
8
71
3
72
8
73
4
74
0
42
1e-07
43
1e-07
40
0
40
0
40
0
40
0
40
1
40
1
40
1
40
1
10
235.110340221
20
237.89167473
30
0
10
233.987641046
20
239.631672468
30
0
10
233.297646532
20
241.098295937
30
0
10
233.399239674
20
241.528668842
30
0
0
SPLINE
5
16D
100
AcDbEntity
8
Logo
6
ByLayer
62
7
370
-1
100
AcDbSpline
210
0
220
0
230
1
70
8
71
3
72
8
73
4
74
0
42
1e-07
43
1e-07
40
0
40
0
40
0
40
0
40
1
40
1
40
1
40
1
10
233.399239674
20
241.528668842
30
0
10
233.418566034
20
241.610544171
30
0
10
233.364911337
20
241.747008991
30
0
10
233.280002803
20
241.831917525
30
0
0
SPLINE
5
16E
100
AcDbEntity
8
Logo
6
ByLayer
62
7
370
-1
100
AcDbSpline
210
0
220
0
230
1
70
8
71
3
72
8
73
4
74
0
42
1e-07
43
1e-07
40
0
40
0
40
0
40
0
40
1
40
1
40
1
40
1
10
233.280002803
20
241.831917525
30
0
10
233.195093421
20
241.916826907
30
0
10
233.104878758
20
242.291216472
30
0
10
233.07952106
20
242.663890878
30
0
0
SPLINE
5
16F
100
AcDbEntity
8
Logo
6
ByLayer
62
7
370
-1
100
AcDbSpline
210
0
220
0
230
1
70
8
71
3
72
8
73
4
74
0
42
1e-07
43
1e-07
40
0
40
0
40
0
40
0
40
1
40
1
40
1
40
1
10
233.07952106
20
242.663890878
30
0
10
233.05416308
20
243.036565002
30
0
10
232.984614319
20
243.39185335
30
0
10
232.924964771
20
243.453418875
30
0
0
SPLINE
5
170
100
AcDbEntity
8
Logo
6
ByLayer
62
7
370
-1
100
AcDbSpline
210
0
220
0
230
1
70
8
71
3
72
8
73
4
74
0
42
1e-07
43
1e-07
40
0
40
0
40
0
40
0
40
1
40
1
40
1
40
1
10
232.924964771
20
243.453418875
30
0
10
232.865315223
20
243.514984399
30
0
10
232.853464396
20
243.687410125
30
0
10
232.898629852
20
243.836585331
30
0
0
SPLINE
5
171
100
AcDbEntity
8
Logo
6
ByLayer
62
7
370
-1
100
AcDbSpline
210
0
220
0
230
1
70
8
71
3
72
8
73
4
74
0
42
1e-07
43
1e-07
40
0
40
0
40
0
40
0
40
1
40
1
40
1
40
1
10
232.898629852
20
243.836585331
30
0
10
232.943795308
20
243.985760538
30
0
10
232.930748056
20
244.302140759
30
0
10
232.869642434
20
244.539658776
30
0
0
SPLINE
5
172
100
AcDbEntity
8
Logo
6
ByLayer
62
7
370
-1
100
AcDbSpline
210
0
220
0
230
1
70
8
71
3
72
8
73
4
74
0
42
1e-07
43
1e-07
40
0
40
0
40
0
40
0
40
1
40
1
40
1
40
1
10
232.869642434
20
244.539658776
30
0
10
232.80852974
20
244.777167458
30
0
10
232.803843319
20
245.016809623
30
0
10
232.859225337
20
245.072191641
30
0
0
SPLINE
5
173
100
AcDbEntity
8
Logo
6
ByLayer
62
7
370
-1
100
AcDbSpline
210
0
220
0
230
1
70
8
71
3
72
8
73
4
74
0
42
1e-07
43
1e-07
40
0
40
0
40
0
40
0
40
1
40
1
40
1
40
1
10
232.859225337
20
245.072191641
30
0
10
232.914607637
20
245.127573941
30
0
10
232.953296843
20
245.377418242
30
0
10
232.945208107
20
245.627407077
30
0
0
SPLINE
5
174
100
AcDbEntity
8
Logo
6
ByLayer
62
7
370
-1
100
AcDbSpline
210
0
220
0
230
1
70
8
71
3
72
8
73
4
74
0
42
1e-07
43
1e-07
40
0
40
0
40
0
40
0
40
1
40
1
40
1
40
1
10
232.945208107
20
245.627407077
30
0
10
232.906844736
20
246.813072131
30
0
10
233.663231203
20
249.522633474
30
0
10
234.308133517
20
250.509727388
30
0
0
SPLINE
5
175
100
AcDbEntity
8
Logo
6
ByLayer
62
7
370
-1
100
AcDbSpline
210
0
220
0
230
1
70
8
71
3
72
8
73
4
74
0
42
1e-07
43
1e-07
40
0
40
0
40
0
40
0
40
1
40
1
40
1
40
1
10
234.308133517
20
250.509727388
30
0
10
235.452260291
20
252.260946628
30
0
10
235.821851712
20
252.751719746
30
0
10
236.529224365
20
253.4590924
30
0
0
SPLINE
5
176
100
AcDbEntity
8
Logo
6
ByLayer
62
7
370
-1
100
AcDbSpline
210
0
220
0
230
1
70
8
71
3
72
8
73
4
74
0
42
1e-07
43
1e-07
40
0
40
0
40
0
40
0
40
1
40
1
40
1
40
1
10
236.529224365
20
253.4590924
30
0
10
237.236589382
20
254.166457416
30
0
10
237.727362217
20
254.536048554
30
0
10
239.47858174
20
255.680175611
30
0
0
SPLINE
5
177
100
AcDbEntity
8
Logo
6
ByLayer
62
7
370
-1
100
AcDbSpline
210
0
220
0
230
1
70
8
71
3
72
8
73
4
74
0
42
1e-07
43
1e-07
40
0
40
0
40
0
40
0
40
1
40
1
40
1
40
1
10
239.47858174
20
255.680175611
30
0
10
240.103926896
20
256.088733141
30
0
10
241.888776417
20
256.708533165
30
0
10
242.99023467
20
256.899608973
30
0
0
SPLINE
5
178
100
AcDbEntity
8
Logo
6
ByLayer
62
7
370
-1
100
AcDbSpline
210
0
220
0
230
1
70
8
71
3
72
8
73
4
74
0
42
1e-07
43
1e-07
40
0
40
0
40
0
40
0
40
1
40
1
40
1
40
1
10
242.99023467
20
256.899608973
30
0
10
244.022864281
20
257.078747122
30
0
10
246.420342066
20
257.172384465
30
0
10
246.559240748
20
257.038993862
30
0
0
SPLINE
5
179
100
AcDbEntity
8
Logo
6
ByLayer
62
7
370
-1
100
AcDbSpline
210
0
220
0
230
1
70
8
71
3
72
8
73
4
74
0
42
1e-07
43
1e-07
40
0
40
0
40
0
40
0
40
1
40
1
40
1
40
1
10
246.559240748
20
257.038993862
30
0
10
246.607413105
20
256.992736916
30
0
10
246.951744126
20
256.934146048
30
0
10
247.32441825
20
256.908788068
30
0
0
SPLINE
5
17A
100
AcDbEntity
8
Logo
6
ByLayer
62
7
370
-1
100
AcDbSpline
210
0
220
0
230
1
70
8
71
3
72
8
73
4
74
0
42
1e-07
43
1e-07
40
0
40
0
40
0
40
0
40
1
40
1
40
1
40
1
10
247.32441825
20
256.908788068
30
0
10
247.697092656
20
256.88343037
30
0
10
248.071482221
20
256.793215707
30
0
10
248.156391603
20
256.708306325
30
0
0
SPLINE
5
17B
100
AcDbEntity
8
Logo
6
ByLayer
62
7
370
-1
100
AcDbSpline
210
0
220
0
230
1
70
8
71
3
72
8
73
4
74
0
42
1e-07
43
1e-07
40
0
40
0
40
0
40
0
40
1
40
1
40
1
40
1
10
248.156391603
20
256.708306325
30
0
10
248.241300137
20
256.623397791
30
0
10
248.376632172
20
256.569470717
30
0
10
248.457135148
20
256.588476899
30
0
0
SPLINE
5
17C
100
AcDbEntity
8
Logo
6
ByLayer
62
7
370
-1
100
AcDbSpline
210
0
220
0
230
1
70
8
71
3
72
8
73
4
74
0
42
1e-07
43
1e-07
40
0
40
0
40
0
40
0
40
1
40
1
40
1
40
1
10
248.457135148
20
256.588476899
30
0
10
248.717169141
20
256.649864232
30
0
10
249.956192756
20
256.136094022
30
0
10
251.086330695
20
255.498265886
30
0
0
SPLINE
5
17D
100
AcDbEntity
8
Logo
6
ByLayer
62
7
370
-1
100
AcDbSpline
210
0
220
0
230
1
70
8
71
3
72
8
73
4
74
0
42
1e-07
43
1e-07
40
0
40
0
40
0
40
0
40
1
40
1
40
1
40
1
10
251.086330695
20
255.498265886
30
0
10
255.43554397
20
253.04367452
30
0
10
257.973534338
20
247.954314474
30
0
10
257.218730376
20
243.201195583
30
0
0
SPLINE
5
17E
100
AcDbEntity
8
Logo
6
ByLayer
62
7
370
-1
100
AcDbSpline
210
0
220
0
230
1
70
8
71
3
72
8
73
4
74
0
42
1e-07
43
1e-07
40
0
40
0
40
0
40
0
40
1
40
1
40
1
40
1
10
257.218730376
20
243.201195583
30
0
10
257.164034818
20
242.856768961
30
0
10
257.121787451
20
242.531631929
30
0
10
257.124854597
20
242.478674722
30
0
0
SPLINE
5
17F
100
AcDbEntity
8
Logo
6
ByLayer
62
7
370
-1
100
AcDbSpline
210
0
220
0
230
1
70
8
71
3
72
8
73
4
74
0
42
1e-07
43
1e-07
40
0
40
0
40
0
40
0
40
1
40
1
40
1
40
1
10
257.124854597
20
242.478674722
30
0
10
257.127920329
20
242.425718364
30
0
10
257.047437436
20
242.138833264
30
0
10
256.945999574
20
241.84114838
30
0
0
SPLINE
5
180
100
AcDbEntity
8
Logo
6
ByLayer
62
7
370
-1
100
AcDbSpline
210
0
220
0
230
1
70
8
71
3
72
8
73
4
74
0
42
1e-07
43
1e-07
40
0
40
0
40
0
40
0
40
1
40
1
40
1
40
1
10
256.945999574
20
241.84114838
30
0
10
256.844561995
20
241.543463779
30
0
10
256.684800551
20
241.050117075
30
0
10
256.590971441
20
240.744823439
30
0
0
SPLINE
5
181
100
AcDbEntity
8
Logo
6
ByLayer
62
7
370
-1
100
AcDbSpline
210
0
220
0
230
1
70
8
71
3
72
8
73
4
74
0
42
1e-07
43
1e-07
40
0
40
0
40
0
40
0
40
1
40
1
40
1
40
1
10
256.590971441
20
240.744823439
30
0
10
256.36620652
20
240.013498533
30
0
10
255.398263321
20
238.267711853
30
0
10
254.714394897
20
237.360231375
30
0
0
SPLINE
5
182
100
AcDbEntity
8
Logo
6
ByLayer
62
7
370
-1
100
AcDbSpline
210
0
220
0
230
1
70
8
71
3
72
8
73
4
74
0
42
1e-07
43
1e-07
40
0
40
0
40
0
40
0
40
1
40
1
40
1
40
1
10
254.714394897
20
237.360231375
30
0
10
254.077827108
20
236.515511715
30
0
10
253.396529159
20
235.838771493
30
0
10
252.540135166
20
235.200499577
30
0
0
LWPOLYLINE
5
183
100
AcDbEntity
8
Logo
6
ByLayer
62
7
370
-1
100
AcDbPolyline
90
4
70
0
43
0
10
229.708462171
20
213.519017787
10
229.548032654
20
213.271253793
10
221.419930148
20
221.399356299
10
221.419930148
20
221.399356299
0
SPLINE
5
184
100
AcDbEntity
8
Logo
6
ByLayer
62
7
370
-1
100
AcDbSpline
210
0
220
0
230
1
70
8
71
3
72
8
73
4
74
0
42
1e-07
43
1e-07
40
0
40
0
40
0
40
0
40
1
40
1
40
1
40
1
10
252.645164281
20
239.624297627
30
0
10
253.004952374
20
240.078559711
30
0
10
253.326274706
20
240.66233519
30
0
10
253.523860422
20
241.220703757
30
0
0
SPLINE
5
185
100
AcDbEntity
8
Logo
6
ByLayer
62
7
370
-1
100
AcDbSpline
210
0
220
0
230
1
70
8
71
3
72
8
73
4
74
0
42
1e-07
43
1e-07
40
0
40
0
40
0
40
0
40
1
40
1
40
1
40
1
10
253.523860422
20
241.220703757
30
0
10
253.695174859
20
241.704843931
30
0
10
253.861002996
20
242.126619832
30
0
10
253.892358091
20
242.157974927
30
0
0
SPLINE
5
186
100
AcDbEntity
8
Logo
6
ByLayer
62
7
370
-1
100
AcDbSpline
210
0
220
0
230
1
70
8
71
3
72
8
73
4
74
0
42
1e-07
43
1e-07
40
0
40
0
40
0
40
0
40
1
40
1
40
1
40
1
10
253.892358091
20
242.157974927
30
0
10
253.923713185
20
242.189330022
30
0
10
254.005681003
20
242.684636826
30
0
10
254.074506535
20
243.258653948
30
0
0
SPLINE
5
187
100
AcDbEntity
8
Logo
6
ByLayer
62
7
370
-1
100
AcDbSpline
210
0
220
0
230
1
70
8
71
3
72
8
73
4
74
0
42
1e-07
43
1e-07
40
0
40
0
40
0
40
0
40
1
40
1
40
1
40
1
10
254.074506535
20
243.258653948
30
0
10
254.491481747
20
246.736268455
30
0
10
252.713986419
20
250.205164901
30
0
10
249.3762761
20
252.427567573
30
0
0
SPLINE
5
188
100
AcDbEntity
8
Logo
6
ByLayer
62
7
370
-1
100
AcDbSpline
210
0
220
0
230
1
70
8
71
3
72
8
73
4
74
0
42
1e-07
43
1e-07
40
0
40
0
40
0
40
0
40
1
40
1
40
1
40
1
10
249.3762761
20
252.427567573
30
0
10
247.624149783
20
253.59419703
30
0
10
245.195830263
20
254.13399669
30
0
10
243.281225233
20
253.782431966
30
0
0
SPLINE
5
189
100
AcDbEntity
8
Logo
6
ByLayer
62
7
370
-1
100
AcDbSpline
210
0
220
0
230
1
70
8
71
3
72
8
73
4
74
0
42
1e-07
43
1e-07
40
0
40
0
40
0
40
0
40
1
40
1
40
1
40
1
10
243.281225233
20
253.782431966
30
0
10
242.986171635
20
253.728253445
30
0
10
242.600508242
20
253.661599297
30
0
10
242.424195975
20
253.634311197
30
0
0
SPLINE
5
18A
100
AcDbEntity
8
Logo
6
ByLayer
62
7
370
-1
100
AcDbSpline
210
0
220
0
230
1
70
8
71
3
72
8
73
4
74
0
42
1e-07
43
1e-07
40
0
40
0
40
0
40
0
40
1
40
1
40
1
40
1
10
242.424195975
20
253.634311197
30
0
10
242.247883707
20
253.607023098
30
0
10
241.606576889
20
253.350304304
30
0
10
240.999069209
20
253.063825366
30
0
0
SPLINE
5
18B
100
AcDbEntity
8
Logo
6
ByLayer
62
7
370
-1
100
AcDbSpline
210
0
220
0
230
1
70
8
71
3
72
8
73
4
74
0
42
1e-07
43
1e-07
40
0
40
0
40
0
40
0
40
1
40
1
40
1
40
1
10
240.999069209
20
253.063825366
30
0
10
239.975254392
20
252.581032655
30
0
10
239.807983191
20
252.457088433
30
0
10
238.710767579
20
251.368246096
30
0
0
SPLINE
5
18C
100
AcDbEntity
8
Logo
6
ByLayer
62
7
370
-1
100
AcDbSpline
210
0
220
0
230
1
70
8
71
3
72
8
73
4
74
0
42
1e-07
43
1e-07
40
0
40
0
40
0
40
0
40
1
40
1
40
1
40
1
10
238.710767579
20
251.368246096
30
0
10
237.643027006
20
250.308663838
30
0
10
237.474061577
20
250.088931537
30
0
10
236.98657594
20
249.126102134
30
0
0
SPLINE
5
18D
100
AcDbEntity
8
Logo
6
ByLayer
62
7
370
-1
100
AcDbSpline
210
0
220
0
230
1
70
8
71
3
72
8
73
4
74
0
42
1e-07
43
1e-07
40
0
40
0
40
0
40
0
40
1
40
1
40
1
40
1
10
236.98657594
20
249.126102134
30
0
10
236.68932522
20
248.539008909
30
0
10
236.384165934
20
247.723608159
30
0
10
236.308440172
20
247.314096318
30
0
0
SPLINE
5
18E
100
AcDbEntity
8
Logo
6
ByLayer
62
7
370
-1
100
AcDbSpline
210
0
220
0
230
1
70
8
71
3
72
8
73
4
74
0
42
1e-07
43
1e-07
40
0
40
0
40
0
40
0
40
1
40
1
40
1
40
1
10
236.308440172
20
247.314096318
30
0
10
236.232714127
20
246.904585325
30
0
10
236.15473524
20
246.553507657
30
0
10
236.135146402
20
246.533918819
30
0
0
SPLINE
5
18F
100
AcDbEntity
8
Logo
6
ByLayer
62
7
370
-1
100
AcDbSpline
210
0
220
0
230
1
70
8
71
3
72
8
73
4
74
0
42
1e-07
43
1e-07
40
0
40
0
40
0
40
0
40
1
40
1
40
1
40
1
10
236.135146402
20
246.533918819
30
0
10
236.070727843
20
246.46950026
30
0
10
236.09800378
20
244.857085515
30
0
10
236.175319401
20
244.159118513
30
0
0
SPLINE
5
190
100
AcDbEntity
8
Logo
6
ByLayer
62
7
370
-1
100
AcDbSpline
210
0
220
0
230
1
70
8
71
3
72
8
73
4
74
0
42
1e-07
43
1e-07
40
0
40
0
40
0
40
0
40
1
40
1
40
1
40
1
10
236.175319401
20
244.159118513
30
0
10
236.451868863
20
241.6627295
30
0
10
238.394707818
20
238.861617344
30
0
10
240.996969668
20
237.207447096
30
0
0
SPLINE
5
191
100
AcDbEntity
8
Logo
6
ByLayer
62
7
370
-1
100
AcDbSpline
210
0
220
0
230
1
70
8
71
3
72
8
73
4
74
0
42
1e-07
43
1e-07
40
0
40
0
40
0
40
0
40
1
40
1
40
1
40
1
10
240.996969668
20
237.207447096
30
0
10
243.291050906
20
235.74919266
30
0
10
246.148510703
20
235.450155505
30
0
10
248.677133887
20
236.403700596
30
0
0
SPLINE
5
192
100
AcDbEntity
8
Logo
6
ByLayer
62
7
370
-1
100
AcDbSpline
210
0
220
0
230
1
70
8
71
3
72
8
73
4
74
0
42
1e-07
43
1e-07
40
0
40
0
40
0
40
0
40
1
40
1
40
1
40
1
10
248.677133887
20
236.403700596
30
0
10
250.006609187
20
236.905048072
30
0
10
251.364074319
20
238.006816038
30
0
10
252.645164281
20
239.624297627
30
0
0
LWPOLYLINE
5
193
100
AcDbEntity
8
Logo
6
ByLayer
62
7
370
-1
100
AcDbPolyline
90
3
70
0
43
0
10
252.540135166
20
235.200499577
10
252.540131206
20
235.200503537
10
252.540129509
20
235.200505234
0
LWPOLYLINE
5
194
100
AcDbEntity
8
Logo
6
ByLayer
62
7
370
-1
100
AcDbPolyline
90
3
70
0
43
0
10
252.645164281
20
239.624297627
10
252.645164281
20
239.624297627
10
252.645164281
20
239.624297627
0
SPLINE
5
195
100
AcDbEntity
8
Logo
6
ByLayer
62
7
370
-1
100
AcDbSpline
210
0
220
0
230
1
70
8
71
3
72
8
73
4
74
0
42
1e-07
43
1e-07
40
0
40
0
40
0
40
0
40
1
40
1
40
1
40
1
10
250.706220636
20
266.910412134
30
0
10
253.70484412
20
269.909035618
30
0
10
254.236744266
20
270.337854869
30
0
10
255.426092498
20
270.715589332
30
0
0
SPLINE
5
196
100
AcDbEntity
8
Logo
6
ByLayer
62
7
370
-1
100
AcDbSpline
210
0
220
0
230
1
70
8
71
3
72
8
73
4
74
0
42
1e-07
43
1e-07
40
0
40
0
40
0
40
0
40
1
40
1
40
1
40
1
10
255.426092498
20
270.715589332
30
0
10
255.712408519
20
270.806523829
30
0
10
255.990558588
20
270.924814026
30
0
10
256.044208759
20
270.978464197
30
0
0
SPLINE
5
197
100
AcDbEntity
8
Logo
6
ByLayer
62
7
370
-1
100
AcDbSpline
210
0
220
0
230
1
70
8
71
3
72
8
73
4
74
0
42
1e-07
43
1e-07
40
0
40
0
40
0
40
0
40
1
40
1
40
1
40
1
10
256.044208759
20
270.978464197
30
0
10
256.13858517
20
271.072840608
30
0
10
257.018188954
20
271.207838323
30
0
10
257.923811438
20
271.266926711
30
0
0
SPLINE
5
198
100
AcDbEntity
8
Logo
6
ByLayer
62
7
370
-1
100
AcDbSpline
210
0
220
0
230
1
70
8
71
3
72
8
73
4
74
0
42
1e-07
43
1e-07
40
0
40
0
40
0
40
0
40
1
40
1
40
1
40
1
10
257.923811438
20
271.266926711
30
0
10
258.166180207
20
271.282742427
30
0
10
258.826374413
20
271.208188765
30
0
10
259.390911497
20
271.10125329
30
0
0
SPLINE
5
199
100
AcDbEntity
8
Logo
6
ByLayer
62
7
370
-1
100
AcDbSpline
210
0
220
0
230
1
70
8
71
3
72
8
73
4
74
0
42
1e-07
43
1e-07
40
0
40
0
40
0
40
0
40
1
40
1
40
1
40
1
10
259.390911497
20
271.10125329
30
0
10
260.810693949
20
270.832316539
30
0
10
262.022415322
20
270.122403958
30
0
10
263.363867031
20
268.773608521
30
0
0
SPLINE
5
19A
100
AcDbEntity
8
Logo
6
ByLayer
62
7
370
-1
100
AcDbSpline
210
0
220
0
230
1
70
8
71
3
72
8
73
4
74
0
42
1e-07
43
1e-07
40
0
40
0
40
0
40
0
40
1
40
1
40
1
40
1
10
263.363867031
20
268.773608521
30
0
10
264.343476644
20
267.788571157
30
0
10
265.227414709
20
266.49154131
30
0
10
265.473967004
20
265.677229221
30
0
0
SPLINE
5
19B
100
AcDbEntity
8
Logo
6
ByLayer
62
7
370
-1
100
AcDbSpline
210
0
220
0
230
1
70
8
71
3
72
8
73
4
74
0
42
1e-07
43
1e-07
40
0
40
0
40
0
40
0
40
1
40
1
40
1
40
1
10
265.473967004
20
265.677229221
30
0
10
265.689785328
20
264.964423442
30
0
10
265.904593903
20
262.878337098
30
0
10
265.775469699
20
262.749212895
30
0
0
SPLINE
5
19C
100
AcDbEntity
8
Logo
6
ByLayer
62
7
370
-1
100
AcDbSpline
210
0
220
0
230
1
70
8
71
3
72
8
73
4
74
0
42
1e-07
43
1e-07
40
0
40
0
40
0
40
0
40
1
40
1
40
1
40
1
10
265.775469699
20
262.749212895
30
0
10
265.746078382
20
262.719821577
30
0
10
265.673842616
20
262.404062195
30
0
10
265.614944298
20
262.047522269
30
0
0
SPLINE
5
19D
100
AcDbEntity
8
Logo
6
ByLayer
62
7
370
-1
100
AcDbSpline
210
0
220
0
230
1
70
8
71
3
72
8
73
4
74
0
42
1e-07
43
1e-07
40
0
40
0
40
0
40
0
40
1
40
1
40
1
40
1
10
265.614944298
20
262.047522269
30
0
10
265.556045697
20
261.690982059
30
0
10
265.270366072
20
260.94283876
30
0
10
264.980092799
20
260.384976482
30
0
0
SPLINE
5
19E
100
AcDbEntity
8
Logo
6
ByLayer
62
7
370
-1
100
AcDbSpline
210
0
220
0
230
1
70
8
71
3
72
8
73
4
74
0
42
1e-07
43
1e-07
40
0
40
0
40
0
40
0
40
1
40
1
40
1
40
1
10
264.980092799
20
260.384976482
30
0
10
264.502633935
20
259.46737476
30
0
10
264.289543913
20
259.200511812
30
0
10
262.744920627
20
257.585761069
30
0
0
LWPOLYLINE
5
19F
100
AcDbEntity
8
Logo
6
ByLayer
62
7
370
-1
100
AcDbPolyline
90
3
70
0
43
0
10
256.176992665
20
255.763048525
10
247.867924846
20
264.072116344
10
250.706220636
20
266.910412134
0
SPLINE
5
1A0
100
AcDbEntity
8
Logo
6
ByLayer
62
7
370
-1
100
AcDbSpline
210
0
220
0
230
1
70
8
71
3
72
8
73
4
74
0
42
1e-07
43
1e-07
40
0
40
0
40
0
40
0
40
1
40
1
40
1
40
1
10
263.881171927
20
252.957188006
30
0
10
265.445181536
20
251.393178398
30
0
10
266.712206296
20
250.064928373
30
0
10
266.696776943
20
250.00551415
30
0
0
SPLINE
5
1A1
100
AcDbEntity
8
Logo
6
ByLayer
62
7
370
-1
100
AcDbSpline
210
0
220
0
230
1
70
8
71
3
72
8
73
4
74
0
42
1e-07
43
1e-07
40
0
40
0
40
0
40
0
40
1
40
1
40
1
40
1
10
266.696776943
20
250.00551415
30
0
10
266.681354945
20
249.946108978
30
0
10
266.17763357
20
249.347709399
30
0
10
265.577394665
20
248.675737057
30
0
0
LWPOLYLINE
5
1A2
100
AcDbEntity
8
Logo
6
ByLayer
62
7
370
-1
100
AcDbPolyline
90
3
70
0
43
0
10
262.744920627
20
257.585761069
10
261.037519379
20
255.800840554
10
263.881171927
20
252.957188006
0
SPLINE
5
1A3
100
AcDbEntity
8
Logo
6
ByLayer
62
7
370
-1
100
AcDbSpline
210
0
220
0
230
1
70
8
71
3
72
8
73
4
74
0
42
1e-07
43
1e-07
40
0
40
0
40
0
40
0
40
1
40
1
40
1
40
1
10
262.32962946
20
261.843244776
30
0
10
262.450787399
20
262.213854148
30
0
10
262.567855432
20
262.913182755
30
0
10
262.589765842
20
263.397296059
30
0
0
SPLINE
5
1A4
100
AcDbEntity
8
Logo
6
ByLayer
62
7
370
-1
100
AcDbSpline
210
0
220
0
230
1
70
8
71
3
72
8
73
4
74
0
42
1e-07
43
1e-07
40
0
40
0
40
0
40
0
40
1
40
1
40
1
40
1
10
262.589765842
20
263.397296059
30
0
10
262.623598356
20
264.144641741
30
0
10
262.562960839
20
264.398933745
30
0
10
262.18805848
20
265.081910648
30
0
0
SPLINE
5
1A5
100
AcDbEntity
8
Logo
6
ByLayer
62
7
370
-1
100
AcDbSpline
210
0
220
0
230
1
70
8
71
3
72
8
73
4
74
0
42
1e-07
43
1e-07
40
0
40
0
40
0
40
0
40
1
40
1
40
1
40
1
10
262.18805848
20
265.081910648
30
0
10
261.25477511
20
266.782099972
30
0
10
259.523353162
20
268.028683689
30
0
10
258.040855147
20
268.067811585
30
0
0
SPLINE
5
1A6
100
AcDbEntity
8
Logo
6
ByLayer
62
7
370
-1
100
AcDbSpline
210
0
220
0
230
1
70
8
71
3
72
8
73
4
74
0
42
1e-07
43
1e-07
40
0
40
0
40
0
40
0
40
1
40
1
40
1
40
1
10
258.040855147
20
268.067811585
30
0
10
256.504017672
20
268.108370381
30
0
10
255.545378301
20
267.576925895
30
0
10
253.542477978
20
265.574025572
30
0
0
LWPOLYLINE
5
1A7
100
AcDbEntity
8
Logo
6
ByLayer
62
7
370
-1
100
AcDbPolyline
90
4
70
0
43
0
10
265.577394665
20
248.675737057
10
264.486060484
20
247.453980707
10
256.176992665
20
255.763048525
10
256.176992665
20
255.763048525
0
SPLINE
5
1A8
100
AcDbEntity
8
Logo
6
ByLayer
62
7
370
-1
100
AcDbSpline
210
0
220
0
230
1
70
8
71
3
72
8
73
4
74
0
42
1e-07
43
1e-07
40
0
40
0
40
0
40
0
40
1
40
1
40
1
40
1
10
260.529262339
20
259.529281676
30
0
10
262.007369504
20
261.063559707
30
0
10
262.123553371
20
261.212888214
30
0
10
262.32962946
20
261.843244776
30
0
0
LWPOLYLINE
5
1A9
100
AcDbEntity
8
Logo
6
ByLayer
62
7
370
-1
100
AcDbPolyline
90
5
70
0
43
0
10
253.542477978
20
265.574025572
10
252.40340617
20
264.434953764
10
255.67629997
20
261.162059964
10
258.94919377
20
257.889166164
10
260.529262339
20
259.529281676
0
SPLINE
5
1AA
100
AcDbEntity
8
Logo
6
ByLayer
62
7
370
-1
100
AcDbSpline
210
0
220
0
230
1
70
8
71
3
72
8
73
4
74
0
42
1e-07
43
1e-07
40
0
40
0
40
0
40
0
40
1
40
1
40
1
40
1
10
283.827178917
20
266.483046129
30
0
10
283.486680415
20
266.224861079
30
0
10
282.836164238
20
265.814062586
30
0
10
282.381592441
20
265.570170143
30
0
0
SPLINE
5
1AB
100
AcDbEntity
8
Logo
6
ByLayer
62
7
370
-1
100
AcDbSpline
210
0
220
0
230
1
70
8
71
3
72
8
73
4
74
0
42
1e-07
43
1e-07
40
0
40
0
40
0
40
0
40
1
40
1
40
1
40
1
10
282.381592441
20
265.570170143
30
0
10
281.927020927
20
265.326277418
30
0
10
281.43017857
20
265.050354452
30
0
10
281.277501488
20
264.95701268
30
0
0
SPLINE
5
1AC
100
AcDbEntity
8
Logo
6
ByLayer
62
7
370
-1
100
AcDbSpline
210
0
220
0
230
1
70
8
71
3
72
8
73
4
74
0
42
1e-07
43
1e-07
40
0
40
0
40
0
40
0
40
1
40
1
40
1
40
1
10
281.277501488
20
264.95701268
30
0
10
281.124816486
20
264.863662423
30
0
10
280.630697904
20
264.690943106
30
0
10
280.179452621
20
264.573183523
30
0
0
SPLINE
5
1AD
100
AcDbEntity
8
Logo
6
ByLayer
62
7
370
-1
100
AcDbSpline
210
0
220
0
230
1
70
8
71
3
72
8
73
4
74
0
42
1e-07
43
1e-07
40
0
40
0
40
0
40
0
40
1
40
1
40
1
40
1
10
280.179452621
20
264.573183523
30
0
10
279.728207054
20
264.455424222
30
0
10
279.320386047
20
264.320454226
30
0
10
279.273194023
20
264.273262202
30
0
0
SPLINE
5
1AE
100
AcDbEntity
8
Logo
6
ByLayer
62
7
370
-1
100
AcDbSpline
210
0
220
0
230
1
70
8
71
3
72
8
73
4
74
0
42
1e-07
43
1e-07
40
0
40
0
40
0
40
0
40
1
40
1
40
1
40
1
10
279.273194023
20
264.273262202
30
0
10
279.116530273
20
264.116598452
30
0
10
276.801289289
20
263.909161889
30
0
10
275.74045036
20
263.956740559
30
0
0
SPLINE
5
1AF
100
AcDbEntity
8
Logo
6
ByLayer
62
7
370
-1
100
AcDbSpline
210
0
220
0
230
1
70
8
71
3
72
8
73
4
74
0
42
1e-07
43
1e-07
40
0
40
0
40
0
40
0
40
1
40
1
40
1
40
1
10
275.74045036
20
263.956740559
30
0
10
274.586876923
20
264.008480411
30
0
10
273.324152504
20
264.196000887
30
0
10
273.183719683
20
264.336433708
30
0
0
SPLINE
5
1B0
100
AcDbEntity
8
Logo
6
ByLayer
62
7
370
-1
100
AcDbSpline
210
0
220
0
230
1
70
8
71
3
72
8
73
4
74
0
42
1e-07
43
1e-07
40
0
40
0
40
0
40
0
40
1
40
1
40
1
40
1
10
273.183719683
20
264.336433708
30
0
10
273.133926637
20
264.386226753
30
0
10
272.773925281
20
264.509388632
30
0
10
272.383713778
20
264.610124761
30
0
0
SPLINE
5
1B1
100
AcDbEntity
8
Logo
6
ByLayer
62
7
370
-1
100
AcDbSpline
210
0
220
0
230
1
70
8
71
3
72
8
73
4
74
0
42
1e-07
43
1e-07
40
0
40
0
40
0
40
0
40
1
40
1
40
1
40
1
10
272.383713778
20
264.610124761
30
0
10
271.728148859
20
264.779367092
30
0
10
270.449147124
20
265.445077014
30
0
10
269.261469361
20
266.235212556
30
0
0
SPLINE
5
1B2
100
AcDbEntity
8
Logo
6
ByLayer
62
7
370
-1
100
AcDbSpline
210
0
220
0
230
1
70
8
71
3
72
8
73
4
74
0
42
1e-07
43
1e-07
40
0
40
0
40
0
40
0
40
1
40
1
40
1
40
1
10
269.261469361
20
266.235212556
30
0
10
268.521311277
20
266.727627577
30
0
10
266.747794415
20
268.568005628
30
0
10
266.278915585
20
269.330207058
30
0
0
SPLINE
5
1B3
100
AcDbEntity
8
Logo
6
ByLayer
62
7
370
-1
100
AcDbSpline
210
0
220
0
230
1
70
8
71
3
72
8
73
4
74
0
42
1e-07
43
1e-07
40
0
40
0
40
0
40
0
40
1
40
1
40
1
40
1
10
266.278915585
20
269.330207058
30
0
10
265.30364478
20
270.915592788
30
0
10
265.103508671
20
271.314316159
30
0
10
264.763168843
20
272.349943337
30
0
0
SPLINE
5
1B4
100
AcDbEntity
8
Logo
6
ByLayer
62
7
370
-1
100
AcDbSpline
210
0
220
0
230
1
70
8
71
3
72
8
73
4
74
0
42
1e-07
43
1e-07
40
0
40
0
40
0
40
0
40
1
40
1
40
1
40
1
10
264.763168843
20
272.349943337
30
0
10
264.565731053
20
272.950750473
30
0
10
264.387834018
20
273.67087905
30
0
10
264.367846372
20
273.950232897
30
0
0
SPLINE
5
1B5
100
AcDbEntity
8
Logo
6
ByLayer
62
7
370
-1
100
AcDbSpline
210
0
220
0
230
1
70
8
71
3
72
8
73
4
74
0
42
1e-07
43
1e-07
40
0
40
0
40
0
40
0
40
1
40
1
40
1
40
1
10
264.367846372
20
273.950232897
30
0
10
264.34785816
20
274.229586745
30
0
10
264.296728118
20
274.493017962
30
0
10
264.254230434
20
274.53564349
30
0
0
SPLINE
5
1B6
100
AcDbEntity
8
Logo
6
ByLayer
62
7
370
-1
100
AcDbSpline
210
0
220
0
230
1
70
8
71
3
72
8
73
4
74
0
42
1e-07
43
1e-07
40
0
40
0
40
0
40
0
40
1
40
1
40
1
40
1
10
264.254230434
20
274.53564349
30
0
10
264.17511961
20
274.614754314
30
0
10
264.117091034
20
275.750812433
30
0
10
264.161741716
20
276.342730388
30
0
0
SPLINE
5
1B7
100
AcDbEntity
8
Logo
6
ByLayer
62
7
370
-1
100
AcDbSpline
210
0
220
0
230
1
70
8
71
3
72
8
73
4
74
0
42
1e-07
43
1e-07
40
0
40
0
40
0
40
0
40
1
40
1
40
1
40
1
10
264.161741716
20
276.342730388
30
0
10
264.175386048
20
276.523634325
30
0
10
264.184563446
20
276.894165915
30
0
10
264.182140615
20
277.166140113
30
0
0
SPLINE
5
1B8
100
AcDbEntity
8
Logo
6
ByLayer
62
7
370
-1
100
AcDbSpline
210
0
220
0
230
1
70
8
71
3
72
8
73
4
74
0
42
1e-07
43
1e-07
40
0
40
0
40
0
40
0
40
1
40
1
40
1
40
1
10
264.182140615
20
277.166140113
30
0
10
264.179718067
20
277.438114029
30
0
10
264.212336903
20
277.695338262
30
0
10
264.254623303
20
277.737745719
30
0
0
SPLINE
5
1B9
100
AcDbEntity
8
Logo
6
ByLayer
62
7
370
-1
100
AcDbSpline
210
0
220
0
230
1
70
8
71
3
72
8
73
4
74
0
42
1e-07
43
1e-07
40
0
40
0
40
0
40
0
40
1
40
1
40
1
40
1
10
264.254623303
20
277.737745719
30
0
10
264.296908288
20
277.780154024
30
0
10
264.347423997
20
278.026442144
30
0
10
264.366884141
20
278.285058247
30
0
0
SPLINE
5
1BA
100
AcDbEntity
8
Logo
6
ByLayer
62
7
370
-1
100
AcDbSpline
210
0
220
0
230
1
70
8
71
3
72
8
73
4
74
0
42
1e-07
43
1e-07
40
0
40
0
40
0
40
0
40
1
40
1
40
1
40
1
10
264.366884141
20
278.285058247
30
0
10
264.386344568
20
278.543674632
30
0
10
264.598438419
20
279.337992287
30
0
10
264.838198529
20
280.050203248
30
0
0
SPLINE
5
1BB
100
AcDbEntity
8
Logo
6
ByLayer
62
7
370
-1
100
AcDbSpline
210
0
220
0
230
1
70
8
71
3
72
8
73
4
74
0
42
1e-07
43
1e-07
40
0
40
0
40
0
40
0
40
1
40
1
40
1
40
1
10
264.838198529
20
280.050203248
30
0
10
265.609407652
20
282.341093454
30
0
10
267.492589139
20
284.80422865
30
0
10
269.479675442
20
286.121094256
30
0
0
SPLINE
5
1BC
100
AcDbEntity
8
Logo
6
ByLayer
62
7
370
-1
100
AcDbSpline
210
0
220
0
230
1
70
8
71
3
72
8
73
4
74
0
42
1e-07
43
1e-07
40
0
40
0
40
0
40
0
40
1
40
1
40
1
40
1
10
269.479675442
20
286.121094256
30
0
10
269.950042873
20
286.43281521
30
0
10
270.507758922
20
286.80071212
30
0
10
270.719052893
20
286.938650268
30
0
0
SPLINE
5
1BD
100
AcDbEntity
8
Logo
6
ByLayer
62
7
370
-1
100
AcDbSpline
210
0
220
0
230
1
70
8
71
3
72
8
73
4
74
0
42
1e-07
43
1e-07
40
0
40
0
40
0
40
0
40
1
40
1
40
1
40
1
10
270.719052893
20
286.938650268
30
0
10
271.273362102
20
287.300518952
30
0
10
273.236861303
20
288.031671323
30
0
10
273.891706953
20
288.120055428
30
0
0
SPLINE
5
1BE
100
AcDbEntity
8
Logo
6
ByLayer
62
7
370
-1
100
AcDbSpline
210
0
220
0
230
1
70
8
71
3
72
8
73
4
74
0
42
1e-07
43
1e-07
40
0
40
0
40
0
40
0
40
1
40
1
40
1
40
1
10
273.891706953
20
288.120055428
30
0
10
274.199408994
20
288.161585507
30
0
10
274.619105436
20
288.231723994
30
0
10
274.824362978
20
288.275918451
30
0
0
SPLINE
5
1BF
100
AcDbEntity
8
Logo
6
ByLayer
62
7
370
-1
100
AcDbSpline
210
0
220
0
230
1
70
8
71
3
72
8
73
4
74
0
42
1e-07
43
1e-07
40
0
40
0
40
0
40
0
40
1
40
1
40
1
40
1
10
274.824362978
20
288.275918451
30
0
10
275.307342083
20
288.379904725
30
0
10
277.584465769
20
288.417244489
30
0
10
277.684389291
20
288.322812641
30
0
0
SPLINE
5
1C0
100
AcDbEntity
8
Logo
6
ByLayer
62
7
370
-1
100
AcDbSpline
210
0
220
0
230
1
70
8
71
3
72
8
73
4
74
0
42
1e-07
43
1e-07
40
0
40
0
40
0
40
0
40
1
40
1
40
1
40
1
10
277.684389291
20
288.322812641
30
0
10
277.726465539
20
288.282971417
30
0
10
278.060466578
20
288.234790292
30
0
10
278.426522465
20
288.21565174
30
0
0
SPLINE
5
1C1
100
AcDbEntity
8
Logo
6
ByLayer
62
7
370
-1
100
AcDbSpline
210
0
220
0
230
1
70
8
71
3
72
8
73
4
74
0
42
1e-07
43
1e-07
40
0
40
0
40
0
40
0
40
1
40
1
40
1
40
1
10
278.426522465
20
288.21565174
30
0
10
278.792579484
20
288.196512056
30
0
10
279.131727129
20
288.141203861
30
0
10
279.180186288
20
288.092744702
30
0
0
SPLINE
5
1C2
100
AcDbEntity
8
Logo
6
ByLayer
62
7
370
-1
100
AcDbSpline
210
0
220
0
230
1
70
8
71
3
72
8
73
4
74
0
42
1e-07
43
1e-07
40
0
40
0
40
0
40
0
40
1
40
1
40
1
40
1
10
279.180186288
20
288.092744702
30
0
10
279.228645164
20
288.044285826
30
0
10
279.642772433
20
287.906910534
30
0
10
280.100466248
20
287.787464925
30
0
0
SPLINE
5
1C3
100
AcDbEntity
8
Logo
6
ByLayer
62
7
370
-1
100
AcDbSpline
210
0
220
0
230
1
70
8
71
3
72
8
73
4
74
0
42
1e-07
43
1e-07
40
0
40
0
40
0
40
0
40
1
40
1
40
1
40
1
10
280.100466248
20
287.787464925
30
0
10
280.988999941
20
287.555583399
30
0
10
282.571829338
20
286.735796323
30
0
10
283.692274257
20
285.927178141
30
0
0
SPLINE
5
1C4
100
AcDbEntity
8
Logo
6
ByLayer
62
7
370
-1
100
AcDbSpline
210
0
220
0
230
1
70
8
71
3
72
8
73
4
74
0
42
1e-07
43
1e-07
40
0
40
0
40
0
40
0
40
1
40
1
40
1
40
1
10
283.692274257
20
285.927178141
30
0
10
286.722676534
20
283.740121757
30
0
10
288.697067443
20
279.797370147
30
0
10
288.632322766
20
276.06213373
30
0
0
SPLINE
5
1C5
100
AcDbEntity
8
Logo
6
ByLayer
62
7
370
-1
100
AcDbSpline
210
0
220
0
230
1
70
8
71
3
72
8
73
4
74
0
42
1e-07
43
1e-07
40
0
40
0
40
0
40
0
40
1
40
1
40
1
40
1
10
288.632322766
20
276.06213373
30
0
10
288.616521192
20
275.150629814
30
0
10
288.391259033
20
273.391327212
30
0
10
288.275537332
20
273.27560551
30
0
0
SPLINE
5
1C6
100
AcDbEntity
8
Logo
6
ByLayer
62
7
370
-1
100
AcDbSpline
210
0
220
0
230
1
70
8
71
3
72
8
73
4
74
0
42
1e-07
43
1e-07
40
0
40
0
40
0
40
0
40
1
40
1
40
1
40
1
10
288.275537332
20
273.27560551
30
0
10
288.244381924
20
273.244450103
30
0
10
288.117993375
20
272.832326492
30
0
10
287.994672538
20
272.359773535
30
0
0
SPLINE
5
1C7
100
AcDbEntity
8
Logo
6
ByLayer
62
7
370
-1
100
AcDbSpline
210
0
220
0
230
1
70
8
71
3
72
8
73
4
74
0
42
1e-07
43
1e-07
40
0
40
0
40
0
40
0
40
1
40
1
40
1
40
1
10
287.994672538
20
272.359773535
30
0
10
287.871351701
20
271.887220579
30
0
10
287.712674111
20
271.442807927
30
0
10
287.642053377
20
271.372187193
30
0
0
SPLINE
5
1C8
100
AcDbEntity
8
Logo
6
ByLayer
62
7
370
-1
100
AcDbSpline
210
0
220
0
230
1
70
8
71
3
72
8
73
4
74
0
42
1e-07
43
1e-07
40
0
40
0
40
0
40
0
40
1
40
1
40
1
40
1
10
287.642053377
20
271.372187193
30
0
10
287.571432643
20
271.301566458
30
0
10
287.308283986
20
270.839366111
30
0
10
287.057282292
20
270.345078389
30
0
0
SPLINE
5
1C9
100
AcDbEntity
8
Logo
6
ByLayer
62
7
370
-1
100
AcDbSpline
210
0
220
0
230
1
70
8
71
3
72
8
73
4
74
0
42
1e-07
43
1e-07
40
0
40
0
40
0
40
0
40
1
40
1
40
1
40
1
10
287.057282292
20
270.345078389
30
0
10
286.27525585
20
268.805057802
30
0
10
285.210418657
20
267.531899598
30
0
10
283.827178917
20
266.483046129
30
0
0
LWPOLYLINE
5
1CA
100
AcDbEntity
8
Logo
6
ByLayer
62
7
370
-1
100
AcDbPolyline
90
2
70
0
43
0
10
262.32962946
20
261.843244776
10
262.32962946
20
261.843244776
0
SPLINE
5
1CB
100
AcDbEntity
8
Logo
6
ByLayer
62
7
370
-1
100
AcDbSpline
210
0
220
0
230
1
70
8
71
3
72
8
73
4
74
0
42
1e-07
43
1e-07
40
0
40
0
40
0
40
0
40
1
40
1
40
1
40
1
10
284.525451955
20
271.815642139
30
0
10
285.170335885
20
273.343980191
30
0
10
285.640291214
20
275.505040218
30
0
10
285.430300016
20
275.976552313
30
0
0
SPLINE
5
1CC
100
AcDbEntity
8
Logo
6
ByLayer
62
7
370
-1
100
AcDbSpline
210
0
220
0
230
1
70
8
71
3
72
8
73
4
74
0
42
1e-07
43
1e-07
40
0
40
0
40
0
40
0
40
1
40
1
40
1
40
1
10
285.430300016
20
275.976552313
30
0
10
285.385446536
20
276.077250824
30
0
10
285.340575802
20
276.399959086
30
0
10
285.330567413
20
276.693663807
30
0
0
SPLINE
5
1CD
100
AcDbEntity
8
Logo
6
ByLayer
62
7
370
-1
100
AcDbSpline
210
0
220
0
230
1
70
8
71
3
72
8
73
4
74
0
42
1e-07
43
1e-07
40
0
40
0
40
0
40
0
40
1
40
1
40
1
40
1
10
285.330567413
20
276.693663807
30
0
10
285.320567791
20
276.987375599
30
0
10
285.259723233
20
277.394738119
30
0
10
285.195347949
20
277.598902191
30
0
0
SPLINE
5
1CE
100
AcDbEntity
8
Logo
6
ByLayer
62
7
370
-1
100
AcDbSpline
210
0
220
0
230
1
70
8
71
3
72
8
73
4
74
0
42
1e-07
43
1e-07
40
0
40
0
40
0
40
0
40
1
40
1
40
1
40
1
10
285.195347949
20
277.598902191
30
0
10
284.702133049
20
279.163266201
30
0
10
284.553618563
20
279.537986975
30
0
10
284.258644161
20
279.962452993
30
0
0
SPLINE
5
1CF
100
AcDbEntity
8
Logo
6
ByLayer
62
7
370
-1
100
AcDbSpline
210
0
220
0
230
1
70
8
71
3
72
8
73
4
74
0
42
1e-07
43
1e-07
40
0
40
0
40
0
40
0
40
1
40
1
40
1
40
1
10
284.258644161
20
279.962452993
30
0
10
284.074544951
20
280.227366589
30
0
10
283.77952388
20
280.667093386
30
0
10
283.603031724
20
280.939614037
30
0
0
SPLINE
5
1D0
100
AcDbEntity
8
Logo
6
ByLayer
62
7
370
-1
100
AcDbSpline
210
0
220
0
230
1
70
8
71
3
72
8
73
4
74
0
42
1e-07
43
1e-07
40
0
40
0
40
0
40
0
40
1
40
1
40
1
40
1
10
283.603031724
20
280.939614037
30
0
10
283.08305453
20
281.742521624
30
0
10
281.877679582
20
282.880684094
30
0
10
280.717971852
20
283.663779964
30
0
0
SPLINE
5
1D1
100
AcDbEntity
8
Logo
6
ByLayer
62
7
370
-1
100
AcDbSpline
210
0
220
0
230
1
70
8
71
3
72
8
73
4
74
0
42
1e-07
43
1e-07
40
0
40
0
40
0
40
0
40
1
40
1
40
1
40
1
10
280.717971852
20
283.663779964
30
0
10
278.18262182
20
285.375772031
30
0
10
274.902432941
20
285.620203289
30
0
10
272.178362898
20
284.300109033
30
0
0
SPLINE
5
1D2
100
AcDbEntity
8
Logo
6
ByLayer
62
7
370
-1
100
AcDbSpline
210
0
220
0
230
1
70
8
71
3
72
8
73
4
74
0
42
1e-07
43
1e-07
40
0
40
0
40
0
40
0
40
1
40
1
40
1
40
1
10
272.178362898
20
284.300109033
30
0
10
271.030484216
20
283.74384623
30
0
10
269.448312994
20
282.383654494
30
0
10
268.805790518
20
281.400711015
30
0
0
SPLINE
5
1D3
100
AcDbEntity
8
Logo
6
ByLayer
62
7
370
-1
100
AcDbSpline
210
0
220
0
230
1
70
8
71
3
72
8
73
4
74
0
42
1e-07
43
1e-07
40
0
40
0
40
0
40
0
40
1
40
1
40
1
40
1
10
268.805790518
20
281.400711015
30
0
10
268.126349997
20
280.361290351
30
0
10
267.556191414
20
278.955425457
30
0
10
267.530270011
20
278.255614321
30
0
0
SPLINE
5
1D4
100
AcDbEntity
8
Logo
6
ByLayer
62
7
370
-1
100
AcDbSpline
210
0
220
0
230
1
70
8
71
3
72
8
73
4
74
0
42
1e-07
43
1e-07
40
0
40
0
40
0
40
0
40
1
40
1
40
1
40
1
10
267.530270011
20
278.255614321
30
0
10
267.523362143
20
278.069091714
30
0
10
267.482947031
20
277.881719448
30
0
10
267.440456419
20
277.839228836
30
0
0
SPLINE
5
1D5
100
AcDbEntity
8
Logo
6
ByLayer
62
7
370
-1
100
AcDbSpline
210
0
220
0
230
1
70
8
71
3
72
8
73
4
74
0
42
1e-07
43
1e-07
40
0
40
0
40
0
40
0
40
1
40
1
40
1
40
1
10
267.440456419
20
277.839228836
30
0
10
267.397965807
20
277.796738223
30
0
10
267.381291946
20
277.277741928
30
0
10
267.40340572
20
276.685904866
30
0
0
SPLINE
5
1D6
100
AcDbEntity
8
Logo
6
ByLayer
62
7
370
-1
100
AcDbSpline
210
0
220
0
230
1
70
8
71
3
72
8
73
4
74
0
42
1e-07
43
1e-07
40
0
40
0
40
0
40
0
40
1
40
1
40
1
40
1
10
267.40340572
20
276.685904866
30
0
10
267.425519778
20
276.094067521
30
0
10
267.447574438
20
275.466687595
30
0
10
267.452407089
20
275.291717133
30
0
0
SPLINE
5
1D7
100
AcDbEntity
8
Logo
6
ByLayer
62
7
370
-1
100
AcDbSpline
210
0
220
0
230
1
70
8
71
3
72
8
73
4
74
0
42
1e-07
43
1e-07
40
0
40
0
40
0
40
0
40
1
40
1
40
1
40
1
10
267.452407089
20
275.291717133
30
0
10
267.466347275
20
274.787861691
30
0
10
268.284160674
20
272.501549293
30
0
10
268.543067539
20
272.242642428
30
0
0
SPLINE
5
1D8
100
AcDbEntity
8
Logo
6
ByLayer
62
7
370
-1
100
AcDbSpline
210
0
220
0
230
1
70
8
71
3
72
8
73
4
74
0
42
1e-07
43
1e-07
40
0
40
0
40
0
40
0
40
1
40
1
40
1
40
1
10
268.543067539
20
272.242642428
30
0
10
268.672114244
20
272.113595724
30
0
10
268.878100389
20
271.82321893
30
0
10
269.000819902
20
271.597365913
30
0
0
SPLINE
5
1D9
100
AcDbEntity
8
Logo
6
ByLayer
62
7
370
-1
100
AcDbSpline
210
0
220
0
230
1
70
8
71
3
72
8
73
4
74
0
42
1e-07
43
1e-07
40
0
40
0
40
0
40
0
40
1
40
1
40
1
40
1
10
269.000819902
20
271.597365913
30
0
10
269.33463172
20
270.983018813
30
0
10
271.092842266
20
269.269174975
30
0
10
272.105408994
20
268.571116898
30
0
0
SPLINE
5
1DA
100
AcDbEntity
8
Logo
6
ByLayer
62
7
370
-1
100
AcDbSpline
210
0
220
0
230
1
70
8
71
3
72
8
73
4
74
0
42
1e-07
43
1e-07
40
0
40
0
40
0
40
0
40
1
40
1
40
1
40
1
10
272.105408994
20
268.571116898
30
0
10
273.796558665
20
267.405244045
30
0
10
275.96055064
20
266.914709081
30
0
10
278.111575691
20
267.209618429
30
0
0
SPLINE
5
1DB
100
AcDbEntity
8
Logo
6
ByLayer
62
7
370
-1
100
AcDbSpline
210
0
220
0
230
1
70
8
71
3
72
8
73
4
74
0
42
1e-07
43
1e-07
40
0
40
0
40
0
40
0
40
1
40
1
40
1
40
1
10
278.111575691
20
267.209618429
30
0
10
279.289912856
20
267.371167155
30
0
10
280.81595479
20
267.961831834
30
0
10
281.571030847
20
268.548621568
30
0
0
SPLINE
5
1DC
100
AcDbEntity
8
Logo
6
ByLayer
62
7
370
-1
100
AcDbSpline
210
0
220
0
230
1
70
8
71
3
72
8
73
4
74
0
42
1e-07
43
1e-07
40
0
40
0
40
0
40
0
40
1
40
1
40
1
40
1
10
281.571030847
20
268.548621568
30
0
10
282.491538777
20
269.263972932
30
0
10
284.28610932
20
271.24842201
30
0
10
284.525451955
20
271.815642139
30
0
0
LWPOLYLINE
5
1DD
100
AcDbEntity
8
Logo
6
ByLayer
62
7
370
-1
100
AcDbPolyline
90
3
70
0
43
0
10
283.827178917
20
266.483046129
10
283.827178917
20
266.483046129
10
283.827178917
20
266.483046129
0
LWPOLYLINE
5
1DE
100
AcDbEntity
8
Logo
6
ByLayer
62
7
370
-1
100
AcDbPolyline
90
3
70
0
43
0
10
284.525451955
20
271.815642139
10
284.525451955
20
271.815642139
10
284.525451955
20
271.815642139
0
SPLINE
5
1DF
100
AcDbEntity
8
Logo
6
ByLayer
62
7
370
-1
100
AcDbSpline
210
0
220
0
230
1
70
8
71
3
72
8
73
4
74
0
42
1e-07
43
1e-07
40
0
40
0
40
0
40
0
40
1
40
1
40
1
40
1
10
279.734629847
20
296.563913922
30
0
10
280.286644069
20
297.184313855
30
0
10
280.78923973
20
297.783839148
30
0
10
280.851510947
20
297.896192193
30
0
0
SPLINE
5
1E0
100
AcDbEntity
8
Logo
6
ByLayer
62
7
370
-1
100
AcDbSpline
210
0
220
0
230
1
70
8
71
3
72
8
73
4
74
0
42
1e-07
43
1e-07
40
0
40
0
40
0
40
0
40
1
40
1
40
1
40
1
10
280.851510947
20
297.896192193
30
0
10
280.958634513
20
298.089479832
30
0
10
281.342902643
20
297.722278432
30
0
10
288.00083257
20
291.064348505
30
0
0
LWPOLYLINE
5
1E1
100
AcDbEntity
8
Logo
6
ByLayer
62
7
370
-1
100
AcDbPolyline
90
3
70
0
43
0
10
286.97466139
20
287.192200941
10
278.730958805
20
295.435903526
10
279.734629847
20
296.563913922
0
SPLINE
5
1E2
100
AcDbEntity
8
Logo
6
ByLayer
62
7
370
-1
100
AcDbSpline
210
0
220
0
230
1
70
8
71
3
72
8
73
4
74
0
42
1e-07
43
1e-07
40
0
40
0
40
0
40
0
40
1
40
1
40
1
40
1
10
298.756039
20
287.747332373
30
0
10
301.87101436
20
290.862307733
30
0
10
302.495619599
20
291.445942073
30
0
10
302.601247209
20
291.340314462
30
0
0
SPLINE
5
1E3
100
AcDbEntity
8
Logo
6
ByLayer
62
7
370
-1
100
AcDbSpline
210
0
220
0
230
1
70
8
71
3
72
8
73
4
74
0
42
1e-07
43
1e-07
40
0
40
0
40
0
40
0
40
1
40
1
40
1
40
1
10
302.601247209
20
291.340314462
30
0
10
302.670610142
20
291.27095153
30
0
10
302.873580618
20
290.782257305
30
0
10
303.052286018
20
290.254319786
30
0
0
SPLINE
5
1E4
100
AcDbEntity
8
Logo
6
ByLayer
62
7
370
-1
100
AcDbSpline
210
0
220
0
230
1
70
8
71
3
72
8
73
4
74
0
42
1e-07
43
1e-07
40
0
40
0
40
0
40
0
40
1
40
1
40
1
40
1
10
303.052286018
20
290.254319786
30
0
10
303.2309917
20
289.726381984
30
0
10
303.420511874
20
289.251122222
30
0
10
303.473443625
20
289.198190471
30
0
0
SPLINE
5
1E5
100
AcDbEntity
8
Logo
6
ByLayer
62
7
370
-1
100
AcDbSpline
210
0
220
0
230
1
70
8
71
3
72
8
73
4
74
0
42
1e-07
43
1e-07
40
0
40
0
40
0
40
0
40
1
40
1
40
1
40
1
10
303.473443625
20
289.198190471
30
0
10
303.52637679
20
289.145257306
30
0
10
303.669690364
20
288.796475472
30
0
10
303.791911226
20
288.423110647
30
0
0
LWPOLYLINE
5
1E6
100
AcDbEntity
8
Logo
6
ByLayer
62
7
370
-1
100
AcDbPolyline
90
3
70
0
43
0
10
288.00083257
20
291.064348505
10
295.036943851
20
284.028237224
10
298.756039
20
287.747332373
0
SPLINE
5
1E7
100
AcDbEntity
8
Logo
6
ByLayer
62
7
370
-1
100
AcDbSpline
210
0
220
0
230
1
70
8
71
3
72
8
73
4
74
0
42
1e-07
43
1e-07
40
0
40
0
40
0
40
0
40
1
40
1
40
1
40
1
10
309.225221586
20
292.608077725
30
0
10
309.029958008
20
292.503999243
30
0
10
308.604380984
20
292.228078824
30
0
10
308.279499359
20
291.99492309
30
0
0
SPLINE
5
1E8
100
AcDbEntity
8
Logo
6
ByLayer
62
7
370
-1
100
AcDbSpline
210
0
220
0
230
1
70
8
71
3
72
8
73
4
74
0
42
1e-07
43
1e-07
40
0
40
0
40
0
40
0
40
1
40
1
40
1
40
1
10
308.279499359
20
291.99492309
30
0
10
307.954608683
20
291.761760569
30
0
10
307.474767153
20
291.447779702
30
0
10
307.213171585
20
291.297177272
30
0
0
LWPOLYLINE
5
1E9
100
AcDbEntity
8
Logo
6
ByLayer
62
7
370
-1
100
AcDbPolyline
90
6
70
0
43
0
10
303.791911226
20
288.423110647
10
304.014145836
20
287.744279652
10
299.616255047
20
283.346388862
10
295.218364258
20
278.948498073
10
286.97466139
20
287.192200941
10
286.97466139
20
287.192200941
0
SPLINE
5
1EA
100
AcDbEntity
8
Logo
6
ByLayer
62
7
370
-1
100
AcDbSpline
210
0
220
0
230
1
70
8
71
3
72
8
73
4
74
0
42
1e-07
43
1e-07
40
0
40
0
40
0
40
0
40
1
40
1
40
1
40
1
10
306.454179005
20
291.777439106
30
0
10
306.298322205
20
292.192182406
30
0
10
305.99856861
20
293.012392049
30
0
10
305.788063204
20
293.600131568
30
0
0
SPLINE
5
1EB
100
AcDbEntity
8
Logo
6
ByLayer
62
7
370
-1
100
AcDbSpline
210
0
220
0
230
1
70
8
71
3
72
8
73
4
74
0
42
1e-07
43
1e-07
40
0
40
0
40
0
40
0
40
1
40
1
40
1
40
1
10
305.788063204
20
293.600131568
30
0
10
305.577558081
20
294.187871371
30
0
10
305.187834198
20
295.22682393
30
0
10
304.922010415
20
295.908916385
30
0
0
SPLINE
5
1EC
100
AcDbEntity
8
Logo
6
ByLayer
62
7
370
-1
100
AcDbSpline
210
0
220
0
230
1
70
8
71
3
72
8
73
4
74
0
42
1e-07
43
1e-07
40
0
40
0
40
0
40
0
40
1
40
1
40
1
40
1
10
304.922010415
20
295.908916385
30
0
10
304.656195116
20
296.591016759
30
0
10
304.352078955
20
297.389023248
30
0
10
304.246207817
20
297.68227429
30
0
0
SPLINE
5
1ED
100
AcDbEntity
8
Logo
6
ByLayer
62
7
370
-1
100
AcDbSpline
210
0
220
0
230
1
70
8
71
3
72
8
73
4
74
0
42
1e-07
43
1e-07
40
0
40
0
40
0
40
0
40
1
40
1
40
1
40
1
10
304.246207817
20
297.68227429
30
0
10
303.498984888
20
299.751917573
30
0
10
303.069155323
20
300.850468768
30
0
10
302.966398848
20
300.953225243
30
0
0
SPLINE
5
1EE
100
AcDbEntity
8
Logo
6
ByLayer
62
7
370
-1
100
AcDbSpline
210
0
220
0
230
1
70
8
71
3
72
8
73
4
74
0
42
1e-07
43
1e-07
40
0
40
0
40
0
40
0
40
1
40
1
40
1
40
1
10
302.966398848
20
300.953225243
30
0
10
302.900722488
20
301.018901604
30
0
10
302.760327285
20
301.05126277
30
0
10
302.654399295
20
301.025128669
30
0
0
SPLINE
5
1EF
100
AcDbEntity
8
Logo
6
ByLayer
62
7
370
-1
100
AcDbSpline
210
0
220
0
230
1
70
8
71
3
72
8
73
4
74
0
42
1e-07
43
1e-07
40
0
40
0
40
0
40
0
40
1
40
1
40
1
40
1
10
302.654399295
20
301.025128669
30
0
10
302.548480073
20
300.999002205
30
0
10
301.734208714
20
301.066403623
30
0
10
300.84491587
20
301.174917078
30
0
0
SPLINE
5
1F0
100
AcDbEntity
8
Logo
6
ByLayer
62
7
370
-1
100
AcDbSpline
210
0
220
0
230
1
70
8
71
3
72
8
73
4
74
0
42
1e-07
43
1e-07
40
0
40
0
40
0
40
0
40
1
40
1
40
1
40
1
10
300.84491587
20
301.174917078
30
0
10
299.95562331
20
301.28343025
30
0
10
299.127525467
20
301.362359206
30
0
10
299.004707525
20
301.350321703
30
0
0
SPLINE
5
1F1
100
AcDbEntity
8
Logo
6
ByLayer
62
7
370
-1
100
AcDbSpline
210
0
220
0
230
1
70
8
71
3
72
8
73
4
74
0
42
1e-07
43
1e-07
40
0
40
0
40
0
40
0
40
1
40
1
40
1
40
1
10
299.004707525
20
301.350321703
30
0
10
298.881881662
20
301.338276281
30
0
10
298.743155232
20
301.366669164
30
0
10
298.696418019
20
301.413406376
30
0
0
SPLINE
5
1F2
100
AcDbEntity
8
Logo
6
ByLayer
62
7
370
-1
100
AcDbSpline
210
0
220
0
230
1
70
8
71
3
72
8
73
4
74
0
42
1e-07
43
1e-07
40
0
40
0
40
0
40
0
40
1
40
1
40
1
40
1
10
298.696418019
20
301.413406376
30
0
10
298.649679958
20
301.460144438
30
0
10
298.288723442
20
301.494539243
30
0
10
297.89429532
20
301.489844619
30
0
0
SPLINE
5
1F3
100
AcDbEntity
8
Logo
6
ByLayer
62
7
370
-1
100
AcDbSpline
210
0
220
0
230
1
70
8
71
3
72
8
73
4
74
0
42
1e-07
43
1e-07
40
0
40
0
40
0
40
0
40
1
40
1
40
1
40
1
10
297.89429532
20
301.489844619
30
0
10
297.499868046
20
301.485149148
30
0
10
297.133117497
20
301.522751672
30
0
10
297.079299034
20
301.573409085
30
0
0
SPLINE
5
1F4
100
AcDbEntity
8
Logo
6
ByLayer
62
7
370
-1
100
AcDbSpline
210
0
220
0
230
1
70
8
71
3
72
8
73
4
74
0
42
1e-07
43
1e-07
40
0
40
0
40
0
40
0
40
1
40
1
40
1
40
1
10
297.079299034
20
301.573409085
30
0
10
297.025465298
20
301.624049527
30
0
10
296.698968358
20
301.664839123
30
0
10
296.353718381
20
301.664017465
30
0
0
SPLINE
5
1F5
100
AcDbEntity
8
Logo
6
ByLayer
62
7
370
-1
100
AcDbSpline
210
0
220
0
230
1
70
8
71
3
72
8
73
4
74
0
42
1e-07
43
1e-07
40
0
40
0
40
0
40
0
40
1
40
1
40
1
40
1
10
296.353718381
20
301.664017465
30
0
10
296.008476041
20
301.66320514
30
0
10
295.673007614
20
301.715519729
30
0
10
295.608242855
20
301.780284487
30
0
0
SPLINE
5
1F6
100
AcDbEntity
8
Logo
6
ByLayer
62
7
370
-1
100
AcDbSpline
210
0
220
0
230
1
70
8
71
3
72
8
73
4
74
0
42
1e-07
43
1e-07
40
0
40
0
40
0
40
0
40
1
40
1
40
1
40
1
10
295.608242855
20
301.780284487
30
0
10
295.543478945
20
301.845048397
30
0
10
295.458999201
20
301.866546989
30
0
10
295.420515621
20
301.828063409
30
0
0
SPLINE
5
1F7
100
AcDbEntity
8
Logo
6
ByLayer
62
7
370
-1
100
AcDbSpline
210
0
220
0
230
1
70
8
71
3
72
8
73
4
74
0
42
1e-07
43
1e-07
40
0
40
0
40
0
40
0
40
1
40
1
40
1
40
1
10
295.420515621
20
301.828063409
30
0
10
295.382024405
20
301.789572193
30
0
10
294.844048515
20
301.820821788
30
0
10
294.225001701
20
301.897493376
30
0
0
SPLINE
5
1F8
100
AcDbEntity
8
Logo
6
ByLayer
62
7
370
-1
100
AcDbSpline
210
0
220
0
230
1
70
8
71
3
72
8
73
4
74
0
42
1e-07
43
1e-07
40
0
40
0
40
0
40
0
40
1
40
1
40
1
40
1
10
294.225001701
20
301.897493376
30
0
10
293.605954604
20
301.974164681
30
0
10
293.026430534
20
302.004368606
30
0
10
292.937180082
20
301.964622417
30
0
0
SPLINE
5
1F9
100
AcDbEntity
8
Logo
6
ByLayer
62
7
370
-1
100
AcDbSpline
210
0
220
0
230
1
70
8
71
3
72
8
73
4
74
0
42
1e-07
43
1e-07
40
0
40
0
40
0
40
0
40
1
40
1
40
1
40
1
10
292.937180082
20
301.964622417
30
0
10
292.847921427
20
301.924869156
30
0
10
292.718121229
20
301.949125464
30
0
10
292.648726618
20
302.018520075
30
0
0
SPLINE
5
1FA
100
AcDbEntity
8
Logo
6
ByLayer
62
7
370
-1
100
AcDbSpline
210
0
220
0
230
1
70
8
71
3
72
8
73
4
74
0
42
1e-07
43
1e-07
40
0
40
0
40
0
40
0
40
1
40
1
40
1
40
1
10
292.648726618
20
302.018520075
30
0
10
292.579332007
20
302.087914686
30
0
10
292.241727552
20
302.140656933
30
0
10
291.898488869
20
302.135717368
30
0
0
SPLINE
5
1FB
100
AcDbEntity
8
Logo
6
ByLayer
62
7
370
-1
100
AcDbSpline
210
0
220
0
230
1
70
8
71
3
72
8
73
4
74
0
42
1e-07
43
1e-07
40
0
40
0
40
0
40
0
40
1
40
1
40
1
40
1
10
291.898488869
20
302.135717368
30
0
10
291.555256975
20
302.130786853
30
0
10
291.230974693
20
302.169328981
30
0
10
291.17786362
20
302.221370909
30
0
0
SPLINE
5
1FC
100
AcDbEntity
8
Logo
6
ByLayer
62
7
370
-1
100
AcDbSpline
210
0
220
0
230
1
70
8
71
3
72
8
73
4
74
0
42
1e-07
43
1e-07
40
0
40
0
40
0
40
0
40
1
40
1
40
1
40
1
10
291.17786362
20
302.221370909
30
0
10
291.124488938
20
302.273148662
30
0
10
290.799970483
20
302.311608482
30
0
10
290.456109546
20
302.306236734
30
0
0
SPLINE
5
1FD
100
AcDbEntity
8
Logo
6
ByLayer
62
7
370
-1
100
AcDbSpline
210
0
220
0
230
1
70
8
71
3
72
8
73
4
74
0
42
1e-07
43
1e-07
40
0
40
0
40
0
40
0
40
1
40
1
40
1
40
1
10
290.456109546
20
302.306236734
30
0
10
290.11224861
20
302.30086555
30
0
10
289.798093795
20
302.329280778
30
0
10
289.757990941
20
302.369383632
30
0
0
SPLINE
5
1FE
100
AcDbEntity
8
Logo
6
ByLayer
62
7
370
-1
100
AcDbSpline
210
0
220
0
230
1
70
8
71
3
72
8
73
4
74
0
42
1e-07
43
1e-07
40
0
40
0
40
0
40
0
40
1
40
1
40
1
40
1
10
289.757990941
20
302.369383632
30
0
10
289.717886956
20
302.409487617
30
0
10
289.51443989
20
302.442301897
30
0
10
289.30587931
20
302.442297089
30
0
0
LWPOLYLINE
5
1FF
100
AcDbEntity
8
Logo
6
ByLayer
62
7
370
-1
100
AcDbPolyline
90
3
70
0
43
0
10
307.213171585
20
291.297177272
10
306.73755035
20
291.023358656
10
306.454179005
20
291.777439106
0
SPLINE
5
200
100
AcDbEntity
8
Logo
6
ByLayer
62
7
370
-1
100
AcDbSpline
210
0
220
0
230
1
70
8
71
3
72
8
73
4
74
0
42
1e-07
43
1e-07
40
0
40
0
40
0
40
0
40
1
40
1
40
1
40
1
10
288.976411674
20
303.155991843
30
0
10
289.17638628
20
306.026003351
30
0
10
289.123125017
20
305.832048204
30
0
10
289.700798447
20
305.793637598
30
0
0
SPLINE
5
201
100
AcDbEntity
8
Logo
6
ByLayer
62
7
370
-1
100
AcDbSpline
210
0
220
0
230
1
70
8
71
3
72
8
73
4
74
0
42
1e-07
43
1e-07
40
0
40
0
40
0
40
0
40
1
40
1
40
1
40
1
10
289.700798447
20
305.793637598
30
0
10
289.97083489
20
305.77568642
30
0
10
290.398371732
20
305.73458004
30
0
10
290.650878998
20
305.702292978
30
0
0
SPLINE
5
202
100
AcDbEntity
8
Logo
6
ByLayer
62
7
370
-1
100
AcDbSpline
210
0
220
0
230
1
70
8
71
3
72
8
73
4
74
0
42
1e-07
43
1e-07
40
0
40
0
40
0
40
0
40
1
40
1
40
1
40
1
10
290.650878998
20
305.702292978
30
0
10
291.27651633
20
305.622288089
30
0
10
292.521033882
20
305.485654694
30
0
10
293.126781148
20
305.430456807
30
0
0
SPLINE
5
203
100
AcDbEntity
8
Logo
6
ByLayer
62
7
370
-1
100
AcDbSpline
210
0
220
0
230
1
70
8
71
3
72
8
73
4
74
0
42
1e-07
43
1e-07
40
0
40
0
40
0
40
0
40
1
40
1
40
1
40
1
10
293.126781148
20
305.430456807
30
0
10
294.608859425
20
305.295401109
30
0
10
298.070049539
20
304.904404717
30
0
10
298.483125481
20
304.825362624
30
0
0
SPLINE
5
204
100
AcDbEntity
8
Logo
6
ByLayer
62
7
370
-1
100
AcDbSpline
210
0
220
0
230
1
70
8
71
3
72
8
73
4
74
0
42
1e-07
43
1e-07
40
0
40
0
40
0
40
0
40
1
40
1
40
1
40
1
10
298.483125481
20
304.825362624
30
0
10
298.746115181
20
304.775041229
30
0
10
299.167140135
20
304.741803816
30
0
10
299.41873099
20
304.751494573
30
0
0
SPLINE
5
205
100
AcDbEntity
8
Logo
6
ByLayer
62
7
370
-1
100
AcDbSpline
210
0
220
0
230
1
70
8
71
3
72
8
73
4
74
0
42
1e-07
43
1e-07
40
0
40
0
40
0
40
0
40
1
40
1
40
1
40
1
10
299.41873099
20
304.751494573
30
0
10
299.670329765
20
304.76119325
30
0
10
299.911908837
20
304.73339971
30
0
10
299.955575226
20
304.689733321
30
0
0
SPLINE
5
206
100
AcDbEntity
8
Logo
6
ByLayer
62
7
370
-1
100
AcDbSpline
210
0
220
0
230
1
70
8
71
3
72
8
73
4
74
0
42
1e-07
43
1e-07
40
0
40
0
40
0
40
0
40
1
40
1
40
1
40
1
10
299.955575226
20
304.689733321
30
0
10
299.999241616
20
304.646066932
30
0
10
300.324944899
20
304.606103802
30
0
10
300.679357848
20
304.600922972
30
0
0
SPLINE
5
207
100
AcDbEntity
8
Logo
6
ByLayer
62
7
370
-1
100
AcDbSpline
210
0
220
0
230
1
70
8
71
3
72
8
73
4
74
0
42
1e-07
43
1e-07
40
0
40
0
40
0
40
0
40
1
40
1
40
1
40
1
10
300.679357848
20
304.600922972
30
0
10
301.033770515
20
304.595742425
30
0
10
301.358296041
20
304.556940647
30
0
10
301.400532943
20
304.514703745
30
0
0
SPLINE
5
208
100
AcDbEntity
8
Logo
6
ByLayer
62
7
370
-1
100
AcDbSpline
210
0
220
0
230
1
70
8
71
3
72
8
73
4
74
0
42
1e-07
43
1e-07
40
0
40
0
40
0
40
0
40
1
40
1
40
1
40
1
10
301.400532943
20
304.514703745
30
0
10
301.569174234
20
304.346062455
30
0
10
301.727935545
20
304.714829389
30
0
10
301.593016177
20
304.961790675
30
0
0
SPLINE
5
209
100
AcDbEntity
8
Logo
6
ByLayer
62
7
370
-1
100
AcDbSpline
210
0
220
0
230
1
70
8
71
3
72
8
73
4
74
0
42
1e-07
43
1e-07
40
0
40
0
40
0
40
0
40
1
40
1
40
1
40
1
10
301.593016177
20
304.961790675
30
0
10
301.463463467
20
305.198914692
30
0
10
301.010581372
20
306.427259863
30
0
10
300.578969616
20
307.712195638
30
0
0
SPLINE
5
20A
100
AcDbEntity
8
Logo
6
ByLayer
62
7
370
-1
100
AcDbSpline
210
0
220
0
230
1
70
8
71
3
72
8
73
4
74
0
42
1e-07
43
1e-07
40
0
40
0
40
0
40
0
40
1
40
1
40
1
40
1
10
300.578969616
20
307.712195638
30
0
10
300.49115459
20
307.973612732
30
0
10
299.895488121
20
309.623010293
30
0
10
299.255271944
20
311.377528893
30
0
0
SPLINE
5
20B
100
AcDbEntity
8
Logo
6
ByLayer
62
7
370
-1
100
AcDbSpline
210
0
220
0
230
1
70
8
71
3
72
8
73
4
74
0
42
1e-07
43
1e-07
40
0
40
0
40
0
40
0
40
1
40
1
40
1
40
1
10
299.255271944
20
311.377528893
30
0
10
298.615055201
20
313.132047493
30
0
10
298.091150453
20
314.59374667
30
0
10
298.091034771
20
314.625744383
30
0
0
SPLINE
5
20C
100
AcDbEntity
8
Logo
6
ByLayer
62
7
370
-1
100
AcDbSpline
210
0
220
0
230
1
70
8
71
3
72
8
73
4
74
0
42
1e-07
43
1e-07
40
0
40
0
40
0
40
0
40
1
40
1
40
1
40
1
10
298.091034771
20
314.625744383
30
0
10
298.090367545
20
314.820895955
30
0
10
301.014506381
20
315.889833802
30
0
10
301.140498101
20
315.740501335
30
0
0
SPLINE
5
20D
100
AcDbEntity
8
Logo
6
ByLayer
62
7
370
-1
100
AcDbSpline
210
0
220
0
230
1
70
8
71
3
72
8
73
4
74
0
42
1e-07
43
1e-07
40
0
40
0
40
0
40
0
40
1
40
1
40
1
40
1
10
301.140498101
20
315.740501335
30
0
10
301.352433843
20
315.489275912
30
0
10
301.631042117
20
314.834438747
30
0
10
301.891364044
20
313.975672552
30
0
0
SPLINE
5
20E
100
AcDbEntity
8
Logo
6
ByLayer
62
7
370
-1
100
AcDbSpline
210
0
220
0
230
1
70
8
71
3
72
8
73
4
74
0
42
1e-07
43
1e-07
40
0
40
0
40
0
40
0
40
1
40
1
40
1
40
1
10
301.891364044
20
313.975672552
30
0
10
302.05869549
20
313.423667098
30
0
10
302.239988052
20
312.927642439
30
0
10
302.294236719
20
312.873393772
30
0
0
SPLINE
5
20F
100
AcDbEntity
8
Logo
6
ByLayer
62
7
370
-1
100
AcDbSpline
210
0
220
0
230
1
70
8
71
3
72
8
73
4
74
0
42
1e-07
43
1e-07
40
0
40
0
40
0
40
0
40
1
40
1
40
1
40
1
10
302.294236719
20
312.873393772
30
0
10
302.348485668
20
312.819144823
30
0
10
302.559781902
20
312.312769535
30
0
10
302.763794936
20
311.748125254
30
0
0
SPLINE
5
210
100
AcDbEntity
8
Logo
6
ByLayer
62
7
370
-1
100
AcDbSpline
210
0
220
0
230
1
70
8
71
3
72
8
73
4
74
0
42
1e-07
43
1e-07
40
0
40
0
40
0
40
0
40
1
40
1
40
1
40
1
10
302.763794936
20
311.748125254
30
0
10
303.450589651
20
309.847247995
30
0
10
303.619110168
20
309.395286271
30
0
10
303.882446632
20
308.747930295
30
0
0
SPLINE
5
211
100
AcDbEntity
8
Logo
6
ByLayer
62
7
370
-1
100
AcDbSpline
210
0
220
0
230
1
70
8
71
3
72
8
73
4
74
0
42
1e-07
43
1e-07
40
0
40
0
40
0
40
0
40
1
40
1
40
1
40
1
10
303.882446632
20
308.747930295
30
0
10
304.135960253
20
308.12474917
30
0
10
304.308032425
20
307.65573005
30
0
10
305.080677823
20
305.482021014
30
0
0
SPLINE
5
212
100
AcDbEntity
8
Logo
6
ByLayer
62
7
370
-1
100
AcDbSpline
210
0
220
0
230
1
70
8
71
3
72
8
73
4
74
0
42
1e-07
43
1e-07
40
0
40
0
40
0
40
0
40
1
40
1
40
1
40
1
10
305.080677823
20
305.482021014
30
0
10
305.279713674
20
304.922050708
30
0
10
305.479211124
20
304.427617888
30
0
10
305.523998419
20
304.383277485
30
0
0
SPLINE
5
213
100
AcDbEntity
8
Logo
6
ByLayer
62
7
370
-1
100
AcDbSpline
210
0
220
0
230
1
70
8
71
3
72
8
73
4
74
0
42
1e-07
43
1e-07
40
0
40
0
40
0
40
0
40
1
40
1
40
1
40
1
10
305.523998419
20
304.383277485
30
0
10
305.568562834
20
304.33871307
30
0
10
305.753996779
20
303.879752686
30
0
10
305.935565396
20
303.362857063
30
0
0
SPLINE
5
214
100
AcDbEntity
8
Logo
6
ByLayer
62
7
370
-1
100
AcDbSpline
210
0
220
0
230
1
70
8
71
3
72
8
73
4
74
0
42
1e-07
43
1e-07
40
0
40
0
40
0
40
0
40
1
40
1
40
1
40
1
10
305.935565396
20
303.362857063
30
0
10
306.117142215
20
302.845969643
30
0
10
306.479393584
20
301.861182594
30
0
10
306.740563757
20
301.174436528
30
0
0
SPLINE
5
215
100
AcDbEntity
8
Logo
6
ByLayer
62
7
370
-1
100
AcDbSpline
210
0
220
0
230
1
70
8
71
3
72
8
73
4
74
0
42
1e-07
43
1e-07
40
0
40
0
40
0
40
0
40
1
40
1
40
1
40
1
10
306.740563757
20
301.174436528
30
0
10
307.001741283
20
300.487698382
30
0
10
307.368726591
20
299.507645272
30
0
10
307.556090372
20
298.996544814
30
0
0
SPLINE
5
216
100
AcDbEntity
8
Logo
6
ByLayer
62
7
370
-1
100
AcDbSpline
210
0
220
0
230
1
70
8
71
3
72
8
73
4
74
0
42
1e-07
43
1e-07
40
0
40
0
40
0
40
0
40
1
40
1
40
1
40
1
10
307.556090372
20
298.996544814
30
0
10
307.743462638
20
298.485452275
30
0
10
308.090278715
20
297.566869655
30
0
10
308.326806499
20
296.955262453
30
0
0
SPLINE
5
217
100
AcDbEntity
8
Logo
6
ByLayer
62
7
370
-1
100
AcDbSpline
210
0
220
0
230
1
70
8
71
3
72
8
73
4
74
0
42
1e-07
43
1e-07
40
0
40
0
40
0
40
0
40
1
40
1
40
1
40
1
10
308.326806499
20
296.955262453
30
0
10
308.563326647
20
296.343647048
30
0
10
308.907732621
20
295.422652628
30
0
10
309.092142958
20
294.908598726
30
0
0
SPLINE
5
218
100
AcDbEntity
8
Logo
6
ByLayer
62
7
370
-1
100
AcDbSpline
210
0
220
0
230
1
70
8
71
3
72
8
73
4
74
0
42
1e-07
43
1e-07
40
0
40
0
40
0
40
0
40
1
40
1
40
1
40
1
10
309.092142958
20
294.908598726
30
0
10
309.276553578
20
294.394545107
30
0
10
309.518434726
20
293.758810007
30
0
10
309.629658098
20
293.495856228
30
0
0
SPLINE
5
219
100
AcDbEntity
8
Logo
6
ByLayer
62
7
370
-1
100
AcDbSpline
210
0
220
0
230
1
70
8
71
3
72
8
73
4
74
0
42
1e-07
43
1e-07
40
0
40
0
40
0
40
0
40
1
40
1
40
1
40
1
10
309.629658098
20
293.495856228
30
0
10
309.841223315
20
292.995661336
30
0
10
309.805576082
20
292.917415163
30
0
10
309.225221586
20
292.608077725
30
0
0
LWPOLYLINE
5
21A
100
AcDbEntity
8
Logo
6
ByLayer
62
7
370
-1
100
AcDbPolyline
90
3
70
0
43
0
10
289.30587931
20
302.442297089
10
288.926682834
20
302.442295392
10
288.976411674
20
303.155991843
0
LWPOLYLINE
5
21B
100
AcDbEntity
8
Logo
6
ByLayer
62
7
370
-1
100
AcDbPolyline
90
3
70
0
43
0
10
309.225221586
20
292.608077725
10
309.225221586
20
292.608077725
10
309.225221586
20
292.608077725
0
SPLINE
5
21C
100
AcDbEntity
8
Logo
6
ByLayer
62
7
370
-1
100
AcDbSpline
210
0
220
0
230
1
70
8
71
3
72
8
73
4
74
0
42
1e-07
43
1e-07
40
0
40
0
40
0
40
0
40
1
40
1
40
1
40
1
10
217.038469409
20
255.757842522
30
0
10
221.605369467
20
255.892142465
30
0
10
226.306601428
20
257.23535091
30
0
10
231.142178022
20
259.787474363
30
0
0
LWPOLYLINE
5
21D
100
AcDbEntity
8
Logo
6
ByLayer
62
7
370
-1
100
AcDbPolyline
90
12
70
0
43
0
10
189.435495262
20
254.951915872
10
199.912536633
20
265.428957242
10
198.099202588
20
267.242291288
10
200.01327757
20
269.15636627
10
201.826611616
20
267.343032225
10
212.60587495
20
278.122295559
10
214.419208995
20
276.308961514
10
203.639945661
20
265.52969818
10
205.554020361
20
263.61562348
10
213.814763937
20
271.876367055
10
223.485878939
20
262.205252053
10
217.038469409
20
255.757842522
0
SPLINE
5
21E
100
AcDbEntity
8
Logo
6
ByLayer
62
7
370
-1
100
AcDbSpline
210
0
220
0
230
1
70
8
71
3
72
8
73
4
74
0
42
1e-07
43
1e-07
40
0
40
0
40
0
40
0
40
1
40
1
40
1
40
1
10
232.250327202
20
256.261546078
30
0
10
226.743144265
20
253.843748306
30
0
10
221.269567851
20
252.869922262
30
0
10
215.82958014
20
253.340063701
30
0
0
LWPOLYLINE
5
21F
100
AcDbEntity
8
Logo
6
ByLayer
62
7
370
-1
100
AcDbPolyline
90
2
70
0
43
0
10
231.142178022
20
259.787474363
10
232.250327202
20
256.261546078
0
SPLINE
5
220
100
AcDbEntity
8
Logo
6
ByLayer
62
7
370
-1
100
AcDbSpline
210
0
220
0
230
1
70
8
71
3
72
8
73
4
74
0
42
1e-07
43
1e-07
40
0
40
0
40
0
40
0
40
1
40
1
40
1
40
1
10
214.217727121
20
251.123766755
30
0
10
214.620682668
20
246.019555204
30
0
10
213.747596995
20
240.848201036
30
0
10
211.598467556
20
235.609686432
30
0
0
LWPOLYLINE
5
221
100
AcDbEntity
8
Logo
6
ByLayer
62
7
370
-1
100
AcDbPolyline
90
4
70
0
43
0
10
215.82958014
20
253.340063701
10
223.183657258
20
245.985986582
10
221.269582276
20
244.0719116
10
214.217727121
20
251.123766755
0
SPLINE
5
222
100
AcDbEntity
8
Logo
6
ByLayer
62
7
370
-1
100
AcDbSpline
210
0
220
0
230
1
70
8
71
3
72
8
73
4
74
0
42
1e-07
43
1e-07
40
0
40
0
40
0
40
0
40
1
40
1
40
1
40
1
10
208.173280491
20
236.012649333
30
0
10
210.456735329
20
241.116843065
30
0
10
211.6320424
20
245.918815398
30
0
10
211.69920821
20
250.418581324
30
0
0
LWPOLYLINE
5
223
100
AcDbEntity
8
Logo
6
ByLayer
62
7
370
-1
100
AcDbPolyline
90
2
70
0
43
0
10
211.598467556
20
235.609686432
10
208.173280491
20
236.012649333
0
LWPOLYLINE
5
224
100
AcDbEntity
8
Logo
6
ByLayer
62
7
370
-1
100
AcDbPolyline
90
7
70
0
43
0
10
211.69920821
20
250.418581324
10
205.050316805
20
243.769689919
10
195.379201802
20
253.440804921
10
203.639945378
20
261.701548497
10
201.725870678
20
263.615623197
10
191.248829308
20
253.138581826
10
189.435495262
20
254.951915872
0
LWPOLYLINE
5
225
100
AcDbEntity
8
Logo
6
ByLayer
62
7
370
-1
100
AcDbPolyline
90
5
70
0
43
0
10
201.322907211
20
251.526729656
10
207.568835715
20
257.77265816
10
205.453279423
20
259.888214452
10
199.207350919
20
253.642285948
10
201.322907211
20
251.526729656
0
LWPOLYLINE
5
226
100
AcDbEntity
8
Logo
6
ByLayer
62
7
370
-1
100
AcDbPolyline
90
5
70
0
43
0
10
207.367354406
20
261.802289434
10
209.482910698
20
259.686733143
10
215.728838636
20
265.932661081
10
213.613282345
20
268.048217373
10
207.367354406
20
261.802289434
0
LWPOLYLINE
5
227
100
AcDbEntity
8
Logo
6
ByLayer
62
7
370
-1
100
AcDbPolyline
90
5
70
0
43
0
10
205.251797831
20
247.597839036
10
211.497726335
20
253.84376754
10
209.382169761
20
255.959324114
10
203.136241257
20
249.71339561
10
205.251797831
20
247.597839036
0
SPLINE
5
228
100
AcDbEntity
8
Logo
6
ByLayer
62
7
370
-1
100
AcDbSpline
210
0
220
0
230
1
70
8
71
3
72
8
73
4
74
0
42
1e-07
43
1e-07
40
0
40
0
40
0
40
0
40
1
40
1
40
1
40
1
10
224.392547376
20
293.737117385
30
0
10
226.608849979
20
293.266960106
30
0
10
228.690822659
20
292.528193892
30
0
10
230.638478426
20
291.520823267
30
0
0
LWPOLYLINE
5
229
100
AcDbEntity
8
Logo
6
ByLayer
62
7
370
-1
100
AcDbPolyline
90
5
70
0
43
0
10
211.296244743
20
257.873399097
10
213.411801318
20
255.757842522
10
219.657729257
20
262.003770461
10
217.542172682
20
264.119327036
10
211.296244743
20
257.873399097
0
SPLINE
5
22A
100
AcDbEntity
8
Logo
6
ByLayer
62
7
370
-1
100
AcDbSpline
210
0
220
0
230
1
70
8
71
3
72
8
73
4
74
0
42
1e-07
43
1e-07
40
0
40
0
40
0
40
0
40
1
40
1
40
1
40
1
10
228.422178085
20
285.476373527
30
0
10
229.89971504
20
283.998820733
30
0
10
231.209341852
20
282.622029524
30
0
10
232.351070402
20
281.34600386
30
0
0
LWPOLYLINE
5
22B
100
AcDbEntity
8
Logo
6
ByLayer
62
7
370
-1
100
AcDbPolyline
90
4
70
0
43
0
10
230.638478426
20
291.520823267
10
240.309591448
20
301.19193629
10
242.223666148
20
299.27786159
10
228.422178085
20
285.476373527
0
SPLINE
5
22C
100
AcDbEntity
8
Logo
6
ByLayer
62
7
370
-1
100
AcDbSpline
210
0
220
0
230
1
70
8
71
3
72
8
73
4
74
0
42
1e-07
43
1e-07
40
0
40
0
40
0
40
0
40
1
40
1
40
1
40
1
10
243.734778513
20
292.729711971
30
0
10
250.04784822
20
286.41659418
30
0
10
253.540191478
20
282.386967997
30
0
10
254.211814227
20
280.640811641
30
0
0
SPLINE
5
22D
100
AcDbEntity
8
Logo
6
ByLayer
62
7
370
-1
100
AcDbSpline
210
0
220
0
230
1
70
8
71
3
72
8
73
4
74
0
42
1e-07
43
1e-07
40
0
40
0
40
0
40
0
40
1
40
1
40
1
40
1
10
254.211814227
20
280.640811641
30
0
10
254.883402468
20
278.894626436
30
0
10
254.413273757
20
277.215608172
30
0
10
252.801443931
20
275.603773255
30
0
0
SPLINE
5
22E
100
AcDbEntity
8
Logo
6
ByLayer
62
7
370
-1
100
AcDbSpline
210
0
220
0
230
1
70
8
71
3
72
8
73
4
74
0
42
1e-07
43
1e-07
40
0
40
0
40
0
40
0
40
1
40
1
40
1
40
1
10
252.801443931
20
275.603773255
30
0
10
251.928337045
20
274.73067146
30
0
10
250.78661104
20
273.723266328
30
0
10
249.376257715
20
272.581550789
30
0
0
LWPOLYLINE
5
22F
100
AcDbEntity
8
Logo
6
ByLayer
62
7
370
-1
100
AcDbPolyline
90
2
70
0
43
0
10
232.351070402
20
281.34600386
10
243.734778513
20
292.729711971
0
SPLINE
5
230
100
AcDbEntity
8
Logo
6
ByLayer
62
7
370
-1
100
AcDbSpline
210
0
220
0
230
1
70
8
71
3
72
8
73
4
74
0
42
1e-07
43
1e-07
40
0
40
0
40
0
40
0
40
1
40
1
40
1
40
1
10
247.059218134
20
274.294143048
30
0
10
248.469573439
20
275.435857173
30
0
10
249.611308212
20
276.443269376
30
0
10
250.484404633
20
277.316365797
30
0
0
SPLINE
5
231
100
AcDbEntity
8
Logo
6
ByLayer
62
7
370
-1
100
AcDbSpline
210
0
220
0
230
1
70
8
71
3
72
8
73
4
74
0
42
1e-07
43
1e-07
40
0
40
0
40
0
40
0
40
1
40
1
40
1
40
1
10
250.484404633
20
277.316365797
30
0
10
251.290312616
20
278.122273781
30
0
10
251.458220212
20
279.028947874
30
0
10
250.988112148
20
280.036370542
30
0
0
SPLINE
5
232
100
AcDbEntity
8
Logo
6
ByLayer
62
7
370
-1
100
AcDbSpline
210
0
220
0
230
1
70
8
71
3
72
8
73
4
74
0
42
1e-07
43
1e-07
40
0
40
0
40
0
40
0
40
1
40
1
40
1
40
1
10
250.988112148
20
280.036370542
30
0
10
250.517969295
20
281.17807703
30
0
10
248.066610538
20
284.099553751
30
0
10
243.63403503
20
288.800818522
30
0
0
LWPOLYLINE
5
233
100
AcDbEntity
8
Logo
6
ByLayer
62
7
370
-1
100
AcDbPolyline
90
2
70
0
43
0
10
249.376257715
20
272.581550789
10
247.059218134
20
274.294143048
0
SPLINE
5
234
100
AcDbEntity
8
Logo
6
ByLayer
62
7
370
-1
100
AcDbSpline
210
0
220
0
230
1
70
8
71
3
72
8
73
4
74
0
42
1e-07
43
1e-07
40
0
40
0
40
0
40
0
40
1
40
1
40
1
40
1
10
234.063660399
20
279.230443891
30
0
10
238.89921097
20
273.723266328
30
0
10
240.309581832
20
267.678827619
30
0
10
238.294774114
20
261.097103438
30
0
0
LWPOLYLINE
5
235
100
AcDbEntity
8
Logo
6
ByLayer
62
7
370
-1
100
AcDbPolyline
90
2
70
0
43
0
10
243.63403503
20
288.800818522
10
234.063660399
20
279.230443891
0
SPLINE
5
236
100
AcDbEntity
8
Logo
6
ByLayer
62
7
370
-1
100
AcDbSpline
210
0
220
0
230
1
70
8
71
3
72
8
73
4
74
0
42
1e-07
43
1e-07
40
0
40
0
40
0
40
0
40
1
40
1
40
1
40
1
10
235.373291737
20
261.802289152
30
0
10
236.447856174
20
265.160310123
30
0
10
236.380695737
20
268.518333074
30
0
10
235.171809862
20
271.876367621
30
0
0
SPLINE
5
237
100
AcDbEntity
8
Logo
6
ByLayer
62
7
370
-1
100
AcDbSpline
210
0
220
0
230
1
70
8
71
3
72
8
73
4
74
0
42
1e-07
43
1e-07
40
0
40
0
40
0
40
0
40
1
40
1
40
1
40
1
10
235.171809862
20
271.876367621
30
0
10
234.030083292
20
274.898579056
30
0
10
231.108598086
20
278.760300755
30
0
10
226.407359902
20
283.461555344
30
0
0
LWPOLYLINE
5
238
100
AcDbEntity
8
Logo
6
ByLayer
62
7
370
-1
100
AcDbPolyline
90
2
70
0
43
0
10
238.294774114
20
261.097103438
10
235.373291737
20
261.802289152
0
SPLINE
5
239
100
AcDbEntity
8
Logo
6
ByLayer
62
7
370
-1
100
AcDbSpline
210
0
220
0
230
1
70
8
71
3
72
8
73
4
74
0
42
1e-07
43
1e-07
40
0
40
0
40
0
40
0
40
1
40
1
40
1
40
1
10
228.220697907
20
289.103042749
30
0
10
226.541688129
20
289.976096743
30
0
10
224.829097567
20
290.61412202
30
0
10
223.082914624
20
291.017113772
30
0
0
LWPOLYLINE
5
23A
100
AcDbEntity
8
Logo
6
ByLayer
62
7
370
-1
100
AcDbPolyline
90
4
70
0
43
0
10
226.407359902
20
283.461555344
10
219.758469911
20
276.812665353
10
217.844395211
20
278.726740053
10
228.220697907
20
289.103042749
0
LWPOLYLINE
5
23B
100
AcDbEntity
8
Logo
6
ByLayer
62
7
370
-1
100
AcDbPolyline
90
2
70
0
43
0
10
223.082914624
20
291.017113772
10
224.392547376
20
293.737117385
0
LINE
5
23C
100
AcDbEntity
8
BoardLayout
6
ByLayer
62
256
370
-1
100
AcDbLine
10
73.5
20
58.5
11
111.6
21
58.5
0
LINE
5
23D
100
AcDbEntity
8
BoardLayout
6
ByLayer
62
256
370
-1
100
AcDbLine
10
111.6
20
58.5
11
149.7
21
58.5
0
LINE
5
23E
100
AcDbEntity
8
BoardLayout
6
ByLayer
62
256
370
-1
100
AcDbLine
10
187.8
20
58.5
11
225.9
21
58.5
0
LINE
5
23F
100
AcDbEntity
8
BoardLayout
6
ByLayer
62
256
370
-1
100
AcDbLine
10
302.1
20
58.5
11
340.2
21
58.5
0
LINE
5
240
100
AcDbEntity
8
BoardLayout
6
ByLayer
62
256
370
-1
100
AcDbLine
10
378.3
20
58.5
11
416.4
21
58.5
0
LINE
5
241
100
AcDbEntity
8
BoardLayout
6
ByLayer
62
256
370
-1
100
AcDbLine
10
431.4
20
73.5
11
431.4
21
111.6
0
LINE
5
242
100
AcDbEntity
8
BoardLayout
6
ByLayer
62
256
370
-1
100
AcDbLine
10
431.4
20
378.3
11
431.4
21
416.4
0
LINE
5
243
100
AcDbEntity
8
BoardLayout
6
ByLayer
62
256
370
-1
100
AcDbLine
10
416.4
20
431.4
11
378.3
21
431.4
0
LINE
5
244
100
AcDbEntity
8
BoardLayout
6
ByLayer
62
256
370
-1
100
AcDbLine
10
378.3
20
431.4
11
340.2
21
431.4
0
LINE
5
245
100
AcDbEntity
8
BoardLayout
6
ByLayer
62
256
370
-1
100
AcDbLine
10
302.1
20
431.4
11
264
21
431.4
0
LINE
5
246
100
AcDbEntity
8
BoardLayout
6
ByLayer
62
256
370
-1
100
AcDbLine
10
187.8
20
431.4
11
149.7
21
431.4
0
LINE
5
247
100
AcDbEntity
8
BoardLayout
6
ByLayer
62
256
370
-1
100
AcDbLine
10
111.6
20
431.4
11
73.5
21
431.4
0
LINE
5
248
100
AcDbEntity
8
BoardLayout
6
ByLayer
62
256
370
-1
100
AcDbLine
10
58.5
20
416.4
11
58.5
21
378.3
0
LINE
5
249
100
AcDbEntity
8
BoardLayout
6
ByLayer
62
256
370
-1
100
AcDbLine
10
58.5
20
378.3
11
58.5
21
340.2
0
LINE
5
24A
100
AcDbEntity
8
BoardLayout
6
ByLayer
62
256
370
-1
100
AcDbLine
10
58.5
20
302.1
11
58.5
21
264
0
LINE
5
24B
100
AcDbEntity
8
BoardLayout
6
ByLayer
62
256
370
-1
100
AcDbLine
10
58.5
20
187.8
11
58.5
21
149.7
0
LINE
5
24C
100
AcDbEntity
8
BoardLayout
6
ByLayer
62
256
370
-1
100
AcDbLine
10
58.5
20
111.6
11
58.5
21
73.5
0
LINE
5
24D
100
AcDbEntity
8
BoardLayout
6
ByLayer
62
256
370
-1
100
AcDbLine
10
431.4
20
187.8
11
431.4
21
149.7
0
LINE
5
24E
100
AcDbEntity
8
BoardLayout
6
ByLayer
62
256
370
-1
100
AcDbLine
10
431.4
20
378.3
11
431.4
21
340.2
0
LINE
5
24F
100
AcDbEntity
8
BoardLayout
6
ByLayer
62
256
370
-1
100
AcDbLine
10
431.4
20
264
11
431.4
21
302.1
0
LINE
5
250
100
AcDbEntity
8
BoardLayout
6
ByLayer
62
256
370
-1
100
AcDbLine
10
225.9
20
431.4
11
187.8
21
431.4
0
LINE
5
251
100
AcDbEntity
8
BoardLayout
6
ByLayer
62
256
370
-1
100
AcDbLine
10
58.5
20
225.9
11
58.5
21
187.8
0
ARC
5
252
100
AcDbEntity
8
BoardOuter
6
ByLayer
62
256
370
-1
100
AcDbCircle
10
10
20
480
40
10
100
AcDbArc
50
90
51
180
0
LINE
5
253
100
AcDbEntity
8
BoardOuter
6
ByLayer
62
256
370
-1
100
AcDbLine
10
0
20
10
11
0
21
480
0
ARC
5
254
100
AcDbEntity
8
BoardOuter
6
ByLayer
62
256
370
-1
100
AcDbCircle
10
10
20
10
40
10
100
AcDbArc
50
180
51
270
0
LINE
5
255
100
AcDbEntity
8
BoardOuter
6
ByLayer
62
256
370
-1
100
AcDbLine
10
480
20
0
11
10
21
0
0
ARC
5
256
100
AcDbEntity
8
BoardOuter
6
ByLayer
62
256
370
-1
100
AcDbCircle
10
480
20
10
40
10
100
AcDbArc
50
270
51
0
0
LINE
5
257
100
AcDbEntity
8
BoardOuter
6
ByLayer
62
256
370
-1
100
AcDbLine
10
490
20
480
11
490
21
10
0
LINE
5
258
100
AcDbEntity
8
BoardOuter
6
ByLayer
62
256
370
-1
100
AcDbLine
10
10
20
490
11
480
21
490
0
ARC
5
259
100
AcDbEntity
8
BoardOuter
6
ByLayer
62
256
370
-1
100
AcDbCircle
10
480
20
480
40
10
100
AcDbArc
50
0
51
90
0
LINE
5
25A
100
AcDbEntity
8
CentreGuide
6
ByLayer
62
256
370
-1
100
AcDbLine
10
73.5
20
244.95
11
416.4
21
244.95
0
LINE
5
25B
100
AcDbEntity
8
CentreGuide
6
ByLayer
62
256
370
-1
100
AcDbLine
10
244.95
20
416.4
11
244.95
21
73.5
0
ENDSEC
0
SECTION
2
OBJECTS
0
DICTIONARY
5
C
330
0
100
AcDbDictionary
281
1
3
ACAD_GROUP
350
D
0
DICTIONARY
5
D
330
C
100
AcDbDictionary
281
1
0
ENDSEC
0
EOF
