<?xml version="1.0" encoding="UTF-8" standalone="no"?>
<!-- Created with Inkscape (http://www.inkscape.org/) -->

<svg
   xmlns:dc="http://purl.org/dc/elements/1.1/"
   xmlns:cc="http://creativecommons.org/ns#"
   xmlns:rdf="http://www.w3.org/1999/02/22-rdf-syntax-ns#"
   xmlns:svg="http://www.w3.org/2000/svg"
   xmlns="http://www.w3.org/2000/svg"
   xmlns:sodipodi="http://sodipodi.sourceforge.net/DTD/sodipodi-0.dtd"
   xmlns:inkscape="http://www.inkscape.org/namespaces/inkscape"
   id="svg4265"
   version="1.1"
   inkscape:version="0.48.4 r9939"
   width="1765.4545"
   height="631.26666"
   sodipodi:docname="touhou_monopoly_logo.svg">
  <metadata
     id="metadata4271">
    <rdf:RDF>
      <cc:Work
         rdf:about="">
        <dc:format>image/svg+xml</dc:format>
        <dc:type
           rdf:resource="http://purl.org/dc/dcmitype/StillImage" />
        <dc:title></dc:title>
      </cc:Work>
    </rdf:RDF>
  </metadata>
  <defs
     id="defs4269" />
  <sodipodi:namedview
     pagecolor="#ffffff"
     bordercolor="#666666"
     borderopacity="1"
     objecttolerance="10"
     gridtolerance="10"
     guidetolerance="10"
     inkscape:pageopacity="0"
     inkscape:pageshadow="2"
     inkscape:window-width="1916"
     inkscape:window-height="1041"
     id="namedview4267"
     showgrid="false"
     inkscape:zoom="0.88687499"
     inkscape:cx="882.72728"
     inkscape:cy="315.63334"
     inkscape:window-x="0"
     inkscape:window-y="18"
     inkscape:window-maximized="0"
     inkscape:current-layer="layer1"
     fit-margin-top="10"
     fit-margin-left="10"
     fit-margin-right="10"
     fit-margin-bottom="10" />
  <g
     inkscape:groupmode="layer"
     id="layer2"
     inkscape:label="monopoly"
     style="display:inline"
     transform="translate(-11.192891,37.405519)">
    <path
       style="fill:#000000"
       d="m 21.192891,410.5657 0,-173.29546 872.727289,0 872.72722,0 0,173.29546 0,173.29545 -872.72722,0 -872.727289,0 0,-173.29545 z m 1729.545409,0 0,-159.65909 -856.24992,0 -856.25004,0 0,159.65909 0,159.65909 856.25004,0 856.24992,0 0,-159.65909 z"
       id="path4275"
       inkscape:connector-curvature="0" />
    <path
       style="fill:#000000"
       d="m 119.32169,506.88711 -9.25756,-1.72631 0.54738,-9.22938 c 0.30106,-5.07614 2.29367,-22.88758 4.42802,-39.58095 2.13434,-16.69338 3.8704,-32.28997 3.85791,-34.65909 -0.0125,-2.36913 1.76661,-19.39273 3.95359,-37.83023 2.18697,-18.4375 4.8312,-41.63833 5.87607,-51.5574 1.04487,-9.91907 2.21537,-19.57787 2.60113,-21.46399 l 0.70137,-3.42931 3.22158,4.64875 c 1.77187,2.5568 4.06372,6.17161 5.09301,8.0329 1.02928,1.8613 4.17256,7.03464 6.98506,11.49632 2.8125,4.46169 5.90758,9.53704 6.87795,11.27857 0.97036,1.74153 3.65502,5.79816 5.9659,9.01474 2.31088,3.21657 4.20161,6.16189 4.20161,6.54514 0,0.60951 5.08429,8.68684 12.00621,19.07405 2.40911,3.61518 4.22768,6.55307 11.78205,19.03395 2.77104,4.57816 5.96706,9.32087 7.10227,10.53937 1.13521,1.21851 2.06401,2.5899 2.06401,3.04754 0,1.0589 10.84999,18.62386 14.37924,23.27845 1.46642,1.934 2.66622,3.88732 2.66622,4.34072 0,0.45338 1.65477,3.21762 3.67727,6.14272 2.0225,2.92512 4.45148,6.85248 5.39773,8.72748 0.94625,1.875 2.1887,3.40909 2.76102,3.40909 1.18695,0 8.42846,-9.63543 8.54308,-11.36727 0.0415,-0.627 1.8927,-3.69518 4.11379,-6.81818 2.22109,-3.123 5.12423,-7.85148 6.45142,-10.50773 1.3272,-2.65625 2.77176,-4.82955 3.21015,-4.82955 0.4384,0 1.47575,-1.66193 2.30525,-3.69318 0.82949,-2.03125 3.19266,-6.05539 5.2515,-8.94253 2.05883,-2.88714 3.74333,-5.63113 3.74333,-6.09775 0,-0.46663 1.72556,-3.21805 3.83458,-6.11429 2.10902,-2.89623 4.87164,-7.31134 6.13915,-9.81134 1.2675,-2.5 3.37717,-5.77426 4.68815,-7.27614 1.31096,-1.50188 2.38358,-3.38297 2.38358,-4.1802 0,-0.79722 0.67219,-2.12523 1.49377,-2.95112 0.82157,-0.8259 3.6413,-5.08117 6.26607,-9.45617 2.62477,-4.375 7.57756,-12.50483 11.00622,-18.06628 3.42866,-5.56145 6.23394,-10.3509 6.23394,-10.64321 0,-0.29231 1.78977,-2.96963 3.97727,-5.9496 2.1875,-2.97998 3.97727,-5.79895 3.97727,-6.2644 0,-0.46544 2.04546,-3.84285 4.54546,-7.50535 2.5,-3.6625 4.5894,-7.30408 4.64312,-8.0924 0.3096,-4.54322 2.32434,7.44247 3.2929,19.58942 0.62294,7.8125 2.67145,25.45454 4.55226,39.20454 1.88081,13.75 3.3985,26.5341 3.37267,28.4091 -0.0258,1.875 2.00506,19.77272 4.51311,39.77272 2.50805,20 5.11883,41.47728 5.80174,47.72728 0.68291,6.25 1.52542,13.94287 1.87226,17.09527 l 0.63063,5.73163 -14.95599,2.11763 c -8.9452,1.26656 -15.36602,1.70324 -15.97623,1.08655 -0.56113,-0.5671 -1.32808,-5.12199 -1.70432,-10.12199 -0.37625,-5 -2.44079,-22.38637 -4.58788,-38.63637 -2.1471,-16.25 -4.77385,-36.85885 -5.83724,-45.79743 -1.06339,-8.9386 -2.2781,-16.465 -2.69936,-16.72536 -0.76391,-0.47212 -7.91767,8.79367 -7.91767,10.25521 0,0.42349 -2.04546,3.68597 -4.54546,7.24996 -2.5,3.564 -4.54545,7.06045 -4.54545,7.76992 0,0.70945 -0.66186,1.96565 -1.4708,2.79153 -0.80893,0.8259 -3.47094,4.82549 -5.91557,8.88799 -2.44462,4.0625 -5.07313,8.02859 -5.84112,8.81355 -0.768,0.78495 -1.74659,2.53068 -2.17466,3.87942 -0.42808,1.34872 -2.60798,4.99899 -4.84423,8.11168 -2.23626,3.1127 -4.85985,7.08435 -5.83023,8.82587 -4.13054,7.41312 -11.95936,19.91631 -13.33871,21.30292 -0.82158,0.82589 -1.49377,2.19562 -1.49377,3.04383 0,0.84822 -0.64011,2.21795 -1.42246,3.04383 -2.00343,2.11493 -7.66334,10.9344 -7.69373,11.98863 -0.0139,0.48215 -0.9373,2.0621 -2.05201,3.511 l -2.02676,2.63437 -2.18366,-4.05483 c -1.20102,-2.23014 -2.54428,-4.05481 -2.98504,-4.05481 -0.44075,0 -1.13729,-1.0584 -1.54787,-2.35199 -0.6505,-2.04957 -9.61104,-16.17173 -14.8731,-23.44061 -0.99424,-1.37342 -2.65114,-4.02443 -3.682,-5.89112 -3.85833,-6.98673 -10.68073,-17.76957 -11.61408,-18.35611 -0.53213,-0.3344 -1.76558,-2.37986 -2.741,-4.54546 -0.97542,-2.16559 -3.51813,-6.23858 -5.65045,-9.05108 -2.13233,-2.8125 -3.91091,-5.65642 -3.9524,-6.31982 -0.0415,-0.66339 -0.99594,-2.19749 -2.121,-3.40909 -1.12505,-1.2116 -3.04267,-3.9829 -4.26136,-6.15844 -1.2187,-2.17555 -3.87774,-6.38906 -5.90899,-9.36335 -2.03125,-2.97429 -3.69319,-5.81589 -3.69319,-6.31466 0,-0.49877 -1.48678,-2.67731 -3.30396,-4.8412 l -3.30397,-3.93435 -0.65442,2.84091 c -1.28263,5.56804 -6.37401,45.06968 -6.37401,49.45298 0,4.16274 -6.14437,51.42562 -7.42079,57.08111 -0.50408,2.23347 -1.25694,2.54115 -5.95313,2.43295 -2.95684,-0.0681 -9.54198,-0.90071 -14.63364,-1.85017 l 0,0 z"
       id="path4277"
       inkscape:connector-curvature="0" />
    <path
       style="fill:#000000"
       d="m 443.35198,507.60283 c -12.96666,-2.9383 -28.57565,-9.13421 -34.52825,-13.7058 -1.49054,-1.14473 -3.38274,-2.08133 -4.2049,-2.08133 -0.82216,0 -1.90376,-0.63921 -2.40357,-1.42046 -0.4998,-0.78125 -3.72124,-3.79559 -7.15874,-6.69854 -6.76052,-5.70922 -8.2769,-7.22996 -13.78376,-13.82333 -5.9817,-7.16192 -12.84123,-20.57498 -17.6762,-34.56389 -2.6646,-7.70941 -3.1148,-11.0574 -3.53463,-26.28532 -0.53952,-19.56929 0.47308,-25.69042 6.99256,-42.2699 5.11248,-13.00141 12.84524,-24.68583 22.78593,-34.4302 8.56722,-8.39802 22.93309,-18.91745 25.83464,-18.91745 0.90981,0 2.13999,-0.42778 2.73374,-0.95062 5.29593,-4.66342 26.94137,-9.45993 43.69318,-9.68217 16.45942,-0.21836 37.25182,4.01162 44.85512,9.12526 1.23281,0.82914 2.90571,1.50753 3.71755,1.50753 1.50643,0 9.8737,5.09721 12.58804,7.66845 0.82589,0.78235 1.91724,1.42245 2.42523,1.42245 1.35133,0 21.64133,20.35488 21.64133,21.71053 0,0.63251 1.47696,3.03764 3.28213,5.34474 11.68755,14.93734 18.75611,48.61445 14.89311,70.9561 -0.62139,3.59375 -1.59991,9.25795 -2.17451,12.58711 -0.5746,3.32917 -2.62006,9.38722 -4.54546,13.46233 -1.92539,4.0751 -3.50072,7.96244 -3.50072,8.63852 0,0.6761 -0.64177,1.90498 -1.42615,2.73087 -0.78438,0.8259 -3.46904,4.50499 -5.96591,8.17576 -2.49686,3.67077 -5.69033,7.5796 -7.09658,8.68627 -1.40625,1.10667 -2.55682,2.51893 -2.55682,3.13835 0,0.61942 -1.15057,1.89384 -2.55682,2.83206 -1.40625,0.93822 -4.09091,3.06583 -5.96591,4.72802 -5.27483,4.67616 -19.07704,13.03354 -25.77605,15.60764 -15.24735,5.85883 -25.51846,7.7704 -41.11094,7.65119 -8.21215,-0.0628 -16.97664,-0.57766 -19.47664,-1.14417 z m 39.96449,-26.12387 c 6.0755,-1.44293 11.958,-3.68318 14.91942,-5.68182 2.68901,-1.8148 5.30695,-3.29963 5.81763,-3.29963 1.02263,0 13.837,-12.49968 18.17062,-17.72438 1.50468,-1.81409 4.75389,-7.55721 7.22046,-12.76249 3.66378,-7.73175 4.80921,-11.88107 6.25754,-22.66791 1.61513,-12.02909 1.61066,-14.45033 -0.0503,-27.21579 -1.47073,-11.30353 -2.49524,-15.25292 -5.30014,-20.43162 -1.91231,-3.53077 -3.47695,-6.97357 -3.47695,-7.65066 0,-0.67709 -1.77997,-3.27094 -3.95548,-5.76411 -2.1755,-2.49317 -3.96527,-4.90603 -3.97727,-5.3619 -0.0299,-1.1343 -8.96827,-9.28579 -14.87073,-13.56152 -5.76909,-4.17911 -17.80255,-9.3007 -25.96596,-11.05143 -7.59806,-1.6295 -22.19499,-1.6168 -29.85493,0.026 -7.67189,1.64532 -22.52607,7.89412 -27.02935,11.37059 -4.98411,3.84767 -15.93719,14.60143 -15.93719,15.64717 0,0.48703 -1.28447,2.37129 -2.85437,4.18725 -1.5699,1.81597 -5.01301,8.67107 -7.65136,15.23357 l -4.79703,11.93178 -0.0137,18.75 c -0.0124,17.01727 0.23342,19.38008 2.66027,25.56818 1.47068,3.75 3.40545,8.79999 4.2995,11.22219 4.0067,10.85514 18.16063,26.22882 30.50184,33.13043 14.95474,8.36315 36.4812,10.71508 55.88746,6.1061 l 0,0 z"
       id="path4279"
       inkscape:connector-curvature="0" />
    <path
       style="fill:#000000"
       d="m 599.60198,407.07979 0,-101.82466 33.23863,32.99547 c 80.46366,79.87499 97.68235,96.74691 98.73532,96.74691 0.73241,0 0.83816,-21.83459 0.30546,-63.06818 -0.44814,-34.6875 -0.53605,-63.06818 -0.19535,-63.06818 0.34068,0 4.63897,-0.72162 9.55177,-1.6036 4.91279,-0.88197 11.87269,-1.90917 15.46644,-2.28265 l 6.53413,-0.67906 0,101.76819 0,101.76818 -49.81447,-49.76962 c -58.84454,-58.79161 -80.86169,-80.26774 -81.56687,-79.56256 -0.28386,0.28386 -0.83686,28.70036 -1.22891,63.14778 -0.63565,55.85292 -0.90809,62.68692 -2.5172,63.14211 -0.99242,0.28075 -6.66236,1.0752 -12.59986,1.76545 -5.9375,0.69025 -11.94602,1.50117 -13.35227,1.80204 l -2.55682,0.54704 0,-101.82466 z"
       id="path4281"
       inkscape:connector-curvature="0" />
    <path
       style="fill:#000000"
       d="m 880.97768,515.56184 c -3.6809,-0.53719 -10.3286,-2.05601 -14.7727,-3.37513 -4.4442,-1.31914 -9.3411,-2.68773 -10.8822,-3.04132 -1.541,-0.35359 -5.718,-2.35197 -9.2821,-4.44084 -3.5641,-2.08887 -6.9969,-3.79794 -7.6283,-3.79794 -0.6314,0 -1.8238,-0.6497 -2.6497,-1.44375 -0.8259,-0.79407 -4.0652,-3.30556 -7.1985,-5.58112 -16.859,-12.24386 -31.7979,-34.39356 -37.6416,-55.81066 -3.8554,-14.12995 -4.8919,-36.35451 -2.2638,-48.54172 3.8666,-17.93119 8.7312,-31.43969 12.0633,-33.49908 0.6339,-0.39179 1.1526,-1.58265 1.1526,-2.64634 0,-1.0637 1.78,-3.97386 3.9555,-6.46703 2.1755,-2.49317 3.9653,-5.15424 3.9773,-5.9135 0.012,-0.75926 1.0178,-1.91352 2.2351,-2.56501 1.2173,-0.65149 3.1173,-2.71494 4.2223,-4.58544 1.1049,-1.87049 2.5766,-3.4009 3.2704,-3.4009 0.6938,0 2.5011,-1.32262 4.0163,-2.93915 7.1864,-7.667 28.8962,-19.90118 39.1186,-22.04458 18.1357,-3.80267 23.5248,-4.56172 32.3864,-4.56172 8.8615,0 14.2506,0.75905 32.3863,4.56172 6.4761,1.3579 21.5382,8.65547 29.6343,14.35787 7.5902,5.34605 23.1939,19.77671 23.2284,21.48226 0.012,0.59148 1.8018,3.11528 3.9773,5.60845 2.1755,2.49317 3.9555,5.40333 3.9555,6.46703 0,1.06369 0.5099,2.24916 1.1332,2.63436 2.0133,1.24427 6.5561,12.22332 9.6398,23.2974 11.86742,42.61727 -4.1137,90.39302 -38.6139,115.43743 -2.5,1.8148 -4.8012,3.58675 -5.1137,3.93767 -0.3125,0.35091 -2.6136,1.64376 -5.1136,2.873 -2.5,1.22924 -6.5909,3.31873 -9.0909,4.64329 -5.9887,3.17296 -22.9868,8.04517 -32.9546,9.44582 -9.2784,1.30381 -17.7848,1.27526 -27.147,-0.091 l 0,-5e-5 z m 28.3674,-27.05158 c 5.099,-0.59176 10.7683,-2.2357 15.5034,-4.49555 4.1056,-1.95946 7.7862,-3.56265 8.179,-3.56265 0.3928,0 4.0087,-2.58905 8.0353,-5.75344 24.3947,-19.17105 34.9892,-52.03309 28.0032,-86.8602 -3.6674,-18.28233 -15.4966,-36.87386 -29.6913,-46.66434 -2.1875,-1.50878 -5.0207,-3.50697 -6.296,-4.44042 -1.2753,-0.93345 -6.9003,-3.34241 -12.5,-5.35325 -9.437,-3.38882 -11.2611,-3.66021 -24.954,-3.71266 -13.325,-0.0511 -15.7597,0.26689 -24.8441,3.24432 -5.5393,1.8155 -12.5582,5.01152 -15.5976,7.10227 -3.0394,2.09074 -5.7269,3.80136 -5.9723,3.80136 -0.807,0 -10.7359,10.2706 -14.6235,15.12677 -13.9045,17.36897 -19.2805,47.08385 -13.3419,73.74504 5.2354,23.50366 21.2607,43.27514 43.0721,53.14102 11.4678,5.18718 26.8718,6.7888 45.0277,4.68173 l 0,0 z"
       id="path4283"
       inkscape:connector-curvature="0" />
    <path
       style="fill:#000000"
       d="m 1032.5565,409.54376 0,-104.0917 35.5567,0 c 37.5652,0 43.5829,0.64567 53.3987,5.72941 2.363,1.22382 4.8462,2.22514 5.5183,2.22514 1.1823,0 7.5375,4.66402 13.5802,9.96649 1.6172,1.41907 5.2855,6.02134 8.1518,10.22727 7.2086,10.5777 10.3518,22.61432 10.3058,39.46533 -0.034,12.30604 -2.6215,25.96706 -6.1778,32.61204 -3.113,5.81666 -14.8342,20.22887 -16.4518,20.22887 -0.3682,0 -2.7985,1.52537 -5.4007,3.38972 -2.6022,1.86435 -9.0778,4.7611 -14.3903,6.43721 -8.7383,2.75694 -11.7446,3.09376 -31.5341,3.53302 l -21.875,0.48556 0,35.62381 c 0,19.5931 -0.3835,35.84923 -0.8523,36.12474 -0.4687,0.2755 -7.3721,0.86854 -15.3409,1.31786 l -14.4886,0.81693 0,-104.0917 z m 76.6233,0.45375 c 3.0803,-1.5625 8.194,-5.20963 11.3636,-8.10475 4.8931,-4.46926 6.1061,-6.4419 8.0358,-13.06818 4.8037,-16.49539 1.7668,-35.14885 -7.2741,-44.67992 -9.3723,-9.8804 -18.7058,-12.55624 -43.7971,-12.55624 l -14.2697,0 0,41.00112 0,41.00112 20.1704,-0.37612 c 18.8688,-0.35184 20.5319,-0.55945 25.7711,-3.21703 z"
       id="path4285"
       inkscape:connector-curvature="0" />
    <path
       style="fill:#000000"
       d="m 1272.8974,515.59008 c -3.75,-0.51559 -10.3978,-2.01712 -14.7728,-3.33676 -4.375,-1.31964 -9.2154,-2.70342 -10.7564,-3.07508 -1.5411,-0.37166 -5.718,-2.38482 -9.2821,-4.47369 -3.5641,-2.08887 -6.964,-3.79794 -7.5552,-3.79794 -1.9626,0 -17.764,-13.20274 -24.1108,-20.14558 -6.9016,-7.54977 -13.6364,-16.63373 -13.6364,-18.393 0,-0.62378 -1.4835,-3.65019 -3.2967,-6.72536 -3.0462,-5.16638 -6.8877,-17.34755 -9.3778,-29.73606 -1.5518,-7.72052 -1.133,-30.35702 0.7043,-38.06819 3.8216,-16.03929 5.0655,-19.79039 9.4206,-28.40909 2.5266,-5 5.923,-10.625 7.5476,-12.5 1.6246,-1.875 2.9544,-3.84533 2.9552,-4.37852 0,-0.99106 6.7525,-8.47051 10.7398,-11.89845 1.2186,-1.04767 3.597,-3.3111 5.2854,-5.02985 1.6884,-1.71875 3.5039,-3.12562 4.0344,-3.12638 0.5305,-7.7e-4 2.3896,-1.22704 4.1314,-2.72505 1.7418,-1.49801 8.0457,-5.14491 14.0086,-8.10422 19.1802,-9.51889 46.4044,-13.15157 67.0995,-8.95348 4.8988,0.99372 10.6966,2.1827 12.8841,2.64218 5.7387,1.2054 22.6173,8.9245 27.2727,12.47267 2.1875,1.66723 5.2557,3.85677 6.8182,4.86563 3.6766,2.37391 18.1738,16.40334 18.2082,17.62073 0.014,0.51311 1.8043,2.907 3.9773,5.31976 2.173,2.41277 3.9509,4.88354 3.9509,5.49061 0,0.60707 1.7335,4.06154 3.8522,7.67659 4.1131,7.01799 8.8926,22.06736 10.8458,34.15051 5.2825,32.68081 -7.0468,69.74426 -30.8489,92.73527 -5.8084,5.61045 -18.2392,15.21928 -19.6889,15.21928 -0.3903,0 -3.7634,1.78977 -7.4958,3.97727 -3.7324,2.1875 -7.51,3.97727 -8.3947,3.97727 -0.8847,0 -5.4281,1.24681 -10.0964,2.77069 -14.5447,4.74788 -29.1893,6.05275 -44.4233,3.95824 l 0,0 z m 37.7758,-29.0282 c 13.6125,-5.53373 30.0925,-16.12637 31.7306,-20.39513 0.3498,-0.9117 2.0901,-3.21412 3.8671,-5.1165 1.7771,-1.90237 3.9476,-4.8351 4.8232,-6.51716 6.7094,-12.88814 8.1263,-16.16555 8.9374,-20.67194 0.5062,-2.8125 1.4126,-7.41477 2.0141,-10.22727 1.7722,-8.28621 1.3512,-22.96552 -1.0078,-35.13474 -5.1573,-26.60425 -24.1725,-48.68156 -49.5041,-57.4757 -10.6743,-3.70573 -29.1045,-5.09615 -39.286,-2.96384 -10.7665,2.25482 -23.1438,7.48947 -27.6896,11.71054 -1.2116,1.12506 -2.6384,2.04556 -3.1707,2.04556 -0.5323,0 -3.8876,3.14642 -7.4562,6.99205 -3.5686,3.84563 -7.3602,7.91352 -8.4259,9.03976 -3.0687,3.24334 -12.267,22.68678 -12.267,25.93023 0,1.61663 -0.5286,4.72572 -1.1746,6.90909 -1.7572,5.93902 -1.4793,27.68707 0.4907,38.40198 3.2902,17.89565 13.7723,34.52292 29.093,46.14915 8.3927,6.3689 21.6512,12.22786 30.0563,13.28196 10.2466,1.28505 33.9174,0.0957 38.9695,-1.95804 l 0,0 z"
       id="path4287"
       inkscape:connector-curvature="0" />
    <path
       style="fill:#000000"
       d="m 1422.3292,405.58831 0,-103.27284 13.3523,-0.77883 c 7.3437,-0.42835 14.2471,-1.03549 15.3409,-1.34919 1.8817,-0.53971 1.9886,4.1673 1.9886,87.5744 l 0,88.14476 46.5909,0 c 39.0228,0 46.5909,0.25663 46.5909,1.57988 0,0.86894 -1.7897,5.20135 -3.9772,9.62758 -2.1875,4.42623 -3.9773,8.59024 -3.9773,9.25334 0,0.66312 -1.287,3.74548 -2.8601,6.8497 l -2.86,5.64404 -55.0945,0 -55.0945,0 0,-103.27284 z"
       id="path4289"
       inkscape:connector-curvature="0" />
    <path
       style="fill:#000000"
       d="m 1595.6246,511.03641 c -1.875,-0.57116 -6.269,-1.50857 -9.7644,-2.08312 -3.4955,-0.57456 -8.4678,-1.61347 -11.0497,-2.3087 l -4.6943,-1.26404 2.9484,-6.49833 c 1.6216,-3.57409 4.8816,-10.58925 7.2445,-15.58925 2.3629,-5 6.4295,-13.94886 9.0369,-19.88636 2.6075,-5.9375 5.7011,-12.84091 6.8748,-15.34091 8.2833,-17.64412 12.472,-27.2175 12.472,-28.50478 0,-0.82276 -0.6767,-1.90486 -1.5039,-2.40467 -0.8271,-0.4998 -5.5053,-6.02237 -10.3959,-12.27237 -4.8906,-6.25 -9.5832,-11.93138 -10.4279,-12.62528 -0.8448,-0.6939 -1.5359,-1.74069 -1.5359,-2.32619 0,-0.58551 -2.0455,-3.06189 -4.5455,-5.50308 -2.5,-2.44118 -4.5617,-4.97394 -4.5815,-5.62835 -0.02,-0.6544 -1.8096,-2.95499 -3.9773,-5.1124 -2.1676,-2.15742 -3.9412,-4.58639 -3.9412,-5.39773 0,-0.81133 -0.3945,-1.47515 -0.8766,-1.47515 -0.4822,0 -3.6562,-3.56548 -7.0535,-7.92328 -3.3973,-4.3578 -6.8381,-8.17698 -7.6461,-8.48706 -0.8081,-0.31009 -1.4692,-1.27506 -1.4692,-2.1444 0,-0.86934 -1.7843,-3.31437 -3.9652,-5.43339 -2.1808,-2.11903 -3.9706,-4.39167 -3.9773,-5.05032 -0.01,-0.65865 -1.8018,-2.93225 -3.9893,-5.05246 -2.1875,-2.12021 -3.9773,-4.26598 -3.9773,-4.76837 0,-0.5024 -1.0688,-1.98228 -2.3752,-3.28862 l -2.3752,-2.37518 4.7819,-4.15892 c 19.2296,-16.72442 17.6811,-15.84315 21.0589,-11.98416 1.579,1.80388 3.9995,4.73934 5.3789,6.52322 3.4177,4.41996 10.3572,13.07113 13.8057,17.21112 8.4374,10.12931 27.6683,34.25841 29.7606,37.34091 1.3321,1.9625 3.7611,4.80788 5.3977,6.32308 1.6367,1.5152 2.9758,3.20248 2.9758,3.74951 0,0.54703 1.7898,2.83747 3.9773,5.08987 2.1875,2.2524 3.9772,4.52819 3.9772,5.05731 0,2.11265 3.3043,0.79723 4.0061,-1.59477 0.6738,-2.29677 5.5311,-12.82754 10.8761,-23.57955 1.0874,-2.1875 7.6877,-16.25 14.6674,-31.25 6.9797,-15 12.8538,-27.43731 13.0535,-27.63846 1.2182,-1.22656 26.2298,10.39394 26.0836,12.1185 -0.2461,2.90112 -2.6027,8.74798 -6.3512,15.75766 -2.4095,4.50574 -4.3809,8.74828 -4.3809,9.42788 0,0.6796 -1.8483,5.17491 -4.1072,9.98958 -7.6047,16.20851 -9.3801,20.09505 -11.7855,25.79939 -2.3155,5.49139 -4.1755,9.50702 -12.9514,27.96222 -2.2608,4.75422 -4.1082,9.10082 -4.1054,9.65909 0,0.55828 -1.7133,4.5946 -3.8137,8.9696 -2.1003,4.375 -5.9997,12.8125 -8.6654,18.75 -2.6656,5.9375 -6.5057,14.375 -8.5335,18.75 -2.0277,4.375 -5.6091,12.30113 -7.9585,17.61363 -2.3495,5.3125 -5.9611,13.23864 -8.0259,17.61364 -2.0648,4.375 -4.5318,9.87216 -5.4822,12.21591 -1.8079,4.45828 -2.5213,4.72511 -8.0941,3.02753 l 0,0 z"
       id="path4291"
       inkscape:connector-curvature="0" />
  </g>
  <g
     inkscape:groupmode="layer"
     id="layer3"
     inkscape:label="mask"
     transform="translate(0,14.403106)">
    <rect
       style="fill:#ffffff"
       id="rect4492"
       width="600.98657"
       height="45.102188"
       x="579.56311"
       y="245.89812" />
  </g>
  <g
     inkscape:groupmode="layer"
     id="layer1"
     inkscape:label="touhou"
     style="display:inline"
     transform="translate(-11.192891,37.405519)">
    <text
       xml:space="preserve"
       style="font-size:323.07925415px;font-style:normal;font-weight:normal;line-height:125%;letter-spacing:0px;word-spacing:0px;fill:#000000;fill-opacity:1;stroke:none;font-family:Sans"
       x="591.01794"
       y="235.09637"
       id="text4399"
       sodipodi:linespacing="125%"><tspan
         sodipodi:role="line"
         id="tspan4401"
         x="591.01794"
         y="235.09637">東方</tspan></text>
  </g>
</svg>
